<svg width="383" height="326" viewBox="0 0 383 326" fill="none" xmlns="http://www.w3.org/2000/svg">
<g clip-path="url(#clip0_131_770)">
<path d="M256.7 299.1C257.3 300.9 255.8 302.4 254.6 303.6C254.8 302.8 255.1 302 255.3 301.2C255 300.6 254.6 300 254.3 299.5C254.3 298.8 254.4 298.1 254.4 297.4C254.7 298.4 255.6 298.9 256.7 299.1Z" fill="#497285"/>
<path d="M252.5 302.8C252.7 303.2 253.1 303.9 253.3 304.2C245.8 309.5 239.2 316.3 231.2 321C229.7 323.5 227.2 325 224.5 325.8C217.4 325.9 211.5 321.1 206.7 316.2C205.3 315.8 204 315.2 202.7 314.7C202.4 313.9 202.2 313 201.9 312.1C200.3 312.6 198.7 313.4 200.1 310.9C199.6 310.6 199.1 310.4 198.6 310.1C198.9 310.4 199.4 310.9 199.7 311.2L198.6 312.2C198.3 311.8 197.7 311.1 197.4 310.7C180.4 303.3 165.5 291 151 279.5C145.9 274.5 140.3 270.1 135.4 264.9C133.1 262.5 133.8 259.1 134 256.1C134.3 256.3 134.9 256.7 135.2 256.9C134.6 255.7 134.5 254.2 133.5 253.2C134.6 250.6 133.3 247.3 132.4 244.7C132.2 245 131.7 245.7 131.5 246C131.9 245.2 132.2 244.3 132.4 243.5C132.7 244.8 133.3 246 133.8 247.1C135.2 245.3 132.8 244 135 241.9C135.1 242 135.2 242.3 135.3 242.4C135.1 242.8 134.7 243.5 134.5 243.9C134.8 244.8 135.2 245.6 135.8 246.3C136.6 245.2 136.4 244.4 135.2 243.8C136.1 244.1 137.1 244.3 138 244.4C137.7 244 137.2 243.1 136.9 242.7C137.1 242.6 137.6 242.3 137.8 242.2C137.9 242.9 137.9 243.5 138 244.2C138.6 244.3 139.1 244.5 139.7 244.7C139.1 245.5 138.4 246.2 137.8 247C138.1 247.3 138.6 248 138.8 248.4C138.8 247.8 138.9 247.3 138.9 246.7C139.4 247.1 139.9 247.5 140.3 247.8C140.7 245.9 141.8 244.2 141.8 242.2C142.2 242.1 143.2 242 143.6 241.9C143 241.2 142.4 240.5 141.8 239.8C141.8 239.6 141.7 239.2 141.7 239C142.9 239.7 144.2 240.3 145.4 241.1C145.7 240.9 146.2 240.6 146.5 240.4C147.8 241.1 149.2 241.8 150.6 242.3C150 243.3 149.4 244.1 148.7 245.1C150.4 243.9 151.8 242.1 153.9 241.5C152.9 241 152 240.6 151.1 240C151.9 240 152.6 240 153.4 240.1C153.7 240.4 154.3 241.1 154.6 241.4C154.1 242 153.5 242.5 152.9 243.1C153.1 243.1 153.7 243.2 153.9 243.2C154.3 242.8 154.6 242.4 154.9 242C155.8 242.3 156.6 242.7 157.4 243C156.7 242.4 155.9 241.8 155.2 241.2C156.3 241.2 157.5 240.9 158.4 241.7C158.3 242.7 157.9 243.5 157.4 244.3C157.7 244.6 158.2 245.1 158.4 245.3C158.5 244.5 158.6 243.8 158.7 243L159.3 243.6C159.3 243.3 159.2 242.8 159.1 242.6C159.2 242.4 159.4 241.9 159.5 241.7C164.4 243.4 168.3 248 173.2 249.4C169.9 246 165 244.4 161.4 241.3C159.1 241.6 156.9 240.6 154.7 239.8C155.8 239 157.1 238.6 158.4 238.3C158.8 238.9 159.2 239.5 159.6 240.1C161 239.6 162.4 240.6 163.9 240.1C166.7 243 170.5 244.5 173.8 246.6C173.7 246.1 173.6 245.2 173.6 244.8C174.6 245.4 175.6 245.9 176.6 246.6C177.2 246.1 177.7 245.6 178.3 245.1C177.5 245 176.6 244.8 175.7 244.7C175.5 243.5 174.9 242.4 174.4 241.4C174.3 241.7 174 242.2 173.8 242.4C173.2 241.9 172.6 241.4 172 240.9C170.9 240.1 169.9 237.5 168.6 239.3C168.7 239 168.9 238.3 169 238C168.1 238.1 167.2 238 166.3 237.8C166.9 237.6 167.4 237.5 168 237.3C169.1 237.8 170.1 238.2 171.2 238.7C171 238.2 170.5 237.3 170.3 236.8C169.5 236.4 168.7 235.9 167.9 235.4C168.3 235.2 169.1 234.8 169.5 234.6C172.8 237.8 176.1 241 179.7 243.9C174.9 239.4 170.6 233.7 165.1 230.2C166.3 231.7 167.8 233.1 169.2 234.4L167.8 235.2C167.2 234.4 166.5 233.5 165.9 232.7C165.7 232.7 165.4 232.7 165.2 232.6C164.5 229.7 160.3 228.5 160.5 225.2C162.2 226.6 163.1 229 165.3 229.9C164.6 228.9 163.9 228 163.1 227.1C163.2 226.8 163.3 226.2 163.4 225.9C163.2 226.1 162.7 226.4 162.4 226.6C161.3 224.3 158.9 222.8 158.2 220.3C158.1 220.4 157.8 220.6 157.7 220.7C157.4 220.2 156.8 219.3 156.5 218.9C155.4 220.6 158.3 221.6 158.8 223C157.2 222.7 156.5 221 155.4 220C155 219.3 153.7 218.6 154.2 217.7C154.9 218 155.6 218.4 156.4 218.4C156 218 155.5 217.6 155 217.2C154.9 216.9 154.7 216.2 154.7 215.8C154.5 216.1 154.2 216.8 154 217.1C152 217.3 153.2 212.5 146.6 210.2L146.4 210.4C146.5 210.8 146.7 211.5 146.8 211.8C145.6 211 144.5 210.1 143.5 209C144.2 209.2 144.9 209.8 145.6 209.9C145.1 209.1 144.4 208.2 143.3 208.5C142.9 207.7 142.6 206.9 142.2 206.1C140.8 205.5 139.8 204.3 138.9 203.1C138.7 204 138.5 204.9 138.3 205.8C138.1 205 137.9 204.3 137.7 203.5C137.2 203.1 136.6 202.6 136 202.2C136.2 202.7 136.7 203.6 137 204C136 203.5 135 203.1 133.9 202.6C134.6 202.2 135.2 201.8 135.8 201.4C135.5 201.4 134.8 201.3 134.5 201.2C134.3 200.8 133.9 200.1 133.6 199.7L133 200.6C132.2 199.1 130.9 198 129.6 197L129.4 197.2C129.6 197.6 130 198.4 130.2 198.8C126.8 196.9 123.1 194.1 120.1 191.4C122.4 191.8 123.7 194.1 126 194.8C124.7 193 122.6 192.1 121.3 190.3C121.2 190.4 120.9 190.5 120.7 190.6C120.2 189.8 119.6 189 118.6 188.9L118.4 187.4C117.8 188 117.3 188.7 116.9 189.5C113.8 185.7 109.6 183 106.3 179.4C107.2 179.1 108 178.6 108.7 177.9C107.6 177.7 106.5 177.6 105.5 178.1C105.4 178 105.1 177.7 105 177.5C105.8 177.3 106.7 177 107.5 176.8C107.1 176.6 106.4 176.1 106.1 175.8C106.7 175.6 107.3 175.4 107.8 175.2C107.4 175.1 106.6 174.8 106.3 174.7C107.8 173.5 108.7 171.3 110.7 170.8C111.7 168.5 113.6 166.8 115.5 165.2C115.8 165.8 116 166.4 116.3 167L116.6 166.6C116.8 167.1 117.3 168 117.5 168.4C117.5 167.7 117.5 166.9 117.6 166.2L116.7 166.7C116.3 166 115.9 165.3 115.5 164.6C117.7 162.6 119.6 160.4 122.1 158.8C122.2 158.2 122.4 157.5 122.5 156.9C123.7 158 124.9 159.2 126.1 160.3L125 161.1C124.3 160.2 123.5 159.2 122.6 158.3C122.6 159.9 123.6 162.2 125.4 162.5C125.6 161.3 126.5 160.6 127.6 160.3C126.2 159.2 124.8 158 123.6 156.6C123.8 156.3 124.1 155.7 124.2 155.4L125.2 156C125.3 155.9 125.5 155.8 125.6 155.7C125.5 155.3 125.4 154.8 125.6 154.4C126.6 156.1 127 158.2 128.5 159.5C129 159 130 158.2 130.4 157.7L129.6 156.5C129.3 156.8 128.7 157.5 128.4 157.9C128.3 157.8 128 157.5 127.9 157.4C128.3 157.2 129 156.9 129.4 156.7C128.5 155 126.9 154.1 125.4 153.1C125.6 153 125.9 152.7 126.1 152.6C125.3 151.9 124.6 151.1 123.8 150.4C124.9 150.8 125.9 151.2 127 151.6C126.3 151 125.5 150.3 124.8 149.6C125.8 149.7 126.8 149.9 127.7 150C127.1 149.3 126.5 148.5 125.9 147.8C128.2 145.9 129.5 142.8 132.5 141.8C132.7 139.8 134.4 138.5 135.6 137.2C140.4 132.2 144.9 127 149.4 121.8C148.8 121 148 120.2 147.8 119.1C148.9 119.7 149.9 120.2 151 120.8C150.1 119.9 149.2 119 148.3 118.1C149.4 118.4 150.5 118.7 151.6 119.1C151 118.2 150.4 117.4 149.7 116.5C152 114.4 153.6 111.5 156.4 109.9C158.2 106.7 161.1 104.4 163.4 101.5C163.8 101.4 164.2 101.3 164.5 101.2C164.9 99.5 166.2 98.2 167.8 97.6L167 97.4C170.1 93.9 173.6 90.7 176.5 87C176.7 87.3 177.1 87.8 177.3 88.1C177 85.3 179.6 83.9 181.6 82.6C181.8 81.2 182.8 80 183.7 78.9C184.1 79.1 185 79.6 185.4 79.8C185.4 79.3 184.1 77.5 185.2 77.6C185.6 78.2 186.1 78.5 186.8 78.4C186.6 78.5 186.2 78.8 186 78.9C186.3 79.7 186.6 80.5 186.9 81.3C188.9 80 190.6 78.3 192.2 76.7C192.7 76.9 193.2 77 193.7 77.2C193.4 77.1 192.8 76.8 192.5 76.7C198.8 69.7 205.8 63.5 212.4 56.8C207.7 50.8 202.6 44.3 200.7 36.8C212.4 23.6 226.3 12 238.4 -0.900024C238.5 -0.200024 238.5 0.399976 238.5 1.09998C238.9 0.999976 239.8 0.699976 240.3 0.599976C240.5 0.999976 240.9 1.59998 241 1.99998C241.8 2.19998 242.6 2.49998 243.3 2.99998C243.4 2.79998 243.7 2.49998 243.9 2.29998C243.8 3.59998 244.7 4.79998 246 4.89998C245.6 5.09998 244.9 5.49998 244.5 5.69998C247.4 6.19998 249 8.39998 251.3 9.99998C251.3 10.4 251.3 11.2 251.3 11.6C251.7 11.4 252.6 11 253.1 10.8C253.1 13.9 256.6 15.6 258.9 17.2C260 19.4 262.2 21 264.7 21C264.3 21.3 263.6 22 263.2 22.3C264.1 22.3 264.9 22.2 265.8 22.2C265.7 22.5 265.4 23.2 265.3 23.5C265.6 23.6 266.3 23.7 266.7 23.7C267 24.4 267.2 25.1 267.5 25.7C268.3 26.2 269.1 26.7 269.8 27.3C270.1 27 270.8 26.5 271.1 26.2C270.9 26.5 270.5 27.2 270.2 27.5C270.5 27.8 271 28.5 271.3 28.8C271.4 28.5 271.7 28 271.8 27.7C272.2 29.7 275.1 29.8 274.9 32C275.1 32 275.5 32.1 275.7 32.2C277.4 33.9 279.4 35.5 280.9 37.4L281.7 36.7C281.8 37.1 282 38 282 38.5L282.8 37.3C282.8 37.9 282.9 39 283 39.5C287.5 42.6 291.3 46.4 295.9 49.6C295.6 49.8 295.1 50.1 294.8 50.3C295.1 50.4 295.7 50.5 296.1 50.5C297.6 53.4 301.1 54 302.9 56.4C303.2 56.3 303.9 56.2 304.2 56.1C304.2 56.6 304.2 57.2 304.2 57.7C305.9 58.9 306.7 61.7 308.9 61.8C309.1 62.3 309.6 63.3 309.8 63.8C310 63.6 310.4 63.2 310.6 63C310.9 63.4 311.4 64.2 311.7 64.6C312.3 64.4 312.8 64.2 313.3 64L311.7 65.2C312.2 65.3 313.2 65.6 313.7 65.7C313.4 65.9 312.9 66.2 312.7 66.4C317 70 320.4 75 325.4 77.6C326 79.2 327.1 80.5 328.5 81.5C329.6 84.9 334.1 85.9 334.8 89.6C332.9 91.9 331.3 88.6 329.9 87.5C330.1 87.3 330.5 86.8 330.7 86.5C328.7 88 328.4 85 327.2 84C326.6 84.2 326 84.5 325.4 84.7C327.3 87.8 331 89.2 331.6 92.8C331.9 92.6 332.4 92.3 332.7 92.1C332.5 92.9 332.4 93.7 332.2 94.4C331.4 93.8 330.6 93.2 329.8 92.8C331.1 94.7 332.9 96.2 334.7 97.7C334.5 96.8 334.2 95.9 334 95C333.5 94.8 332.9 94.6 332.4 94.4C333.9 93.8 335.5 92.7 333.5 91.3C334.1 90.8 334.7 90.3 335.2 89.8C338.5 92.2 340.5 95.9 343.7 98.2C343.7 98.6 343.8 99.3 343.8 99.6C344.1 99.6 344.7 99.7 345 99.7C346.3 102.2 347.9 104.9 350.5 106.3C350.5 107.9 349 108.1 347.7 108.5C346.9 107.6 346.5 104.5 344.9 106.1C344.8 105.7 344.7 104.9 344.6 104.5C344.3 104.6 343.8 104.9 343.5 105.1C344.5 106.1 345.4 107.2 346.4 108.2C345.9 108.6 344.9 109.4 344.4 109.8C345.3 109.8 346.1 109.7 346.8 109.2C346.7 109.6 346.4 110.3 346.2 110.7C346.5 110.5 347.1 110.1 347.4 109.8C348 110.7 348.6 111.7 349.2 112.6C348.7 112.6 347.8 112.5 347.4 112.4C348.2 114.4 349.8 113.6 351.3 113.4C351.8 114.1 352.4 114.8 352.8 115.5C352.6 115.8 352.2 116.4 351.9 116.7C352.2 116.4 352.7 115.9 353 115.6C353.8 116.5 354.6 117.4 355.3 118.3C354.7 118.2 353.5 117.9 352.9 117.7C353 118.1 353.2 118.5 353.3 118.9C354.5 118.8 356.1 118.1 356.9 119.8C356.2 119.8 354.9 119.8 354.3 119.8C355 120.4 356 120.8 356.4 121.7C357 121.6 358.1 121.6 358.7 121.5C358.4 121.8 357.7 122.5 357.4 122.8C362.5 128.7 367.7 134.4 372 140.9C372.2 140.6 372.6 140 372.8 139.6C373.6 140.6 374.4 141.6 375.2 142.6C374.6 142 373.9 141.4 373.3 140.8C373.1 141 372.7 141.3 372.5 141.5C373.9 143 374.9 144.9 375.9 146.7C376.1 146.3 376.5 145.6 376.7 145.3C376.9 145.7 377.4 146.4 377.7 146.8C377.3 146.7 376.5 146.6 376 146.5C376.2 148.2 377.7 150.1 376.6 151.7C374.9 145.6 369.6 141.4 367.3 135.7C367 135.8 366.4 136 366.1 136.1C366.2 135.4 366.2 134.8 366.3 134.1C366 134.2 365.6 134.5 365.3 134.7C362.1 129.8 357.5 126 353.9 121.4C352.7 120.6 351.9 118.9 350.3 118.9C358.9 129.4 369.8 138.6 375 151.3C374.8 151.4 374.5 151.7 374.4 151.8C369.6 141.6 361.6 133.3 354 125.2C353.8 125.3 353.4 125.6 353.2 125.8C353.2 126.6 353.8 127.1 354.9 127.3C354.7 127.5 354.3 127.8 354 128C354.4 128.3 355.3 128.9 355.8 129.2C355.4 129.4 354.5 129.7 354.1 129.9C354.6 129.9 355.6 130 356.1 130C355.7 130.6 355.2 131.2 354.8 131.8C355.7 131.4 356.6 130.9 357.5 130.5C360.5 134.5 363.9 138.3 366.9 142.3C366.8 142.7 366.6 143.4 366.5 143.7C369.9 145.5 371 149.5 373.1 152.5C371.4 153.8 369.6 155.1 367.7 156.1C367.4 156 366.7 155.7 366.3 155.5C365.9 155.8 365.1 156.3 364.7 156.5C363.1 154.4 362 152 360.4 149.9C362.2 153.1 363.1 156.8 365.6 159.6C366 159.6 366.7 159.7 367.1 159.7C366.3 159.9 365.5 160.1 364.7 160.4C365.7 162.1 367 163.5 368.5 164.8L367.6 165C370 165.9 369.6 168.7 370.8 170.6C372.4 170.9 373 172.5 373.3 173.9C373.6 173.9 374.1 173.8 374.3 173.8C372.7 175 374.5 176.3 375.1 177.5L375.4 176.6C375.6 178.2 376.2 179.7 376.1 181.3C376.3 183.4 378 185 377.3 187.3C376.6 188.1 375.7 188.7 374.9 189.4C374.6 189.4 374 189.5 373.6 189.5C366.6 195.8 358.5 200.7 350.9 206.3C347.1 208.5 344.6 213 340 209.9C339.8 211.2 340 212.4 340.5 213.6C338.8 215.6 336.6 217.6 333.9 217.7C328.6 215.1 323.4 211.8 319.1 207.5C316.6 209.3 314.2 211.2 311.7 212.8C311.9 212 312.2 211.3 312.4 210.5C310.8 215 305.7 216.7 302.4 219.9C301.5 221 300.2 220.1 299 220C298.9 220.9 299 221.8 299.2 222.6C298.8 222.7 298.4 222.8 298.1 222.8C299.4 226.1 300.8 229.3 302 232.7C302.4 232.1 302.9 231.6 303.3 231C303.8 232.5 304.3 233.9 304.7 235.4C305.2 234.9 305.7 234.5 306.1 234C305.6 233 305.2 232 304.9 231C305.7 231.2 306.4 231.4 307.1 231.7C308.9 235.1 309.7 239.1 309 243C302.5 247.8 295.7 252.8 289.8 258.1C289.4 257.6 289 257 288.5 256.5C287.9 257 287.3 257.4 286.7 257.9C286.6 258.2 286.5 258.7 286.5 258.9C286.8 258.1 287.5 257.6 288.3 257.4C288.5 257.6 288.8 258.1 288.9 258.3C286.4 260.4 283.9 262.4 281.1 264.2C280.4 264 279.7 263.7 278.9 263.8C278.9 264.2 278.9 265 278.9 265.4L278.2 265.5C278.9 266.2 279.5 266.8 280.2 267.5C279.8 267.6 279.5 267.7 279.1 267.8C278.9 267.3 278.6 266.7 278.4 266.2C277.6 267.2 276.8 268.2 275.9 269.1C277.8 269.1 278.4 271.3 279.5 272.5L278.6 273.4C277.8 272.4 276.9 271.3 276.9 270C276.4 271.5 277.1 272.8 278.2 273.8C277.3 276.6 273.8 276.6 272.3 279C270.3 281.4 267.7 283.1 264.9 284.5C264.7 284.3 264.4 283.8 264.3 283.6C264 283.7 263.4 284 263.1 284.1C263.6 284.2 264.5 284.5 264.9 284.6C264 285.6 262.6 286.8 261.6 285.2C262.1 285.7 262.5 286.1 263 286.6C261.6 288 260 289.1 258.1 289.9C257.6 291 256.6 291.5 255.5 291.9C255.2 291.7 254.6 291.3 254.4 291.1C254.1 291.2 253.4 291.4 253.1 291.5C253.6 294 252 295.5 250.3 297.1C251.4 297.4 253.3 298.3 251.6 299.3C252.8 299.3 253.3 300.4 253.9 301.2C253.8 302.5 252.9 302.7 252.5 302.8ZM249.6 299.3C249.5 298.4 249.1 298.2 248.4 298.6C248.5 299.5 248.9 299.7 249.6 299.3ZM306.5 235.9C305.5 236.6 304.5 237.4 303.4 238.1C303.7 239.3 304.7 239.2 305.7 239C306.6 240.7 305.6 243 307.5 244.2C307.8 241.4 307.1 238.6 306.5 235.9ZM373.1 183C373 183.3 372.9 184 372.9 184.3C372.7 184.3 372.2 184.2 372 184.2C372.1 184.7 372.3 185.6 372.4 186.1C371.9 185.9 371 185.5 370.5 185.4C370.5 185.6 370.6 185.9 370.6 186.1C371.9 185.9 373.2 187.2 374.2 185.9C374.3 186.7 374.5 187.5 374.8 188.2C375.8 186.3 374.7 184.2 373.1 183ZM238.2 297.2C238.2 296.2 237.9 296 237.1 296.5C237.1 297.4 237.5 297.7 238.2 297.2ZM303.1 243.9C303.1 243 303.2 241.6 302.3 241.2C301.1 241.4 302.6 245.4 303.1 243.9ZM232.8 299.2C232.8 298.3 232.4 298 231.6 298.5C231.6 299.5 232 299.7 232.8 299.2ZM368.8 188.6C368.5 187.7 368.1 187.7 367.6 188.4C368 189.3 368.4 189.4 368.8 188.6ZM237.6 295.3C236.7 292.6 234.3 291 232.7 288.8C232 289.3 231.4 289.9 230.7 290.4L231.5 290.9L232.2 289.8C233.8 291.9 235.2 294.2 237.6 295.3ZM300.7 242.1C299.5 239.5 298.9 236.8 298 234.2C298.1 234.1 298.3 233.9 298.4 233.8C300.9 235 300.5 238.4 301.6 240.6C301.8 240.3 302.2 239.8 302.4 239.5C301.6 238.5 301.2 237.3 301.4 236C301.2 235.7 300.9 235.5 300.6 235.3C300.7 231.5 297.2 228.9 297.8 225.2C297.3 225.4 296.9 225.7 296.4 225.9C296.8 228.3 298.3 230.3 298.9 232.6C298.7 232.7 298.3 233 298.1 233.1H297.7C296.9 231 296.1 228.8 295.2 226.8C294.8 226.9 294.1 227.1 293.8 227.3C295.2 229.2 296.7 231.5 295.9 234C296.1 234.2 296.6 234.5 296.9 234.6C296.5 234.9 295.7 235.6 295.3 235.9C296.2 235.6 297 235.2 297.9 234.9C297.9 237 298.5 238.9 298.9 240.9C299.1 241 299.5 241.2 299.8 241.3C299.7 241.6 299.4 242.2 299.3 242.5C299.7 242.3 300.2 242.2 300.7 242.1ZM372.6 182.4C372.4 182.3 371.9 182 371.7 181.9C372.9 180.2 371.3 178.6 369.9 177.6C370.1 177.5 370.5 177.2 370.7 177.1C368.7 175 368.4 171.9 366.4 169.8C366.6 169.6 366.9 169.2 367.1 169C364.6 167.6 364.7 164.2 362.2 162.8C362.5 162.6 363 162.3 363.3 162.2C362.7 161.4 362.1 160.6 361.4 159.8C360.8 160.2 360.1 160.6 359.4 161C361 163.4 362.6 165.8 364.9 167.5C364.6 167.8 364.1 168.3 363.9 168.6C365.4 167.3 366.2 168.5 366 169.9C365.6 169.8 364.9 169.5 364.5 169.4C365.2 170.4 365.9 171.3 366.6 172.3C366.6 172.6 366.5 173.2 366.4 173.5C366.7 173.2 367.2 172.6 367.5 172.3L368.2 173.2C366.9 173.9 367.4 175.1 367.9 176.2C368.1 176 368.5 175.5 368.6 175.3L369.7 176.6L368.6 177C369.2 177.5 369.9 178.1 370.5 178.6C370.4 179 370.1 179.9 369.9 180.4C370.2 180.1 370.8 179.5 371.1 179.2L371.8 180.1C371.5 180.4 371 180.9 370.8 181.1C371 181.9 371.2 182.6 371.4 183.4C371.7 183.2 372.3 182.7 372.6 182.4ZM224 291.9C218.8 287.2 213.6 282.7 208.1 278.4C207.7 278.7 207 279.2 206.6 279.5C207.2 279.5 208.3 279.5 208.9 279.5C208.8 279.8 208.6 280.4 208.6 280.7C209.8 281 210.8 281.7 211.8 282.3C211.6 282.7 211.3 283.4 211.2 283.8C211.5 283.6 212 283.1 212.2 282.9C212.7 283.3 213.7 284.2 214.2 284.6C213.9 285.3 213.7 286.1 213.4 286.8C214 286.2 214.7 285.5 215.3 284.9C215.5 285.6 215.8 286.3 216 287C216.2 286.9 216.7 286.7 216.9 286.6C217.2 287.2 217.3 288.4 218.4 287.8C218.9 288.5 219.5 289.1 220 289.8C219.8 290.1 219.5 290.6 219.3 290.8C220 290.6 220.6 290.5 221.3 290.3C221.4 290.9 221.5 291.5 221.5 292.1C221.8 291.9 222.3 291.6 222.5 291.5L223.1 292.5C222.8 292.7 222.3 293 222.1 293.2C222.8 293.1 223.4 293.1 224.1 293C224.7 293.7 225.3 294.5 225.6 295.4C226.2 295.2 226.9 295 227.5 294.7C225.6 294.9 225.2 292.8 224 291.9ZM228.8 293.8C228 292.7 227.1 291.7 226.2 290.7C226.3 290.5 226.6 290.2 226.7 290C226.4 290 225.9 290.1 225.6 290.1C217.1 282.3 208.2 275.1 199.2 267.9C199.3 268.4 199.4 268.9 199.4 269.4C209.8 276.9 219.1 285.7 228.8 293.8ZM232.1 288.4C229 285.1 225.2 282.8 221.5 280.2C221.5 282.7 224.5 283.4 225.6 285.4C224.9 285.3 224.2 285.2 223.5 285.1C224.3 286.4 225.3 286.5 226.3 285.4C227.3 287.2 229 288.4 230.6 289.6C230.9 289.4 231.7 288.8 232.1 288.4ZM363.9 178.8C364 177.8 363.4 175.5 362.2 175.9C362.3 176.9 362.9 178.7 363.9 178.8ZM354.5 161.5C354.3 161.4 353.9 161.1 353.8 161C353.7 160.6 353.4 159.9 353.2 159.6C354.9 164.1 357.6 168.4 360.7 172.2C358.7 168.5 356.5 165 354.5 161.5ZM361.2 166.4C361.3 165.6 360.8 164.7 360.1 164.3C359.1 164.7 360.4 166.7 361.2 166.4ZM359.7 163.5C359.7 162.5 359.3 162.3 358.6 162.8C358.6 163.8 359 164 359.7 163.5ZM211.8 274.2C210.6 273.3 209.4 272.4 208.2 271.4C208.1 271.5 207.8 271.8 207.7 271.9C210.1 273.5 212.2 275.5 214.4 277.2C213.8 276 213 274.9 211.8 274.2ZM207.6 278C204.9 275.8 202.4 273.5 199.4 271.7C199.4 272.7 199.9 273.2 200.9 273.2C201.3 274 201.6 274.8 202 275.6C202.3 275.5 202.8 275.3 203.1 275.2C203.5 275.6 204.3 276.5 204.7 277C204.4 277.4 204.1 277.8 203.8 278.2C204.2 277.9 204.9 277.4 205.3 277.1C205.5 277.5 205.8 278.4 206 278.9C206.5 278.6 207 278.3 207.6 278ZM199.3 271.7C199.3 270.8 197.8 270.1 197.2 270.7C197.4 271.5 198.7 272.5 199.3 271.7ZM197.2 270C196.4 269.3 195.6 268.6 194.7 268C194.3 268.5 193.9 269.1 193.5 269.6C194.2 269.3 194.9 268.5 195.6 269.2C195.4 269.5 195.1 270.2 194.9 270.5C195.7 270.4 196.5 270.2 197.2 270ZM198.3 267.7C198.3 267 197.5 266.1 196.7 266.4C196.1 267.1 197.8 268.5 198.3 267.7ZM198.8 263.5C197.9 262.9 196.9 262.3 196 261.7C196.4 262.8 197.4 263.4 198.3 264.1C198.4 263.9 198.7 263.6 198.8 263.5ZM196.4 266.4C194.6 264.2 192.2 262.5 190 260.9C190.2 260.7 190.5 260.3 190.7 260.1C190.5 260.3 190.1 260.6 189.9 260.8C186.5 258.5 183.6 254.9 179.5 254C185.2 257.9 190.4 262.9 196.4 266.4ZM193.8 267.6C191.9 265.6 189.5 264 187.3 262.2C184.1 260.6 182 257.3 178.6 256.4L179.3 255.7C178 255.3 176.7 254.4 175.4 255.1C176.7 255.8 178.4 256 179.2 257.4C180.9 257.8 181.7 259.8 183.4 260.4C183.3 260.7 183.2 261.3 183.1 261.6C183.4 261.4 183.9 261.1 184.1 260.9C184.5 261.7 184.9 262.4 185.3 263.2C185.5 262.9 185.9 262.2 186.1 261.9C187.2 263.4 189.6 264.2 189.6 266.3C189.8 266 190.1 265.4 190.3 265.1C191 266.5 192.3 267.3 193.8 267.6ZM354.1 125.6C343.5 116.1 334.8 104.1 323.8 95.1C324.8 96.2 325.8 97.2 326.9 98.3C326.6 98.9 326.4 99.5 326.1 100.1C326.4 99.8 327.1 99.2 327.5 98.9C327.8 99.3 328.5 100.1 328.8 100.5C328.5 100.6 327.9 100.9 327.5 101C328.2 101.1 328.8 101.4 329.4 101.9C329.8 101.9 330.5 102 330.9 102C330.7 102.5 330.4 103.5 330.2 104C330.6 103.7 331.3 103.1 331.6 102.7C331.9 103.5 331.8 104.3 331.4 105.1C331.7 104.8 332.4 104.3 332.8 104C332.8 104.4 332.9 105.1 332.9 105.5C334.4 105.9 335.2 107.2 336.2 108.2C335.9 108.5 335.4 109 335.1 109.3C335.6 109.2 336.7 109 337.2 108.9C337.1 109.3 336.8 110.2 336.6 110.7C336.9 110.4 337.5 109.8 337.8 109.5C338.3 110.4 338.1 111.3 337.2 112C337.3 112.1 337.4 112.2 337.4 112.3C337.8 111.9 338.5 111.2 338.8 110.9L339.9 112.1C339.5 112.5 338.6 113.2 338.1 113.5C338.8 113.1 339.5 112.8 340.1 112.4C341.2 113.7 342.4 114.9 343.3 116.4C343.5 116.4 343.9 116.5 344.1 116.6C345.1 118.1 347.3 119.2 347.1 121.2C349.9 121.3 350.6 124.7 352.8 125.7C353.2 125.9 353.8 125.7 354.1 125.6ZM350.6 119.5C340.2 107.7 329.5 95.2 317.5 84.9C328.9 96 338.6 109.1 350.6 119.5ZM179.9 253.6C177.9 252.5 176.1 250.9 174 250.1C175.4 251.9 177.5 253.4 179.9 253.6ZM180.4 250.3C179.9 249.3 179.4 249.3 178.9 250.1C179.3 251.1 179.8 251.1 180.4 250.3ZM175.6 254.5C174.5 253.2 173.1 251.7 171.2 251.7C171.6 252 172.5 252.6 172.9 252.8C172.6 253.2 172.3 253.6 171.9 254C173.3 253.2 174.4 254.1 175.6 254.5ZM178.6 247.5C179.3 247 178.7 245.5 177.9 246.2C177.2 246.7 177.8 248.2 178.6 247.5ZM344.7 104.3C341.9 102.7 340.2 100.2 338.9 97.3C339 97.1 339.2 96.6 339.3 96.3C339.1 96.6 338.7 97.1 338.5 97.4C337.5 95.9 336.4 94.5 335.1 93.2C334.9 94.1 335.1 94.9 335.8 95.6C335.5 95.7 335 96 334.7 96.1C336.7 97.7 338.2 100 340.3 101.5C340.8 103.2 342.2 104.3 343.2 105.5C343.7 105.2 344.4 104.6 344.7 104.3ZM136.4 261.7C137 261.2 136.4 259.8 135.6 260.3C135 260.9 135.6 262.3 136.4 261.7ZM336.5 99.3C336.1 98.4 335.7 98.4 335.2 99.1C335.6 99.9 336 100 336.5 99.3ZM191.4 210.3C191.1 210.4 190.6 210.7 190.3 210.8C187.4 206.4 182.3 203.8 178 201C177.7 201.4 177 202.2 176.7 202.6C177.1 202.6 178 202.5 178.5 202.5C178.6 202.7 178.7 203.2 178.7 203.4C179.2 203.5 180.2 203.7 180.7 203.9C180.5 204.3 180.2 205 180.1 205.3C181.2 203.9 182.3 205.1 182.7 206.3C182.9 206.2 183.2 205.9 183.4 205.8C185.8 207.8 188.8 209.2 190.6 211.8C190.7 211.4 191.2 210.6 191.4 210.3ZM326.4 83.9C326 83.5 325.2 82.8 324.8 82.5C325 82.4 325.5 82.2 325.7 82.1C322.2 80.3 319.6 76.8 316.4 74.4C316.2 74.4 315.7 74.5 315.5 74.6C311.5 70.5 307.8 66.2 303.5 62.3C303.6 62.9 303.7 63.6 303.8 64.2C303.2 63.4 302.5 62.6 301.5 62.3C302.6 64 304.6 64.8 305.6 66.5C305.4 65.7 305.3 64.9 305.1 64.2C306 65.3 306.8 66.4 307.7 67.4C307.6 67.7 307.3 68.2 307.2 68.4C309 69.9 310.8 71.4 312.5 73C312.5 73.8 311.6 74.1 311 74.5C311.8 74.5 312.4 74.9 312.9 75.3C312.7 71 321.6 83.2 323.3 83.7C323.6 83.6 324.2 83.5 324.5 83.4C324.6 83.8 324.9 84.5 325.1 84.8L326.4 83.9ZM178.3 200.1C177.1 200.3 175.9 200.1 175 199.2C174.5 199.6 173.6 200.3 173.1 200.6C174.3 200.8 175.3 201.3 176.3 201.8C177 201.2 177.7 200.6 178.3 200.1ZM176.7 198.6C176.6 197.8 175.2 196.8 174.6 197.6C174.7 198.3 176.1 199.2 176.7 198.6ZM174.5 199.2C174.2 198.8 173.6 198.1 173.2 197.7C173.5 197.4 174.1 196.9 174.4 196.7C172.9 196 171.4 195.1 170 194.1C170.3 193.9 170.9 193.5 171.2 193.3C164.5 190 159.4 183.6 153.5 178.9C146.1 171.9 138.1 165.5 131 158.2C130.6 158.6 129.8 159.4 129.3 159.8C129.4 160.2 129.6 161.1 129.7 161.5C130.2 161.1 131.1 160.4 131.5 160C131.3 160.3 130.8 161 130.5 161.4C135.3 165.5 139.4 170.3 144.4 174.1C143.7 174.6 143.1 175.1 142.4 175.6C142.9 176.1 143.9 177 144.3 177.5C139.4 174.3 134.9 170 130.9 165.6C135.1 168.2 138.6 172.2 142.2 175.7C142.3 175.1 142.4 174.5 142.4 173.9C141.4 172.8 140.4 171.6 139.6 170.4C139.4 170.5 139.1 170.8 139 170.9C138 169.6 136.9 168.2 135.9 166.8C135.8 167 135.5 167.3 135.3 167.5C133.5 164.6 130.3 163.3 128.2 160.7C128 160.9 127.6 161.4 127.5 161.6C128.5 162.6 129.5 163.6 130.2 164.9C129.6 164.5 128.3 163.6 127.7 163.2C127.8 164.2 128.7 165.4 127.9 166.3C132.3 167.3 133.9 172 137.5 174C137.9 174.8 138.2 175.7 138.6 176.5C138.9 176.4 139.6 176.1 139.9 175.9C140.5 176.6 141.1 177.3 141.7 178C141.4 178.3 140.7 178.9 140.4 179.2C141.1 179 141.7 178.9 142.4 178.7C142.6 179.4 142.7 180 142.9 180.7C143.9 180.8 144.9 180.9 145.9 181C146.1 181.5 146.4 182.1 146.6 182.6C146.9 182.6 147.4 182.6 147.6 182.7C148.6 184 150.5 185 149.8 186.9C150.4 186.5 151 186.1 151.6 185.7C150.8 184.7 151 183.9 152.1 183.3C151.6 182.7 151.1 182.1 150.5 181.5C150.9 181.2 151.7 180.5 152.1 180.2C152.8 181.1 153.5 182.1 154.3 183C154.8 182.9 155.9 182.9 156.4 182.8C156.2 183.3 155.9 184.3 155.7 184.8C156 184.5 156.6 183.9 156.8 183.5C157.3 184.1 158.2 185.2 158.7 185.7C158.3 185.6 157.4 185.4 156.9 185.2C156.6 185.5 155.9 186.1 155.6 186.4C154.6 185.5 153.6 184.7 152.5 183.9C153.4 185 154.6 185.9 155.2 187.2C154.4 187.9 153.6 188.7 152.4 188.7C152.8 189.2 153.3 189.6 153.7 190.1C154.6 189.6 155.6 189.6 156.6 189.7C156.4 190.4 156.3 191.1 156.1 191.8C157.6 192.5 159.2 193.2 160.7 193.8C160.4 193.3 159.8 192.3 159.5 191.8C160.3 191.8 161 192.1 161.7 192.5C160.7 191 159.7 189.3 157.8 188.9C158.1 189.5 158.8 190.6 159.1 191.1C158 191 157.2 190.1 156.3 189.6C157.6 188.6 158.8 187.5 160.3 186.8C160.1 187.6 159.9 188.3 159.6 189.1C159.9 189.1 160.6 189.1 160.9 189.1C160.9 189.4 160.8 190 160.8 190.3C161.3 190.5 162.4 191 163 191.3C163 190.9 163 190.2 163 189.8C163.5 190.4 164.1 190.9 164.6 191.5C164.3 191.6 163.7 191.8 163.4 191.8C164.4 192.8 165.4 193.8 166.5 194.7C167.3 194.7 168.2 194.8 169 195.1C168.5 195.2 167.5 195.3 167 195.4C168.6 196.3 169.8 199.4 171.9 198.3C172.1 198.8 172.3 199.2 172.4 199.7C173.2 199.6 173.9 199.4 174.5 199.2ZM176.9 196.5C175.6 195.2 174.1 194.2 172.7 193C172.8 192.8 173.1 192.3 173.2 192.1C172.2 192.3 171.4 191.8 170.5 191.5C172.3 193.5 174.4 195.3 176.9 196.5ZM168 197.9C166.5 195.6 164.4 193.8 162.2 192.1C161.1 194.1 164.2 194.9 165.2 196.3C164.7 196.8 164.1 197.3 163.6 197.9C164 197.5 164.9 196.8 165.3 196.5C166 197.1 166.7 198.2 168 197.9ZM145.3 204.7C144.6 204.6 143.8 204.5 143.1 204.4C142.4 203.9 141.7 203.3 141 202.8C141.3 203.8 142.1 204.5 142.8 205.2C143.6 205.2 144.4 204.9 145.3 204.7ZM166.2 187.5C164.7 186.1 163.2 184.6 161.3 183.7C162.9 185 164.2 186.7 166.2 187.5ZM146.7 201.9C146 199.8 143.9 199 142.7 197.2C143 198 143.4 198.8 143.7 199.6C144.9 200 145.7 201 146.7 201.9ZM149.9 194.7C149.6 194.7 148.9 194.7 148.6 194.7C148 194.2 147.4 193.6 146.8 193.1C147.2 194.3 148 195.7 146.5 196.5C147.6 195.9 148.7 195.3 149.9 194.7ZM300.6 59.2C300 59.2 298.8 59.3 298.2 59.4C298.6 59.1 299.3 58.4 299.6 58.1C299.2 58.3 298.5 58.8 298.1 59C297.9 58.1 297.8 57.3 297.5 56.4C297.2 56.7 296.7 57.2 296.4 57.4C296.5 57 296.6 56.1 296.7 55.6C296.3 55.9 295.4 56.5 295 56.8C296.5 58 298 59.3 299.4 60.7C299.9 60.2 300.3 59.7 300.6 59.2ZM144.2 181.5C143.8 182.3 144.1 182.6 145 182.4C145.4 181.7 145.2 181.3 144.2 181.5ZM129.2 178.4C126.9 176.5 124.9 174.4 122.4 172.7C122.3 172.5 122.1 172 122 171.7C121.5 171.5 121 171.2 120.5 171C123.1 173.7 125.7 176.4 128.6 178.8C128.8 178.7 129 178.5 129.2 178.4ZM117.7 187.5C116.8 187.2 116.4 187.5 116.5 188.5C117.3 188.6 117.6 188.2 117.7 187.5ZM114.7 186.2C115.3 185.7 114.6 184.3 113.8 184.8C113.2 185.4 113.9 186.7 114.7 186.2ZM283.3 44.5L284.1 44.3C281.1 41.8 277.9 39.7 275.4 36.6C275.1 36.6 274.6 36.6 274.3 36.6C274.1 36.2 273.7 35.5 273.4 35.2C273.4 36 273.7 36.8 274.2 37.4C274.2 37.7 274.2 38.2 274.2 38.5C274.4 38.2 274.8 37.8 275 37.5L275.3 37.4C276.3 37.7 275.9 38.8 276 39.6C278.3 41 279.3 43.9 282 44.7L282.4 46.3C282.5 45.5 282.6 44.7 282.6 43.9C282.8 44.4 283.2 45.4 283.5 45.9C283.5 45.5 283.4 44.8 283.3 44.5ZM112.2 183.7C111.7 182.4 110.5 179.9 108.8 181.4C109.9 182.1 110.6 184.2 112.2 183.7ZM277 47.3C273.5 43.7 269.7 40.5 265.9 37.2C269.3 40.8 272.8 44.9 277 47.3ZM272.4 35.2C271.6 34 270.8 32.9 270 31.7C269.7 31.9 269.1 32.2 268.8 32.3C268.7 31.5 268.4 30.8 267.7 30.4C267.6 30.2 267.5 29.7 267.4 29.5C266.7 29.7 266.1 29.8 265.4 30C267.6 31.9 269.8 33.6 271.7 35.8L272.4 35.2ZM214.4 55.3C214.4 54.4 214.1 54.1 213.3 54.5C213.3 55.5 213.7 55.8 214.4 55.3ZM213 54C211.1 50.2 208.3 47 206.3 43.3C207.3 47.3 210.7 50.6 213 54ZM251.2 15.5C251.3 14.1 249.4 15.2 249.4 16C249.7 16.9 251.1 16.3 251.2 15.5ZM249.5 14.4C248.2 13.4 247 10.6 245.1 11.6C244.7 9.99998 243.4 8.89998 242.3 7.79998C241.5 7.99998 240.8 8.29998 240.1 8.59998C240.9 8.69998 241.6 8.79997 242.4 8.89997C242.7 9.09997 243.4 9.59998 243.7 9.79998C243.5 10.1 243 10.7 242.8 11C243.9 11.5 245 12.1 246.2 12.5C246.3 13.1 246.4 13.6 246.5 14.2C246.7 14.1 247.2 13.9 247.4 13.8L246.8 12.5C247.3 12.8 248.2 13.3 248.6 13.5C248.3 14.1 248.1 14.8 247.8 15.4C248.3 15.2 249.1 14.7 249.5 14.4ZM241.4 6.79998C241 6.89998 240.1 7.09998 239.7 7.19998C239.4 6.49998 239.1 5.79998 238.8 5.09998C238.6 5.19998 238.3 5.39998 238.1 5.49998C238.7 6.29998 239.2 6.99998 239.8 7.79998C240.2 7.59998 241 6.99998 241.4 6.79998Z" fill="#497285"/>
<path d="M282.6 272.9C282.1 273.2 281.5 273.5 281 273.8C280.5 273.4 280.1 273 279.6 272.5C280.2 272 280.7 271.5 281.2 271C281.7 271.7 282.1 272.3 282.6 272.9Z" fill="#497285"/>
<path d="M382.1 149.5C382.1 150.8 380 150.8 380.4 149.4C380.5 148.2 382.5 148.1 382.1 149.5Z" fill="#497285"/>
<path d="M363.5 120.7C363 121.8 362.1 122.3 360.9 122.3C359.9 121 358.2 120.1 358.2 118.3C355.1 117.5 354.2 113.5 352.5 111.1C351.8 111.3 351.1 111.4 350.3 111.6C350.1 111.2 349.6 110.4 349.3 109.9C349.6 109.7 350.3 109.2 350.6 109C351.2 109.3 351.8 109.5 352.4 109.8C352.7 109.6 353.2 109.2 353.4 109C353.2 109.3 352.8 109.9 352.6 110.2C354.3 112.9 357.1 114.4 359 116.7C359.3 116.6 359.8 116.4 360 116.3C359.7 116.5 359 117 358.7 117.3C360.4 118.5 361.6 120.2 363.5 120.7Z" fill="#497285"/>
<path d="M160.3 225.5C159.4 225.9 158.6 224.4 158.4 223.6C159.2 223.2 160.2 224.7 160.3 225.5Z" fill="#497285"/>
<path d="M151.5 215.7C150.8 216.1 150.4 215.9 150.3 214.9C151.1 214.5 151.5 214.7 151.5 215.7Z" fill="#497285"/>
<path d="M133.9 201.9C133 202.9 132.5 200.4 133.8 201.4L133.9 201.9Z" fill="#497285"/>
<path d="M155 182.4C154.1 182.8 153.2 181.3 153 180.5C153.9 180.2 154.9 181.6 155 182.4Z" fill="#497285"/>
<path d="M131.7 200.2C130.8 201.5 130.3 199.1 131.6 199.6L131.7 200.2Z" fill="#497285"/>
<path d="M150.5 180C149.7 181.2 150.6 182.6 150.7 183.9C149.1 183.2 148.2 181.6 147.1 180.3L147.4 180C148.1 180.9 148.8 181.8 149.5 182.7C149.6 182.2 149.7 181.6 149.8 181.1C149 180.2 148.3 179.3 147.5 178.4C148 178 148.6 177.7 149.1 177.3C149.6 178.2 150.1 179.1 150.5 180Z" fill="#497285"/>
<path d="M119.9 191.4C119.2 191.9 118.7 191.7 118.6 190.8C119.4 190.3 119.8 190.5 119.9 191.4Z" fill="#497285"/>
<path d="M298.4 115.8C302 113.9 306.7 112.1 310.4 114.6C310.8 114.3 311.2 114 311.5 113.7C327.5 124.1 338.6 140.1 350.8 154.5C353.1 158.8 358.8 161.4 359.1 166.5C358 167 356.9 167.6 355.9 168.1C355.7 167.5 355.4 166.9 355.2 166.4C350.5 163.2 346.6 158.9 341.4 156.2C340.2 157.2 339.5 156.5 338.9 155.3C337.3 154.9 335.7 154.7 334.1 154.7C333.7 154.3 333.3 153.9 332.9 153.5C312.2 156.3 308.6 182.1 291.5 191C281 198.3 268.4 194.1 258 189C250.9 186.7 245.7 180.9 238.8 178.2C237.9 178 237.2 177.4 236.7 176.7C235.5 176.5 234.4 176.2 233.2 176.3C226.8 183.4 227.1 194 223.8 202.7C217.2 216.8 203 221.7 189 214.9C189.3 214.7 189.8 214.3 190.1 214.1C189.5 214.2 189 214.4 188.4 214.5C186.3 213 183.7 212.1 182 210.1C176.7 208.5 173.6 202.6 167.7 202.1C167.8 201.7 167.9 201 168 200.7C167.8 201 167.5 201.6 167.4 201.9C162.8 202 160.5 205.9 158.3 209.4C157.7 209.5 157.1 209.5 156.5 209.6C156.8 209.7 157.5 209.8 157.8 209.9C157.3 211.2 156.6 212.5 155.9 213.8C155.6 213.8 155 213.7 154.6 213.7L155.6 213.9C144.7 241.7 114.3 235.5 93.6 223.3C93.7 223.5 93.8 224 93.9 224.3C92.2 222.3 89.5 223.3 87.2 223.2C85.2 224.9 82.7 225.9 80.7 227.6C80 224.8 83.3 224 84.7 222.3C78.4 225.9 73.1 231 66.3 234.2C71 233.8 73.9 229.1 78.5 229.1C72.9 234.1 65.7 237 58.5 238.4C58.8 238.6 59.4 239.1 59.7 239.4C59.2 239.3 58.2 239.2 57.8 239.2C57.7 239.5 57.4 240.1 57.2 240.4C55.5 240.6 53.9 240.4 52.2 240.3C52.3 240.7 52.5 241.5 52.6 241.9C51.9 240.4 50.9 241 50 241.8C45.9 241.1 42.5 244.1 38.5 244.6C35.2 246.3 31.1 246.4 28.1 248.8C27.9 247.8 27.7 246.8 27.5 245.8C27.5 246.3 27.6 247.3 27.6 247.8C18.9 245.7 11.9 239.9 5.1 234.4C5.7 232.8 5.4 231 5.6 229.3C6.2 228.7 6.9 228.2 7.4 227.6C6.2 228 5.2 228.7 4.2 229.4C4.1 229.8 3.9 230.7 3.8 231.1C3.5 230.8 2.9 230.3 2.6 230C4.1 226.1 8.6 225.9 11.7 224C8.4 224.5 5.2 225.9 2.4 227.6C2.4 228.7 2.3 229.7 2.3 230.8C1.6 230.2 0.9 229.6 0.3 229C0.4 228.7 0.5 228.2 0.6 228H0.1L0 226.7C1.1 226.8 2.1 226.5 3 225.9C2.5 225.5 2 225.1 1.4 224.8C1.6 224.7 2.1 224.6 2.4 224.6L3 223.4C3 223.8 3.1 224.6 3.2 225C5.4 224.3 7.7 223.5 9.8 222.5C9.4 222.1 9.1 221.6 8.7 221.2C10.1 221.4 11.6 221.5 12.9 222.3C13.2 221.2 13.5 220.1 13.8 219C13.1 219.1 11.8 219.2 11.1 219.3C11.3 216.7 14.3 217.7 15.9 216.6C17.2 215.7 18.6 215.1 20.2 214.8C22.9 211.1 28 211.1 31.7 208.9C31.6 208.6 31.5 207.9 31.5 207.6C31.6 207.9 31.8 208.4 32 208.7C39.8 205.1 47.5 201.1 53.6 195C57.4 193.9 61.4 194.1 65.3 194.1C65.3 193.8 65.3 193.2 65.3 192.8C65.7 193.9 66.9 193.9 67.8 194.3C68 194.1 68.5 193.8 68.8 193.6C72.3 195.2 76.3 193.7 79.8 194.8C80.2 194.6 80.6 194.3 81.1 194.1C82 194.3 83 194.6 84 194.8C85.6 192.9 87.9 195.7 89.5 194.2C90 194.2 91.1 194.2 91.6 194.2C91.8 194.4 92.2 194.7 92.4 194.9C92.6 194.7 93 194.3 93.2 194C95.5 194.1 97.8 193.8 100.1 193.3C100.2 191.7 101.8 192.2 102.6 193C102.5 192.7 102.2 192.2 102.1 191.9C103 191.8 104 191.7 104.9 191.6C104.8 191.4 104.5 190.9 104.3 190.7C105.4 190.4 106.6 190.2 107.7 189.9C107.2 189.8 106.3 189.6 105.8 189.5C106.5 188.7 107.6 188.4 108.6 188.3C108.6 187.9 108.5 187 108.5 186.6C108.9 186.6 109.8 186.5 110.3 186.4C110.2 185.2 110.8 184.2 111.4 183.3L110 183.5C110.6 183.1 111.2 182.7 111.9 182.4C111.8 182.1 111.6 181.6 111.5 181.4C112.3 181.3 113 181.1 113.8 181C113.7 180.8 113.4 180.2 113.2 180C113.7 179.7 114.2 179.4 114.8 179.1C113.8 177.8 115.1 176.7 116.4 177.2C116.3 176.9 115.9 176.3 115.8 176C116.2 175.9 116.9 175.8 117.3 175.7C117 175.6 116.3 175.4 115.9 175.3L116 174C116.5 174.1 117.6 174.2 118.2 174.2C118.1 173.7 118 172.8 117.9 172.3C118.3 172.2 119 171.9 119.4 171.8C119.2 171.4 118.8 170.5 118.6 170.1C119.9 170.4 120.9 170.4 120.4 169C123.9 166.7 125.6 161 130.8 161.8C131.8 161.7 133 162.5 133.7 161.5C133.7 161.7 133.5 162.1 133.5 162.3C142.3 165.9 149.7 172.5 159 174.9C159.4 174.9 159.8 174.9 160.3 174.8C161.7 175.7 163.4 175.9 165 176C166.7 174.5 168.9 175.9 170.8 175C172.3 174.4 173.8 173.7 175.5 173.4C176.6 172.4 178.7 172.1 178.6 170.4C179.5 170.3 179.9 169.8 179.8 168.9C180.4 168.5 181 168 181.7 167.6L180.9 167.4C181.7 165.5 182 163.3 184 162.3C183.7 162 183.1 161.4 182.8 161C183.4 161 184.7 161 185.3 161C185 160.8 184.5 160.4 184.2 160.2C185.2 157.6 185.9 154.9 186.2 152.1C186.5 152.1 187.2 152.2 187.6 152.2C187.4 151.9 186.9 151.2 186.7 150.9C187 150.4 187.5 149.4 187.7 148.9L186.5 149C187.1 148.3 187.8 147.6 188.8 147.6C188.5 147.2 188.2 146.8 187.9 146.4C188.6 144.7 189 142.9 189.5 141.2C190.1 140.9 190.7 140.6 191.3 140.4H189.9C189.8 138.8 191.4 138.9 192.3 138.4C191.7 138.2 191 137.9 190.4 137.7C191.7 137.2 193.2 136.9 194 135.7C193.5 136 192.6 136.5 192.1 136.8C191.9 135.1 193.4 134.5 194.4 133.6C193.9 133.6 192.9 133.5 192.4 133.5C193.2 133.4 194.1 133.3 194.9 133.1C195.1 133.2 195.4 133.3 195.6 133.4C195.6 131.9 197.1 132 198.2 131.7C198.2 131.5 198.2 131 198.1 130.8C198.9 132.7 201.1 132.2 202.7 132C202.7 132.2 202.6 132.7 202.6 132.9C203.6 132.9 204.6 133.2 205.3 134C219.6 141.4 232.2 155.2 249.4 155.1C249.7 154.5 249.9 154 250.2 153.4C250.1 153.9 250 154.9 250 155.4C252.2 155.2 254.3 154.8 256.4 154.6C256.8 154.2 257.2 153.8 257.6 153.4C258.1 153.4 258.6 153.5 259.1 153.6C260.3 153.1 261.5 152.7 262.7 152.6C262.9 152 263.1 151.3 263.3 150.7C263.5 150.9 263.9 151.4 264.1 151.7C265.7 150.2 268.8 149.4 268.9 147C269.1 147.3 269.4 147.8 269.6 148C270.8 146.2 272.7 144.9 273.6 142.8C274.2 142.5 274.8 142.2 275.4 141.9C275.4 140.1 276.8 139.1 277.9 137.9C278.2 138.8 278.5 139.6 278.9 140.5C277.6 141.2 276.3 141.9 275.1 142.8C275 144.2 274.6 145.7 273.9 147C273.7 146.6 273.4 145.8 273.2 145.4C272.7 146.7 272.8 149.2 270.7 148.3C270.7 148.8 270.6 149.7 270.6 150.2C270 150.2 268.9 150.3 268.4 150.4C268.7 150.8 269.2 151.6 269.5 152C269.2 152.3 268.9 152.6 268.7 153C270.7 153.6 271.9 151.3 273.8 150.8C272.8 152.6 270.7 153.2 269.8 155C272 153.7 274.2 152.4 275.8 150.4C275.6 149.6 275.3 148.8 275 148.1C276.5 147 277.1 145 278.8 144.2L278.7 145.4C280.2 144.4 281.7 143.3 282.7 141.7C282.4 141 282.1 140.3 281.8 139.6C282.4 139.6 283.6 139.7 284.2 139.7C284.7 138.9 284.9 138 285.3 137.1C284.6 137.8 283.9 138.6 283.2 139.4C283.2 138.6 283.3 137.8 283.4 137.1C283.7 136.9 284.3 136.6 284.6 136.5C284.8 135.9 285 135.2 285.2 134.6C285.8 134.4 286.5 134.2 287.1 134C287.1 133.5 287 132.6 287 132.1C288.2 131.6 289.3 130.9 289.9 129.7C290.1 129.7 290.5 129.8 290.7 129.9C290.7 128.5 291.6 127.4 292.3 126.3C292.7 126.1 293.5 125.7 293.9 125.5C294 125.9 294.1 126.6 294.1 127C295 126.1 295.9 125.3 296.9 124.5C295.9 124.8 294.9 125.1 294 125.5C294.5 124.6 295 123.7 295.5 122.8C296 123.3 296.6 123.9 297.2 124.4C298.6 123.5 300 122.6 301.3 121.7C300.1 121.7 299 121.8 297.8 121.9C299.1 121.3 300.9 118.7 302 120.6C302 120.2 302.1 119.5 302.1 119.2C303.5 119.6 304.9 120 306.3 120.1C305.2 119.3 303.6 118.7 303.9 117C306.2 117.2 308.5 117.2 310.8 117.4C310.8 117.3 310.8 117 310.8 116.8C308.1 116.8 305.3 116 302.6 116.9C302.5 117.2 302.4 117.9 302.4 118.2C302.4 118 302.3 117.6 302.3 117.4C301.4 117.3 300.5 117.3 299.7 117.2C298.9 119.5 295.3 120.5 293.4 118.8C294.9 117.8 296.9 117.2 298.4 115.8ZM316 118.5C315.6 119.2 316.8 120.1 317.4 119.6C317.8 118.9 316.6 118.1 316 118.5ZM293.8 131.4C297.6 128.1 301.3 124.9 306.1 122.9C307.7 121.8 309.9 122.8 311.5 121.6C304.3 121.2 297.9 125.9 293.8 131.4ZM304.7 125.6C305.7 125.7 306.7 125.8 307.7 125.9C308 125.5 308.7 124.8 309.1 124.4C309.2 124.7 309.3 125.3 309.4 125.7V124.8C309.8 124.8 310.6 124.7 311 124.6C308.8 124 306.6 124.4 304.7 125.6ZM301.1 127.4C300.3 128.9 303.1 128.9 303.2 127.6C303.1 126.6 301.6 126.7 301.1 127.4ZM297.1 131.7C298.3 131.4 299.6 131.2 300.9 131C300.6 130.9 299.9 130.6 299.6 130.5C299.7 130.2 300 129.5 300.1 129.1C299 129.8 297.7 130.5 297.1 131.7ZM284.3 143C280.8 146.9 278.4 153.9 272.9 154.9C273.2 155.1 273.7 155.4 274 155.6C268.1 159.6 261.2 163.1 254 163C262.9 164 272.8 159 278.5 152.1C283.5 145.4 288.6 138.8 293.4 131.9C289.9 135.1 287.3 139.2 284.3 143ZM292.5 135.9C291.8 136.7 293.1 137.7 293.8 136.9C294.4 136.1 293.1 135.1 292.5 135.9ZM289 141.1C287.1 143.4 285.5 145.8 283.9 148.2C284.9 148.1 285.9 147.9 286.9 147.8C286.5 147.7 285.7 147.4 285.3 147.2C285.8 146.6 286.2 146 286.7 145.4C287.1 145.5 288 145.6 288.4 145.7C287.8 145.3 287.1 144.9 286.5 144.5C287 144.3 288 144 288.5 143.8C288.5 142.3 289.5 141.5 290.9 141.5C290.2 141.4 289.6 141.2 289 141.1ZM306 141.4C305 141.6 305.4 143.1 306.4 142.6C307.4 142.3 307 140.8 306 141.4ZM276.9 148.8C277.7 148.3 277.7 147.9 277 147.5C276.2 148 276.1 148.4 276.9 148.8ZM279.6 153.7C281.1 153.9 281.8 153.4 281.8 152.1C282.1 152 282.8 151.8 283.1 151.7C283 150.8 283 149.9 282.9 149C281.9 150.6 280.7 152.1 279.6 153.7ZM265.3 152.5C264.3 154.8 261.4 154.7 259.8 156.2C251.4 157.9 245.9 158.3 237.9 154.7C238.2 155.4 238.6 156.1 239 156.9C239.3 156.7 239.6 156.4 240 156.2C240.9 156.8 241.8 157.1 242.9 157.3C242.6 157.5 242.1 158 241.8 158.3C242.4 158 242.9 157.6 243.5 157.3C248 160.1 253.6 158.8 258.5 159.1C258.2 160.2 256.6 159.9 255.8 160.5C257.1 160.5 258.4 160.4 259.8 160.3C259.5 159.7 259.4 159.2 259.3 158.5C261.5 157.7 263.7 156.7 265.9 155.7C265 158.7 267.9 156.8 269.2 156C268.9 155.8 268.3 155.4 267.9 155.2L268.7 154.5C268.2 153.8 267.9 153.1 267.6 152.3C267 152.3 265.8 152.5 265.3 152.5ZM214.9 157.6C215.8 157.8 216.1 157.5 216 156.6C215.1 156.4 214.8 156.7 214.9 157.6ZM128.8 164.3C128.8 164.5 128.9 165 128.9 165.2C127.2 165.9 125.8 167.2 124.5 168.5C124.8 168.7 125.4 169.2 125.7 169.4C123.8 168.5 123.5 170.4 122.9 171.7C122.6 171.4 122.3 171.1 122 170.8C121.8 171 121.3 171.5 121.1 171.7C121.4 172.1 121.7 172.4 121.9 172.8C120.9 174.6 119.4 176.1 119.1 178.1C118.6 178.5 118 179 117.5 179.4C117.7 179.6 118.2 180.1 118.5 180.3C117.8 180.5 117 180.7 116.3 180.9C116.4 181.2 116.7 181.8 116.8 182.1C116.6 182.1 116.1 182.2 115.9 182.3C115.8 183.2 115.7 184.4 114.5 184C114.8 184.6 114.8 185.2 114.6 185.9C114.9 186.2 115.5 186.7 115.7 187C115.2 187 114.1 187.1 113.6 187.2C113.4 188.1 113.3 188.9 113.1 189.8C113.6 189.8 114.1 189.8 114.6 189.8C115.6 188 116.6 186.1 117.8 184.3C117.4 184.3 116.7 184.3 116.4 184.2C116.5 183.7 116.7 183.1 116.8 182.6C117.2 183.1 117.6 183.6 118.1 184.1C120.8 178.8 124 173.6 127.5 168.7C128.5 168.3 129.2 167.4 129.5 166.3C129.5 167.1 129.5 167.9 129.5 168.7C130.5 168.2 131.5 167.7 132.5 167.2C132 167.3 131 167.4 130.4 167.4C130.4 167 130.5 166.2 130.6 165.8C132.2 165.9 133.4 165 134.5 163.9C132.5 164.1 130.7 164.2 128.8 164.3ZM187.6 164.5C186 164.7 186.2 166.5 186.8 167.5C186.5 167.4 185.9 167.3 185.5 167.3L185.7 168.1C185.4 168.2 184.8 168.4 184.5 168.5C183.6 170.3 182.4 171.9 180.8 173.1C181.3 173 182.4 172.8 183 172.6C182.6 174 181.2 174.3 180 174.6C178.9 173.8 178.3 174.9 177.7 175.6C176.4 176 175 176.4 173.7 176.9C174 177.6 174.3 178.3 174.6 179C175.7 178.6 176.6 178 176.2 176.7C176.4 177 176.9 177.7 177.1 178C178.1 177.5 179 177 180 176.4C180.3 176.9 180.7 177.4 181 177.9C182 177.2 183 176.6 184 176C182.9 176.4 181.8 176.7 180.7 177.2C181.2 175.5 182.3 174.2 183.8 173.3C183.5 173 183 172.3 182.7 171.9C183.5 171.7 185.2 171.2 186 170.9C186 171.6 186.1 172.9 186.1 173.6C186.2 172.3 186.6 171.1 188.1 171.5C187.2 170.8 186.2 170.4 185.3 169.7C185.8 169.1 186.4 168.6 187 168C186.9 167.5 186.8 166.5 186.7 166C187 166.1 187.6 166.2 188 166.3C187.7 165.4 188.2 164.5 188.5 163.7C188.4 164.1 187.9 164.4 187.6 164.5ZM135 165.5C135.4 166.1 136.4 166.4 137.1 166.1C137.4 165.2 135.1 164.3 135 165.5ZM132.9 170.7C131.5 172.1 129.5 173.3 129.2 175.4C131.6 173.2 133.5 169.7 137.2 169.7C136.8 169.5 136.4 169.4 136.1 169.2C134.9 169.6 133.7 169.8 132.9 170.7ZM135 172.9C134.6 173.3 134.1 173.8 133.7 174.3C133.8 174.5 134.1 174.8 134.3 174.9C135.1 174.2 135.9 173.5 136.7 172.8C136.3 172.9 135.4 172.9 135 172.9ZM187.1 177.4C185.3 179.4 182.9 180.6 180.9 182.3C185 180.9 187.8 177.9 190 174.3C188.9 175.2 188.1 176.3 187.1 177.4ZM160.2 177.8C161.6 179.1 164.1 178.8 164.9 180.6C164.9 180.3 164.9 179.8 164.9 179.5C166.3 179.6 167.6 179.6 169 179.7C169.2 179.6 169.7 179.3 170 179.1C171.3 179.4 172.7 179.2 174.1 179.1C174 178.7 173.8 177.8 173.7 177.4C169.3 178.2 164.4 179.3 160.2 177.8ZM117.4 193.9C114.6 197.8 109.9 200.3 105.2 201L105.3 201.4C106.8 200.9 108.3 200.6 109.8 200.4C119.1 196.5 122.4 186 127.3 177.8C123.5 182.8 121.3 188.9 117.4 193.9ZM107.1 193.6C106.9 193.4 106.6 193.1 106.4 193C105.9 193 105.5 193.3 105.2 193.7C106.1 196 101.9 194.6 101.7 196.8C99.3 196.1 96.4 196.4 95 198.7C97.3 196.7 101.4 199.1 103.1 196.4C103.9 196.1 104.7 195.7 105.5 195.3C105.8 196.6 106.1 196.7 106.4 195.6C107.1 195.6 107.8 195.6 108.5 195.5C108.2 195.2 107.7 194.7 107.5 194.4C107.9 194.1 108.6 193.4 108.9 193.1C109 193.5 109.1 194.2 109.2 194.5C110 193.9 112 193.3 110.3 192.3C111.3 192.1 112.6 192.2 113.1 191C110.7 190.3 109.2 192.6 107.1 193.6ZM119.8 195.8C120.1 195.7 120.8 195.6 121.2 195.6C121.5 194.9 121.9 194.2 122.2 193.5C122.6 193.7 123.3 194 123.7 194.2C123.1 193.8 122.5 193.5 121.9 193.1C121.2 194 120.5 194.9 119.8 195.8ZM56 195.2C55.9 196.9 54 197.3 52.8 198C50.9 200.2 48.7 202.5 45.8 203.3C45.1 204.1 44.3 205 43.4 205.6C43.2 205.4 42.8 204.9 42.6 204.7C42.1 205.4 41.5 206.1 40.6 206.5C40.7 206.8 40.9 207.5 41 207.8C43.8 208.6 46.4 203.6 48.8 206.1C49.3 205.7 50.4 205 51 204.7C50.3 204.7 49 204.8 48.4 204.8C48.3 204.4 48.2 203.7 48.1 203.4C48.5 203.6 49.3 203.9 49.7 204C49.6 203.5 49.4 202.5 49.3 202.1C50.8 202.7 52 201.2 53.4 201C52.7 202 52 203 51.3 204C51.9 203.8 52.5 203.6 53.1 203.5C53.7 202.8 54.3 202 54.9 201.3C54.6 201 53.9 200.5 53.6 200.2C54.6 199.4 55.6 198.7 56.7 198C56.6 198.5 56.3 199.4 56.2 199.9C57 199.7 57.8 199.4 58.5 199.2C58.3 199 57.8 198.6 57.5 198.3C57.7 197.8 58.2 196.9 58.4 196.4L59.3 197.4C62.7 195.9 66.5 197 70.1 196.6C69.7 196.3 69 195.8 68.6 195.6C64.6 195.3 60.4 195 56.5 196.2C56.4 195.9 56.1 195.5 56 195.2ZM60.4 200.2C55.6 202.1 52.6 206.7 48.1 209C46.5 209.9 44.5 210.4 43.4 211.9C52.4 210.2 57.4 198.9 66.8 199.9C66.8 199.7 66.8 199.4 66.8 199.2C64.6 199.1 62.4 199.4 60.4 200.2ZM58.9 203.9C59 204.2 59.3 204.8 59.4 205.1C59.6 204 60.3 203.5 61.4 203.5C61.7 203 61.9 202.6 62.2 202.1C61.1 202.7 60 203.2 58.9 203.9ZM49.9 210.9C53.8 211.1 56.1 206.9 59.3 205.3C59 205 58.5 204.5 58.3 204.2C55.7 206.7 52.8 208.9 49.9 210.9ZM31.3 211.5C26 212.8 21.6 216.9 16.2 217.4C15.4 217.9 14.7 218.4 13.9 219C13.9 219.9 13.9 220.8 13.9 221.8C16 221 18.3 220.6 20.5 220.2C20.1 219.8 19.8 219.4 19.4 219C20.1 218.4 20.9 217.8 21.6 217.3C22.5 218.2 24.4 219.3 24.9 217.3C24.4 217.4 23.3 217.6 22.7 217.7C23.3 217 23.9 216.3 24.5 215.6C27.5 214.8 30.6 214.4 32.8 211.9C34.1 211.4 42.1 209.7 39.7 207.8C36.9 208.4 34.1 210.1 31.3 211.5ZM43 208.3C43.4 209 43.9 209 44.5 208.3C44 207.6 43.5 207.6 43 208.3ZM62 217C61 217.8 60.1 218.6 59.2 219.4C60.5 218.8 61.7 218 63 217.3C62.7 217.3 62.2 217.1 62 217ZM14.9 223C16.8 222.9 18.7 222.7 20.6 222.6C23.3 220.5 26.8 220 29.4 217.8C24.6 219.7 20 222 14.9 223ZM25.4 222.1C26.3 222.2 27.2 222.3 28.1 222.4C27.8 222.1 27.1 221.5 26.8 221.2C27.4 221.2 28.6 221.1 29.3 221C29.5 220.8 29.8 220.3 29.9 220C28.1 220.1 26.6 220.9 25.4 222.1ZM59 237C61.4 236.5 63.7 235.5 65.8 234.4C63.3 234.6 61 235.7 59 237Z" fill="#F78536"/>
<path d="M287.3 125.9C289 123.6 290.7 121.1 293.2 119.5C293.8 120 294.4 120.4 295 120.9C292.5 122.9 290.6 126.1 287.4 127C287.5 127.5 287.6 127.9 287.7 128.4C286.6 129.5 285.3 130.5 284.9 132C284.7 131.6 284.3 130.9 284.2 130.6C283.9 131.1 283.3 132.2 283.1 132.8C283.7 133.3 284.3 133.8 284.9 134.3L283.6 133.9C283.7 134.3 284 135.2 284.1 135.6C283.6 135.5 283.1 135.3 282.6 135.2C282.1 135.5 281.7 135.7 281.2 136C281.5 136.3 282.1 136.8 282.4 137.1C281.2 137.5 280 137.8 278.8 138.2C278.9 137.6 279 136.4 279.1 135.8C280.1 135.4 280.4 134.5 280.6 133.6C280.9 133.5 281.5 133.2 281.9 133.1C282.7 131.9 283.5 130.7 284.3 129.6C284.2 128.8 284.3 127.9 284.4 127.1L284.5 128.4C285.4 127.9 286.5 127 287.3 125.9Z" fill="#F78536"/>
<path d="M15.8 219.7C16.5 219.1 16.9 219.2 17.1 220.1C16.4 220.7 16 220.6 15.8 219.7Z" fill="#F78536"/>
<path d="M1.19995 221.4C1.39995 220.5 2.79995 220.2 3.39995 220.8C3.99995 222 1.39995 222.7 1.19995 221.4Z" fill="#F78536"/>
<path d="M77.8 228.2C78 227.2 79.5 227.2 80.1 227.9C79.9 228.8 78 229.4 77.8 228.2Z" fill="#F78536"/>
</g>
<defs>
<clipPath id="clip0_131_770">
<rect width="382.1" height="325.9" fill="white"/>
</clipPath>
</defs>
</svg>
