<svg width="256" height="230" viewBox="0 0 256 230" fill="none" xmlns="http://www.w3.org/2000/svg">
<g clip-path="url(#clip0_131_791)">
<path d="M149.3 0.199948C150.5 0.899948 151.7 1.49995 153 2.09995C154.2 1.69995 153 0.699948 152.7 0.0999479C153.5 -5.21149e-05 154.2 0.299948 154.8 0.699948C154.5 1.19995 154.4 1.79995 154.5 2.29995C156.4 2.79995 158.4 2.69995 160.1 3.59995C160 3.19995 159.7 2.39995 159.5 1.99995C160 2.69995 160.2 3.79995 161.3 3.89995C161.7 3.39995 162.1 2.89995 162.5 2.29995C162.6 2.69995 162.9 3.59995 163.1 4.09995C163.9 3.79995 164.7 3.29995 165.5 3.89995C177.6 10.6999 189.9 17.3999 201.4 25.1999C210.2 27.8999 217.9 32.8999 225.4 38.1999C228.7 40.3999 230.9 44.4999 234.8 45.4999C234.5 45.5999 234 45.8999 233.7 45.9999C237 47.1999 238.2 50.5999 240.8 52.6999C242.7 57.2999 252 67.0999 250 72.0999C250.5 72.0999 251.4 72.1999 251.8 72.1999C251.8 74.5999 252.5 76.8999 253.5 79.0999C253.1 78.9999 252.2 78.8999 251.8 78.8999C252.8 79.2999 253.6 79.7999 253.5 80.9999C256 84.7999 255 89.4999 255.2 93.6999C256.2 95.8999 256.2 95.2999 255.1 97.5999C255.3 97.7999 255.8 98.2999 256 98.5999C255.4 116.8 252 137.1 242 152.3C242.2 152.4 242.7 152.6 242.9 152.8C242.1 156 238 159 238.4 161.9C237.9 162.1 237.4 162.4 236.9 162.7C237 163.1 237.1 163.8 237.1 164.1C234.4 166.7 233.9 170.8 230.9 173.1C230.8 173.4 230.7 174 230.6 174.3C229.1 175.2 229 177.6 226.9 177.7C227.2 177.8 227.9 177.9 228.3 178C227.1 179.2 225.8 180.3 224.3 181.1C224.8 181 225.7 180.8 226.2 180.7C225.9 181.3 225.2 182.5 224.8 183.1C224.5 182.8 223.9 182.2 223.6 181.9C223.9 182.5 225.2 183.4 224 184C222.8 185 221.8 186.3 221.1 187.7C220.7 187.8 220 187.9 219.6 188C219.6 188.4 219.5 189.2 219.5 189.6C218.8 189.7 218.1 189.7 217.3 189.8C217.4 190.1 217.7 190.8 217.8 191.1C215.3 193.3 213.5 195.9 211.2 198.3C210 198.4 208.8 198.6 208.7 200C207.5 200.5 206.3 201.1 205.2 201.8C206 203.8 201 206.2 199.6 207.7L199.1 207.2C198.8 207.8 198.5 208.4 198.1 209L197.7 207.6C197.7 207.9 197.7 208.5 197.7 208.8C195.9 209.9 194.3 211.4 192.2 211.8C189.6 214.8 185.2 214.4 182.4 217.1C176.3 218.4 170.7 222.1 164.8 224.2C158.1 226.4 151.1 227.1 144.3 228.8C120.1 230.7 95.1999 229.6 71.3999 225.6C71.9999 225.3 72.5999 225 73.1999 224.7C72.4999 224.5 71.7999 223.7 70.9999 223.9C70.9999 224.4 70.9999 224.9 70.8999 225.4C61.7999 222.3 52.5999 218.9 45.0999 212.8C44.6999 212.8 43.8999 212.9 43.4999 212.9C42.5999 211.3 41.2999 210.1 39.5999 209.5C39.4999 209.3 39.3999 208.9 39.2999 208.7C40.3999 208.6 41.3999 208.5 42.4999 208.5C41.2999 207.7 40.2999 206 38.6999 206.3C38.9999 206.5 39.4999 207 39.7999 207.3C39.6999 207.6 39.4999 208.3 39.3999 208.7C38.6999 208.4 37.9999 208.2 37.2999 207.9C35.0999 204.7 31.6999 202.2 29.6999 198.7C30.8999 199.1 32.0999 199.4 33.2999 199.7C32.8999 198.5 31.9999 197.6 30.9999 196.9C31.0999 196.8 31.3999 196.5 31.4999 196.4C30.6999 195.5 29.9999 194.6 29.4999 193.6C29.3999 193.7 29.1999 193.8 28.9999 193.9C26.8999 192.2 25.8999 189.8 24.4999 187.6C24.5999 187.4 24.6999 186.9 24.6999 186.6C24.4999 186.2 24.2999 185.8 23.9999 185.4C23.6999 185.7 23.1999 186.2 22.8999 186.4C22.8999 185.4 22.6999 184.4 22.0999 183.5C22.1999 183.1 22.2999 182.7 22.3999 182.4C20.3999 182.8 20.0999 180.5 19.9999 179C18.7999 177.9 17.8999 176.5 17.6999 174.9C17.4999 174.7 17.1999 174.3 16.9999 174.1C17.1999 174 17.6999 173.7 17.9999 173.5L16.8999 172.1C17.2999 172.1 18.1999 171.9 18.5999 171.9C19.0999 172.8 19.5999 173.6 20.1999 174.5C19.9999 173.4 19.6999 172.2 19.0999 171.3C17.7999 171.4 16.3999 171.5 14.9999 171.5C14.4999 169.9 14.4999 168.3 14.7999 166.7C14.2999 165.6 13.7999 164.4 13.3999 163.3C13.8999 163.5 14.8999 163.8 15.3999 164C15.8999 164.9 15.4999 166.7 16.7999 167C16.2999 165.5 15.7999 163.9 15.3999 162.4C14.8999 162.5 13.7999 162.7 13.1999 162.8C12.2999 161.4 11.3999 160 11.3999 158.3C10.9999 158.3 10.0999 158.3 9.6999 158.2C10.0999 158.1 10.9999 157.9 11.3999 157.8C10.9999 156.8 10.5999 155.9 10.1999 155C9.5999 154.9 8.9999 154.9 8.2999 154.8C8.2999 153.5 8.1999 152.1 7.9999 150.8C8.2999 150.8 8.7999 150.6 9.0999 150.6C8.5999 150 8.0999 149.4 7.5999 148.8C7.7999 146.8 7.6999 144.8 7.3999 142.8C7.0999 143.1 6.3999 143.7 6.0999 144C6.2999 143.5 6.3999 143 6.5999 142.6C5.2999 141.9 5.0999 140.5 4.6999 139.3C5.0999 139.4 5.9999 139.6 6.4999 139.7C6.3999 138.2 6.2999 136.8 6.0999 135.4C5.1999 136 5.1999 137.2 4.9999 138.2C4.7999 137.1 4.2999 135.7 5.9999 135.4C5.5999 131.5 5.0999 127.6 5.0999 123.7C5.4999 123.8 6.2999 124 6.5999 124.1C6.5999 126 6.4999 127.9 6.9999 129.8C7.1999 129.7 7.4999 129.6 7.5999 129.6C8.0999 127.7 7.4999 125.8 7.5999 123.9C8.1999 124.2 8.7999 124.5 9.2999 124.7C9.8999 124.5 10.3999 124.3 10.9999 124.1C10.6999 123.8 10.1999 123.2 9.8999 122.9C10.4999 122.5 11.0999 122.1 11.7999 121.7C10.9999 121.5 10.0999 121.3 9.2999 121.2C9.5999 121 10.0999 120.7 10.3999 120.5C10.2999 120 10.1999 119.5 10.0999 119C10.3999 118.8 10.8999 118.5 11.1999 118.3C9.5999 117.4 10.4999 115.2 10.1999 113.7C10.3999 113.2 10.8999 112.3 11.0999 111.8C10.3999 111.8 9.6999 111.8 8.8999 111.8C9.5999 115.6 8.1999 119.6 9.0999 123.5C8.4999 123.5 7.7999 123.6 7.1999 123.7C8.1999 119.1 7.4999 114.2 8.5999 109.5L10.1999 109.7L8.9999 110.5C9.6999 110.5 10.3999 110.5 11.0999 110.5C11.2999 109.8 11.4999 109.2 11.5999 108.5C10.8999 108.1 10.1999 107.6 9.3999 108.3C6.8999 107.2 6.6999 109.5 7.7999 111.2C5.5999 114.9 7.4999 119.1 6.9999 123.2C6.5999 123.1 5.6999 122.7 5.2999 122.6C5.2999 117 5.6999 111.5 6.1999 105.9C5.7999 106 4.8999 106.2 4.3999 106.3C5.5999 105.9 7.0999 105.6 6.7999 104C6.3999 104.1 5.6999 104.4 5.2999 104.6C5.4999 103 5.6999 101.3 6.1999 99.7999C6.0999 101.3 5.8999 102.8 5.5999 104.2C5.9999 104.1 6.6999 103.8 6.9999 103.6C7.1999 101.9 7.3999 100.2 7.3999 98.4999C6.9999 98.3999 6.1999 98.2999 5.7999 98.1999C6.4999 98.1999 7.1999 98.1999 7.7999 98.1999C7.8999 97.7999 8.0999 96.8999 8.1999 96.3999C7.6999 96.4999 6.6999 96.7999 6.2999 96.8999C6.9999 96.5999 7.5999 96.2999 8.2999 96.0999C8.5999 95.0999 8.8999 94.1999 9.1999 93.1999C8.5999 92.8999 8.0999 92.6999 7.4999 92.3999C8.1999 92.2999 8.9999 92.2999 9.6999 92.1999C10.5999 85.2999 13.8999 78.5999 16.6999 72.1999C16.3999 71.7999 15.8999 71.4999 15.4999 71.1999C15.8999 70.8999 16.3999 70.4999 16.7999 70.1999C17.0999 70.3999 17.4999 70.2999 17.7999 70.3999C18.8999 68.1999 20.0999 65.8999 21.3999 63.7999C20.7999 63.7999 19.6999 63.8999 19.1999 63.9999C19.7999 63.4999 20.4999 62.8999 21.1999 62.4999C21.0999 62.1999 20.7999 61.5999 20.6999 61.2999C21.1999 61.3999 22.0999 61.5999 22.5999 61.6999C23.5999 60.2999 24.6999 58.9999 25.7999 57.6999C24.9999 57.7999 24.1999 58.0999 23.4999 58.2999C22.9999 58.0999 22.3999 57.8999 21.8999 57.5999C19.9999 58.7999 19.1999 61.2999 17.9999 63.0999C16.9999 63.1999 16.1999 63.6999 15.6999 64.5999C16.3999 64.6999 16.9999 64.8999 17.6999 65.0999C17.0999 65.1999 15.9999 65.2999 15.3999 65.3999C15.4999 65.7999 15.5999 66.5999 15.5999 67.0999C14.9999 67.4999 14.2999 67.7999 13.6999 68.1999C14.9999 65.6999 16.8999 63.0999 16.9999 60.1999C19.8999 58.5999 20.4999 54.3999 24.0999 53.4999C23.1999 55.1999 21.7999 56.5999 23.6999 58.0999C24.7999 54.8999 26.7999 56.9999 28.3999 52.9999C28.0999 52.8999 27.3999 52.5999 27.0999 52.3999C28.9999 52.2999 31.1999 51.3999 31.4999 49.2999C30.9999 49.4999 29.8999 49.7999 29.3999 49.9999C29.8999 49.1999 30.7999 49.1999 31.6999 49.0999C33.4999 47.3999 34.8999 45.3999 36.4999 43.4999C35.8999 43.4999 34.4999 43.5999 33.8999 43.5999C34.9999 43.0999 36.2999 42.8999 37.4999 42.9999C38.8999 40.7999 41.0999 39.3999 42.7999 37.4999C42.3999 38.3999 41.8999 39.1999 41.4999 40.0999C42.1999 39.9999 43.5999 39.6999 44.2999 39.5999C42.9999 40.1999 42.2999 41.4999 40.9999 41.9999C41.0999 42.3999 41.3999 43.1999 41.4999 43.5999C42.4999 43.3999 43.4999 43.0999 44.4999 42.7999C44.3999 42.2999 44.2999 41.3999 44.1999 40.9999C44.6999 40.9999 45.7999 41.0999 46.2999 41.0999C46.2999 40.0999 46.2999 39.1999 46.2999 38.1999C46.9999 38.6999 47.5999 39.1999 48.2999 39.5999C48.2999 38.4999 48.3999 37.3999 47.8999 36.3999C47.2999 36.3999 46.6999 36.4999 46.1999 36.7999C46.3999 36.5999 46.7999 36.1999 46.9999 35.9999C47.2999 35.9999 47.9999 35.9999 48.2999 35.9999C48.6999 36.5999 49.1999 37.0999 49.7999 37.3999C50.5999 35.5999 52.0999 33.8999 54.1999 33.8999C55.2999 32.7999 56.5999 31.9999 57.7999 30.9999C56.1999 30.8999 54.5999 30.9999 52.9999 31.0999C52.1999 31.8999 51.3999 32.7999 50.2999 33.2999C52.0999 30.5999 54.7999 30.0999 57.8999 30.4999C58.9999 29.1999 66.8999 24.5999 61.6999 24.2999C61.3999 24.4999 60.7999 24.8999 60.4999 24.9999C60.5999 24.6999 60.6999 24.0999 60.6999 23.7999C59.6999 23.6999 58.7999 23.4999 57.7999 23.1999C59.1999 22.9999 60.3999 22.2999 61.5999 21.5999C61.6999 21.9999 61.8999 22.6999 61.9999 23.0999C62.2999 22.9999 62.9999 22.6999 63.3999 22.5999C63.2999 22.8999 62.9999 23.3999 62.8999 23.6999C64.5999 23.6999 66.2999 23.3999 67.9999 23.2999C67.2999 22.5999 66.6999 21.9999 65.9999 21.2999C65.5999 21.4999 64.7999 21.7999 64.2999 21.9999C64.3999 21.6999 64.4999 21.1999 64.5999 20.8999C63.8999 20.8999 63.1999 20.8999 62.4999 20.8999C63.8999 19.7999 65.2999 18.7999 66.7999 17.8999C66.7999 18.1999 66.6999 18.8999 66.6999 19.2999C67.2999 19.6999 67.8999 20.0999 68.4999 20.4999C70.7999 18.9999 73.1999 17.4999 75.8999 16.9999C75.9999 16.6999 76.2999 15.9999 76.3999 15.5999C77.0999 14.9999 77.8999 14.4999 78.5999 13.8999C78.5999 13.9999 78.6999 14.2999 78.7999 14.4999C77.7999 14.9999 77.2999 15.9999 76.6999 16.7999C76.7999 17.2999 76.8999 18.1999 76.8999 18.6999C76.3999 19.2999 75.9999 19.8999 75.6999 20.6999C76.9999 20.2999 78.1999 19.8999 79.3999 19.4999C77.4999 21.4999 74.6999 22.1999 73.0999 24.5999C74.2999 24.7999 75.4999 24.9999 76.5999 25.3999C75.8999 25.3999 74.5999 25.3999 73.8999 25.3999C73.5999 27.4999 76.2999 26.3999 77.4999 26.5999C78.3999 25.8999 79.3999 25.2999 80.2999 24.5999C80.2999 24.8999 80.3999 25.4999 80.4999 25.7999C81.2999 25.3999 82.0999 24.8999 82.8999 24.4999C82.7999 25.0999 82.6999 26.1999 82.6999 26.7999C82.8999 26.7999 83.1999 26.8999 83.3999 26.8999C83.3999 26.3999 83.4999 25.4999 83.4999 24.9999C85.5999 24.4999 87.5999 23.5999 88.7999 21.6999C88.3999 21.5999 87.5999 21.4999 87.1999 21.4999C104.1 14.0999 121.8 4.89995 140.9 7.79995L141.1 8.79995C135 7.89995 128.9 8.49995 122.8 9.19995C123 9.59995 123.3 10.3999 123.4 10.8999H122.6C122.6 10.4999 122.6 9.69995 122.6 9.19995C105.4 13.2999 88.9999 21.5999 76.4999 34.1999C77.0999 34.1999 78.2999 34.1999 78.7999 34.1999C77.4999 35.6999 75.1999 34.0999 74.2999 36.1999C75.3999 36.0999 76.4999 35.7999 77.4999 36.0999C78.4999 34.9999 79.5999 34.0999 80.8999 33.3999C80.7999 32.9999 80.5999 32.0999 80.4999 31.6999C81.3999 31.6999 82.5999 32.1999 83.2999 31.1999C85.5999 28.7999 88.7999 27.5999 91.3999 25.4999C90.6999 25.4999 89.2999 25.4999 88.4999 25.4999C90.1999 24.8999 92.1999 24.9999 93.6999 23.9999C93.0999 23.8999 91.9999 23.7999 91.4999 23.6999C95.0999 23.0999 98.3999 21.8999 101.4 19.7999C101.4 19.4999 101.5 18.8999 101.5 18.5999C101.9 18.6999 102.6 18.8999 103 19.0999C102.9 18.6999 102.7 17.9999 102.6 17.5999C103.2 17.2999 103.9 17.0999 104.5 16.7999C104.5 17.0999 104.6 17.7999 104.7 18.0999C105.7 17.5999 106.6 17.0999 107.6 16.5999C106.9 16.2999 106.2 16.0999 105.5 15.7999C106.4 15.6999 107.3 15.5999 108.2 15.5999C109.5 16.7999 111.1 14.8999 112.4 14.5999C115.3 14.0999 118.1 12.7999 120.9 12.0999C120.6 11.7999 120.1 11.1999 119.9 10.8999C120.4 11.1999 121 11.5999 121.5 11.9999C123.1 11.4999 124.7 11.0999 126.2 10.6999C125.8 10.4999 125 10.0999 124.6 9.99995C126.6 10.0999 128.8 10.2999 130.6 9.29995C130.7 9.59995 130.9 10.1999 131 10.5999C131.2 10.2999 131.5 9.79995 131.7 9.49995C137.3 9.49995 143 9.29995 148.7 9.39995C148.1 9.79995 147.5 10.0999 146.7 10.2999C147.4 10.1999 148.3 10.4999 149 10.1999L149.2 9.69995L149.7 9.49995C161.9 13.1999 174 17.2999 186.2 21.0999L186.3 20.5999C182.2 17.7999 178.1 14.9999 173.5 12.9999C170.2 12.5999 167.6 11.0999 164.7 9.59995C166 9.09995 167.4 8.89995 168.9 8.69995C168 7.59995 167 7.69995 166.1 7.99995C165.9 7.49995 165.7 6.89995 165.5 6.39995C164.1 6.29995 162.6 6.39995 161.2 6.59995C161.5 6.29995 162.2 5.79995 162.5 5.49995C161.5 4.99995 160.4 4.49995 159.4 4.09995C158.4 4.79995 157.3 4.49995 156.2 3.99995C156.3 4.69995 156.4 5.49995 156.5 6.19995C156.3 6.19995 156 6.09995 155.8 5.99995C155.9 4.99995 155.9 3.99995 156 2.99995C153.4 2.99995 151 2.09995 149.3 0.199948ZM121.4 12.6999C120.9 13.9999 124.3 13.5999 124.1 12.3999C123.3 11.7999 122.2 12.1999 121.4 12.6999ZM121.5 14.2999C121.6 15.1999 122 15.2999 122.8 14.6999C122.7 13.7999 122.3 13.6999 121.5 14.2999ZM112.1 15.5999C111.5 15.4999 110.2 16.4999 111.2 16.8999C112.2 17.2999 114 15.2999 112.1 15.5999ZM72.6999 22.1999C73.0999 22.1999 73.7999 22.0999 74.1999 22.0999C74.1999 21.1999 74.0999 20.3999 74.0999 19.4999C73.5999 20.3999 73.1999 21.2999 72.6999 22.1999ZM88.5999 28.4999C86.7999 30.0999 84.2999 31.2999 83.1999 33.5999C85.1999 32.4999 86.7999 30.8999 88.5999 29.5999C88.9999 29.8999 89.3999 30.2999 89.8999 30.5999C89.3999 30.9999 88.4999 31.6999 88.0999 32.0999C88.6999 31.9999 89.8999 31.8999 90.4999 31.7999C90.4999 31.2999 90.3999 30.7999 90.3999 30.3999C91.1999 30.0999 91.8999 29.8999 92.6999 29.5999C91.5999 29.3999 90.5999 29.2999 89.4999 29.0999C92.8999 27.5999 95.7999 25.1999 98.7999 22.9999C94.9999 23.9999 91.9999 26.5999 88.5999 28.4999ZM163.7 25.1999L164.1 24.3999C160.9 24.8999 157.7 25.1999 154.6 26.4999L154.9 27.0999C154.7 26.8999 154.4 26.5999 154.2 26.3999C150.4 26.3999 145.9 26.6999 143.1 29.6999C141.8 28.2999 140.2 29.8999 138.7 29.8999C138 30.2999 137.1 30.4999 136.9 31.3999C136.5 30.7999 135.9 30.4999 135.2 30.5999C135.2 31.0999 135.2 32.0999 135.2 32.5999C134.8 32.6999 134.1 32.8999 133.8 32.9999C133.7 32.6999 133.6 32.1999 133.5 31.8999C132.5 32.1999 131.5 32.4999 130.5 32.8999C130.2 32.6999 129.7 32.2999 129.5 32.0999C129.3 32.2999 129 32.6999 128.8 32.8999C129.2 32.8999 129.9 32.7999 130.2 32.7999C130.2 33.0999 130.3 33.5999 130.3 33.7999C129 34.8999 127.6 35.7999 125.9 35.9999C125.8 36.2999 125.7 36.8999 125.6 37.1999C125.3 36.9999 124.7 36.4999 124.5 36.2999C124.1 36.7999 123.3 37.8999 122.9 38.4999C122.9 37.4999 122.8 36.4999 122.8 35.4999C122 36.4999 122.4 37.6999 122.5 38.8999C122.1 38.7999 121.3 38.4999 120.9 38.2999C121.1 38.5999 121.5 39.0999 121.7 39.3999C120.7 39.4999 119.7 39.6999 118.7 39.7999C118.6 41.7999 116.5 41.4999 115.1 41.6999C111.2 46.0999 105.2 48.7999 101.2 53.1999L101 52.2999C102.1 50.3999 104.5 49.4999 105.4 47.3999C101.8 49.7999 98.5999 52.6999 95.5999 55.7999C97.7999 55.8999 98.6999 53.5999 100.7 53.1999C98.5999 56.3999 95.3999 58.8999 92.7999 61.7999C92.5999 61.7999 92.1999 61.6999 92.0999 61.6999C91.2999 60.4999 92.7999 59.5999 93.2999 58.6999C91.8999 59.8999 90.2999 60.9999 89.3999 62.6999C89.9999 62.5999 91.1999 62.4999 91.7999 62.3999C89.8999 64.9999 87.6999 67.3999 85.6999 69.8999C85.3999 69.0999 85.1999 68.3999 84.8999 67.5999C83.5999 70.1999 81.3999 72.1999 80.1999 74.7999C80.6999 74.9999 81.0999 75.2999 81.5999 75.4999C81.5999 74.8999 81.5999 74.1999 81.5999 73.5999C82.1999 73.3999 82.7999 73.1999 83.3999 73.0999C82.7999 74.2999 82.1999 75.4999 81.4999 76.6999C80.5999 76.4999 79.7999 76.2999 78.8999 76.1999C78.8999 76.5999 78.9999 77.4999 79.0999 77.8999C79.5999 77.7999 80.4999 77.5999 80.9999 77.3999C78.5999 79.3999 78.7999 82.8999 76.2999 84.7999C75.3999 86.7999 75.3999 89.2999 73.6999 90.7999C73.6999 90.1999 73.5999 89.0999 73.5999 88.4999C72.3999 90.8999 71.4999 93.4999 70.8999 96.0999C71.9999 94.3999 72.0999 92.0999 73.7999 90.7999C72.7999 96.0999 70.1999 101 68.9999 106.3C68.7999 105.8 68.2999 104.7 67.9999 104.1C67.5999 105.2 67.2999 106.3 66.8999 107.3C67.1999 107.2 67.8999 107.1 68.1999 107C68.3999 107.3 68.6999 107.9 68.8999 108.2C68.4999 108.4 67.9999 108.7 67.5999 109C67.4999 110.2 67.5999 111.4 66.9999 112.4C66.9999 111.6 66.8999 110 66.8999 109.2C66.0999 111.4 65.8999 113.7 65.3999 116C65.7999 116 66.5999 116 66.9999 116C66.4999 116.8 66.2999 117.6 66.2999 118.6H65.9999C65.8999 118.1 65.7999 117.2 65.6999 116.7C65.4999 117.6 65.2999 118.6 65.0999 119.6C65.3999 119.6 65.9999 119.6 66.2999 119.6C66.0999 122.5 65.8999 125.4 66.2999 128.3C66.0999 128.4 65.5999 128.5 65.3999 128.6C65.6999 129.8 66.0999 130.9 66.4999 132.1C66.1999 132.1 65.5999 132.2 65.2999 132.2L65.3999 133.3C67.8999 132.5 64.1999 134.4 66.1999 134.8C66.0999 135.3 65.9999 136.2 65.9999 136.7C66.2999 136.7 66.7999 136.7 66.9999 136.7C66.7999 137 66.3999 137.7 66.1999 138C67.4999 139.4 67.6999 141.3 67.6999 143.2C67.3999 143.2 66.8999 143.2 66.5999 143.2C66.9999 144.6 67.3999 145.9 67.7999 147.3C67.5999 147.3 67.0999 147.2 66.7999 147.2C67.5999 147.5 68.4999 147.8 69.2999 148.2C68.9999 151.3 70.9999 154 70.9999 156.9C74.8999 159.8 74.5999 165.5 77.5999 169C78.3999 169.6 79.3999 170.1 79.4999 171.2C82.2999 175 95.0999 189.5 100.1 186C101.9 186.6 103.7 185.8 105.5 185.7C105.7 185.4 106.1 184.9 106.3 184.6C108 184.4 109.6 183.8 111.2 183C110.5 182.9 109 182.7 108.3 182.6C109.3 182.5 110.3 182.3 111.4 182.2C111.5 181.9 111.7 181.4 111.8 181.1C111.8 182.1 111.8 183.1 111.8 184C112.3 184 113.4 183.8 113.9 183.8C114.1 184.3 114.7 185.2 114.9 185.7C115.2 184.7 115.4 183.8 115.7 182.9C117.1 182.2 118 181 119.1 179.9C119 182.4 115.9 183 116.1 185.5C117.2 185.1 118.1 184.5 119.1 183.8C120 184.2 120.8 184.6 121.7 185.1C121.3 185.5 120.9 186 120.5 186.4C122 186.3 123.5 186.3 125 186.3C124.5 187.2 123.9 188.1 123.4 189C113.6 193.5 102.9 192.3 92.5999 189.5C85.7999 187.9 78.7999 186.7 72.1999 184.4C72.1999 184.2 72.1999 183.8 72.1999 183.6C70.6999 183.9 69.3999 183.4 68.5999 182.2C68.2999 182.2 67.5999 182.1 67.1999 182.1C65.5999 180.9 63.7999 180 62.0999 179C63.3999 178.3 64.7999 178.4 66.1999 178.3C64.1999 176.2 61.3999 180.5 60.3999 176.8C61.1999 176.9 61.8999 177 62.6999 177.2C62.5999 176.4 62.4999 175.6 62.3999 174.8C61.8999 176.8 59.2999 177.1 58.0999 175.5C55.8999 173.1 53.4999 171.2 51.6999 168.4C51.3999 168.7 51.0999 169 50.7999 169.4C51.1999 170.1 51.5999 170.8 51.9999 171.5C52.4999 171.7 53.0999 171.9 53.5999 172.2C52.9999 172.2 52.2999 172.1 51.5999 172.1C49.7999 169 46.9999 166.6 45.5999 163.3C45.6999 163.3 45.9999 163.3 46.0999 163.3C46.7999 164.5 47.3999 166 48.7999 166.6C49.0999 167.2 49.4999 167.7 49.7999 168.3C50.1999 168.2 51.0999 168 51.4999 167.9C51.0999 167.6 50.2999 166.9 49.8999 166.6C49.9999 165.9 50.0999 165.3 50.2999 164.7C49.8999 164.7 48.9999 164.8 48.4999 164.9C48.5999 164.6 48.7999 163.9 48.9999 163.6C48.6999 163.4 48.0999 163 47.6999 162.9C47.6999 161.9 47.7999 160.7 46.4999 160.6C46.5999 160.3 46.8999 159.7 46.9999 159.4L45.6999 159.6C45.7999 158.3 45.9999 156.9 44.8999 155.9C44.7999 156.3 44.5999 157.2 44.4999 157.6C44.2999 156.9 44.0999 156.1 43.8999 155.4C43.9999 155.1 44.2999 154.4 44.3999 154.1C44.0999 154.1 43.3999 154 42.9999 154C43.1999 153.4 43.4999 152.8 43.6999 152.1C43.2999 152.1 42.3999 152.1 41.9999 152.1C42.0999 150.6 41.9999 149.1 41.7999 147.6C40.8999 147.4 39.9999 147.2 39.1999 146.9C39.0999 147.7 38.8999 148.6 38.7999 149.4C39.2999 150.5 40.2999 151.5 39.8999 152.8C39.5999 152.6 38.9999 152.2 38.6999 151.9C38.7999 152.3 38.7999 152.8 38.8999 153.2C39.2999 153.3 40.0999 153.4 40.5999 153.5C40.1999 153.9 39.6999 154.3 39.1999 154.7C40.1999 155.1 41.1999 155.6 42.1999 156.1C41.3999 156.8 40.6999 157.6 39.8999 158.3C41.1999 158.2 42.9999 159 41.0999 160.1C41.1999 160.3 41.2999 160.6 41.3999 160.7C40.9999 161.7 41.4999 162.7 42.5999 162.9C42.4999 163.3 42.3999 163.8 42.2999 164.2C42.6999 164.3 43.4999 164.5 43.8999 164.7C43.6999 165.6 43.3999 166.5 43.1999 167.4C43.5999 167.5 44.4999 167.8 44.8999 168C44.9999 169.8 45.2999 171.5 46.9999 172.4C46.5999 172.4 45.7999 172.5 45.4999 172.6C46.3999 173.3 47.2999 174 47.2999 175.2C47.4999 175.2 47.8999 175.3 48.0999 175.3C48.0999 176.2 47.8999 177.2 48.9999 177.5C48.9999 177.7 48.9999 178 48.8999 178.2C50.1999 179.7 51.2999 181.4 52.4999 182.9C52.4999 183.1 52.4999 183.4 52.4999 183.6C53.4999 184.4 54.3999 185.4 55.1999 186.4C55.1999 186.6 55.0999 187 54.9999 187.2C70.7999 206.8 92.2999 220.5 117.6 224C128.1 224.6 138.3 218.2 147.4 213.3C156.3 208.1 163.3 200.8 170.2 193.3C170.3 193 170.4 192.5 170.5 192.2C172.1 191.1 173.3 189.6 174.9 188.5C174.6 187.9 174.3 187.3 173.9 186.8C174.2 187.1 174.8 187.6 175.1 187.9C177.5 184.6 180.1 181.5 182.1 177.9C182.3 176.9 182.8 176.1 183.8 175.8C183.4 175.6 182.5 175.2 182.1 175C182.4 175 183.1 175.1 183.4 175.2C184.3 174 185.1 172.7 185.9 171.5C185.4 171.5 184.3 171.6 183.8 171.7C184.4 171.3 185 170.9 185.6 170.5C186.2 170.6 186.9 170.7 187.5 170.7C187.4 170.2 187.2 169.8 187.1 169.4C189.8 166.1 191.3 162.1 193.4 158.5C193.3 158.3 193.1 157.9 193 157.7L193.6 157.8C194.3 156.2 195.2 154.6 195.8 152.9C195.7 152.7 195.6 152.3 195.5 152.1C195.7 152 196.2 151.9 196.5 151.9L197.3 151C196.9 150.9 196.1 150.7 195.7 150.7C196.4 150.5 197.1 150.3 197.9 150.2C198 149.1 198 148 198.1 146.9C201.1 145.2 203 135.2 203.8 131.6C204 131.6 204.5 131.5 204.7 131.4C204.6 131.2 204.3 130.8 204.1 130.5C204.5 130.2 205.4 129.7 205.8 129.5C205.3 129 204.6 129.1 204 129.1C203.9 128.3 205 128.2 205.5 127.9C205.6 126.3 206.4 125 207.4 123.8C207.3 123.1 207.2 122.5 207 121.8C207.3 121.7 207.9 121.6 208.2 121.5C207.9 121.3 207.2 120.8 206.9 120.6C207.6 120.3 208.4 120 209.1 119.8C208.6 119.8 207.6 119.8 207.1 119.9C207.4 118.3 207.8 116.7 208.1 115.1C208.7 115.7 209.3 116.2 209.9 116.8C209.8 118.7 209.6 120.6 208.5 122.1C208.6 124.1 208.4 126.1 207.8 128C208.1 128.2 208.7 128.5 209 128.6C208.6 128.6 207.8 128.6 207.4 128.6C206.9 130.4 207.2 133 205.3 133.9C205.5 134 205.8 134.1 206 134.1C205.1 136.6 204.4 139.2 203.6 141.7C203.8 141.5 204.3 141.1 204.5 140.9C204.9 140.9 205.6 140.8 206 140.8C205.8 140.5 205.3 139.8 205.1 139.5C205.4 139.3 205.9 139 206.2 138.8C205.8 137.6 205.9 136.4 206.1 135.1C206.4 135.2 207.1 135.4 207.4 135.5C207.7 134.2 208.1 133 208.5 131.7C209.6 131.1 210 130.2 209.5 129.1C210.1 128 210.8 129.5 211 130.1C211.4 128.6 211.7 127.1 211.3 125.5C211 126.4 210.6 127.2 210.8 128.2C210.5 128.1 210 127.9 209.7 127.8C209.6 127 210.1 126.2 210.2 125.5C209.5 124.9 209.3 124.1 209.2 123.2C209.9 124.1 210.9 124.5 212 124.9C213.5 122.3 213.4 119.1 214 116.2L213.2 116.5C212.2 118.6 212.4 121.1 211.5 123.3C211.7 118.4 213 113.6 213.8 108.8C214.2 110.7 213.9 112.5 213.5 114.4C215.7 113.1 214.4 110.2 214.8 108.2C214.4 108.4 213.6 108.7 213.2 108.8C213.4 107.6 214.3 106.9 215.2 106.2C215.2 103.9 215.5 101.5 215.8 99.1999C215.6 98.9999 215.1 98.4999 214.9 98.1999C214.8 98.7999 214.6 99.8999 214.5 100.5C214.1 99.8999 213.7 99.2999 213.3 98.6999C213.7 97.7999 214.1 96.8999 214.4 95.9999C214.7 95.8999 215.2 95.6999 215.5 95.5999C215.7 94.0999 215.6 92.6999 215.3 91.2999C215.2 91.2999 214.9 91.2999 214.7 91.2999C214.7 92.5999 215.1 94.4999 213.5 95.0999C213.8 91.6999 213.4 88.3999 213.3 85.0999C213.5 84.9999 213.9 84.8999 214.2 84.8999C214.5 86.3999 214.7 87.8999 214.9 89.3999C215.5 87.6999 215.4 85.8999 215.2 84.0999C214.9 83.8999 214.2 83.5999 213.9 83.4999C214 82.9999 214.1 82.4999 214.3 82.0999L213.5 82.2999C213.3 81.1999 213 79.9999 212.8 78.8999C213.5 79.2999 214.3 79.6999 215 80.0999C214.5 77.9999 212.5 76.5999 212.5 74.2999C213.1 74.7999 213.7 75.1999 214.2 75.6999C213.5 74.0999 213.8 71.4999 211.6 71.0999C212 70.7999 212.7 70.2999 213.1 70.0999C212.7 70.1999 212 70.4999 211.6 70.6999C211 69.4999 210.2 68.2999 209.6 67.0999C209.9 66.8999 210.4 66.3999 210.7 66.1999C209.6 65.7999 208.5 65.7999 207.4 66.0999C208.4 66.9999 209.2 68.0999 209.9 69.2999C209.8 70.0999 209.6 70.8999 209.5 71.7999C209.8 71.9999 210.3 72.3999 210.5 72.5999C210.3 72.8999 210 73.3999 209.8 73.6999C210.2 73.8999 210.9 74.3999 211.3 74.5999C211 74.5999 210.3 74.6999 210 74.6999C211.5 79.1999 211.6 83.9999 212 88.6999C212.3 88.6999 212.9 88.6999 213.2 88.6999C212.9 88.8999 212.4 89.3999 212.2 89.5999C211.6 93.3999 213.5 99.0999 209.2 101C209.3 88.4999 208.9 75.6999 205.1 63.6999C206.6 64.1999 208.2 64.2999 209.7 64.7999C210.1 64.6999 210.9 64.4999 211.3 64.3999C211.3 64.1999 211.3 63.8999 211.3 63.7999C211 63.8999 210.4 64.0999 210.1 64.0999C209.6 63.0999 209.6 61.7999 208.7 61.0999C206.8 60.4999 208.2 63.0999 208 63.9999C205.3 63.9999 205.3 60.8999 204.6 58.9999C204 57.8999 203.6 56.6999 203.3 55.3999C200 46.1999 194.8 37.2999 187.8 30.2999C188.8 27.8999 187.1 27.0999 185 27.6999C180.6 22.3999 173.6 24.7999 167.7 24.2999C166.2 24.3999 164.7 24.1999 163.7 25.1999ZM74.9999 29.0999C74.5999 27.7999 73.2999 27.4999 72.0999 27.4999C72.6999 28.0999 72.9999 28.8999 72.6999 29.6999C69.9999 29.1999 67.7999 26.8999 64.9999 27.0999C64.7999 27.7999 64.5999 28.4999 64.3999 29.1999C64.6999 29.3999 65.2999 29.7999 65.4999 30.0999C65.8999 29.9999 66.7999 29.7999 67.2999 29.5999C67.2999 29.9999 67.3999 30.8999 67.3999 31.3999C69.0999 31.2999 70.6999 31.2999 72.3999 31.3999C70.9999 33.3999 68.4999 34.3999 67.3999 36.5999C69.0999 36.4999 70.0999 35.0999 71.3999 34.1999C71.3999 32.4999 73.5999 32.5999 74.3999 31.3999C74.8999 31.3999 75.8999 31.2999 76.3999 31.2999C75.9999 30.7999 75.4999 30.2999 75.0999 29.7999C75.9999 29.7999 76.9999 29.8999 77.8999 29.9999C77.8999 29.3999 77.8999 28.6999 77.8999 28.0999C79.4999 28.4999 80.8999 26.7999 80.1999 25.2999C78.2999 26.3999 76.8999 27.9999 74.9999 29.0999ZM67.0999 26.4999C67.4999 27.2999 67.9999 27.2999 68.3999 26.4999C67.8999 25.6999 67.4999 25.6999 67.0999 26.4999ZM68.7999 26.1999C68.9999 28.0999 71.5999 27.9999 72.7999 27.2999C71.4999 26.7999 70.1999 26.2999 68.7999 26.1999ZM92.3999 28.2999C94.2999 28.4999 97.0999 27.9999 96.8999 25.3999C95.3999 26.3999 93.8999 27.2999 92.3999 28.2999ZM189.3 30.4999C188.9 31.2999 190.2 32.2999 191 31.8999C191.2 30.9999 190 29.9999 189.3 30.4999ZM62.9999 31.0999C62.4999 31.5999 61.8999 31.9999 61.3999 32.4999C60.3999 32.5999 59.4999 32.7999 58.5999 33.2999C59.2999 33.2999 60.6999 33.2999 61.3999 33.3999C60.9999 34.7999 59.4999 34.2999 58.4999 34.4999C58.5999 35.6999 57.9999 36.7999 57.4999 37.8999C58.2999 37.6999 59.8999 37.1999 60.6999 36.8999C60.0999 37.6999 59.3999 38.2999 58.3999 38.6999C59.2999 39.2999 60.1999 39.8999 61.0999 40.4999C60.9999 40.8999 60.8999 41.6999 60.7999 42.0999C62.8999 40.3999 62.7999 39.0999 59.9999 38.6999C60.8999 37.2999 61.5999 35.5999 63.1999 34.8999C63.4999 34.2999 63.6999 33.6999 63.9999 33.0999C63.2999 32.7999 63.2999 31.7999 62.9999 31.0999ZM85.9999 32.4999C84.5999 33.8999 83.1999 35.5999 81.1999 36.0999C81.0999 36.3999 80.9999 37.0999 80.8999 37.3999C79.4999 38.1999 78.0999 39.0999 76.7999 39.8999C76.7999 40.1999 76.5999 40.8999 76.5999 41.2999C76.4999 41.2999 76.1999 41.2999 75.9999 41.2999C74.8999 42.3999 73.5999 43.3999 72.3999 44.3999C73.5999 44.1999 74.7999 43.8999 76.0999 43.6999C75.9999 43.3999 75.6999 42.8999 75.5999 42.6999C76.9999 42.4999 78.2999 42.1999 79.5999 41.8999C78.8999 41.8999 77.3999 41.8999 76.6999 41.8999C77.0999 41.5999 77.9999 40.8999 78.4999 40.4999C78.4999 40.2999 78.5999 39.7999 78.5999 39.5999C79.9999 38.9999 81.2999 38.0999 82.4999 37.0999C83.0999 36.9999 83.7999 36.8999 84.3999 36.7999C84.2999 36.4999 83.9999 35.7999 83.8999 35.3999C85.2999 34.3999 86.7999 33.5999 88.3999 32.8999C87.5999 32.5999 86.7999 32.5999 85.9999 32.4999ZM191.8 32.0999C192.5 34.0999 193.5 35.9999 194.6 37.8999C194.9 37.9999 195.6 38.2999 195.9 38.3999C195.8 38.5999 195.6 38.8999 195.5 39.0999C196.2 39.6999 196.9 40.2999 197.6 40.7999C197.6 41.1999 197.6 41.9999 197.7 42.3999C198.4 42.9999 200.1 43.7999 198.1 44.2999C198.7 44.6999 199.4 44.9999 200 45.3999C200.3 46.4999 200.5 47.5999 200.8 48.6999C201.7 48.6999 202.7 48.5999 203.6 48.5999C203.3 47.3999 202.6 46.2999 201.6 45.4999C201.3 44.4999 200.9 43.5999 200.6 42.5999C197.5 39.3999 195.4 34.8999 191.8 32.0999ZM79.0999 35.3999C79.4999 35.6999 79.7999 35.9999 80.1999 36.3999C81.1999 35.3999 82.8999 34.6999 83.0999 33.1999C81.7999 33.9999 80.4999 34.7999 79.0999 35.3999ZM97.6999 36.6999C98.5999 36.8999 98.8999 36.4999 98.5999 35.6999C97.6999 35.4999 97.3999 35.7999 97.6999 36.6999ZM71.2999 36.2999C70.8999 37.0999 71.1999 37.3999 72.1999 37.0999C72.4999 36.2999 72.1999 35.9999 71.2999 36.2999ZM71.6999 39.0999C72.4999 38.8999 73.1999 38.5999 73.9999 38.3999C74.1999 37.8999 74.6999 36.7999 74.8999 36.2999C73.0999 36.0999 72.4999 37.8999 71.6999 39.0999ZM69.2999 38.6999C69.7999 39.5999 70.2999 39.5999 70.7999 38.6999C70.2999 37.6999 69.7999 37.7999 69.2999 38.6999ZM76.4999 38.0999C75.5999 38.1999 75.5999 39.8999 76.6999 39.2999C77.5999 39.0999 77.5999 37.3999 76.4999 38.0999ZM51.7999 43.5999C50.7999 43.9999 49.5999 43.8999 48.4999 43.9999C49.1999 44.1999 49.8999 44.4999 50.6999 44.6999C50.4999 45.0999 50.1999 45.9999 50.0999 46.3999C51.1999 46.1999 51.7999 45.2999 52.2999 44.3999C52.9999 44.2999 53.5999 44.3999 54.2999 44.3999C54.2999 44.2999 54.3999 43.9999 54.3999 43.7999C53.9999 43.7999 53.0999 43.6999 52.6999 43.6999C53.5999 43.0999 54.3999 42.4999 55.2999 41.8999C55.5999 40.7999 56.1999 39.6999 57.4999 40.0999C57.1999 39.5999 56.9999 38.9999 56.6999 38.4999C54.7999 39.9999 53.2999 41.7999 51.7999 43.5999ZM68.8999 42.4999C69.6999 41.8999 70.4999 41.3999 71.2999 40.7999C71.7999 40.8999 72.6999 41.1999 73.1999 41.2999C71.6999 42.7999 70.2999 44.3999 68.4999 45.4999C68.7999 45.7999 69.1999 46.0999 69.4999 46.3999C71.7999 44.4999 73.0999 41.8999 75.5999 40.1999C74.6999 40.0999 73.6999 39.9999 72.7999 39.8999C72.3999 40.1999 71.9999 40.3999 71.6999 40.6999L71.3999 39.5999C70.5999 40.4999 69.6999 41.3999 68.8999 42.4999ZM202.4 41.2999C203.4 40.9999 202.5 39.6999 201.8 39.8999C200.8 40.0999 201.7 41.4999 202.4 41.2999ZM63.7999 44.1999C62.2999 45.1999 61.3999 46.7999 60.5999 48.3999C61.2999 48.2999 61.9999 48.2999 62.7999 48.1999C62.7999 47.4999 62.5999 46.8999 62.6999 46.2999C63.3999 46.0999 64.0999 45.8999 64.7999 45.7999C64.6999 45.4999 64.5999 44.9999 64.4999 44.6999C64.7999 44.5999 65.4999 44.2999 65.8999 44.1999C66.5999 42.8999 67.4999 41.6999 68.3999 40.4999C66.5999 41.3999 65.4999 43.0999 63.7999 44.1999ZM37.5999 43.2999C36.1999 44.6999 33.5999 45.5999 34.8999 48.0999C35.3999 47.5999 36.4999 46.5999 36.9999 46.0999C36.0999 48.8999 33.6999 50.8999 32.3999 53.5999C33.3999 53.4999 34.2999 53.3999 35.2999 53.2999C35.1999 51.9999 36.2999 51.1999 37.1999 50.4999C37.1999 49.8999 37.2999 49.1999 37.3999 48.5999C37.9999 48.2999 38.5999 48.3999 39.1999 48.8999C39.9999 48.1999 40.7999 47.4999 41.4999 46.7999C40.9999 46.8999 40.0999 47.0999 39.5999 47.1999C39.5999 46.7999 39.6999 46.0999 39.6999 45.6999C41.0999 45.6999 42.4999 45.6999 43.8999 45.5999C43.4999 45.4999 42.6999 45.1999 42.2999 44.9999C42.6999 44.5999 43.5999 43.7999 43.9999 43.3999C43.3999 43.4999 42.8999 43.6999 42.2999 43.7999C41.3999 43.4999 40.4999 43.1999 39.6999 42.9999C41.0999 40.1999 37.6999 41.7999 37.5999 43.2999ZM57.5999 42.3999C56.8999 42.7999 57.2999 44.5999 58.0999 43.5999C58.8999 43.1999 58.4999 41.4999 57.5999 42.3999ZM61.6999 42.4999C61.0999 42.8999 60.7999 43.4999 60.9999 44.1999C61.9999 44.7999 63.1999 41.6999 61.6999 42.4999ZM88.1999 43.5999C88.5999 44.2999 88.9999 44.2999 89.5999 43.5999C89.1999 42.7999 88.6999 42.8999 88.1999 43.5999ZM67.6999 43.5999C66.7999 43.9999 66.7999 44.3999 67.4999 44.8999C68.3999 44.4999 68.4999 44.0999 67.6999 43.5999ZM204.8 44.9999C205.6 44.4999 205.5 44.0999 204.7 43.6999C203.9 44.1999 203.9 44.5999 204.8 44.9999ZM55.1999 44.8999C55.0999 45.0999 54.7999 45.4999 54.5999 45.5999C55.1999 47.7999 57.5999 44.4999 55.1999 44.8999ZM72.0999 44.8999C71.1999 45.2999 71.1999 45.6999 72.0999 46.0999C72.9999 45.5999 72.9999 45.1999 72.0999 44.8999ZM84.3999 47.0999C85.1999 47.2999 86.5999 46.4999 86.3999 45.5999C85.4999 45.3999 84.2999 46.2999 84.3999 47.0999ZM48.6999 46.9999C48.3999 47.9999 48.6999 48.2999 49.6999 47.9999C50.0999 46.9999 49.7999 46.5999 48.6999 46.9999ZM67.5999 46.2999C66.4999 47.9999 65.2999 49.6999 63.8999 51.1999C63.6999 52.1999 62.8999 52.5999 61.9999 52.8999C60.5999 55.1999 58.7999 57.2999 57.7999 59.7999C59.8999 58.5999 59.9999 55.0999 62.5999 54.7999C62.8999 53.8999 63.3999 53.2999 64.1999 52.7999C63.9999 54.4999 62.4999 55.6999 61.4999 56.9999C58.0999 60.5999 56.4999 65.2999 53.4999 69.1999C53.2999 69.0999 52.7999 68.8999 52.5999 68.7999C52.1999 69.1999 51.7999 69.5999 51.3999 69.9999C51.5999 70.0999 52.0999 70.2999 52.2999 70.3999L52.1999 69.2999C52.5999 69.2999 53.3999 69.3999 53.7999 69.4999C52.6999 71.4999 51.8999 73.6999 50.5999 75.5999C51.2999 75.4999 52.0999 75.4999 52.7999 75.3999C52.7999 74.8999 52.6999 73.7999 52.5999 73.1999C53.3999 73.1999 54.0999 73.1999 54.7999 72.9999C54.4999 72.3999 54.1999 71.8999 53.7999 71.2999C54.5999 70.5999 55.4999 69.9999 56.2999 69.3999C55.8999 69.3999 55.0999 69.2999 54.5999 69.1999C55.4999 68.5999 56.3999 67.9999 57.1999 67.3999C56.8999 67.1999 56.3999 66.6999 56.0999 66.3999C56.3999 66.1999 56.8999 65.8999 57.0999 65.6999C57.4999 65.6999 58.3999 65.7999 58.8999 65.7999C58.7999 65.2999 58.5999 64.1999 58.3999 63.6999C58.8999 63.6999 59.8999 63.7999 60.4999 63.7999C59.9999 63.5999 58.9999 63.1999 58.5999 62.9999C59.4999 61.8999 60.2999 60.5999 60.8999 59.2999C62.7999 59.8999 62.4999 58.0999 62.5999 56.8999C62.9999 56.8999 63.6999 56.7999 64.0999 56.6999C63.9999 56.3999 63.7999 55.7999 63.6999 55.4999C64.0999 55.2999 64.7999 54.9999 65.1999 54.7999C65.0999 54.4999 64.8999 53.7999 64.7999 53.3999C66.2999 53.1999 67.6999 52.8999 69.1999 52.5999C68.2999 52.3999 67.2999 52.1999 66.3999 51.9999C67.2999 51.5999 68.2999 51.1999 69.2999 50.8999C69.5999 49.8999 69.8999 48.9999 70.1999 47.9999C70.5999 47.8999 71.3999 47.5999 71.7999 47.4999C70.8999 46.9999 69.9999 46.5999 68.9999 46.5999C68.7999 47.2999 68.5999 47.9999 68.3999 48.6999C68.6999 47.8999 68.0999 47.0999 67.5999 46.2999ZM31.7999 49.3999C31.5999 50.2999 31.2999 51.1999 31.0999 52.0999C30.7999 52.1999 30.0999 52.3999 29.7999 52.4999C28.8999 53.7999 29.4999 55.0999 30.9999 55.3999C29.9999 56.1999 29.3999 57.2999 28.9999 58.4999C28.7999 58.5999 28.2999 58.8999 27.9999 59.0999C26.7999 62.2999 23.9999 64.7999 23.2999 68.1999C23.8999 68.0999 25.1999 67.7999 25.7999 67.6999C26.3999 65.9999 26.6999 64.2999 26.7999 62.4999C27.2999 62.3999 28.1999 62.1999 28.6999 62.0999C28.5999 61.7999 28.3999 61.2999 28.2999 61.0999C28.5999 60.9999 29.0999 60.7999 29.2999 60.6999C29.1999 60.3999 28.9999 59.7999 28.8999 59.4999C29.7999 59.1999 30.5999 58.8999 31.4999 58.5999C31.1999 58.2999 30.4999 57.5999 30.1999 57.2999C30.8999 56.9999 31.5999 56.6999 32.2999 56.3999C32.2999 55.6999 32.3999 54.9999 32.4999 54.2999C31.9999 54.3999 30.8999 54.5999 30.3999 54.7999C31.2999 52.8999 32.1999 50.8999 34.2999 49.9999C34.3999 49.3999 34.4999 48.1999 34.5999 47.5999C33.5999 48.0999 32.6999 48.7999 31.7999 49.3999ZM45.5999 52.4999C47.2999 51.7999 47.9999 49.9999 48.4999 48.3999C46.9999 49.1999 46.2999 50.8999 45.5999 52.4999ZM201.4 49.5999C201.7 49.8999 202.4 50.3999 202.7 50.6999C202.7 51.6999 202.7 52.5999 202.7 53.5999C203 53.8999 203.5 54.3999 203.8 54.6999C204.6 54.4999 205.4 54.2999 206.3 54.1999C205.9 53.8999 205.1 53.1999 204.8 52.7999C205.3 52.5999 206.4 52.0999 206.9 51.7999C206.2 51.5999 205.5 51.3999 204.8 51.1999C204.2 48.9999 203.5 48.7999 201.4 49.5999ZM53.1999 50.7999C52.8999 51.7999 53.2999 52.0999 54.2999 51.6999C54.5999 50.6999 54.2999 50.3999 53.1999 50.7999ZM43.9999 53.6999C43.5999 54.4999 43.1999 55.2999 42.7999 56.0999C43.2999 55.6999 44.1999 54.9999 44.6999 54.6999C45.1999 54.6999 46.0999 54.5999 46.5999 54.5999C45.5999 54.1999 44.7999 53.9999 43.9999 53.6999ZM204.4 55.1999C205.4 56.8999 206.3 58.7999 207 60.6999C207.5 60.5999 208.1 60.4999 208.4 60.1999C208 58.1999 206.8 56.4999 206 54.5999C205.6 54.6999 204.8 54.9999 204.4 55.1999ZM27.8999 54.9999C27.1999 56.9999 26.2999 58.8999 24.9999 60.4999C25.0999 60.8999 25.0999 61.7999 25.1999 62.1999C26.3999 60.0999 27.7999 57.9999 29.2999 56.1999C28.7999 55.7999 28.2999 55.3999 27.8999 54.9999ZM94.4999 56.9999C95.3999 57.1999 95.6999 56.8999 95.4999 55.9999C94.6999 55.7999 94.2999 56.1999 94.4999 56.9999ZM81.0999 62.2999C81.3999 62.1999 82.0999 61.9999 82.4999 61.8999C83.0999 60.9999 83.7999 60.0999 84.4999 59.1999C82.9999 59.7999 81.9999 61.0999 81.0999 62.2999ZM38.0999 63.2999C36.4999 66.6999 34.1999 69.6999 33.0999 73.3999C35.3999 70.2999 36.7999 66.7999 38.8999 63.5999C39.1999 63.8999 39.8999 64.3999 40.1999 64.6999C39.7999 64.0999 39.3999 63.5999 38.9999 63.0999C39.7999 61.8999 40.4999 60.6999 41.1999 59.3999C39.3999 60.0999 38.9999 61.8999 38.0999 63.2999ZM54.5999 64.8999C56.2999 63.3999 57.0999 61.2999 58.2999 59.3999C56.0999 60.3999 55.6999 62.9999 54.5999 64.8999ZM23.8999 62.0999C23.3999 63.2999 22.5999 64.2999 21.6999 65.1999C22.0999 68.7999 16.2999 71.1999 18.7999 74.5999C20.5999 70.6999 22.2999 66.5999 24.6999 62.9999C24.4999 62.6999 24.1999 62.3999 23.8999 62.0999ZM85.3999 66.6999C85.7999 66.9999 86.1999 67.2999 86.5999 67.5999C86.7999 67.1999 87.1999 66.3999 87.3999 65.9999C87.5999 65.9999 88.0999 65.8999 88.2999 65.8999C88.5999 64.7999 88.8999 63.6999 89.1999 62.6999C87.7999 63.9999 86.6999 65.3999 85.3999 66.6999ZM213.2 63.7999C212.8 64.3999 213.2 65.4999 213.8 65.7999C215 65.6999 214.2 63.3999 213.2 63.7999ZM22.8999 69.7999C23.2999 70.3999 23.8999 70.3999 24.5999 69.9999C24.5999 69.6999 24.6999 69.1999 24.7999 68.8999C24.0999 68.3999 22.8999 68.9999 22.8999 69.7999ZM215 68.7999C215.2 70.5999 215.7 72.3999 216 74.2999C215.8 74.4999 215.3 74.8999 215.1 75.0999C215.3 75.0999 215.7 75.0999 215.9 75.1999C216.6 79.9999 217.9 84.6999 217.9 89.5999C217.7 89.5999 217.2 89.5999 216.9 89.5999C217.8 90.5999 217.7 92.0999 218 93.3999C217.8 93.3999 217.2 93.3999 217 93.3999C217.8 94.0999 218.4 94.9999 216.9 95.0999C218.7 94.6999 218.8 96.7999 217.2 97.1999C218.5 98.2999 217.8 114.5 215.8 114.5C217 115.1 215.9 116.6 216 117.6C215.5 123.8 212.8 129.5 211.8 135.6C219.9 114.7 221.2 90.2999 215 68.7999ZM217.5 69.4999C217.2 70.3999 217.5 70.6999 218.3 70.4999C218.6 69.5999 218.4 69.2999 217.5 69.4999ZM19.1999 75.9999C16.3999 81.6999 14.6999 87.6999 12.7999 93.6999C12.8999 93.8999 12.9999 94.3999 12.9999 94.5999C12.7999 94.7999 12.4999 95.1999 12.2999 95.3999C11.9999 97.6999 11.5999 99.8999 10.9999 102.2C14.1999 101.4 12.0999 97.2999 13.9999 95.2999C14.5999 93.5999 14.3999 91.6999 15.4999 90.0999C15.3999 89.8999 15.2999 89.3999 15.1999 89.1999C15.6999 88.9999 16.2999 88.6999 16.7999 88.4999C16.6999 88.1999 16.4999 87.4999 16.3999 87.1999C16.5999 86.9999 17.0999 86.4999 17.3999 86.1999C17.0999 85.6999 16.7999 85.0999 16.3999 84.5999C16.8999 84.5999 17.8999 84.4999 18.3999 84.4999C18.1999 84.0999 17.6999 83.1999 17.4999 82.7999C17.7999 82.7999 18.2999 82.7999 18.4999 82.7999C18.2999 81.6999 18.6999 80.5999 18.9999 79.4999C19.3999 79.3999 20.1999 79.2999 20.5999 79.2999C20.2999 78.9999 19.6999 78.2999 19.3999 77.9999C19.9999 77.5999 20.4999 77.2999 21.0999 76.8999C20.9999 76.4999 20.6999 75.6999 20.5999 75.3999C21.1999 75.3999 21.7999 75.2999 22.4999 75.2999C22.1999 75.0999 21.4999 74.5999 21.1999 74.2999C21.5999 74.0999 22.3999 73.7999 22.7999 73.5999C22.6999 72.3999 22.5999 71.0999 22.5999 69.8999C21.0999 71.5999 19.7999 73.5999 19.1999 75.9999ZM60.0999 80.7999C60.9999 79.7999 61.6999 78.4999 61.8999 77.1999C63.1999 76.1999 63.4999 74.5999 64.2999 73.1999C65.3999 73.0999 66.4999 72.8999 67.5999 72.5999C66.5999 72.6999 65.6999 72.7999 64.6999 72.8999C65.0999 71.9999 65.3999 71.0999 65.6999 70.0999C63.1999 73.2999 61.0999 76.8999 60.0999 80.7999ZM30.6999 78.6999C31.6999 77.2999 32.4999 75.6999 33.1999 74.0999C31.8999 75.2999 30.9999 76.8999 30.6999 78.6999ZM247.5 74.9999C247 75.6999 247.6 77.1999 248.5 76.9999C248.9 76.3999 248.4 74.7999 247.5 74.9999ZM16.8999 74.9999C15.9999 76.9999 15.7999 79.1999 14.3999 80.8999C14.4999 82.8999 13.2999 84.5999 12.4999 86.2999C12.5999 86.5999 12.6999 87.0999 12.7999 87.2999C12.1999 88.2999 11.5999 89.1999 10.8999 90.0999H11.8999C10.1999 93.1999 9.3999 96.6999 9.6999 100.3C12.5999 92.3999 13.8999 83.6999 18.0999 76.2999C17.6999 75.8999 17.2999 75.3999 16.8999 74.9999ZM50.4999 75.9999C50.1999 77.1999 49.8999 78.3999 49.6999 79.5999C49.3999 79.7999 48.7999 80.0999 48.4999 80.1999C49.1999 80.3999 49.8999 80.5999 50.5999 80.6999C50.5999 80.1999 50.4999 79.2999 50.4999 78.7999C51.0999 78.6999 52.3999 78.5999 52.9999 78.5999C52.1999 78.2999 51.3999 77.9999 50.5999 77.7999C50.9999 77.5999 51.6999 77.0999 52.0999 76.7999C51.4999 76.5999 50.9999 76.2999 50.4999 75.9999ZM248.7 77.6999C248.8 79.7999 249.3 81.8999 250.3 83.6999C249.9 81.6999 249.4 79.6999 248.7 77.6999ZM28.4999 83.3999C29.7999 82.2999 30.2999 80.6999 30.5999 79.0999C29.5999 80.3999 28.8999 81.8999 28.4999 83.3999ZM49.0999 81.2999C48.5999 81.4999 47.3999 82.5999 48.2999 82.9999C49.3999 83.4999 50.6999 81.0999 49.0999 81.2999ZM219.4 82.0999C220.3 84.6999 219.9 87.5999 220.6 90.2999C221.1 90.3999 221.7 90.4999 222.2 90.3999C220.5 88.7999 220.5 85.9999 221.4 83.8999C221.1 83.8999 220.6 83.8999 220.4 83.8999C220.5 83.1999 220.7 82.4999 220.9 81.7999C220.4 81.8999 219.9 81.9999 219.4 82.0999ZM46.4999 86.2999C45.6999 86.8999 46.7999 88.1999 47.5999 87.5999C48.3999 86.8999 47.2999 85.5999 46.4999 86.2999ZM253.1 87.2999C253.4 90.4999 253.5 93.6999 254 96.7999C254.8 93.6999 253.8 90.4999 253.5 87.2999H253.1ZM43.5999 94.2999C44.0999 94.2999 44.9999 94.2999 45.4999 94.2999C45.3999 93.4999 45.2999 92.6999 45.2999 91.8999C45.8999 91.8999 46.9999 91.9999 47.5999 92.0999C47.0999 91.3999 46.5999 90.6999 46.0999 90.0999C46.9999 89.9999 47.7999 89.9999 48.6999 89.9999C47.8999 89.5999 46.7999 89.3999 46.4999 88.4999C45.4999 90.3999 44.3999 92.2999 43.5999 94.2999ZM220.6 91.0999C219.8 91.7999 220.5 93.2999 220.5 94.2999C220.4 95.3999 220.2 96.4999 220.1 97.5999C220.5 97.5999 221.3 97.6999 221.7 97.7999C221.5 95.6999 221.6 93.5999 221.5 91.3999C221.2 91.2999 220.8 91.0999 220.6 91.0999ZM25.0999 93.6999C25.7999 93.4999 26.5999 91.8999 25.6999 91.4999C24.9999 91.6999 24.1999 93.2999 25.0999 93.6999ZM43.1999 95.2999C43.2999 95.5999 43.5999 96.1999 43.6999 96.3999C41.7999 98.9999 42.3999 102.4 40.8999 105.1C41.5999 105.1 42.2999 105.1 42.9999 105.2C43.0999 103.1 42.0999 99.6999 44.9999 99.1999C44.2999 98.9999 43.6999 98.7999 42.9999 98.5999C43.6999 97.3999 44.3999 96.0999 44.9999 94.7999C44.3999 94.8999 43.7999 95.0999 43.1999 95.2999ZM40.0999 101.6L40.5999 101.7C40.9999 99.8999 41.4999 98.1999 41.7999 96.3999C40.9999 97.9999 40.5999 99.7999 40.0999 101.6ZM234 98.4999C234 101.9 233.3 105.4 234 108.8C234 105.3 234.5 101.8 234 98.4999ZM8.3999 107.3C8.4999 107.2 8.6999 107 8.7999 107C9.1999 104.8 9.6999 102.5 9.8999 100.2C8.7999 102.3 7.2999 104.8 8.3999 107.3ZM220.8 103.5C219.6 106.3 219.5 109.5 219.6 112.5C221.5 109 222 104.6 220.4 101C220.5 101.8 220.7 102.6 220.8 103.5ZM10.8999 102.4C10.2999 104.1 10.0999 106 9.8999 107.8C10.7999 107.3 11.7999 106.8 11.6999 105.6C12.0999 105.4 12.7999 104.9 13.1999 104.7C12.6999 104.6 11.5999 104.5 10.9999 104.4C11.6999 104.1 12.3999 103.8 13.0999 103.5C12.7999 102.5 11.7999 102.3 10.8999 102.4ZM39.7999 102.5C38.8999 103.6 38.9999 107.4 40.2999 104.3C40.4999 103.8 40.7999 101.8 39.7999 102.5ZM40.3999 112C39.3999 112 38.4999 111.9 37.4999 111.9C38.4999 112.2 39.4999 112.4 40.4999 112.6C41.0999 114 41.0999 115.4 39.7999 116.4C39.7999 117.9 39.8999 119.5 39.8999 121.1C39.5999 120.7 38.8999 119.8 38.5999 119.3C37.1999 123.9 38.8999 128.5 38.4999 133.2C38.7999 133.2 39.4999 133.2 39.8999 133.2C40.1999 129.1 38.1999 124.7 39.5999 120.8C39.9999 123.1 39.9999 125.4 40.3999 127.7C40.6999 127.8 41.1999 128.1 41.3999 128.2C41.0999 128.2 40.4999 128.2 40.1999 128.2C40.3999 129.9 40.4999 131.6 40.4999 133.3C42.0999 133.3 42.4999 131.9 42.9999 130.7C42.5999 130.5 41.6999 130.2 41.2999 130C43.2999 127.1 41.2999 123.2 40.6999 120.1C41.3999 120.1 41.9999 120.1 42.6999 120.1C42.7999 119.8 42.8999 119.2 42.9999 118.9C42.4999 118.9 41.5999 118.8 41.0999 118.8C41.6999 118 42.5999 117.6 43.6999 117.5C43.1999 117.3 42.6999 117.2 42.1999 117.1C42.7999 114.1 41.2999 111.2 42.1999 108.3C41.8999 107.5 41.6999 106.7 41.3999 105.9C40.6999 107.8 40.4999 109.9 40.3999 112ZM51.2999 108.3C51.0999 108.8 50.5999 109.8 50.3999 110.3C50.4999 110.8 50.7999 111.9 50.8999 112.5C50.5999 113 50.2999 113.5 49.8999 114C50.2999 114 51.1999 113.9 51.6999 113.8C50.9999 111.9 51.5999 110.1 51.2999 108.3ZM63.8999 112.5C63.2999 113.2 63.4999 113.7 64.2999 113.8C64.8999 113.1 64.6999 112.7 63.8999 112.5ZM20.1999 113.8C19.5999 114.5 19.7999 114.9 20.6999 115C21.1999 114.3 21.0999 113.9 20.1999 113.8ZM217.6 122.4C217.6 122.8 217.6 123.7 217.6 124.2C216.6 125.8 216.3 127.8 215.7 129.6C216 129.6 216.7 129.5 217 129.5C217.3 128.5 217.6 127.5 218.3 126.6C218.1 126.2 217.8 125.3 217.7 124.9C218 124.9 218.6 125 218.9 125.1C218.9 124.2 219.1 123.4 219.9 122.8C219 122.6 218.3 122.5 217.6 122.4ZM9.3999 131.6C9.8999 138.1 10.2999 145.8 13.8999 151.4C14.1999 150.8 14.3999 150.2 14.2999 149.4C13.7999 149.1 13.1999 148.8 12.6999 148.5C12.7999 148 12.8999 147.5 12.9999 147C12.7999 146.5 12.2999 145.4 12.0999 144.9C12.4999 145 13.3999 145.1 13.7999 145.1C12.1999 143.4 11.5999 141 10.9999 138.8C11.2999 138.6 11.6999 138.3 11.9999 138.1C10.8999 137.3 10.7999 136.4 11.9999 135.5C11.5999 135.5 10.6999 135.4 10.1999 135.3C10.2999 135 10.6999 134.3 10.7999 133.9C10.6999 133.7 10.4999 133.2 10.3999 132.9C10.6999 132.9 11.2999 133 11.5999 133C10.8999 131.5 10.4999 130 10.0999 128.4L11.4999 128.6C11.0999 128.2 10.6999 127.9 10.2999 127.6C10.5999 126.1 10.8999 124.5 9.2999 123.6C8.5999 126.4 9.5999 129 9.3999 131.6ZM62.7999 126.1C61.5999 129.4 63.9999 133.4 62.0999 136.4C62.3999 136.4 62.8999 136.3 63.1999 136.3C63.3999 137.9 63.0999 139.8 64.0999 141.2C63.4999 136.1 63.2999 131.1 62.7999 126.1ZM7.6999 129.8C6.5999 134.9 7.9999 140.4 9.5999 145.3C10.8999 144.8 10.0999 143.4 9.4999 142.7C9.0999 138.5 8.3999 134.3 8.0999 130.1C7.9999 130 7.7999 129.9 7.6999 129.8ZM215.2 132.5C214.5 132.8 214.1 133.8 214.5 134.5C215.4 134.8 216.4 132.6 215.2 132.5ZM41.1999 133.2C41.4999 136.3 41.6999 139.4 42.7999 142.3C43.7999 141.7 43.9999 140.4 44.4999 139.5C44.0999 139.5 43.2999 139.4 42.8999 139.4C42.9999 138.3 42.9999 137.3 43.0999 136.2C42.3999 135.1 41.8999 134.1 41.1999 133.2ZM214.5 135.6C213.8 135.6 213 137.1 214.1 137.1C214.8 137.1 215.5 135.6 214.5 135.6ZM210.6 138.7C208.9 142.7 206.6 146.3 205.6 150.6C208.4 146.1 211.1 140.9 211.7 135.6C210.7 136.3 210.7 137.6 210.6 138.7ZM39.7999 140.4C40.1999 140.6 40.8999 141 41.2999 141.2C41.0999 139.8 40.7999 138.4 40.4999 137C39.5999 137.9 39.8999 139.2 39.7999 140.4ZM57.1999 137.4C56.8999 138.4 57.1999 138.8 58.1999 138.5C58.5999 137.5 58.1999 137.1 57.1999 137.4ZM38.4999 137.8C38.0999 139.2 37.5999 140.6 37.0999 141.9C37.4999 142.1 38.3999 142.5 38.7999 142.7L37.7999 143.1C38.0999 144.1 38.2999 145.1 38.5999 146.1C39.3999 145.6 39.6999 144.5 40.1999 143.7C39.7999 144 38.8999 144.6 38.3999 144.9C39.3999 142.5 39.2999 140.1 38.4999 137.8ZM213.2 137.7C212.6 138.3 212.4 139.4 212.8 140.2C213.8 140.5 214.8 137.1 213.2 137.7ZM58.0999 140.5C58.8999 140.1 58.8999 139.7 58.0999 139.2C57.1999 139.6 57.2999 140 58.0999 140.5ZM57.8999 140.9C58.1999 142.5 58.3999 144.3 59.1999 145.8C58.8999 144.2 59.4999 141.9 57.8999 140.9ZM210 145.9C210.3 145.9 211 145.9 211.4 145.9C211.4 144.9 211.5 143.9 211.5 142.9C211.9 142.7 212.6 142.3 212.9 142.1C212.7 141.9 212.2 141.4 211.9 141.2C211.3 142.6 210.7 144.3 210 145.9ZM63.9999 141.3C63.8999 144.2 64.2999 147.2 65.4999 149.9C65.5999 147 65.0999 144 63.9999 141.3ZM201.2 143.5C201.3 143.8 201.4 144.3 201.5 144.6C200.7 146.1 200.3 147.9 199.4 149.4C199.7 149.6 200.2 150 200.4 150.2C200.1 150.1 199.4 149.9 199.1 149.8C198.5 152 197.3 154.1 196.7 156.3C196.3 156.2 195.6 156.1 195.2 156.1C195.4 156.8 195.7 157.4 195.9 158.1C195.1 159 194.6 160.5 193.1 160C193.4 160.2 194 160.5 194.3 160.7C191.5 165.6 188.2 170.2 185.6 175.2C183.8 177.5 181.3 179.6 180.9 182.7C175 189.5 168.7 196.1 163.2 203.1C156.1 208.5 148.6 213.3 141.1 218C145.7 216.7 149.6 213.7 153.8 211.7C153.9 211.4 154.2 210.8 154.4 210.5C157.6 208.7 160.2 205.9 163.8 204.7C163.9 204.5 164 204 164.1 203.8C167.1 203.4 168.6 200.4 170.5 198.4C173.6 196.1 175.9 192.9 178.6 190.1C178.5 189.4 178.5 188.8 178.4 188.1C179.2 187.2 179.9 186.4 180.7 185.5C181.4 185.6 182.1 185.7 182.7 185.8C182.3 185.4 181.8 184.9 181.4 184.5C182.8 181.8 185.9 180.1 186 176.7C186.6 176.4 187.3 176.2 188 176C188 175.5 187.9 174.6 187.9 174.1C188.2 174.1 188.8 174.2 189.1 174.3C188.8 172.4 190.4 171.4 191.3 170C193.6 165.4 196.2 160.8 198.8 156.3C198.5 156.1 198 155.8 197.7 155.7C200.2 154.4 201.1 151.1 201.9 148.5C202.6 148.5 203.2 148.6 203.9 148.6C204.7 146.8 205.6 145 206.5 143.2C206.1 143.1 205.3 143 204.9 142.9C204.6 142.4 204.2 141.8 203.8 141.3C202.8 142.1 202 142.8 201.2 143.5ZM42.5999 142.7C43.0999 144.9 43.8999 147 44.8999 149C44.2999 149.1 43.4999 148.9 42.8999 148.9C43.0999 150.3 43.7999 151.5 44.6999 152.5C44.6999 151.9 44.6999 150.6 44.6999 149.9C45.4999 151 46.1999 152.2 47.0999 153.3C47.1999 152.2 47.5999 150.9 46.2999 150.4C46.3999 148.5 43.1999 145.4 46.2999 145C45.5999 145 44.9999 145 44.2999 144.9C44.6999 144.3 44.9999 143.6 45.3999 143C45.0999 142.8 44.7999 142.7 44.4999 142.5C43.9999 142.5 42.9999 142.6 42.5999 142.7ZM243.4 143.6C242.7 147.3 240.2 150.5 239.2 154.2C241.6 151 242.7 147.2 244.3 143.6C244.1 143.6 243.6 143.6 243.4 143.6ZM9.6999 146.1C9.6999 148.4 10.7999 150.5 11.9999 152.4C12.0999 150.9 11.6999 149.4 10.4999 148.4C11.1999 147.6 11.0999 145.9 9.6999 146.1ZM34.5999 146.4C34.6999 149.3 34.9999 152.4 36.5999 154.9C35.8999 152 35.9999 148.9 34.5999 146.4ZM209.4 146.6C209.2 147.6 209 148.6 208.8 149.6C209 149.6 209.3 149.6 209.5 149.6C209.7 148.6 210.2 147.8 210.7 147C210.3 146.9 209.7 146.7 209.4 146.6ZM65.6999 150.2C66.5999 152.6 66.5999 155.5 68.2999 157.4C67.8999 155 67.1999 152.4 65.6999 150.2ZM208.1 150.5C207.3 150.7 206.8 151.9 207.4 152.6C208.4 153.1 209.1 150.8 208.1 150.5ZM200.5 161C203 158 204.2 154.2 205.6 150.6C203.6 153.9 201.7 157.3 200.5 161ZM13.3999 152.8C13.9999 154.7 14.2999 158 16.9999 157.6C16.3999 156.9 15.7999 156.3 15.1999 155.6C15.2999 155.1 15.4999 154.6 15.5999 154.1C15.3999 154.1 14.8999 154 14.6999 154C14.6999 153.5 14.6999 152.6 14.6999 152.1C14.7999 151 12.8999 152.1 13.3999 152.8ZM12.6999 155C12.1999 155.7 12.3999 156.2 13.1999 156.3C13.6999 155.5 13.5999 155.1 12.6999 155ZM47.6999 155.4C47.7999 156.1 48.1999 157.5 48.2999 158.2C47.5999 157.4 47.0999 156.1 45.7999 156.1C46.2999 157 46.6999 157.9 47.0999 158.8C47.7999 158.7 48.4999 158.6 49.1999 158.5C49.7999 159.8 50.4999 161.1 51.1999 162.3C51.1999 161.4 51.1999 160.5 51.1999 159.6C49.5999 158.4 49.9999 155.5 47.6999 155.4ZM36.3999 155.4C37.1999 159.7 38.1999 164.5 40.6999 168.1C39.2999 163.9 38.3999 159.3 36.3999 155.4ZM199.2 157C200.1 157.2 200.4 156.8 200.1 156C199.2 155.7 198.9 156.1 199.2 157ZM15.7999 159.1C14.8999 160.4 17.9999 160.2 17.7999 159.2C17.1999 158.8 16.4999 158.8 15.7999 159.1ZM16.5999 161.6C16.3999 162.6 17.2999 164.1 18.1999 164.4C18.6999 163.3 17.6999 161.5 16.5999 161.6ZM196.7 167.3C198.6 165.9 199.6 163.6 200.5 161.4C198.8 163 197.8 165.2 196.7 167.3ZM70.5999 162.8C71.5999 166.7 74.6999 169.5 76.1999 173.2C76.3999 173.1 76.8999 173 77.0999 173C77.6999 175.7 80.1999 177.3 81.9999 179.3L82.2999 177.8C79.9999 177.1 78.9999 174.7 77.2999 173.2H78.6999C74.3999 171.3 73.8999 165.8 70.5999 162.8ZM193.8 166.7C193.1 166.9 192.4 167.8 192.7 168.5C193.5 169.2 194.8 167.1 193.8 166.7ZM188.9 179.4C186.6 183.2 183.6 186.4 181.1 190C187.5 183.9 192.6 175.6 196.7 167.8C193.4 171.1 192 175.8 188.9 179.4ZM19.4999 168.6C18.9999 169.4 20.3999 170.3 21.0999 169.7C21.4999 168.8 20.0999 168 19.4999 168.6ZM41.0999 168.6C40.8999 169.6 40.5999 170.5 40.1999 171.5C40.3999 171.3 40.8999 170.7 41.0999 170.5C41.4999 172.1 43.7999 173.8 42.1999 175.2C42.3999 175.1 42.9999 175 43.1999 174.9C46.9999 182.4 51.8999 189.4 57.3999 195.8C59.9999 198 61.7999 201.8 65.0999 202.8C61.7999 200.9 60.0999 197.2 56.8999 194.9C57.2999 194.9 58.1999 194.8 58.5999 194.8C51.7999 190.7 44.3999 176.1 41.0999 168.6ZM20.3999 171C21.0999 172.4 21.6999 173.8 22.3999 175.2C22.6999 175.2 23.3999 175.2 23.7999 175.2C23.6999 175.7 23.4999 176.6 23.2999 177.1C23.8999 176.5 24.0999 175.8 24.3999 175.1C23.7999 174.8 23.2999 174.5 22.6999 174.2C22.7999 174 22.8999 173.5 22.8999 173.3C22.5999 172.6 21.8999 171.8 22.8999 171.3C22.0999 171.1 21.1999 171.1 20.3999 171ZM56.6999 172.2C57.1999 172.7 57.7999 173.3 58.3999 173.8C58.9999 173.5 59.5999 173.2 60.1999 172.9C59.9999 172.6 59.4999 171.9 59.2999 171.6C59.1999 172 58.9999 172.9 58.8999 173.4C58.1999 172.9 57.4999 172.5 56.6999 172.2ZM21.0999 175.8C20.5999 176.5 21.5999 177.5 22.2999 177C22.6999 176.3 21.6999 175.2 21.0999 175.8ZM24.1999 177C24.0999 177.4 23.9999 178.3 23.8999 178.7C24.2999 178.7 25.1999 178.8 25.5999 178.9C25.4999 179.5 25.3999 180 25.1999 180.6C25.7999 181.1 26.2999 181.6 26.8999 182.1C26.9999 181.3 26.9999 180.5 27.7999 180.1C25.9999 180.1 25.5999 178 24.1999 177ZM186.8 177.4C186.8 177.6 186.8 178 186.8 178.2L187.2 178.3L187.5 177.7L187.2 177.2L186.8 177.4ZM22.2999 177.9C22.0999 178.8 22.3999 179 23.2999 178.8C23.4999 177.9 23.1999 177.6 22.2999 177.9ZM23.9999 181.2C23.7999 182.1 24.0999 182.4 24.8999 182.1C25.1999 181.3 24.7999 181 23.9999 181.2ZM26.7999 182.8C27.2999 183.8 27.7999 184.8 28.3999 185.9C27.7999 185.7 26.5999 185.3 26.0999 185.1C26.9999 186.2 27.7999 187.5 28.7999 188.6C28.4999 187.9 27.8999 186.6 27.5999 185.9C30.7999 186.3 30.6999 191.3 33.9999 191.6C33.5999 191.4 32.6999 191 32.2999 190.8C32.3999 190.1 32.3999 189.3 32.4999 188.6C32.1999 188.7 31.6999 189 31.4999 189.1C30.5999 187.2 28.8999 185.6 28.5999 183.5C27.8999 183.3 27.3999 183 26.7999 182.8ZM85.6999 182.4C86.9999 183.6 88.5999 184.6 90.1999 185.3C89.5999 183.4 87.3999 182.9 85.6999 182.4ZM25.3999 183.4C25.0999 184.2 25.3999 184.6 26.2999 184.4C26.5999 183.6 26.2999 183.2 25.3999 183.4ZM33.0999 192.1C33.8999 193.1 34.6999 194.2 35.4999 195.3C35.3999 194.6 35.3999 193.8 35.2999 193.1C34.5999 192.8 33.8999 192.4 33.0999 192.1ZM34.4999 199.5C33.3999 199.4 32.2999 199.4 31.1999 199.4C31.9999 200.5 33.0999 201.2 34.4999 201.1C35.5999 202.7 36.2999 204.9 38.2999 205.6C38.4999 205.4 38.8999 205 39.0999 204.8C38.0999 203.7 36.8999 202.7 35.4999 202.1C34.9999 200.7 34.4999 199.2 33.9999 197.8C34.1999 198.2 34.3999 199 34.4999 199.5ZM38.0999 197.8C38.8999 199.2 39.8999 200.7 41.5999 201.1C40.4999 200 39.2999 198.9 38.0999 197.8ZM42.7999 208.6C42.4999 208.8 41.9999 209.3 41.6999 209.5C44.3999 209.7 45.4999 213.2 47.6999 212.2C46.0999 210.9 44.6999 209.4 42.7999 208.6ZM48.4999 212.9C48.2999 213.6 48.6999 214.1 49.3999 214.2C50.5999 213.9 49.1999 212.2 48.4999 212.9ZM52.7999 216C52.5999 216.9 54.1999 217.3 54.7999 216.9C54.9999 216 53.4999 215.3 52.7999 216ZM135 220.4C135.1 221.3 136.6 220.8 136.8 220.1C136.7 219.2 135.2 219.8 135 220.4ZM129 222.6C129.7 223.1 130.2 222.9 130.3 222.1C129.6 221.6 129.2 221.8 129 222.6Z" fill="#F78536"/>
<path d="M87 8.19995C88.4 9.79995 90.9 8.69995 92.6 9.69995C92 9.99995 91.4 10.4 90.8 10.7C90.3 10.7 89.9 10.7 89.4 10.7C89 9.79995 88.3 9.29995 87.3 9.59995C87.2 9.19995 87 8.49995 87 8.19995Z" fill="#F78536"/>
<path d="M83.6 11C84.9 11 86.3 10.9 87.6 11.1C87.8 11.6 88 12.2 88.2 12.8C86.8 12.8 85.5 12.7 84.1 12.6C84 13.7 83.9 14.8 83.8 15.9C84.1 15.9 84.7 15.8 85 15.8C83.9 16.7 82.7 17.3 81.3 17.2C82 17 82.8 16.8 83.5 16.6C83.6 15.7 83.7 14.9 83.7 14C83.4 13.7 83 13.3 82.7 13C83.4 12.5 83.5 11.7 83.6 11Z" fill="#F78536"/>
<path d="M91.4999 17C91.7999 16.8 92.3999 16.3 92.6999 16.1C90.9999 19.4 86.6999 20.9 83.1999 21.7C82.5999 19.2 89.5999 17.8 91.4999 17Z" fill="#F78536"/>
<path d="M75.8999 22.6999C76.6999 22.4999 76.9999 22.8999 76.6999 23.6999C75.7999 23.8999 75.4999 23.4999 75.8999 22.6999Z" fill="#F78536"/>
<path d="M68.4 29.9C69.2 29.6 69.5 29.9 69.2 30.8C68.4 31.1 68.1 30.8 68.4 29.9Z" fill="#F78536"/>
<path d="M32.6999 40.5C35.0999 40.1 32.4999 43.4 32.0999 41.3C32.1999 41.1 32.4999 40.7 32.6999 40.5Z" fill="#F78536"/>
<path d="M26.7 47.5999C27.9 46.1999 28.6 43.7999 30.9 44.2999C29.2 46.5999 27.6 48.9999 25.2 50.3999C25 49.1999 26 48.4999 26.7 47.5999Z" fill="#F78536"/>
<path d="M66.5 50.4C66.2 49.4 66.6 49 67.6 49.1C67.9 50.2 67.5 50.6 66.5 50.4Z" fill="#F78536"/>
<path d="M64.3 52.1999C64.8 51.2999 65.4 51.2999 65.9 52.1999C65.3 53.0999 64.8 52.9999 64.3 52.1999Z" fill="#F78536"/>
<path d="M11.3 72.1C11.6 71 11.9 69.7 12.9 69C13.3 70.9 12.7 72.6 11.1 73.8C11.4 73.9 12 74 12.3 74.1C11.9 74.2 11.1 74.4 10.7 74.5C10.8 75.1 10.9 76.3 11 76.9C10.2 75.9 10.3 74.6 10 73.5C10.2 73.2 10.7 72.7 11 72.4C10.7 72.3 10.2 72 10 71.9C10.4 72 11 72 11.3 72.1Z" fill="#F78536"/>
<path d="M209.7 101.4C210.3 101 211 100.6 211.7 100.2C212.8 104.6 207.5 110.1 210.9 109.7C211.1 110.5 211.2 111.3 211.4 112.1C210.5 111.8 209.6 111.6 208.7 111.3C209.4 108 208.4 104.5 209.7 101.4Z" fill="#F78536"/>
<path d="M207 113.8C208.1 112.9 209.1 111.2 210.8 112.1C210.7 113.5 210.3 114.8 210 116.1C209.2 115.3 208.5 114.5 207.8 113.7C207.5 113.8 207.2 113.8 207 113.8Z" fill="#F78536"/>
<path d="M0.299964 116.8C0.899964 115.8 2.49996 116.9 1.69996 117.8C0.999964 118.8 -0.600036 117.8 0.299964 116.8Z" fill="#F78536"/>
<path d="M4.29988 116.9C5.19988 117 4.89988 119.4 3.99988 119.5C3.49988 118.7 3.79988 117.7 4.29988 116.9Z" fill="#F78536"/>
<path d="M0.300049 120.1C0.700049 120 1.50005 119.9 1.90005 119.9C1.40005 120.9 1.00005 121.9 0.700049 123C0.600049 122 0.500049 121.1 0.300049 120.1Z" fill="#F78536"/>
<path d="M0.900045 129.2C1.40005 128.4 3.00005 129.2 2.30005 130.1C1.70005 130.8 0.200045 130.1 0.900045 129.2Z" fill="#F78536"/>
<path d="M1.50006 131.2C2.90006 130.4 2.90006 133.1 1.80006 133.3C0.800058 133.2 0.800058 131.7 1.50006 131.2Z" fill="#F78536"/>
<path d="M1.8999 138.4C1.9999 137.3 3.2999 138.8 3.8999 138.8C3.5999 139.3 2.8999 140.2 2.5999 140.7C3.4999 140.7 4.2999 140.6 5.1999 140.5C4.8999 140.7 4.2999 141.1 3.9999 141.3C4.4999 142.5 5.0999 143.6 5.7999 144.7C4.9999 144.9 4.1999 145.1 3.3999 145.2C3.2999 142.9 2.4999 140.7 1.8999 138.4Z" fill="#F78536"/>
<path d="M203.1 147.6C203.1 146.1 203.5 144.7 204.7 143.8C204.4 145.2 204 146.6 203.1 147.6Z" fill="#F78536"/>
<path d="M4 146.9C4.2 146.8 4.6 146.6 4.8 146.5C5.1 147.9 5.3 149.4 6.6 150.3C6.7 151.1 6.7 151.9 6.8 152.8C6.5 152.8 5.9 152.7 5.6 152.7C5 150.7 4.5 148.8 4 146.9Z" fill="#F78536"/>
<path d="M5.80005 153.1C7.50005 153.1 8.00005 154.9 8.80005 156.1C8.60005 156.9 8.40005 157.7 8.20005 158.6C8.40005 158.7 8.90005 158.8 9.10005 158.8C9.30005 159.8 9.50005 160.9 9.70005 161.9C9.90005 161.9 10.2 161.8 10.4 161.8C10.6 163 9.90005 164.9 11.6 165.3C11.6 165.7 11.5 166.4 11.5 166.8C12.2 167.3 12.9 167.8 13.6 168.4C13.5 168.8 13.4 169.6 13.3 170C13.5 170.1 13.9 170.5 14.1 170.6L13.1 170.5C13.5 171.6 13.9 172.7 14.3 173.8C14.7 173.8 15.6 173.9 16 173.9C16 174.9 16.1 175.8 16.1 176.8C15.2 176 14.5 175.2 13.7 174.3C13.5 172.9 13.2 171.5 12.9 170.1C11.4 169.6 11.1 168 10.9 166.6C10.2 164.9 9.20005 163.2 8.90005 161.3C8.70005 161.1 8.30005 160.6 8.10005 160.4C8.10005 157.8 6.80005 155.5 5.80005 153.1Z" fill="#F78536"/>
<path d="M55.1999 175C55.8999 174.7 57.0999 175.2 57.1999 176C56.7999 177.1 54.5999 176 55.1999 175Z" fill="#F78536"/>
<path d="M15.5 177C16.5 177.5 17.5 178.1 18.5 178.8C18.6 179.7 18.6 180.5 18.7 181.4C18.4 181.4 17.8 181.4 17.5 181.4C17.5 181 17.4 180.2 17.4 179.8C16.4 179.1 15.9 178.1 15.5 177Z" fill="#F78536"/>
<path d="M18.5 182.6C20.2 181.6 20.8 183.7 21.6 184.8C21.6 185.2 21.6 185.9 21.6 186.3C22.3 187.1 22.8 187.9 23.2 188.9C23.5 188.9 24 188.8 24.2 188.8C24.1 189.3 24 189.9 23.8 190.5C24.2 190.5 25 190.6 25.4 190.6C25.3 190.9 25.1 191.4 24.9 191.7C25.6 191.9 26.2 192.1 26.9 192.3C26.5 192.4 25.8 192.7 25.4 192.8C27.1 193.3 28.1 194.4 28.1 196.3C28.5 196.3 29.2 196.2 29.6 196.1C29.6 196.8 29.7 197.5 29.7 198.2C28.9 197.6 27.9 197.4 26.9 197.4C27.2 197.3 27.9 197 28.2 196.8C24.8 192.4 21.3 187.6 18.5 182.6Z" fill="#F78536"/>
<path d="M173.2 194.2C174 194.6 173.9 195 173.1 195.5C172.3 195.1 172.3 194.6 173.2 194.2Z" fill="#F78536"/>
</g>
<defs>
<clipPath id="clip0_131_791">
<rect width="255.9" height="229.3" fill="white"/>
</clipPath>
</defs>
</svg>
