<svg width="327" height="276" viewBox="0 0 327 276" fill="none" xmlns="http://www.w3.org/2000/svg">
<g clip-path="url(#clip0_131_819)">
<path d="M298.1 119.3C299.9 118.7 301.4 120 302.6 121.2C301.8 121 301 120.8 300.2 120.6C299.6 121 299.1 121.3 298.5 121.7C297.8 121.7 297.1 121.7 296.4 121.7C297.5 121.3 298 120.4 298.1 119.3Z" fill="#F78536"/>
<path d="M302 123.3C302.4 123.1 303 122.6 303.4 122.4C309 129.7 316 136 321.1 143.8C323.6 145.2 325.2 147.6 326.2 150.3C326.6 157.4 322 163.5 317.4 168.5C317.1 169.9 316.6 171.2 316 172.6C315.2 172.9 314.3 173.2 313.5 173.5C314.1 175.1 314.9 176.7 312.4 175.3C312.2 175.8 311.9 176.3 311.7 176.8C312 176.5 312.5 176 312.8 175.7L313.8 176.7C313.4 177 312.7 177.7 312.3 178C305.6 195.3 293.9 210.6 283 225.7C278.2 231 274 236.8 269 241.9C266.7 244.3 263.3 243.7 260.3 243.7C260.5 243.4 260.9 242.7 261.1 242.4C259.9 243.1 258.5 243.2 257.5 244.2C254.9 243.2 251.6 244.7 249.1 245.6C249.4 245.8 250.1 246.2 250.5 246.4C249.7 246 248.8 245.8 247.9 245.6C249.2 245.2 250.3 244.6 251.5 244C249.6 242.7 248.4 245.1 246.3 243C246.4 242.9 246.7 242.7 246.8 242.7C247.2 242.9 247.9 243.2 248.3 243.4C249.1 243.1 249.9 242.6 250.6 242C249.5 241.2 248.7 241.4 248.2 242.7C248.4 241.8 248.6 240.8 248.6 239.9C248.2 240.2 247.3 240.8 246.9 241.1C246.8 240.9 246.5 240.4 246.3 240.2C247 240.1 247.6 240 248.3 239.9C248.4 239.3 248.6 238.7 248.7 238.2C249.5 238.8 250.3 239.4 251.1 240C251.4 239.7 252.1 239.2 252.4 238.9C251.8 238.9 251.3 238.9 250.7 238.9C251 238.4 251.4 237.9 251.8 237.4C249.9 237 248.1 236 246.1 236.1C246 235.7 245.8 234.8 245.7 234.3C245 234.9 244.3 235.6 243.6 236.2C243.4 236.2 243 236.3 242.8 236.4C243.4 235.2 244 233.9 244.7 232.6C244.5 232.3 244.1 231.8 244 231.5C244.7 230.2 245.2 228.7 245.7 227.3C246.7 227.8 247.6 228.5 248.5 229.1C247.2 227.4 245.4 226.1 244.7 224.1C244.3 225.1 243.8 226 243.4 227C243.4 226.2 243.4 225.5 243.4 224.7C243.7 224.4 244.4 223.8 244.7 223.4C245.3 223.9 245.9 224.5 246.4 225C246.4 224.7 246.5 224.2 246.5 224C246.1 223.7 245.7 223.3 245.3 223C245.6 222.1 245.9 221.3 246.2 220.4C245.6 221.2 245.1 221.9 244.5 222.7C244.4 221.6 244.1 220.4 244.8 219.5C245.8 219.5 246.6 220 247.4 220.4C247.6 220.1 248.1 219.6 248.4 219.3C247.6 219.2 246.9 219.2 246.1 219.1L246.7 218.5C246.4 218.6 245.9 218.7 245.7 218.7C245.5 218.6 245 218.4 244.8 218.4C246.3 213.4 250.7 209.3 252 204.4C248.7 207.8 247.4 212.8 244.4 216.5C244.7 218.8 243.9 221 243.1 223.2C242.2 222.2 241.8 220.9 241.4 219.6C242 219.2 242.6 218.7 243.2 218.3C242.6 216.9 243.6 215.4 243.1 214C245.8 211.1 247.2 207.2 249.2 203.8C248.7 203.9 247.8 204 247.4 204.1C247.9 203 248.5 202 249 201C248.5 200.5 248 199.9 247.4 199.4C247.3 200.2 247.1 201.2 247.1 202C245.9 202.2 244.9 202.9 243.9 203.5C244.2 203.6 244.7 203.9 244.9 204C244.4 204.6 243.9 205.3 243.5 205.9C242.7 207 240.2 208.1 242.1 209.4C241.8 209.3 241.1 209.1 240.8 209C240.9 209.9 240.9 210.8 240.7 211.7C240.5 211.1 240.3 210.6 240.1 210C240.5 208.9 241 207.8 241.4 206.8C240.9 207 240 207.5 239.6 207.8C239.2 208.7 238.8 209.5 238.3 210.3C238.1 209.9 237.7 209.1 237.5 208.8C240.6 205.4 243.6 202 246.4 198.3C242.1 203.3 236.5 207.8 233.3 213.4C234.8 212.1 236.1 210.6 237.3 209.1L238.1 210.5C237.3 211.2 236.5 211.8 235.7 212.5C235.7 212.7 235.7 213 235.7 213.2C232.8 214.1 231.8 218.2 228.5 218.2C229.8 216.4 232.2 215.4 233 213.2C232.1 213.9 231.2 214.7 230.3 215.5C230 215.4 229.4 215.3 229.1 215.2C229.3 215.4 229.6 215.9 229.8 216.2C227.5 217.4 226.2 219.9 223.7 220.6C223.8 220.7 224 221 224.1 221.1C223.7 221.4 222.8 222.1 222.3 222.4C224.1 223.5 224.9 220.5 226.3 219.9C226.1 221.5 224.4 222.3 223.4 223.5C222.7 223.9 222.1 225.3 221.1 224.7C221.4 224 221.8 223.3 221.7 222.5C221.3 223 221 223.4 220.6 223.9C220.3 224 219.6 224.2 219.3 224.3C219.6 224.5 220.3 224.8 220.7 225C221 226.9 216.1 226 214.1 232.7L214.3 232.9C214.7 232.8 215.4 232.6 215.7 232.4C214.9 233.6 214.1 234.7 213.1 235.8C213.3 235 213.8 234.4 213.9 233.6C213.1 234.2 212.2 234.8 212.6 236C211.8 236.4 211.1 236.8 210.3 237.1C209.7 238.5 208.6 239.6 207.4 240.6C208.3 240.8 209.2 240.9 210.1 241.1C209.3 241.3 208.6 241.6 207.8 241.8C207.4 242.4 207 242.9 206.5 243.5C206.9 243.2 207.8 242.7 208.3 242.4C207.9 243.4 207.5 244.5 207 245.5C206.6 244.9 206.2 244.2 205.7 243.6C205.7 243.9 205.6 244.6 205.6 244.9C205.2 245.1 204.5 245.6 204.2 245.8L205.2 246.3C203.7 247.1 202.7 248.5 201.8 249.8L202 249.9C202.4 249.7 203.1 249.2 203.5 249C201.7 252.5 199.1 256.3 196.5 259.4C196.8 257.1 199.1 255.6 199.6 253.4C197.9 254.8 197 256.9 195.3 258.2C195.4 258.3 195.6 258.6 195.6 258.8C194.8 259.3 194.1 259.9 194 261L192.5 261.2C193.2 261.7 193.8 262.3 194.6 262.6C190.9 265.9 188.4 270.1 184.9 273.6C184.6 272.7 184 271.9 183.3 271.3C183.2 272.4 183.1 273.5 183.6 274.5C183.5 274.6 183.2 274.9 183 275.1C182.7 274.3 182.5 273.4 182.2 272.6C182 273 181.5 273.7 181.3 274.1C181.1 273.5 180.9 273 180.7 272.4C180.6 272.8 180.4 273.6 180.3 274C179 272.5 176.8 271.7 176.2 269.8C173.8 268.9 172 267.1 170.4 265.3C171 265 171.6 264.7 172.1 264.4L171.7 264.1C172.1 263.9 173 263.4 173.5 263.1C172.8 263.1 172 263.1 171.3 263.1L171.8 264C171.1 264.4 170.4 264.9 169.8 265.3C167.8 263.2 165.4 261.4 163.7 258.9C163.1 258.8 162.4 258.7 161.8 258.6C162.9 257.3 164 256.1 165.1 254.9L165.9 255.9C165 256.7 164.1 257.5 163.2 258.4C164.8 258.4 167.1 257.3 167.3 255.4C166 255.3 165.3 254.4 165 253.2C164 254.7 162.8 256 161.5 257.3C161.2 257.2 160.6 256.9 160.3 256.7L160.9 255.7C160.8 255.6 160.7 255.4 160.6 255.3C160.2 255.4 159.7 255.5 159.3 255.3C161 254.2 163 253.8 164.3 252.2C163.8 251.7 162.9 250.8 162.4 250.3L161.2 251.2C161.6 251.5 162.3 252 162.6 252.3C162.5 252.4 162.2 252.7 162.1 252.8C161.9 252.4 161.6 251.7 161.4 251.3C159.8 252.3 158.9 253.9 157.9 255.5C157.8 255.3 157.5 255 157.3 254.9C156.6 255.7 155.9 256.5 155.2 257.3C155.5 256.2 155.9 255.1 156.3 254C155.7 254.8 155.1 255.5 154.4 256.3C154.5 255.3 154.6 254.3 154.7 253.4C154 254 153.3 254.6 152.5 255.3C150.5 253.1 147.3 251.9 146.3 249C144.3 248.9 143 247.3 141.6 246.1C136.4 241.6 131.1 237.2 125.7 232.9C124.9 233.6 124.1 234.4 123 234.6C123.5 233.5 124.1 232.5 124.6 231.4C123.8 232.4 122.9 233.3 122 234.2C122.2 233.1 122.5 231.9 122.9 230.8C122.1 231.4 121.2 232.1 120.4 232.8C118.2 230.6 115.2 229.1 113.6 226.3C110.3 224.6 107.9 221.8 105 219.7C104.9 219.3 104.8 218.9 104.7 218.6C103 218.3 101.6 217 101 215.4L100.9 216.2C97.3 213.2 94 209.9 90.1 207.2C90.4 207 90.9 206.5 91.2 206.3C88.4 206.7 86.9 204.2 85.6 202.2C84.2 202 83 201.1 81.9 200.3C82.1 199.9 82.5 199 82.7 198.5C82.2 198.5 80.4 199.9 80.5 198.8C81.1 198.4 81.4 197.9 81.2 197.2C81.3 197.4 81.6 197.8 81.7 197.9C82.5 197.6 83.3 197.3 84.1 196.9C82.7 195 81 193.4 79.3 191.8C79.4 191.3 79.6 190.8 79.7 190.2C79.6 190.5 79.3 191.1 79.2 191.4C72 185.4 65.5 178.7 58.5 172.3C52.7 177.3 46.4 182.6 39 184.8C25.6 174.2 13.4 160.9 0 149.3C0.7 149.2 1.3 149.1 2 149.1C1.9 148.7 1.6 147.8 1.4 147.4C1.7 147.2 2.4 146.8 2.8 146.6C2.9 145.8 3.2 145 3.7 144.2C3.5 144.1 3.1 143.8 3 143.7C4.3 143.8 5.4 142.8 5.5 141.5C5.7 141.9 6.1 142.6 6.3 142.9C6.7 140 8.8 138.2 10.3 136C10.7 136 11.5 135.9 11.9 135.9C11.7 135.5 11.2 134.6 11 134.2C14.1 134.1 15.7 130.5 17.1 128.2C19.2 127 20.8 124.7 20.6 122.2C20.9 122.5 21.6 123.2 22 123.6C21.9 122.8 21.9 121.9 21.8 121C22.1 121.1 22.8 121.4 23.1 121.5C23.1 121.2 23.2 120.5 23.2 120.1C23.9 119.8 24.5 119.5 25.2 119.2C25.7 118.4 26.2 117.6 26.7 116.8C26.4 116.5 25.9 115.9 25.6 115.6C25.9 115.8 26.6 116.2 26.9 116.4C27.2 116.1 27.8 115.5 28.1 115.2C27.8 115.1 27.2 114.8 27 114.7C29 114.2 28.9 111.3 31.2 111.4C31.2 111.2 31.3 110.8 31.3 110.6C32.9 108.8 34.4 106.8 36.3 105.2L35.6 104.4C36 104.3 36.9 104.1 37.4 104L36.2 103.2C36.7 103.1 37.8 103 38.4 102.9C41.3 98.2999 45 94.2999 48 89.5999C48.2 89.8999 48.5 90.3999 48.7 90.6999C48.7 90.3999 48.8 89.7999 48.9 89.3999C51.7 87.7999 52.2 84.2999 54.6 82.3999C54.5 82.0999 54.4 81.3999 54.3 81.0999C54.8 80.9999 55.4 80.9999 55.9 80.9999C57 79.2999 59.8 78.3999 59.8 76.1999C60.3 75.9999 61.2 75.4999 61.7 75.1999C61.5 74.9999 61.1 74.5999 60.9 74.3999C61.3 74.0999 62.1 73.4999 62.5 73.2999C62.3 72.7999 62 72.1999 61.8 71.6999L63.1 73.2999C63.2 72.7999 63.4 71.7999 63.5 71.1999C63.7 71.3999 64 71.9999 64.2 72.1999C67.6 67.7999 72.5 64.1999 74.9 59.0999C76.5 58.3999 77.7 57.2999 78.6 55.8999C82 54.6999 82.7 50.0999 86.5 49.2999C88.8 51.0999 85.7 52.8999 84.6 54.1999C84.3 53.9999 83.8 53.5999 83.6 53.3999C85.2 55.2999 82.1 55.6999 81.3 56.9999C81.5 57.5999 81.8 58.1999 82.1 58.7999C85.1 56.7999 86.3 52.9999 89.9 52.1999C89.7 51.8999 89.4 51.3999 89.2 51.0999C90 51.1999 90.8 51.3999 91.5 51.4999C90.9 52.2999 90.4 53.0999 90 53.9999C91.9 52.5999 93.3 50.7999 94.7 48.8999C93.8 49.1999 92.9 49.3999 92.1 49.6999C91.9 50.1999 91.7 50.7999 91.6 51.2999C90.9 49.7999 89.7 48.2999 88.5 50.2999C88 49.6999 87.4 49.1999 86.9 48.5999C89.1 45.1999 92.8 43.0999 95 39.7999C95.4 39.7999 96.1 39.6999 96.4 39.5999C96.4 39.2999 96.4 38.6999 96.4 38.3999C98.8 36.9999 101.5 35.2999 102.8 32.6999C104.4 32.5999 104.7 34.1999 105.1 35.3999C104.2 36.2999 101.1 36.6999 102.8 38.2999C102.4 38.3999 101.6 38.5999 101.2 38.6999C101.4 38.9999 101.7 39.4999 101.8 39.7999C102.8 38.7999 103.8 37.7999 104.8 36.7999C105.2 37.2999 106 38.1999 106.4 38.6999C106.4 37.7999 106.2 36.9999 105.7 36.2999C106.1 36.3999 106.8 36.6999 107.2 36.7999C107 36.4999 106.5 35.8999 106.3 35.6999C107.2 35.0999 108.1 34.4999 109 33.7999C109 34.2999 108.9 35.1999 108.9 35.5999C110.8 34.6999 110 33.1999 109.8 31.6999C110.5 31.0999 111.1 30.5999 111.8 30.0999C112.1 30.2999 112.7 30.6999 113 30.8999C112.7 30.5999 112.2 30.0999 111.9 29.7999C112.8 28.9999 113.6 28.1999 114.5 27.3999C114.4 27.9999 114.1 29.1999 114 29.7999C114.4 29.5999 114.8 29.4999 115.1 29.2999C115 28.0999 114.2 26.4999 115.9 25.6999C115.9 26.3999 116 27.6999 116 28.2999C116.6 27.5999 116.9 26.4999 117.8 26.1999C117.7 25.5999 117.6 24.4999 117.5 23.8999C117.8 24.1999 118.5 24.8999 118.8 25.1999C124.5 19.8999 130 14.4999 136.3 9.89992C136 9.69992 135.3 9.29992 135 9.09992C136 8.29992 136.9 7.39992 137.9 6.59992C137.4 7.29992 136.8 7.89992 136.2 8.59992C136.4 8.79992 136.7 9.19992 136.9 9.39992C138.4 7.89992 140.2 6.89992 142 5.79992C141.6 5.59992 140.9 5.19992 140.5 5.09992C140.9 4.79992 141.6 4.29992 142 3.99992C142 4.39992 141.9 5.29992 141.8 5.69992C143.5 5.49992 145.3 3.89992 147 4.89992C141 6.89992 137 12.2999 131.4 14.8999C131.5 15.1999 131.7 15.7999 131.8 16.0999C131.1 16.0999 130.5 15.9999 129.8 15.9999C130 16.1999 130.3 16.6999 130.4 16.9999C125.6 20.3999 122 25.0999 117.6 28.9999C116.8 30.1999 115.2 31.0999 115.2 32.6999C125.3 23.6999 134.1 12.3999 146.6 6.69992C146.7 6.89992 147 7.19992 147.1 7.29992C137.1 12.4999 129.2 20.8999 121.3 28.6999C121.4 28.8999 121.7 29.2999 121.9 29.4999C122.7 29.4999 123.2 28.8999 123.3 27.6999C123.5 27.8999 123.8 28.2999 124 28.4999C124.3 27.9999 124.8 27.0999 125.1 26.6999C125.3 27.0999 125.7 27.8999 125.9 28.2999C125.9 27.7999 125.9 26.7999 126 26.2999C126.6 26.6999 127.2 27.0999 127.8 27.4999C127.3 26.5999 126.9 25.7999 126.4 24.8999C130.3 21.6999 133.9 18.1999 137.8 14.9999C138.2 15.0999 138.9 15.2999 139.2 15.2999C140.9 11.8999 144.9 10.4999 147.7 8.29992C149.1 9.99992 150.4 11.6999 151.5 13.5999C151.4 13.8999 151.1 14.5999 151 14.9999C151.3 15.3999 151.8 16.1999 152.1 16.5999C150.1 18.1999 147.7 19.3999 145.7 21.0999C148.8 19.1999 152.5 18.0999 155.1 15.4999C155.1 15.0999 155.2 14.3999 155.2 13.9999C155.4 14.7999 155.7 15.5999 156 16.3999C157.6 15.3999 159 13.9999 160.2 12.4999L160.4 13.3999C161.2 10.8999 164.1 11.1999 165.9 9.99992C166.2 8.39992 167.7 7.69992 169.1 7.39992C169.1 7.09992 169 6.59992 169 6.39992C170.3 7.99992 171.5 6.09992 172.7 5.49992L171.8 5.19992C173.4 4.89992 174.9 4.19992 176.5 4.29992C178.6 3.99992 180.2 2.29992 182.5 2.79992C183.3 3.49992 184 4.29992 184.7 5.09992C184.7 5.39992 184.8 5.99992 184.8 6.39992C191.3 13.0999 196.6 21.0999 202.5 28.3999C204.8 32.0999 209.5 34.3999 206.5 39.0999C207.8 39.2999 209 38.9999 210.2 38.3999C212.2 39.9999 214.4 42.0999 214.6 44.7999C212.2 50.1999 209.1 55.5999 205 59.9999C206.9 62.3999 208.8 64.6999 210.6 67.1999C209.8 66.9999 209.1 66.7999 208.3 66.5999C212.8 68.0999 214.8 72.9999 218.1 76.1999C219.3 77.0999 218.4 78.3999 218.3 79.5999C219.2 79.6999 220.1 79.4999 220.9 79.2999C221 79.6999 221.1 79.9999 221.2 80.3999C224.4 78.9999 227.6 77.3999 230.9 76.0999C230.3 75.6999 229.7 75.2999 229.1 74.8999C230.5 74.3999 232 73.7999 233.5 73.3999C233 72.8999 232.6 72.4999 232.1 71.9999C231.1 72.4999 230.1 72.8999 229.1 73.2999C229.2 72.4999 229.5 71.7999 229.7 70.9999C233.1 69.0999 237 68.0999 240.9 68.5999C246 74.8999 251.3 81.4999 256.8 87.1999C256.3 87.5999 255.8 88.0999 255.3 88.4999C255.8 89.0999 256.3 89.5999 256.8 90.1999C257.1 90.1999 257.6 90.2999 257.8 90.3999C257 90.0999 256.5 89.4999 256.2 88.6999C256.4 88.4999 256.9 88.1999 257.1 88.0999C259.3 90.4999 261.4 92.9999 263.3 95.5999C263.1 96.2999 262.9 96.9999 263 97.7999C263.4 97.7999 264.2 97.7999 264.6 97.6999L264.8 98.3999C265.4 97.6999 266.1 96.9999 266.7 96.2999C266.8 96.5999 266.9 96.9999 267.1 97.3999C266.6 97.5999 266 97.8999 265.5 98.1999C266.5 98.8999 267.5 99.6999 268.5 100.6C268.4 98.6999 270.6 97.9999 271.7 96.8999L272.6 97.7999C271.7 98.5999 270.6 99.5999 269.3 99.5999C270.8 100.1 272.1 99.2999 273.1 98.1999C275.9 98.9999 276.1 102.5 278.5 103.9C280.9 105.8 282.8 108.4 284.3 111.1C284.1 111.3 283.6 111.6 283.4 111.8C283.5 112.1 283.8 112.7 284 113C284.1 112.5 284.3 111.6 284.4 111.2C285.5 112 286.7 113.4 285.1 114.5C285.5 114 286 113.5 286.4 113.1C287.8 114.5 289.1 116 289.9 117.8C291.1 118.2 291.5 119.3 292.1 120.3C291.9 120.6 291.5 121.2 291.3 121.5C291.4 121.8 291.6 122.4 291.7 122.8C294.2 122.2 295.8 123.7 297.4 125.4C297.6 124.3 298.5 122.3 299.6 124C299.5 122.8 300.6 122.3 301.4 121.6C301.7 122 301.9 122.9 302 123.3ZM298.6 126.3C297.7 126.4 297.5 126.8 298 127.5C298.9 127.5 299.1 127.1 298.6 126.3ZM233 72.0999C233.8 73.0999 234.5 74.0999 235.3 75.0999C236.5 74.7999 236.4 73.7999 236.1 72.7999C237.7 71.8999 240.1 72.6999 241.2 70.7999C238.4 70.5999 235.7 71.3999 233 72.0999ZM177.5 7.69992C177.8 7.69992 178.5 7.79992 178.8 7.89992C178.8 8.09992 178.7 8.59992 178.7 8.79992C179.2 8.69992 180.1 8.39992 180.6 8.29992C180.4 8.79992 180.1 9.69992 179.9 10.1999C180.1 10.1999 180.4 10.0999 180.6 10.0999C180.4 8.79992 181.6 7.49992 180.2 6.49992C181 6.29992 181.8 6.09992 182.5 5.79992C180.6 4.79992 178.6 5.99992 177.5 7.69992ZM297 137.9C296 137.9 295.8 138.3 296.3 139C297.2 138.9 297.5 138.6 297 137.9ZM241.2 75.0999C240.3 75.1999 238.9 75.0999 238.5 75.9999C238.7 77.1999 242.6 75.5999 241.2 75.0999ZM299.2 143.2C298.3 143.3 298.1 143.7 298.5 144.4C299.5 144.3 299.7 143.9 299.2 143.2ZM183.2 11.6999C182.3 12.0999 182.3 12.4999 183.1 12.8999C184 12.4999 184 12.0999 183.2 11.6999ZM295.1 138.6C292.4 139.6 291 142.1 288.8 143.7C289.4 144.4 289.9 145 290.5 145.7L291 144.9L289.9 144.2C291.9 142.5 294.1 141 295.1 138.6ZM239.4 77.5999C236.9 78.8999 234.2 79.5999 231.6 80.5999C231.5 80.4999 231.3 80.2999 231.2 80.1999C232.3 77.6999 235.7 77.8999 237.9 76.6999C237.6 76.4999 237.1 76.0999 236.8 75.8999C235.8 76.6999 234.6 77.1999 233.4 76.9999C233.2 77.2999 232.9 77.4999 232.7 77.7999C228.9 77.8999 226.4 81.4999 222.7 80.9999C223 81.4999 223.2 81.8999 223.5 82.3999C225.9 81.8999 227.8 80.3999 230.1 79.6999C230.2 79.8999 230.5 80.2999 230.6 80.4999V80.8999C228.5 81.7999 226.4 82.5999 224.4 83.6999C224.5 84.0999 224.8 84.7999 224.9 85.0999C226.7 83.5999 229 81.9999 231.5 82.6999C231.6 82.3999 231.9 81.8999 232.1 81.6999C232.4 82.0999 233.1 82.8999 233.5 83.2999C233.1 82.3999 232.8 81.5999 232.4 80.6999C234.5 80.5999 236.3 79.9999 238.3 79.4999C238.4 79.2999 238.6 78.7999 238.6 78.5999C238.9 78.6999 239.5 78.9999 239.8 79.0999C239.6 78.5999 239.5 78.0999 239.4 77.5999ZM176.9 8.19992C176.8 8.39992 176.5 8.89992 176.4 9.09992C174.6 7.89992 173.1 9.69992 172.2 10.9999C172.1 10.7999 171.8 10.3999 171.7 10.2999C169.7 12.2999 166.6 12.7999 164.6 14.8999C164.4 14.6999 164 14.3999 163.8 14.2999C162.5 16.7999 159.1 16.8999 157.8 19.4999C157.6 19.1999 157.3 18.6999 157.1 18.3999C156.3 18.9999 155.6 19.6999 154.8 20.3999C155.2 20.9999 155.7 21.6999 156.1 22.2999C158.4 20.5999 160.7 18.8999 162.4 16.5999C162.7 16.7999 163.2 17.3999 163.5 17.5999C162.1 16.1999 163.4 15.3999 164.7 15.3999C164.6 15.7999 164.3 16.4999 164.2 16.8999C165.1 16.1999 166.1 15.3999 167 14.6999C167.3 14.6999 167.9 14.7999 168.2 14.7999C167.9 14.4999 167.3 13.9999 166.9 13.7999L168 12.9999C168.8 14.2999 169.9 13.6999 171 13.1999C170.8 12.9999 170.3 12.6999 170.1 12.4999L171.4 11.3999L171.8 12.4999C172.3 11.7999 172.8 11.1999 173.4 10.4999C173.8 10.5999 174.7 10.8999 175.2 10.9999C174.9 10.6999 174.3 10.0999 174 9.79992L174.9 8.99992C175.2 9.19992 175.7 9.69992 176 9.99992C176.8 9.79992 177.5 9.49992 178.3 9.29992C177.8 9.09992 177.2 8.49992 176.9 8.19992ZM292.2 152.3C287.7 157.6 283.4 163.1 279.4 168.8C279.7 169.2 280.3 169.9 280.6 170.2C280.6 169.6 280.6 168.5 280.5 167.9C280.8 168 281.4 168.1 281.7 168.2C282 167 282.6 166 283.1 164.9C283.5 165 284.3 165.3 284.7 165.5C284.5 165.3 284 164.8 283.8 164.5C284.2 164 285 163 285.5 162.4C286.2 162.6 287 162.9 287.7 163.1C287 162.5 286.4 161.8 285.7 161.2C286.4 160.9 287 160.7 287.7 160.4C287.6 160.2 287.4 159.7 287.3 159.5C287.9 159.1 289.1 159 288.4 157.9C289 157.3 289.7 156.8 290.3 156.2C290.6 156.4 291.1 156.7 291.3 156.8C291.1 156.1 290.9 155.5 290.8 154.8C291.4 154.7 292 154.6 292.6 154.5C292.4 154.3 292.1 153.8 291.9 153.5L292.8 152.9C293 153.1 293.4 153.6 293.6 153.9C293.5 153.2 293.4 152.6 293.3 152C294 151.4 294.7 150.7 295.6 150.4C295.4 149.8 295.1 149.2 294.9 148.6C295.2 150.5 293.1 151 292.2 152.3ZM294 147.3C293 148.2 292 149.1 291 150.1C290.8 150 290.5 149.7 290.3 149.6C290.3 149.9 290.4 150.4 290.5 150.7C283.1 159.5 276.2 168.7 269.4 178C269.9 177.9 270.4 177.8 270.9 177.7C277.9 167.1 286.3 157.4 294 147.3ZM288.5 144.3C285.3 147.5 283.2 151.4 280.7 155.2C283.2 155.1 283.8 152.1 285.7 150.9C285.6 151.6 285.5 152.3 285.5 153.1C286.7 152.2 286.8 151.2 285.7 150.3C287.5 149.2 288.6 147.5 289.8 145.8C289.4 145.5 288.8 144.7 288.5 144.3ZM173.7 16.9999C172.7 16.8999 170.4 17.6999 170.9 18.7999C171.8 18.6999 173.6 17.9999 173.7 16.9999ZM156.7 27.0999C156.6 27.2999 156.4 27.6999 156.3 27.8999C156 28.0999 155.3 28.3999 154.9 28.4999C159.4 26.6999 163.6 23.7999 167.1 20.4999C163.6 22.5999 160.2 24.9999 156.7 27.0999ZM161.3 20.1999C160.5 20.0999 159.6 20.5999 159.3 21.3999C159.7 22.3999 161.7 20.9999 161.3 20.1999ZM158.6 21.7999C157.6 21.8999 157.4 22.2999 157.9 22.9999C158.8 22.8999 159 22.4999 158.6 21.7999ZM275 165.2C274.1 166.4 273.3 167.7 272.3 168.9C272.4 169 272.7 169.3 272.9 169.4C274.4 167 276.3 164.8 278 162.5C276.8 163.1 275.7 164 275 165.2ZM279.1 169.2C277 171.9 274.8 174.6 273.1 177.6C274.1 177.6 274.5 177.1 274.5 176.1C275.3 175.7 276.1 175.3 276.8 174.9C276.7 174.6 276.5 174.1 276.4 173.8C276.8 173.4 277.7 172.5 278.1 172.1C278.5 172.4 278.9 172.7 279.3 173C279 172.6 278.4 171.9 278.1 171.6C278.5 171.4 279.4 171 279.9 170.8C279.7 170.3 279.4 169.8 279.1 169.2ZM273.1 177.8C272.2 177.8 271.5 179.3 272.2 179.9C273 179.7 273.9 178.4 273.1 177.8ZM271.5 179.9C270.8 180.7 270.2 181.6 269.6 182.4C270.2 182.8 270.7 183.1 271.3 183.5C271 182.8 270.2 182.1 270.8 181.4C271.1 181.6 271.8 181.9 272.1 182.1C271.9 181.4 271.7 180.7 271.5 179.9ZM269.1 178.9C268.4 178.9 267.5 179.8 267.8 180.5C268.6 181.1 270 179.4 269.1 178.9ZM264.9 178.6C264.3 179.6 263.7 180.5 263.2 181.5C264.3 181.1 264.8 180 265.5 179.1C265.3 178.9 265 178.7 264.9 178.6ZM267.9 180.9C265.8 182.8 264.2 185.2 262.6 187.6C262.4 187.4 262 187.1 261.8 186.9C262 187.1 262.3 187.5 262.5 187.7C260.4 191.2 256.8 194.2 256.1 198.4C259.9 192.4 264.6 187 267.9 180.9ZM269.2 183.4C267.3 185.4 265.7 187.8 264.1 190.1C262.7 193.3 259.4 195.6 258.7 199.1L258 198.5C257.7 199.8 256.8 201.1 257.6 202.4C258.3 201.1 258.4 199.4 259.7 198.5C260 196.7 262 195.9 262.5 194.2C262.8 194.3 263.4 194.4 263.7 194.5C263.5 194.2 263.2 193.8 263 193.5C263.8 193.1 264.5 192.7 265.3 192.2C265 192 264.3 191.7 263.9 191.5C265.4 190.4 266.1 187.9 268.1 187.8C267.8 187.6 267.2 187.3 266.9 187.2C268.2 186.2 269 185 269.2 183.4ZM120.9 28.8999C111.9 39.8999 100.2 48.9999 91.7 60.3999C92.8 59.3999 93.8 58.2999 94.8 57.1999C95.4 57.3999 96 57.6999 96.7 57.8999C96.4 57.5999 95.8 56.8999 95.5 56.5999C95.9 56.2999 96.7 55.5999 97.1 55.1999C97.2 55.4999 97.5 56.0999 97.7 56.3999C97.8 55.6999 98.1 54.9999 98.6 54.4999C98.6 54.0999 98.7 53.3999 98.7 52.9999C99.2 53.0999 100.2 53.3999 100.7 53.5999C100.4 53.2999 99.7 52.5999 99.4 52.1999C100.2 51.8999 101 51.8999 101.9 52.2999C101.6 51.9999 101 51.2999 100.8 50.9999C101.2 50.9999 101.9 50.8999 102.3 50.8999C102.6 49.3999 103.9 48.4999 104.9 47.4999C105.2 47.7999 105.7 48.2999 106 48.5999C105.9 48.0999 105.6 46.9999 105.5 46.4999C106 46.5999 106.9 46.8999 107.3 46.9999C107 46.6999 106.4 46.0999 106 45.7999C106.9 45.1999 107.8 45.3999 108.6 46.2999C108.7 46.1999 108.8 46.0999 108.9 45.9999C108.5 45.6999 107.8 44.9999 107.4 44.5999L108.6 43.4999C109 43.8999 109.7 44.7999 110.1 45.1999C109.7 44.4999 109.3 43.8999 108.9 43.1999C110.2 41.9999 111.3 40.7999 112.8 39.7999C112.8 39.5999 112.9 39.1999 112.9 38.9999C114.4 37.9999 115.4 35.6999 117.4 35.7999C117.4 32.9999 120.8 32.1999 121.7 29.8999C121.2 29.7999 121 29.1999 120.9 28.8999ZM114.9 32.6999C103.5 43.5999 91.4 54.7999 81.7 67.1999C92.3 55.2999 105 45.0999 114.9 32.6999ZM255.7 197.9C254.7 199.9 253.2 201.8 252.5 204C254.2 202.4 255.7 200.2 255.7 197.9ZM252.4 197.5C251.4 198 251.4 198.5 252.3 199C253.3 198.5 253.3 198 252.4 197.5ZM256.8 202.1C255.5 203.3 254.1 204.7 254.1 206.6C254.4 206.2 254.9 205.3 255.2 204.8C255.6 205.1 256 205.4 256.4 205.7C255.6 204.5 256.4 203.3 256.8 202.1ZM249.7 199.4C249.2 198.7 247.7 199.4 248.4 200.2C249 200.8 250.5 200.2 249.7 199.4ZM100 39.0999C98.5 41.8999 96 43.7999 93.2 45.1999C93 45.0999 92.5 44.8999 92.2 44.7999C92.5 44.9999 93 45.3999 93.3 45.5999C91.9 46.6999 90.5 47.7999 89.2 49.1999C90.1 49.3999 90.9 49.0999 91.6 48.3999C91.7 48.6999 92 49.1999 92.1 49.4999C93.7 47.3999 95.9 45.7999 97.2 43.6999C98.8 43.1999 99.9 41.6999 101.1 40.5999C100.9 40.1999 100.3 39.4999 100 39.0999ZM265.6 241C265.1 240.4 263.7 241.1 264.3 241.9C264.8 242.5 266.3 241.8 265.6 241ZM95.2 47.5999C94.4 47.9999 94.3 48.3999 95.1 48.8999C96 48.4999 96 47.9999 95.2 47.5999ZM212 188.1C212.1 188.4 212.4 188.9 212.6 189.2C208.4 192.3 206 197.5 203.3 201.9C203.7 202.2 204.5 202.9 204.9 203.2C204.9 202.8 204.8 201.9 204.7 201.4C204.9 201.3 205.4 201.2 205.6 201.2C205.7 200.7 205.9 199.7 206 199.2C206.4 199.3 207.1 199.6 207.4 199.8C205.9 198.8 207.1 197.6 208.3 197.1C208.2 196.9 207.9 196.6 207.8 196.5C209.7 194 211 191 213.5 189.1C213.1 188.7 212.4 188.3 212 188.1ZM80.3 58.2999C80 58.6999 79.3 59.4999 78.9 59.8999C78.8 59.6999 78.6 59.1999 78.5 58.9999C76.8 62.5999 73.5 65.2999 71.2 68.5999C71.2 68.7999 71.3 69.2999 71.4 69.4999C67.4 73.5999 63.3 77.4999 59.6 81.9999C60.2 81.8999 60.9 81.7999 61.5 81.6999C60.7 82.2999 60 83.0999 59.7 84.0999C61.3 82.8999 62 80.8999 63.8 79.7999C63 79.9999 62.3 80.1999 61.5 80.3999C62.5 79.4999 63.6 78.5999 64.6 77.6999C64.9 77.7999 65.4 77.9999 65.6 78.0999C67 76.1999 68.4 74.2999 70 72.5999C70.8 72.5999 71.2 73.4999 71.5 74.0999C71.4 73.2999 71.9 72.6999 72.3 72.0999C68.1 72.4999 79.8 63.0999 80.2 61.3999C80.1 61.0999 79.9 60.4999 79.8 60.1999C80.2 59.9999 80.8 59.6999 81.2 59.5999L80.3 58.2999ZM202.3 201.6C202.5 202.8 202.4 204 201.5 204.9C201.9 205.4 202.6 206.3 203 206.7C203.2 205.5 203.6 204.5 204.1 203.4C203.5 202.8 202.9 202.2 202.3 201.6ZM200.9 203.3C200.1 203.5 199.2 204.9 200 205.5C200.7 205.3 201.6 203.8 200.9 203.3ZM201.6 205.4C201.2 205.7 200.6 206.4 200.2 206.7C199.9 206.4 199.4 205.8 199.1 205.5C198.4 207.1 197.7 208.6 196.7 210C196.5 209.7 196.1 209.2 195.9 208.9C192.9 215.7 186.6 221.1 182.2 227.2C175.5 234.9 169.4 243.1 162.4 250.5C162.8 250.9 163.6 251.7 164 252.1C164.4 252 165.2 251.7 165.7 251.6C165.3 251.2 164.5 250.3 164.2 249.8C164.6 250 165.3 250.5 165.6 250.7C169.5 245.7 174.2 241.5 177.8 236.3C178.3 236.9 178.8 237.6 179.3 238.2C179.8 237.7 180.7 236.7 181.1 236.2C178.1 241.3 174 245.9 169.8 250.1C172.2 245.7 176.1 242.1 179.5 238.4C178.9 238.3 178.3 238.3 177.7 238.2C176.6 239.2 175.5 240.2 174.3 241.1C174.4 241.3 174.7 241.5 174.8 241.7C173.5 242.8 172.2 243.9 170.9 244.9C171.1 245 171.4 245.3 171.6 245.4C168.8 247.3 167.6 250.6 165.1 252.8C165.3 253 165.8 253.3 166 253.5C167 252.4 168 251.4 169.2 250.6C168.8 251.2 168 252.5 167.6 253.1C168.6 252.9 169.7 252 170.7 252.8C171.5 248.4 176.2 246.6 178 242.9C178.8 242.5 179.7 242.1 180.5 241.7C180.3 241.4 180 240.7 179.9 240.4C180.6 239.8 181.2 239.2 181.9 238.6C182.2 238.9 182.8 239.5 183.1 239.9C182.9 239.2 182.7 238.6 182.5 237.9C183.2 237.7 183.8 237.5 184.5 237.3C184.5 236.3 184.6 235.3 184.6 234.3C185.1 234 185.7 233.8 186.2 233.5C186.2 233.2 186.2 232.7 186.2 232.5C187.5 231.5 188.4 229.5 190.3 230.1C189.9 229.5 189.4 228.9 189 228.3C188.1 229.1 187.2 229 186.6 227.9C186 228.4 185.5 229 184.9 229.5C184.5 229.1 183.9 228.3 183.5 227.9C184.4 227.2 185.3 226.4 186.2 225.6C186.1 225.1 186 224 185.9 223.5C186.4 223.7 187.4 224 187.9 224.1C187.6 223.8 186.9 223.3 186.6 223C187.1 222.5 188.2 221.5 188.7 221.1C188.6 221.5 188.4 222.4 188.3 222.9C188.6 223.2 189.2 223.8 189.5 224.1C188.7 225.1 187.8 226.2 187.1 227.3C188.2 226.3 189 225.1 190.3 224.4C191 225.2 191.8 226 191.9 227.1C192.3 226.6 192.8 226.2 193.2 225.7C192.7 224.8 192.6 223.8 192.6 222.8C193.3 222.9 194 223.1 194.7 223.3C195.3 221.8 196 220.2 196.5 218.6C196 218.9 195 219.6 194.5 219.9C194.5 219.1 194.7 218.4 195.1 217.7C193.7 218.7 192 219.8 191.7 221.7C192.2 221.4 193.3 220.7 193.9 220.3C193.9 221.4 193 222.2 192.5 223.1C191.5 221.8 190.3 220.7 189.5 219.2C190.3 219.4 191.1 219.6 191.8 219.8C191.8 219.5 191.8 218.8 191.8 218.5C192.1 218.5 192.7 218.6 193 218.6C193.2 218 193.7 216.9 193.9 216.4C193.5 216.4 192.8 216.4 192.4 216.5C193 215.9 193.5 215.4 194 214.9C194.1 215.2 194.3 215.8 194.4 216.1C195.3 215 196.3 214 197.2 212.9C197.2 212.1 197.3 211.2 197.5 210.4C197.6 210.9 197.8 211.9 197.8 212.4C198.6 210.8 201.7 209.4 200.5 207.4C201 207.2 201.4 207 201.9 206.8C202 206.8 201.8 206.1 201.6 205.4ZM198.8 203.2C197.6 204.6 196.6 206.1 195.4 207.5C195.2 207.4 194.7 207.1 194.5 207C194.8 208 194.3 208.8 194 209.7C196 207.9 197.7 205.7 198.8 203.2ZM200.6 212C198.3 213.6 196.6 215.8 195 218C197 219 197.7 215.9 199.1 214.9C199.6 215.4 200.2 215.9 200.7 216.4C200.3 216 199.6 215.2 199.2 214.8C199.9 214 200.9 213.2 200.6 212ZM208.3 234.4C208.2 235.1 208.1 235.9 208.1 236.7C207.6 237.4 207.1 238.1 206.6 238.9C207.6 238.6 208.3 237.8 209 237C208.8 236.1 208.5 235.3 208.3 234.4ZM190.2 214.2C188.8 215.7 187.4 217.3 186.6 219.2C187.9 217.7 189.5 216.2 190.2 214.2ZM205.4 233.2C203.4 234 202.6 236.2 200.9 237.4C201.7 237 202.5 236.7 203.3 236.3C203.6 235 204.6 234.1 205.4 233.2ZM198.1 230.2C198.1 230.5 198.1 231.2 198.2 231.5C197.7 232.1 197.2 232.7 196.7 233.4C197.9 233 199.2 232.1 200.1 233.6C199.4 232.5 198.7 231.3 198.1 230.2ZM56.7 85.0999C56.8 85.6999 56.9 86.8999 57 87.4999C56.7 87.1999 56 86.4999 55.6 86.0999C55.8 86.4999 56.3 87.1999 56.6 87.5999C55.7 87.7999 54.9 87.9999 54 88.2999C54.3 88.5999 54.8 89.0999 55 89.2999C54.6 89.2999 53.7 89.1999 53.2 89.0999C53.5 89.4999 54.2 90.2999 54.5 90.6999C55.6 89.0999 56.9 87.5999 58.2 86.0999C57.7 85.6999 57.2 85.3999 56.7 85.0999ZM185.2 236.4C186 236.7 186.3 236.4 186.1 235.5C185.3 235.2 184.9 235.5 185.2 236.4ZM182.6 251.6C180.8 253.9 178.7 256.1 177.2 258.6C177 258.7 176.5 258.9 176.3 259C176.1 259.5 175.9 260 175.6 260.5C178.2 257.8 180.7 255.1 183.1 252.1C183 252 182.8 251.7 182.6 251.6ZM192.2 262.7C191.9 263.6 192.2 264 193.2 263.8C193.3 263.1 192.9 262.7 192.2 262.7ZM191 265.7C190.4 265.1 189.1 265.9 189.7 266.6C190.3 267.2 191.6 266.5 191 265.7ZM42.7 103L42.4 102.2C40 105.3 38 108.6 35.1 111.3C35.1 111.6 35.1 112.1 35.1 112.4C34.8 112.6 34.1 113.1 33.7 113.3C34.5 113.3 35.3 112.9 35.9 112.4C36.2 112.4 36.7 112.4 37 112.4C36.7 112.2 36.3 111.8 36 111.6L35.9 111.3C36.2 110.3 37.3 110.6 38.1 110.5C39.4 108.1 42.2 107 43 104.3L44.6 103.8C43.8 103.7 43 103.7 42.2 103.7C42.7 103.5 43.6 103 44.1 102.8C43.7 102.7 43 102.9 42.7 103ZM188.6 268.4C187.4 269 184.9 270.2 186.5 271.8C187.1 270.7 189.2 269.9 188.6 268.4ZM45.7 109.1C42.2 112.7 39.2 116.7 36.1 120.6C39.5 117.1 43.5 113.5 45.7 109.1ZM33.8 114.2C32.7 115.1 31.5 115.9 30.4 116.7C30.6 117 30.9 117.6 31.1 117.9C30.3 118 29.6 118.4 29.2 119C29 119.1 28.5 119.3 28.3 119.4C28.5 120.1 28.7 120.7 28.8 121.4C30.6 119.2 32.3 116.9 34.3 114.9L33.8 114.2ZM56.3 171.3C55.4 171.3 55.1 171.7 55.6 172.4C56.5 172.4 56.7 172.1 56.3 171.3ZM55 172.8C51.3 174.8 48.2 177.8 44.6 179.9C48.6 178.7 51.7 175.2 55 172.8ZM15 136.2C13.6 136.2 14.8 138 15.6 138C16.4 137.6 15.7 136.3 15 136.2ZM14 137.9C13.1 139.2 10.3 140.5 11.4 142.4C9.8 142.8 8.8 144.2 7.7 145.3C8 146 8.2 146.8 8.6 147.5C8.7 146.7 8.7 146 8.8 145.2C9 144.9 9.4 144.2 9.7 143.8C10 144 10.7 144.4 11 144.6C11.5 143.5 12 142.3 12.4 141.1C13 141 13.5 140.8 14 140.7C13.9 140.5 13.7 140.1 13.5 139.8L12.2 140.4C12.4 139.9 12.9 139 13.1 138.5C13.8 138.8 14.4 139 15.1 139.2C14.8 139.1 14.3 138.3 14 137.9ZM6.7 146.3C6.8 146.7 7.1 147.6 7.2 148C6.5 148.3 5.8 148.6 5.2 148.9C5.3 149.1 5.5 149.4 5.7 149.6C6.4 149 7.2 148.4 7.9 147.8C7.5 147.5 6.9 146.7 6.7 146.3Z" fill="#F78536"/>
<path d="M271 94.5C271.3 95 271.7 95.6 272 96.1C271.6 96.6 271.2 97.1 270.8 97.5C270.3 97 269.8 96.4 269.3 95.9C269.8 95.5 270.4 95 271 94.5Z" fill="#F78536"/>
<path d="M143.7 -9.64925e-05C145 -0.100096 145.1 2.0999 143.7 1.6999C142.4 1.6999 142.2 -0.300097 143.7 -9.64925e-05Z" fill="#F78536"/>
<path d="M115.6 19.7C116.7 20.1 117.2 21.1 117.3 22.2C116.1 23.2 115.2 25 113.4 25.1C112.7 28.2 108.8 29.3 106.5 31C106.7 31.7 106.9 32.3999 107.1 33.0999C106.7 33.3999 105.9 33.8999 105.5 34.0999C105.3 33.7999 104.8 33.0999 104.6 32.7999C104.8 32.1999 105.1 31.6 105.3 31C105.1 30.8 104.7 30.3 104.5 30C104.8 30.2 105.4 30.6 105.7 30.7C108.3 28.9 109.7 26 112 24C111.9 23.7 111.6 23.2 111.5 23C111.8 23.3 112.3 23.9999 112.5 24.2999C113.5 22.9999 115.2 21.7 115.6 19.7Z" fill="#F78536"/>
<path d="M228.4 218.6C228.9 219.4 227.3 220.4 226.6 220.6C226.2 219.7 227.6 218.7 228.4 218.6Z" fill="#F78536"/>
<path d="M219 227.8C219.4 228.5 219.2 228.9 218.3 229C217.8 228.2 218.1 227.8 219 227.8Z" fill="#F78536"/>
<path d="M206 245.9C207.1 246.7 204.6 247.4 205.5 246L206 245.9Z" fill="#F78536"/>
<path d="M185.6 225.6C186.1 226.5 184.5 227.4 183.8 227.7C183.5 226.8 184.8 225.7 185.6 225.6Z" fill="#F78536"/>
<path d="M204.4 248.1C205.7 248.9 203.3 249.6 203.8 248.2L204.4 248.1Z" fill="#F78536"/>
<path d="M183.4 230.2C184.6 231 186 230 187.2 229.8C186.6 231.5 185 232.4 183.8 233.6L183.5 233.3C184.4 232.6 185.3 231.8 186.1 231.1C185.6 231 185 230.9 184.5 230.9C183.6 231.7 182.8 232.5 181.9 233.3C181.5 232.8 181.1 232.2 180.8 231.7C181.7 231.2 182.5 230.7 183.4 230.2Z" fill="#F78536"/>
<path d="M196 260.3C196.5 261 196.3 261.4 195.4 261.6C194.9 260.9 195.1 260.5 196 260.3Z" fill="#F78536"/>
</g>
<defs>
<clipPath id="clip0_131_819">
<rect width="326.2" height="275.7" fill="white"/>
</clipPath>
</defs>
</svg>
