<svg width="311" height="312" viewBox="0 0 311 312" fill="none" xmlns="http://www.w3.org/2000/svg">
<g clip-path="url(#clip0_39_213)">
<path d="M175.248 59.8628C174.779 59.8528 174.314 59.7647 173.874 59.6019C174.116 59.3349 174.424 59.1361 174.767 59.0253L175.345 58.8193C175.743 58.6957 176.169 58.5722 176.623 58.4623L178.162 58.1328L176.155 58.2152L174.231 58.325C173.458 58.2613 172.682 58.2613 171.909 58.325C171.148 58.4074 170.379 58.5127 169.6 58.6408C168.775 58.8056 167.786 59.1351 166.851 59.4097C163.014 60.7107 159.417 62.6309 156.201 65.0939C149.885 69.9201 144.854 76.2243 141.551 83.4509C139.94 84.8289 138.646 86.5383 137.758 88.4623C137.407 89.07 137.21 89.754 137.183 90.4551C137.157 91.1561 137.302 91.853 137.607 92.4852C138.981 94.2289 142.527 92.9795 145.852 90.055C146.664 89.5262 147.519 89.0669 148.409 88.682C155.198 86.9108 162.151 84.3159 168.762 82.4349L166.563 82.6408C165.821 82.7232 165.065 82.8742 164.323 82.9841C165.326 82.6271 166.315 82.2838 167.291 81.968C168.27 81.6118 169.228 81.2039 170.163 80.7461C169.779 80.5127 169.339 80.293 168.94 80.0596C169.868 79.9847 170.787 79.8331 171.689 79.6065C172.567 79.4601 173.432 79.2396 174.273 78.9475C175.106 78.7234 175.923 78.4436 176.719 78.1099C177.172 77.8902 177.351 77.8491 177.612 77.7392C177.856 77.6255 178.09 77.4924 178.313 77.341C178.528 77.1697 178.758 77.0181 179 76.888L179.344 76.6546L179.509 76.531C179.509 76.531 179.811 76.3937 179.948 76.325C180.617 76.023 181.272 75.7163 181.914 75.4051L184.195 74.3067C185.569 73.5928 187.452 72.6454 188.964 71.7667C189.678 71.341 190.585 70.8193 191.382 70.3113C192.179 69.8033 192.935 69.309 193.636 68.801C194.337 68.293 195.011 67.7575 195.711 67.2358C196.412 66.714 196.935 66.2198 197.429 65.7392C198.208 64.9704 198.883 64.1025 199.436 63.158C200.356 61.5241 199.958 60.412 198.419 59.8491C197.971 59.6941 197.511 59.5747 197.044 59.4921C196.52 59.3659 195.987 59.2742 195.45 59.2175C194.053 59.0822 192.647 59.05 191.245 59.1214C189.747 59.1214 188.125 59.1214 186.284 59.2861L183.673 59.4372L180.924 59.6568L177.859 59.8353L175.248 59.8628Z" fill="#BA0000"/>
<path d="M156.668 54.3159C158.042 53.9315 159.417 53.6706 160.791 53.4097C161.478 53.2862 162.165 53.1351 162.825 53.039L164.845 52.7782L166.824 52.531H168.569H170.26C170.823 52.531 171.414 52.531 171.978 52.6134L172.486 52.8468C172.816 52.9429 173.201 53.0253 173.201 53.0253L171.826 49.991L171.758 50.2244C171.326 50.7079 170.867 51.1664 170.383 51.5974C169.902 52.0367 169.435 52.5722 168.927 52.9704C168.418 53.3686 167.896 53.8628 167.291 54.3434C166.687 54.8239 165.917 55.3731 165.244 55.8674L164.172 56.5951L163.086 57.3914C162.358 57.9132 161.615 58.4212 160.86 58.9292C160.104 59.4372 159.375 60.0276 158.633 60.5493L157.506 61.3319L156.407 62.1695L154.428 63.8857C154.076 64.2468 153.805 64.6781 153.632 65.1514C153.459 65.6247 153.389 66.1292 153.425 66.6317C153.81 68.3068 156.448 68.2244 159.32 66.8788L159.829 66.618C160.131 66.4532 160.544 66.261 160.97 66.0825L162.619 65.3548L165.958 64.3525C167.099 63.9544 168.281 63.6111 169.449 63.2267L170.328 62.9109L170.768 62.7461L171.125 62.6363C171.593 62.499 172.051 62.3388 172.5 62.1557C172.953 61.9772 173.393 61.7576 173.874 61.6203L174.575 61.3594L174.946 61.2221L175.592 61.0024C176.471 60.7004 177.214 60.412 178.148 60.0551C179.083 59.6981 180.072 59.3136 180.993 58.9292C181.914 58.5447 183.054 58.0505 184.016 57.5562L185.5 56.856L187.053 56.0734C188.084 55.5379 188.964 55.0436 189.981 54.4532C190.998 53.8628 191.932 53.245 192.798 52.6409L194.035 51.7347C194.475 51.3914 194.901 51.0619 195.313 50.7187C196.053 50.1029 196.756 49.4427 197.416 48.7415C199.546 46.3937 196.508 45.9956 195.368 44.8148C195.368 44.2381 194.791 43.9086 193.842 43.785C193.276 43.7328 192.705 43.7328 192.138 43.785L189.994 43.9772C186.376 44.4614 182.794 45.1908 179.275 46.1603L177.901 46.5722L176.664 46.9704C175.867 47.2313 175.097 47.5196 174.355 47.8079C173.613 48.0962 173.091 48.3708 172.527 48.6592C172.034 48.8878 171.572 49.1785 171.153 49.5242C170.583 49.9697 170.115 50.5313 169.779 51.1718C169.522 51.7052 169.445 52.3072 169.559 52.888L167.484 53.1763L168.721 51.8857C168.589 52.4587 168.32 52.9911 167.937 53.4372C167.729 53.6904 167.504 53.929 167.264 54.1512C166.975 54.4258 166.673 54.7004 166.343 54.9612C165.697 55.4967 164.969 56.0184 164.282 56.5402C163.594 57.0619 162.907 57.6798 162.316 58.2427L161.684 58.6409C161.313 58.8743 160.805 59.1763 160.31 59.5333L158.331 60.9063L160.791 62.5127L163.113 64.1466C163.113 64.1466 163.553 63.721 163.993 63.3365L164.886 62.5402C164.652 62.4566 164.423 62.3603 164.199 62.2518C165.051 61.483 165.876 60.618 166.742 59.9177L169.298 57.7759C170.04 57.1718 170.809 56.5539 171.62 55.9361L172.995 55.1397C173.314 54.9585 173.644 54.798 173.984 54.6592L175.152 54.1512L175.482 53.9727L176.416 53.4921L179.536 51.9406L184.745 49.3731C187.617 47.4097 186.792 46.174 183.137 46.4486C182.999 46.531 178.107 46.8331 178.107 46.8331H180.374L178.313 47.2313L176.403 47.5745L172.816 48.2061L171.18 48.4807L170.012 48.6454C169.235 48.7532 168.464 48.9045 167.704 49.0985C166.92 49.277 166.192 49.4006 165.354 49.6065L162.756 50.3205C161.877 50.5264 161.011 50.7873 160.159 51.0756L157.561 51.8445C156.507 52.1153 155.603 52.7915 155.046 53.7255C154.813 54.3708 155.527 54.6592 156.668 54.3159Z" fill="#BA0000"/>
<path d="M182.134 44.2244C183.123 44.1009 184.099 43.991 185.171 43.7988C186.471 43.508 187.741 43.0943 188.964 42.5631L190.049 41.7256L185.789 42.3709C182.917 42.7416 181.79 43.5791 182.134 44.2244Z" fill="#BA0000"/>
<path d="M190.049 41.7667L191.987 41.3411L190.613 41.4097L190.269 41.6019L190.049 41.7667Z" fill="#BA0000"/>
<path d="M195.148 209.204L196.77 208.641L197.443 208.421L198.02 208.243C199.184 207.895 200.312 207.435 201.387 206.87C201.964 206.636 202.432 206.224 202.995 205.95L203.751 205.414L204.15 205.153L204.658 204.728C206.259 203.421 207.778 202.018 209.207 200.526C210.87 198.769 212.615 196.861 214.484 194.609C216.353 192.357 218.291 189.954 220.407 187.263L226.083 180.041L226.811 179.053C227.09 178.701 227.342 178.329 227.567 177.941C228.064 177.191 228.523 176.416 228.942 175.62L229.629 174.426L230.233 173.163C230.426 172.737 230.659 172.339 230.852 171.886L231.402 170.513C231.608 170.005 231.58 169.51 231.264 169.373C230.948 169.236 230.591 169.552 230.412 170.018C230.041 170.897 229.697 171.79 229.258 172.586L228.667 173.822L227.993 174.989C227.76 175.373 227.581 175.785 227.334 176.156L226.605 177.254C226.386 177.631 226.142 177.993 225.877 178.339L225.149 179.3L219.528 186.44C217.398 189.186 215.405 191.561 213.605 193.799C211.804 196.037 210.004 197.918 208.355 199.675C206.944 201.14 205.443 202.516 203.861 203.794L203.366 204.206C203.215 204.316 203.105 204.371 202.981 204.467L202.267 204.975C201.731 205.236 201.291 205.62 200.741 205.84C199.721 206.401 198.649 206.861 197.539 207.213L196.454 207.556L194.969 208.064C194.282 208.325 193.801 208.764 193.815 209.08C193.829 209.396 194.502 209.424 195.148 209.204Z" fill="#BA0000"/>
<path d="M246.642 58.9154C247.082 59.5607 247.384 59.4234 247.384 58.6271C247.347 57.763 247.092 56.9224 246.642 56.1831C246.285 55.6477 245.9 55.7712 245.9 56.4577C245.938 57.3261 246.193 58.1712 246.642 58.9154Z" fill="#BA0000"/>
<path d="M272.108 57.666C273.622 61.2897 275.333 64.8282 277.234 68.2655C277.531 68.8565 277.709 69.5004 277.756 70.1603C278.182 69.7896 278.842 70.4211 279.474 71.8216C286.035 86.4268 291.099 101.658 294.591 117.282C296.472 125.787 297.762 134.411 298.453 143.094C299.208 152.352 299.088 161.661 298.095 170.897C298.567 171.399 298.878 172.03 298.989 172.709C299.786 175.565 299.291 181.14 297.422 186.673L295.773 190.792C292.554 199.263 288.318 207.313 283.157 214.764C281.783 216.577 280.518 218.513 278.924 220.462L275.681 224.32L272.438 228.206L268.988 232.325C268.257 233.797 267.445 235.227 266.556 236.609C265.535 238.217 264.429 239.771 263.244 241.263C259.171 247.619 254.455 253.54 249.171 258.934C242.934 265.254 235.73 270.542 227.828 274.6C229.01 274.449 229.807 274.6 230 274.957C230.192 275.314 229.34 276.33 228.007 277.277C227.247 277.789 226.453 278.248 225.63 278.65C224.739 279.113 223.822 279.522 222.881 279.872C221.067 280.655 219.239 281.341 217.384 282C219.184 281.465 220.971 280.929 222.744 280.298L228.419 278.32C230.701 277.373 233.01 276.481 235.291 275.437C236.239 274.943 237.119 274.531 237.957 274.188C239.743 273.24 241.448 272.142 243.165 271.044C244.883 269.945 246.532 268.751 248.168 267.515C251.363 265.11 254.406 262.51 257.279 259.73C262.571 254.574 267.438 248.999 271.833 243.062C275.818 237.748 279.185 232.723 282.154 228.261L284.421 224.87L285.383 223.497L286.235 222.124L287.857 219.488C288.915 217.812 289.85 216.069 290.771 214.325L292.145 211.716C292.585 210.838 292.969 209.945 293.382 209.053C296.589 202.127 299.076 194.889 300.803 187.455C303.853 173.891 304.78 159.936 303.551 146.087C302.458 133.735 300.19 121.515 296.776 109.593C296.445 108.751 296.327 107.841 296.433 106.943C296.611 106.449 296.982 106.462 297.271 107.286C302.576 121.469 307.358 135.68 309.749 152.252C311.036 161.153 311.34 170.168 310.656 179.135C309.837 189.78 307.447 200.245 303.565 210.192C302.644 212.403 301.751 214.627 300.734 216.824C299.717 219.021 298.631 221.176 297.491 223.332L295.69 226.517C295.031 227.657 294.385 228.783 293.67 229.922L292.543 231.625L292.035 232.517L290.949 234.385C287.967 239.52 284.49 245.451 279.955 252C278.814 253.648 277.687 255.268 276.382 256.998C275.736 257.849 275.131 258.687 274.458 259.552L272.383 262.243L271.324 263.616L270.17 264.989L267.834 267.652C267.05 268.545 266.13 269.465 265.278 270.398L263.903 271.771C263.477 272.224 263.024 272.677 262.529 273.144C254.331 281.104 244.919 287.713 234.645 292.723L229.148 295.332C227.485 296.142 225.808 296.925 224.09 297.639C220.682 299.094 217.219 300.59 213.701 301.867L208.369 303.831L202.871 305.602C201.002 306.165 199.202 306.796 197.264 307.291L191.465 308.787C188.235 309.487 184.731 309.913 181.35 310.421C177.97 310.929 174.396 311.245 170.851 311.547L168.185 311.767C167.305 311.835 166.426 311.918 165.436 311.931L159.747 312.055C157.864 312.055 155.926 312.137 154.112 312.055L148.752 311.822C141.899 311.44 135.072 310.679 128.303 309.542C121.612 308.435 114.983 306.977 108.445 305.176L103.525 303.707L101.065 302.952L98.6322 302.06L93.7123 300.33C92.0769 299.712 90.4415 299.039 88.7924 298.38C85.5216 297.117 82.237 295.524 78.9525 294.014C77.3171 293.245 75.668 292.339 74.0326 291.488C72.3972 290.636 70.7618 289.785 69.1126 288.742L64.2065 285.803C62.5711 284.815 60.9357 283.648 59.314 282.563C57.6924 281.478 56.057 280.366 54.4353 279.089L52.0166 277.222L49.4741 275.204C48.6358 274.572 47.7288 273.721 46.863 272.952L44.2381 270.577C42.4928 268.984 40.7749 267.364 39.1395 265.634C37.5042 263.904 35.855 262.188 34.2471 260.43C32.6392 258.673 31.2649 256.696 29.8219 254.774C26.0005 249.523 22.5956 243.982 19.6385 238.201C18.8964 236.828 18.1817 235.236 17.5358 233.89C16.8899 232.545 16.3127 231.323 15.8042 230.115L14.2238 226.407C13.7153 225.185 13.2756 224.005 12.8495 222.796C9.4628 213.861 6.76141 204.681 4.76876 195.336C3.80676 190.902 2.99593 186.508 2.33628 182.06L1.86902 178.778L1.45674 175.744L1.26434 174.11L1.08568 172.38L0.742112 168.92C0.63217 167.753 0.494741 166.655 0.43977 165.433L0.247371 161.822C0.137428 159.46 0 157.03 0 154.641V147.446L0.371056 140.32C1.01313 130.922 2.34518 121.583 4.35647 112.38C6.34922 103.286 8.96655 94.3407 12.1899 85.6065C15.4399 76.9052 19.2642 68.4289 23.6376 60.2335C28.1061 51.9725 33.1147 44.0147 38.6311 36.412C45.3307 26.5336 53.7346 17.9237 63.4506 10.9841C71.6963 5.34104 78.7876 2.93829 82.1133 4.28383C84.1473 5.21747 84.5733 7.27697 83.8312 10.2289C83.3753 11.9647 82.7301 13.6452 81.9072 15.2404C80.8748 17.3427 79.7278 19.387 78.4715 21.3639L82.8555 17.2449L86.6622 14.3616C88.545 12.9063 90.5239 11.6156 90.5239 11.6156C93.9295 9.20169 97.5446 7.09718 101.326 5.32731C104.253 3.94116 107.348 2.9397 110.533 2.34791L114.065 1.66141C114.972 1.48292 115.852 1.37308 116.525 1.23578L117.639 1.05729C120.208 1.05729 122.957 0.768958 125.884 0.590468L130.309 0.274679C131.794 0.178569 133.305 0.137379 134.776 0.082459C136.246 0.0275391 137.689 -0.0273808 139.132 0.082459C140.575 0.192299 141.963 0.192299 143.255 0.302139C145.732 0.458734 148.183 0.886937 150.566 1.57903L149.797 3.94058H151.515C153.847 3.69139 156.203 3.81654 158.496 4.31129C159.905 4.63785 161.204 5.32919 162.261 6.31587L162.509 8.78726C162.401 10.3847 161.985 11.9463 161.286 13.3868C160.383 15.1553 159.321 16.8374 158.111 18.412C158.327 18.9374 158.424 19.5039 158.396 20.0711C158.367 20.6384 158.214 21.1923 157.946 21.6934C159.548 22.1636 160.961 23.1241 161.987 24.4394C162.4 25.0583 162.652 25.7699 162.722 26.5105C162.791 27.251 162.676 27.9972 162.385 28.682C164.185 28.9017 164.199 29.9589 162.605 31.1671C161.999 31.6264 161.339 32.0091 160.64 32.3067C161.507 32.5685 162.388 32.7839 163.278 32.952C163.868 32.8208 164.464 32.7246 165.065 32.6637L165.711 32.5813L170.246 31.7301C171.442 31.4967 172.431 31.3456 174.74 30.8513C176.746 30.714 178.56 30.6591 179.811 30.6728H181.831C184.951 31.8674 186.586 32.4303 187.466 32.8834C188.345 33.3365 188.304 33.8857 188.249 34.9429C187.986 35.2683 187.706 35.5799 187.411 35.8765C192.001 34.6271 192.331 34.5035 193.719 34.023C194.579 33.7982 195.451 33.6194 196.33 33.4875C197.031 34.2701 197.031 34.2701 198.034 34.1465C198.164 34.1943 198.283 34.2675 198.385 34.3618C198.486 34.4561 198.568 34.5696 198.625 34.6957C196.426 37.1534 196.371 37.1534 196.454 37.4417C196.027 37.9301 195.568 38.3889 195.079 38.8147C192.083 40.5859 190.956 41.1488 190.448 41.4372C188.606 41.4372 187.37 41.4372 186.325 41.3548C185.281 41.2724 184.69 41.3548 184.319 41.2449L183.522 41.1626L182.615 42.412L180.965 41.6843L182.024 42.5081C180.498 42.6591 179.839 42.6729 179.495 42.6866H179.151C180.718 42.6866 181.653 42.6866 182.079 42.6866H182.779C176.252 44.3204 176.554 44.142 174.286 44.8559C173.354 45.0684 172.436 45.339 171.538 45.666L170.658 45.9955L170.37 46.1328C170.497 46.2952 170.599 46.4757 170.672 46.6683C169.389 46.8703 168.118 47.1454 166.865 47.4921L165.34 47.849C164.749 47.9863 163.966 48.2747 162.921 48.5767C162.508 48.5127 162.099 48.421 161.698 48.3021C161.243 48.875 160.632 49.3041 159.939 49.5378L157.781 50.3616L157.41 50.7186V50.7873C156.792 51.2953 156.393 51.7209 155.926 52.1603L155.637 52.4623L153.549 54.4394L151.858 56.1831C151.185 56.8559 150.415 57.6523 149.522 58.6683C148.312 59.3273 147.117 59.8079 146.017 60.3708C146.43 60.2747 146.828 60.1786 147.227 60.1374C148.024 60.0413 148.024 61.1946 148.395 61.071C152.93 59.2312 157.493 57.5012 162.028 55.9909L163.718 55.4143L165.422 54.9337C166.549 54.6042 167.731 54.2198 168.638 54.055L170.095 53.7118C170.577 53.5769 171.068 53.4805 171.565 53.4234L172.307 53.3136H172.679L173.214 53.2175L175.523 52.7644C176.629 52.3859 177.779 52.1551 178.945 52.0779C179.705 51.9402 180.489 52.061 181.172 52.4211C181.474 52.7507 181.172 53.2449 180.443 53.7941C179.524 54.3984 178.518 54.8612 177.461 55.1671C176.568 55.5928 175.922 55.936 175.18 56.3067L174.08 56.8559L173.805 56.9932L173.654 57.1031L173.338 57.309C172.926 57.5973 172.486 57.817 172.101 58.1053L170.906 58.9703C170.507 59.2587 170.109 59.5058 169.683 59.7804L168.185 60.769L166.659 61.7026L165.134 62.7186C161.011 65.3548 156.778 68.2106 152.422 71.2312C143.709 77.2999 134.556 84.3571 126.09 91.428C125.101 92.4715 124.056 93.4738 123.108 94.5584L121.583 96.1099L120.854 96.9063L120.222 97.6614C119.384 98.6774 118.518 99.666 117.693 100.709L115.275 103.909L116.113 103.524C115.11 104.526 114.299 105.652 113.365 106.723L113.103 107.094L116.209 105.268C116.704 104.732 117.281 104.252 117.79 103.73C118.639 102.499 119.557 101.316 120.538 100.188C121.528 99.0756 122.421 98.0184 123.603 96.8376C124.785 95.6568 125.843 94.5722 127.039 93.515L128.784 91.9223L130.557 90.3571C135.277 86.4985 140.24 82.9443 145.413 79.7163C150.383 76.7705 155.72 74.4901 161.286 72.9337C162.523 72.3296 163.636 72.3845 163.856 73.0985C164.076 73.8124 163.265 74.8559 162.11 75.4188C154.361 81.1125 146.946 87.2461 139.902 93.7896L128.908 103.895C125.651 106.641 122.572 109.606 119.37 112.133C117.856 115.02 115.971 117.697 113.763 120.096L113.681 120.233C114.423 119.753 115.055 119.3 115.879 118.86C115.259 119.815 114.525 120.691 113.694 121.469C112.86 122.196 112.134 123.037 111.537 123.968C112.265 123.968 113.007 123.858 113.722 123.844C110.96 129.704 108.92 135.878 107.647 142.229C106.273 148.517 105.407 154.586 104.335 160.421C104.335 160.915 104.335 161.382 104.335 161.794C104.816 163.167 105.229 164.266 105.71 165.913L106.081 167.053L106.452 168.069L107.167 170.115C108.101 172.861 109.022 175.73 109.791 178.709C109.53 176.65 109.352 174.59 109.214 172.38C110.85 176.774 112.389 181.002 113.571 184.97L114.684 188.801C114.862 189.364 115 190.023 115.165 190.504C115.165 190.613 115.247 190.792 115.261 190.86V191.08C115.247 191.231 115.247 191.383 115.261 191.533C115.398 192.755 115.536 194.073 115.728 195.474C115.852 196.147 115.934 196.847 116.099 197.561C116.099 197.918 116.209 198.302 116.237 198.7C116.264 199.098 116.498 199.524 116.649 200.073C116.8 200.623 116.993 201.062 117.144 201.556C117.295 202.05 117.529 202.517 117.693 203.012C118.037 203.986 118.257 205.002 118.546 205.922C123.506 208.974 128.823 211.404 134.377 213.158C140.271 215.068 146.36 216.312 152.532 216.865L154.785 217.044C155.527 217.044 156.16 217.044 156.929 217.112C158.249 217.153 159.571 217.121 160.887 217.016H161.835C162.176 217.023 162.516 217 162.852 216.947L165.01 216.687L167.168 216.453L169.449 216.028C175.942 214.834 182.31 213.036 188.469 210.659C189.775 210.096 191.121 210.082 191.561 210.563C192.001 211.044 191.204 211.936 189.871 212.499C181.192 216.539 171.962 219.274 162.481 220.613C161.492 220.613 160.516 220.751 159.513 220.847C159.018 220.847 158.523 220.957 158.015 220.984H154.744L153.026 220.902C151.872 220.902 150.717 220.806 149.549 220.668C144.822 220.237 140.139 219.419 135.545 218.224C139.294 219.653 143.127 220.855 147.021 221.822C150.834 222.712 154.705 223.335 158.606 223.689C162.416 223.95 166.242 223.876 170.04 223.469L173.146 223.14C174.19 223.002 175.276 222.769 176.334 222.604C177.392 222.439 178.464 222.261 179.55 222.028L182.807 221.245C184.992 220.668 187.191 219.872 189.404 219.089C191.579 218.322 193.795 217.676 196.041 217.153L200.879 215.245C203.752 214.034 206.404 212.354 208.726 210.275C212.156 207.105 215.301 203.641 218.126 199.922C221.534 195.584 224.997 190.572 229.258 184.709C231.465 181.463 233.205 177.923 234.425 174.192C236.738 166.527 237.669 158.512 237.174 150.522C236.654 141 235.144 131.557 232.666 122.348C228.914 107.89 223.651 93.6111 218.016 78.5493L216.092 72.769L215.02 69.8719C214.869 69.4738 214.594 68.6774 214.388 68.0458L213.715 66.0687C212.024 60.9474 210.76 56.4577 209.592 52.3388C207.269 44.1008 205.276 37.0985 203.462 32.2381C203.325 31.936 203.201 31.579 203.105 31.3044C203.012 31.0402 202.938 30.7695 202.885 30.4944C202.833 30.2271 202.801 29.9563 202.789 29.6843C202.768 29.4743 202.768 29.2627 202.789 29.0527C202.844 28.6476 202.974 28.2564 203.174 27.8994C203.387 27.6026 203.653 27.3468 203.957 27.1442C205.222 26.2793 207.022 26.5127 208.245 29.1214C209.735 32.0921 211.043 35.1503 212.162 38.2793C213.536 41.8491 214.787 45.817 216.175 50.142C217.563 54.4669 219.019 59.1488 220.902 64.4761C221.947 67.4692 222.661 69.2129 223.486 71.341L225.836 77.5058C232.02 93.7896 237.38 109.524 240.582 124.915C243.784 140.307 244.705 155.121 241.956 167.78C241.311 170.85 240.391 173.855 239.208 176.76C238.106 179.581 236.725 182.286 235.085 184.833L234.507 185.712C234.329 185.986 234.15 186.302 233.985 186.508L231.993 189.172L227.677 194.966C224.929 198.618 222.345 201.968 219.803 204.934C217.812 207.279 215.702 209.52 213.481 211.648C211.77 213.246 209.932 214.701 207.984 216C208.149 216.132 208.297 216.284 208.424 216.453C208.655 216.825 208.799 217.244 208.844 217.679C208.889 218.115 208.835 218.555 208.685 218.966C209.837 218.294 210.951 217.561 212.024 216.769C212.56 216.33 213.082 216.014 213.673 215.52L215.501 213.996C218.22 211.578 220.808 209.016 223.252 206.32C226.399 201.817 229.615 196.709 233.284 191.135L234.659 189.021L235.016 188.485C235.14 188.307 235.277 188.115 235.305 188.046C235.332 187.977 235.524 187.689 235.634 187.483L236.335 186.179L237.132 184.806L238.507 181.881L239.785 178.874C243.139 169.796 245.148 160.277 245.749 150.618C246.978 135.2 246.633 119.696 244.718 104.348C241.97 94.4898 238.63 84.6042 235.016 74.4989L232.267 66.8651C231.415 64.5859 230.192 61.0161 229.313 58.174C227.444 52.2426 225.973 46.9017 224.448 41.8353C224.148 41.2053 224.089 40.4873 224.283 39.817C224.503 39.46 224.901 39.817 225.217 40.6134C226.592 43.9497 227.966 47.547 229.34 51.3365C230.714 55.1259 232.171 59.1076 233.917 63.4738C236.94 70.6683 239.853 77.7804 242.533 84.92C242.808 82.3525 243.591 80.6225 244.952 80.4303C246.313 80.2381 248.113 81.6797 249.735 84.206C248.841 80.8422 247.865 77.4646 246.903 74.087C246.326 71.9864 246.34 70.1877 247.027 70.0367C247.714 69.8857 248.8 71.4097 249.377 73.3594C253.483 86.937 256.801 100.74 259.313 114.7C260.262 118.819 261.031 122.938 261.732 126.975C262.433 131.012 262.955 135.213 263.271 139.25C263.491 141.295 263.546 143.368 263.683 145.373C263.821 147.378 263.835 149.492 263.78 151.469C263.772 155.507 263.533 159.541 263.065 163.552C263.968 161.797 265.338 160.324 267.023 159.295C267.243 156.728 267.435 154.147 267.477 151.579C266.848 139.605 265.09 127.717 262.227 116.073C259.478 104.279 255.905 92.5401 252.043 80.7461C250.119 74.8422 248.099 68.9246 246.079 62.8971C245.089 60.0413 243.976 56.5539 243.069 53.396C242.162 50.2381 241.324 47.0664 240.527 43.9909C238.919 37.8262 237.38 31.8948 235.621 26.2381C234.714 23.4921 233.82 20.7461 232.762 18.1374C232.281 16.7644 231.69 15.6385 231.168 14.3891C230.646 13.1397 230.041 12.0138 229.395 10.9978C228.997 10.3388 228.887 9.62479 229.161 9.46003C229.436 9.29527 229.959 9.65225 230.316 10.2838C233.507 16.3257 236.001 22.7098 237.751 29.3136C239.798 36.3433 241.558 43.6889 243.674 51.2815C243.674 50.6088 244.017 50.4028 244.43 51.0207C244.834 51.7594 245.06 52.5821 245.089 53.4234C245.089 54.206 244.705 54.2335 244.347 53.698L245.144 56.444L246.024 59.19L247.742 64.2838L251.123 74.3204C253.349 80.9932 255.506 87.6385 257.499 94.2838C261.58 107.377 264.725 120.742 266.913 134.279C265.647 121.659 263.451 109.149 260.344 96.8513C257.334 84.4944 253.734 72.1374 250.174 59.5882C249.57 58.325 248.937 56.8422 248.319 55.4692C247.701 54.0962 247.123 52.7232 246.574 51.3502C246.293 50.6474 246.24 49.8741 246.422 49.1397C246.629 48.8513 247.096 49.3456 247.371 50.1145L248.278 52.3937C247.096 47.4783 247.536 43.4692 249.171 43.1534C250.806 42.8376 253.184 46.8056 254.462 51.7484C255.424 55.0298 256.551 58.2564 257.623 61.5104C258.695 64.7644 259.739 68.0184 260.756 71.2861C262.79 77.8079 264.7 84.3845 266.432 91.0024L267.806 95.2449L269.607 99.3639C267.586 88.8742 265.058 78.5081 262.392 68.2106L260.358 60.5081C259.671 57.9543 258.983 55.3731 258.351 52.9017C257.128 47.8765 256.125 42.7278 255.039 37.5516C254.586 35.7941 254.668 34.174 255.232 33.9818C255.795 33.7896 256.606 35.1076 257.114 36.8788C258.489 41.3273 259.863 45.7621 261.361 50.0184C262.089 52.2015 262.831 54.1374 263.67 56.3754L266.116 62.9795C269.346 71.8353 272.438 80.8285 275.186 90.055C280.683 108.481 284.806 127.854 285.109 148.284C287.829 162.621 287.796 177.345 285.012 191.671L286.098 188.925C286.455 188.005 286.73 187.071 287.046 186.179C288.91 180.447 290.208 174.547 290.922 168.563C291.614 162.953 291.871 157.298 291.691 151.648C291.303 141.15 289.833 130.719 287.307 120.522C282.58 100.819 275.461 82.8468 268.919 63.8307C268.548 62.8971 268.562 62.0184 268.81 61.7987C269.057 61.579 269.552 62.1694 269.854 63.1717C273.193 72.412 276.643 81.2953 279.886 90.3845C283.309 99.7142 286.182 109.236 288.489 118.902C292.541 135.826 294.133 153.245 293.217 170.623C294.514 161.927 294.888 153.118 294.33 144.343C293.795 136.093 292.684 127.89 291.004 119.794C287.788 103.963 282.992 89.1488 278.113 74.4852C277.648 73.3727 277.419 72.1759 277.44 70.9703C277.261 70.9703 277.041 70.7232 276.822 70.3525C274.953 66.8925 273.193 63.0756 271.476 59.1763C271.103 58.4883 270.977 57.6939 271.118 56.9246C271.228 56.4577 271.654 56.8422 272.108 57.666ZM112.938 75.1168L113.639 74.8422L111.633 76.2152L111.124 76.325C110.616 76.4349 109.626 76.682 107.634 77.2175C107.647 77.2312 110.259 76.0779 112.938 75.1168ZM138.596 40.9291C139.971 40.9291 140.974 41.039 140.974 41.039C139.971 40.9703 139.229 40.9566 138.596 40.9291ZM150.415 224.568C138.816 222.961 127.19 218.403 118.999 211.785C121.307 212.992 123.679 214.074 126.104 215.025C129.835 217.147 133.722 218.983 137.731 220.517C141.866 222.141 146.103 223.494 150.415 224.568ZM138.39 63.309C136.774 63.8643 135.127 64.3228 133.457 64.682C131.89 65.0527 130.364 65.3685 128.853 65.6294C128.056 66.4944 127.286 67.428 126.434 68.3067C125.582 69.1854 124.702 70.0367 123.809 70.9154C118.958 75.5424 114.381 80.3342 110.066 85.2358C111.262 85.0848 110.231 86.2655 109.833 86.952C109.434 87.6385 108.939 88.325 108.582 88.9978C113.124 83.7612 118.058 78.8776 123.342 74.3891C127.989 70.22 133.029 66.5094 138.39 63.309ZM177.282 40.325L178.121 40.3937L176.829 42.1099C176.829 42.1099 177.035 41.3548 177.282 40.325ZM179.234 37.4829L177.928 37.6889C178.231 37.071 178.657 37.1397 179.22 37.4829H179.234ZM168.24 38.9932C168.493 39.0874 168.756 39.1564 169.023 39.1992C169.259 39.2439 169.498 39.2669 169.738 39.2678C168.968 39.1305 168.528 39.0756 168.363 39.0207L168.24 38.9932ZM149.329 5.71175C149.329 5.71175 148.752 7.62022 148.354 9.55614C147.955 11.4921 147.543 13.3868 147.543 13.3868C147.543 13.3868 148.038 11.5058 148.601 9.59733C148.862 8.63623 149.165 7.68887 149.426 6.98864L149.838 5.80786L149.329 5.71175Z" fill="#BA0000"/>
</g>
<defs>
<clipPath id="clip0_39_213">
<rect width="311" height="312" fill="white"/>
</clipPath>
</defs>
</svg>
