<svg width="300" height="300" viewBox="0 0 300 300" fill="none" xmlns="http://www.w3.org/2000/svg">
<g clip-path="url(#clip0_127_2)">
<path d="M293.97 149.431C295.539 150.75 294.48 148.986 294.245 147.358L293.97 149.431Z" fill="#F78536"/>
<path d="M294.245 147.358L294.444 145.885C294.211 146.338 294.141 146.858 294.245 147.358V147.358Z" fill="#F78536"/>
<path d="M294.493 133.593C296.073 136.636 294.603 140.542 296.634 142.421C297.539 139.141 296.74 134.12 294.493 133.593Z" fill="#F78536"/>
<path d="M293.688 138.428L294.751 138.745L292.936 136.128L293.688 138.428Z" fill="#F78536"/>
<path d="M292.89 140.452L293.239 140.036L291.866 135.858L292.89 140.452Z" fill="#F78536"/>
<path d="M293.655 122.854L294.495 125.952C293.618 129.11 292.278 124.332 291.685 126.439C292.335 130.3 294.808 127.327 295.003 132.328C295.639 132.052 295.386 130.064 295.244 128.213C295.089 126.364 294.922 124.661 296.038 124.879C295.948 120.582 294.788 124.889 293.655 122.854Z" fill="#F78536"/>
<path d="M159.75 17.2224C159.62 17.1451 159.485 17.0756 159.347 17.0142C159.498 17.2435 159.659 17.4106 159.75 17.2224Z" fill="#F78536"/>
<path d="M112.82 25.1705C112.154 25.1823 111.491 25.2559 110.839 25.3903C111.122 25.546 111.432 25.6454 111.753 25.683L112.82 25.1705Z" fill="#F78536"/>
<path d="M190.474 18.2867C191.031 18.6664 191.61 19.0131 192.208 19.3251C191.763 18.7913 191.152 18.4252 190.474 18.2867Z" fill="#F78536"/>
<path d="M27.3935 216.724C27.1729 216.674 26.9426 216.689 26.7301 216.767L26.7314 216.875L27.4938 217.127L27.3935 216.724Z" fill="#F78536"/>
<path d="M69.2272 54.3196C68.6945 54.7832 68.2239 55.3148 67.8271 55.9009C68.3902 55.4693 68.8655 54.9324 69.2272 54.3196Z" fill="#F78536"/>
<path d="M207.361 24.1618L206.686 23.8394C206.923 24.0513 207.176 24.2453 207.441 24.4196L207.394 24.177L207.361 24.1618Z" fill="#F78536"/>
<path d="M128.362 23.9239C127.793 23.8799 127.221 23.9189 126.663 24.0398C127.232 24.0592 127.801 24.0204 128.362 23.9239V23.9239Z" fill="#F78536"/>
<path d="M278.875 76.1155C278.631 75.3494 278.17 74.6721 277.548 74.1671C277.577 74.5817 277.715 74.981 277.948 75.3235C278.182 75.6661 278.502 75.9396 278.875 76.1155V76.1155Z" fill="#F78536"/>
<path d="M268.118 60.372C268.147 60.3954 268.173 60.4229 268.195 60.4537C268.325 60.2111 268.248 60.1999 268.118 60.372Z" fill="#F78536"/>
<path d="M260.481 50.8767L260.668 50.9971C260.705 50.7729 260.679 50.6937 260.481 50.8767Z" fill="#F78536"/>
<path d="M277.549 74.1672C277.452 72.3914 279.401 70.5569 275.853 70.3931L275.742 70.9494C275.631 69.5566 273.738 68.6303 272.855 67.5314C272.717 67.7879 272.619 68.0644 272.564 68.351C272.926 68.9602 273.354 69.7993 273.969 71.1141C274.361 72.8891 276.153 73.0568 277.549 74.1672Z" fill="#F78536"/>
<path d="M159.96 16.6875C160.099 17.2234 161.269 17.0088 159.96 16.6875V16.6875Z" fill="#F78536"/>
<path d="M175.106 16.0855C174.626 15.9686 174.152 15.8192 173.65 15.7478C174.108 15.9565 174.603 16.0713 175.106 16.0855V16.0855Z" fill="#F78536"/>
<path d="M227.36 37.5767C227.303 37.4856 227.247 37.4229 227.199 37.3311C226.963 37.5408 227.172 37.6204 227.36 37.5767Z" fill="#F78536"/>
<path d="M172.292 15.5496C172.749 15.5959 173.199 15.6739 173.65 15.7478C173.225 15.5532 172.754 15.4845 172.292 15.5496V15.5496Z" fill="#F78536"/>
<path d="M213.322 27.5752C213.27 27.5098 213.211 27.4498 213.147 27.3962C213.187 27.4713 213.248 27.5333 213.322 27.5752Z" fill="#F78536"/>
<path d="M247.452 269.979C246.577 270.993 245.509 270.858 244.408 271.434C243.392 274.703 248.915 267.927 246.802 271.792C247.618 271.118 248.327 270.322 248.907 269.433L246.414 269.086C244.963 271.141 248.055 268.571 247.452 269.979Z" fill="#F78536"/>
<path d="M32.0439 231.993L31.8899 231.447C31.4081 232.22 30.9768 232.101 31.8181 234.055C33.8683 234.767 33.8622 231.455 36.7477 233.124C36.2128 232.577 35.7938 231.927 35.5161 231.211C35.2999 232.872 33.6317 232.557 32.0439 231.993Z" fill="#F78536"/>
<path d="M35.5161 231.211C35.5208 231.169 35.5308 231.127 35.5459 231.087C35.6111 230.887 35.6505 230.68 35.663 230.471C35.4257 230.14 35.2554 229.765 35.1618 229.368C35.1012 230.004 35.2242 230.644 35.5161 231.211Z" fill="#F78536"/>
<path d="M209.882 290.965L208.475 291.337C209.257 291.408 209.649 291.243 209.882 290.965Z" fill="#F78536"/>
<path d="M56.792 34.3418C57.1445 33.7938 57.4787 33.2381 57.7262 32.7682C57.2603 33.1822 56.9338 33.7322 56.792 34.3418V34.3418Z" fill="#F78536"/>
<path d="M19.7352 205.005C19.6882 204.504 19.5967 204.008 19.4618 203.523L19.0427 202.686L19.7352 205.005Z" fill="#F78536"/>
<path d="M91.8883 261.658C90.1024 262.987 92.5457 261.923 93.6356 263.79L95.6632 263.592C94.4775 262.812 93.2119 262.164 91.8883 261.658V261.658Z" fill="#F78536"/>
<path d="M249.099 269.457C249.056 269.41 249.023 269.356 248.999 269.297L248.907 269.433L249.099 269.457Z" fill="#F78536"/>
<path d="M139.617 276.5C139.891 276.648 140.135 276.769 140.399 276.89C140.172 276.701 139.904 276.567 139.617 276.5V276.5Z" fill="#F78536"/>
<path d="M30.2345 221.069L28.4802 217.867L26.8783 214.586L27.3935 216.724C28.703 217.162 28.656 220.8 30.2345 221.069Z" fill="#F78536"/>
<path d="M70.149 244.658L70.5492 243.338C68.9651 242.769 67.5147 241.876 66.2886 240.715C65.0461 239.607 63.9005 238.394 62.8645 237.088C60.669 234.642 58.7446 232.249 55.6124 231.513C54.8572 227.024 53.3563 226.653 51.7548 226.322C50.2139 225.985 48.6484 225.646 48.1648 221.548L47.789 222.104C41.4182 211.789 36.5417 200.609 33.3074 188.903C31.6809 183.195 30.3395 177.409 29.2881 171.566C28.6713 168.709 28.3363 165.834 27.8106 163.015C27.4427 160.179 26.9611 157.378 26.6212 154.597L27.5015 154.608C27.4087 136.939 30.5101 119.4 36.6538 102.851C42.7942 86.3341 52.5233 71.4121 65.1274 59.1798C66.9333 56.3146 64.1477 56.2865 65.5648 53.5526C66.4912 52.6928 68.6309 50.7938 69.3322 51.5918C67.8967 53.6371 69.564 53.4604 69.2273 54.3196C72.1296 51.5571 76.8454 49.3222 78.9151 46.1826C77.8245 46.3647 76.754 46.5925 75.6956 46.8549C76.4075 45.4794 78.4637 44.555 79.5231 43.8714C79.5098 44.7653 81.8627 44.9674 81.1842 45.8751C83.1814 42.2214 84.7441 41.8418 86.1474 41.6426C87.1149 41.6453 88.0734 41.4558 88.9682 41.0849C89.8631 40.714 90.6767 40.1689 91.3625 39.4808C90.8781 36.2016 96.827 30.234 101.038 26.1211C101.998 25.9415 102.997 25.8707 103.969 25.7504C100.469 27.1509 104.821 27.6704 100.557 29.4367C102.37 28.9655 104.123 28.2854 105.782 27.4097C107.362 26.494 109.065 25.8138 110.839 25.3903C109.925 24.9085 109.764 23.9251 111.063 23.125C113.352 22.8077 113.959 24.0797 116.461 23.5513C115.743 24.087 115.022 24.5907 114.334 25.1786C116.256 25.7085 117.23 23.9572 118.696 23.3271C119.517 24.3548 123.197 23.6201 122.892 25.1695C125.778 22.7758 127.133 23.3278 130.526 21.6709C126.525 21.0489 131.195 19.8775 130.605 18.9244C129.202 19.3644 127.788 19.7245 126.408 20.2229C132.587 19.8361 124.482 20.8146 125.421 22.8735C122.401 22.5665 128.528 18.5371 123.877 19.9643C125.862 19.0729 127.94 18.4066 130.071 17.9778C132.244 17.4183 134.368 16.6821 136.423 15.7762C132.856 16.6371 136.937 14.3085 134.896 13.9133C139.538 13.2374 136.146 14.507 137.738 15.6866C140.232 15.2707 141.25 16.4745 143.432 14.7132C147.541 15.0428 142.939 16.3594 145.04 17.0683C144.35 17.8861 141.538 17.565 139.079 17.8124C136.622 18.0793 134.545 18.6976 135.415 20.9529C133.368 21.2154 131.238 23.5464 128.362 23.924C131.009 24.0932 134.747 24.897 137.7 23.5227L137.531 20.8767C139.912 20.5022 140.23 18.6309 142.019 18.7516C141.158 19.5827 142.929 20.5677 144.846 20.2019C144.269 19.8702 143.498 20.0165 143.676 19.54C147.266 19.0288 147.684 17.2751 152.076 16.6584C149.39 16.0391 146.74 15.2725 144.138 14.362C144.946 12.4475 146.56 13.8618 148.583 13.6241C148.286 13.884 147.865 13.9445 148.476 14.2976L150.62 13.3512C155.242 14.0378 150.103 16.0367 153.852 16.8624C156.395 18.4849 157.39 16.0851 159.347 17.014C159.233 16.8477 159.111 16.6879 158.981 16.5351C159.311 16.5604 159.638 16.6114 159.96 16.6874C159.943 16.6464 159.934 16.6027 159.933 16.5583C162.345 16.429 164.902 16.8068 165.712 15.4675C165.912 16.1006 167.845 15.4489 168.682 15.1546C170.067 14.8033 173.603 13.5069 175.257 16.0996C175.202 16.1082 175.156 16.0813 175.106 16.0854C178.059 16.8902 180.237 17.9879 179.451 18.6077C181.003 19.0743 182.52 19.6815 184.047 20.2067L183.137 21.8451C187.483 22.3232 187.284 21.3091 190.719 20.3223C191.498 20.8287 192.336 21.2359 193.215 21.5346C194.169 21.9176 195.148 22.2338 196.145 22.4809C197.798 22.8813 199.476 23.1718 201.168 23.3506C201.687 23.6431 202.245 23.8589 202.826 23.9914L201.345 22.6407C204.563 24.0153 204.538 22.9445 206.686 23.8392C206.311 23.4839 206.29 23.3609 207.361 24.1617C207.707 24.3543 208.083 24.5615 208.523 24.8385C208.338 24.9649 207.877 24.7222 207.441 24.4195L207.587 25.1475C209.334 28.0696 211.977 25.8789 214.356 27.9125C213.999 27.8422 213.652 27.7289 213.322 27.5751C214.625 28.7929 215.557 32.1434 216.897 31.0831C217.149 31.4293 217.795 31.465 218.483 31.4091L219.417 32.2641C219.094 32.001 218.787 31.7167 218.501 31.4131C219.411 31.3452 220.361 31.1565 220.257 31.5395C221.438 32.3668 222.651 33.1336 223.799 34.0034C224.493 34.6678 225.35 35.1329 226.282 35.3506L226.491 36.3753C227.865 37.1282 227.629 37.5046 227.36 37.5765C228.577 39.6291 230.446 41.2068 232.664 42.0534C234.931 43.0164 236.838 44.6785 238.112 46.8017C239.751 46.5669 238.279 44.5554 238.527 43.9393C239.879 43.7206 242.952 45.3649 244.717 45.9755C245.651 49.0233 250.277 55.7868 247.557 56.6246C250.694 60.2243 247.624 54.4722 249.882 55.6145L250.194 56.086C249.376 54.7998 248.938 53.306 248.929 51.7784C249.627 50.513 252.942 53.4149 253.577 54.665L251.555 55.3038C255.155 58.1139 256.575 55.5314 259.919 56.4624C261.78 59.7858 259.062 59.2717 258.272 60.967C259.244 61.8093 260.109 62.7459 261.027 63.6438L259.91 64.5371C261.695 66.2497 263.197 65.8451 264.701 69.0108C262.198 67.7961 266.562 73.9561 263.126 72.2293C263.805 74.0119 266.407 72.9064 265.332 74.7884C267.3 75.0416 265.073 72.9322 264.881 71.9072C265.545 70.9703 266.393 71.6511 267.225 72.8168C267.968 74.0826 268.813 75.2849 269.751 76.4118C268.892 77.1728 267.813 75.8513 268.601 78.4964C268.948 78.5395 269.282 78.6517 269.586 78.8264C269.889 79.0012 270.155 79.235 270.368 79.5142C270.58 79.7935 270.736 80.1127 270.825 80.4531C270.915 80.7936 270.936 81.1486 270.888 81.4975C272.099 80.7951 272.696 83.9677 273.263 85.3714C272.771 83.7102 272.373 81.0781 274.027 81.4334C275.542 82.612 276.661 84.2313 277.234 86.0723L276.857 83.86C279.926 85.3435 277.62 88.5089 279.663 91.5709C278.234 90.5288 277.897 89.621 276.335 88.9013C278.259 90.7736 280.045 92.7841 281.68 94.9171L280.881 98.5872C281.991 98.5601 282.05 101.831 283.386 101.333C283.558 103.32 282.917 102.72 282.069 101.661C281.186 100.611 280.109 99.0971 279.555 99.117C280.41 103.832 283.147 101.862 282.558 106.895L280.819 105.893C281.218 107.331 282.88 109.97 282.252 110.36C282.701 110.224 282.343 109.542 282.048 108.651C285.057 108.664 285.872 114.833 288.574 113.527L288.175 111.403C289.672 114.397 292.05 116.295 291.637 119.031C291.149 121.147 289.38 118.11 288.385 117.18C288.843 120.228 292.197 118.903 292.564 122.677C292.684 120.641 293.774 120.791 294.729 121.835C294.582 119.616 293.984 114.992 292.997 116.066L292.897 116.909C292.111 116.885 291.569 115.788 291.067 115.305C290.4 112.405 292.028 113.623 292.444 112.895C291.539 107.95 289.493 113.269 288.36 108.9L288.746 108.168C287.432 106.298 286.196 103.191 284.33 103.235C285.558 100.712 281.86 98.7994 282.165 96.4034C284.021 95.4097 284.657 97.2285 285.201 99.4654C285.76 101.701 285.996 104.401 287.514 105.246C287.565 102.727 289.855 105.899 291.06 106.597C289.703 104.359 288.32 102.161 286.944 99.9968C287.266 99.2531 288.396 96.4122 286.477 95.6871L286.605 96.2773C285.046 93.6639 283.842 95.0583 283.306 92.4908C283.492 91.973 284.426 92.4267 284.768 92.4975C284.139 90.1569 283.086 91.0661 282.092 89.7821C281.457 87.4503 284.136 90.1496 283.738 88.1283C281.164 86.2815 282.129 84.0165 280.968 81.8718C279.422 83.7822 273.539 75.1774 274.24 80.6515C272.822 79.3144 271.519 77.9328 270.039 76.6849C270.099 75.6286 271.312 75.9846 272.635 76.3374C273.936 76.6981 275.313 77.0837 275.782 75.876L277.973 79.8919C279.076 78.8437 277.453 76.9715 275.746 74.8687C273.934 72.8208 272.03 70.5641 272.564 68.3508C271.19 66.5748 270.229 64.51 269.753 62.3091L268.096 64.5428C267.756 63.9005 267.579 63.1828 267.583 62.4546C267.587 61.7264 267.771 61.0106 268.118 60.3719C267.184 59.3983 266.354 58.3285 265.643 57.18C266.3 57.2178 266.92 57.5004 267.382 57.973C267.38 55.5965 266.63 55.4941 265.604 55.5184C264.358 54.921 263.302 53.9851 262.555 52.8161L264.193 53.2155C263.414 52.6473 262.452 51.9651 262.03 52.2054C261.637 51.7375 261.178 51.3304 260.668 50.9972C260.337 52.4956 260.454 54.0591 261.003 55.4906C259.674 53.2871 258.176 51.1907 256.525 49.2202C254.987 47.3077 253.704 45.1995 252.71 42.9498C253.358 42.5122 255.484 43.2358 255.109 42.7423C253.609 40.7465 250.774 39.9203 250.162 40.955C249.788 40.7116 249.428 40.4463 249.085 40.1604C249.181 39.7107 249.17 39.2443 249.052 38.8C248.933 38.3557 248.712 37.9461 248.405 37.6053C248.291 37.0553 248.004 36.5567 247.588 36.1825C245.674 37.2141 242.658 33.5737 241.299 33.689C242.162 34.616 243.129 35.4376 244.182 36.1369C241.782 36.0211 239.49 36.2514 239.009 34.4313C242.63 35.5771 237.287 30.311 241.912 33.2001C240.48 28.6823 239.178 33.527 236.488 30.3886L234.953 27.9984C236.133 26.961 238.858 29.8537 238.686 29.0241L237.081 28.1112C238.907 28.6637 240.616 29.5494 242.125 30.7243C244.169 32.2421 246.4 33.4844 248.763 34.4197C246.721 32.3465 244.607 30.3315 242.468 28.3302C237.49 25.8321 232.493 22.2814 227.245 19.4831C222.567 16.5929 217.33 14.7444 211.886 14.0614L212.256 14.1835C212.052 14.254 211.868 14.4844 211.521 14.9657L211.299 14.4442C210.602 14.5478 209.91 14.6513 209.206 14.7971C207.848 12.7608 204.434 10.934 201.661 8.86887C203.308 10.4324 203.299 10.4299 203.105 11.576C202.199 12.8879 201.7 13.4038 199.046 11.8997C199.351 10.856 201.118 11.4862 199.272 9.94418C200.199 10.8244 198.982 11.2191 197.701 10.9289C196.324 9.66867 193.608 8.82799 193.877 7.73789C194.56 7.76143 195.21 8.03703 195.705 8.51235C196.559 8.45383 192.866 6.676 195.396 6.47147L192.302 5.91035C190.773 4.526 193.848 4.85992 193.301 4.09496C191.032 3.81291 188.732 3.92754 186.502 4.4338C184.418 4.86905 182.299 5.1095 180.172 5.1521C180.467 4.43589 180.68 3.68762 180.806 2.92218C178.894 2.36605 176.862 2.39701 174.968 3.01111C172.954 3.65981 170.853 3.9925 168.738 3.99752C169.404 3.3561 170.881 3.83492 172.144 3.64456C166.401 2.51841 160.596 1.74338 154.76 1.32374C151.961 1.06671 149.175 0.967596 146.333 0.672981C143.496 0.522397 140.599 0.276424 137.57 0L134.803 2.87153L131.517 1.61929C128.531 1.71908 125.556 2.03886 122.616 2.57609C119.884 3.11298 117.189 3.82879 114.55 4.71898C111.962 5.62505 109.4 6.52325 106.87 7.68936L103.007 9.37571C101.722 9.99145 100.411 10.6197 99.0732 11.2603C95.7138 12.7846 96.3418 10.4337 94.463 10.5093C91.5589 11.6176 88.9192 13.3308 86.7161 15.5371C84.6166 17.678 82.3392 19.6337 79.9087 21.3827C80.4333 20.1935 80.9794 17.3942 78.0071 18.9986C77.83 19.951 78.0329 21.088 76.0146 21.8218L76.5315 20.5986C74.3023 20.6699 73.2817 22.5948 69.6545 24.3956C64.0985 28.3112 59.7586 33.7365 57.1394 40.0407C52.4322 43.972 55.8005 37.5982 54.6046 37.9799C58.5157 35.7729 56.6199 35.6343 56.792 34.3418C55.4837 36.4443 53.6221 38.5589 51.5754 38.1263C49.4888 39.8875 47.8313 42.1086 46.7309 44.6181C47.4203 43.0089 49.0603 42.6895 48.5796 44.3555C47.449 45.0985 45.8412 46.8188 44.3493 48.1301C42.8617 49.4446 41.5723 50.4458 40.8501 49.5556C30.0884 62.1754 21.3288 76.3989 14.8824 91.7208C14.9101 94.7755 16.0692 89.9061 16.2468 91.6546C16.1444 95.9916 14.3559 94.3653 14.2786 97.8235L13.6359 96.1452C11.7501 100.665 12.3072 106.3 12.203 111.029C11.0864 109.921 10.0691 114.423 10.3255 110.476C9.8971 112.678 3.39027 114.021 4.17162 116.108C6.23302 115.658 8.28763 115.24 10.3355 114.855C10.8538 115.109 9.80786 118.128 10.249 117.901C8.70072 119.355 7.50049 121.145 6.73897 123.136C5.20624 123.56 6.08507 120.132 6.51639 118.257C4.14246 117.445 3.82981 124.416 2.13464 121.212C1.78887 125.444 3.45668 120.845 3.90087 123.474C3.5364 124.644 3.10044 125.808 2.80262 126.996C3.17039 126.099 3.62134 125.22 4.04625 124.341C4.20366 127.459 6.02047 128.718 4.14573 132.529C4.72737 133.994 5.4378 135.448 6.11275 136.877C4.1842 137.138 5.52572 139.849 4.94712 141.93L3.82055 140.533C3.8566 142.496 3.45774 144.443 2.65304 146.231C1.01749 144.57 3.12215 143.653 1.55374 142.901L0.9104 146.053C1.99184 146.069 2.79024 148.074 3.49851 145.845C6.16053 149.073 7.47114 153.22 7.15252 157.406C6.3487 159.06 5.87584 158.23 5.3877 157.14C4.95046 156.054 4.51345 154.711 3.61924 155.426C3.23691 163.068 8.98014 164.199 9.30269 168.421C9.20062 173.957 11.0323 173.363 12.0486 178.745C10.4374 177.283 11.5755 182.783 10.651 184.07L8.88481 182.207C9.64707 183.788 9.53547 185.505 8.53109 185.232C10.0491 184.538 11.8654 191.938 13.8759 195.333L15.0451 194.248C15.7492 195.587 16.6445 197.154 17.4428 198.767C18.2789 200.277 18.9556 201.871 19.4619 203.523C21.5723 207.69 22.4726 206.167 25.3114 208.738C25.2688 209.167 25.1417 209.583 24.9375 209.962C24.7332 210.34 24.456 210.674 24.1221 210.943C23.7882 211.212 23.4044 211.411 22.9931 211.529C22.5819 211.646 22.1515 211.679 21.7273 211.627C21.8853 210.166 20.6219 208.41 20.1925 206.349C18.5499 203.843 16.5234 201.794 14.8552 199.554C13.0564 197.345 11.8257 194.723 11.2721 191.92C9.22631 191.151 9.6025 192.11 10.4453 193.665C11.5904 195.193 12.339 196.985 12.6232 198.878C12.3966 198.865 12.2639 198.685 12.1594 198.482C12.2415 198.719 12.2885 198.968 12.299 199.219C11.2039 197.29 9.50071 194.084 7.66803 194.004C9.09497 197.476 11.8296 195.472 11.831 200.294C13.8564 203.133 12.3615 206.676 12.8783 208.734C14.9772 210.331 17.6258 209.247 19.3647 214.474L16.5896 213.115C19.1893 218.844 20.4598 214.503 22.9251 219.661C22.2261 217.77 25.5041 220.455 23.8397 217.065C26.0959 219.113 27.7933 221.711 28.7694 224.609C29.421 225.142 29.4263 224.405 30.0718 224.184C29.6377 220.586 26.2204 220.282 26.7314 216.875L23.7892 215.783C23.0528 212.627 24.4664 211.63 26.0663 212.93C25.5949 212.199 24.9793 211.651 25.0687 210.907C27.685 209.052 25.673 214.718 28.5844 214.428L27.4086 212.619C28.8932 210.853 31.1855 216.261 32.5076 218.659C32.8511 220.245 33.2991 221.712 33.5235 222.899C33.7888 224.061 33.8085 224.961 33.2294 225.455C32.2702 224.39 31.3562 223.291 30.4872 222.156C30.4995 224.737 33.9404 226.417 35.1815 228.525C35.0994 228.799 35.0925 229.09 35.1618 229.368C35.1869 229.208 35.2725 229.064 35.4004 228.967C35.6234 229.434 35.7143 229.955 35.663 230.471C37.3097 232.3 38.8419 234.23 40.2507 236.25L41.1669 235.235L40.3979 235.481C39.2451 233.866 38.4182 231.177 40.0766 231.808C43.332 234.842 41.954 237.023 41.6587 238.637C39.4017 239.099 38.9457 235.186 37.1143 233.712C36.2317 236.085 39.6308 237.548 41.483 242.072C38.5847 242.005 38.1504 237.744 35.8712 238.179C37.9643 241.431 39.7243 241.301 41.891 244.719C40.7297 245.039 38.1938 242.006 37.3291 243.031L38.4651 245.503C34.3402 240.476 37.0179 248.192 33.4298 244.493C34.2257 247.001 36.8946 246.035 38.0769 249.547C38.1769 248.165 37.7825 244.972 40.5546 246.858L42.4461 250.07C42.6595 251.978 38.1498 248.734 39.0413 251.175C40.0808 252.001 41.1164 252.82 42.2114 253.577C42.6056 253.022 41.5825 251.446 43.0559 251.668C44.0645 253.788 47.4363 252.547 49.8853 253.692C51.3019 255.157 52.38 256.367 52.3659 257.443C57.3892 259.606 62.3404 263.759 67.1558 265.107C63.8735 264.185 65.8222 267.058 66.8359 268.978C63.6741 267.007 62.4175 268.569 61.7905 269.829C63.7427 271.124 66.2639 270.208 65.7365 268.974C68.3321 271.898 68.7033 269.31 70.6083 272.417C71.9812 274.272 68.5564 273.511 68.7248 274.592C72.1362 277.019 71.0774 273.103 74.566 275.971C74.211 276.076 73.8207 275.926 73.9122 276.449C74.6104 277.189 75.4959 277.724 76.4732 277.995C77.4505 278.266 78.4825 278.263 79.4582 277.986C79.7247 278.759 80.1631 279.46 80.7399 280.036C81.3167 280.612 82.0165 281.047 82.7859 281.308C84.0976 281.894 85.0696 282.291 84.2319 283.357C89.795 285.425 84.1128 281.656 85.5813 281.367C87.0868 281.527 88.5257 282.077 89.7583 282.963C90.8427 283.597 91.8686 284.328 92.8238 285.146C91.5009 284.596 89.969 284.737 88.9041 283.739L89.223 285.949C95.4148 290.201 95.0851 284.125 100.951 288.18C97.2512 287.75 99.3318 289.047 97.1688 289.593C98.3657 289.573 103.337 292.103 100.717 289.54C103.107 290.708 104.778 291.501 106.396 292.449C108.631 292.788 110.912 292.627 113.077 291.976C115.743 292.997 118.227 294.446 120.433 296.267C128.274 296.66 135.098 300.076 143.466 299.174L142.87 299.016C149.171 299.823 140.253 296.381 146.764 296.87C145.783 299.119 150.617 298.506 152.744 299.76C154.647 300.023 156.573 300.075 158.487 299.914C160.247 299.802 161.997 299.561 163.723 299.193C165.419 298.877 167.089 298.578 168.807 298.406C170.587 298.133 172.391 298.058 174.188 298.182C174.193 298.661 173.787 299.285 172.347 299.528C173.796 299.522 175.171 299.453 176.497 299.338C177.814 299.164 179.082 298.951 180.329 298.722L184.035 298C185.258 297.702 186.491 297.411 187.765 297.145L187.608 297.468C196.21 297.318 202.998 292.92 210.667 289.098C210.128 289.621 210.277 290.482 209.882 290.965C214.147 289.876 220.698 287.107 222.436 283.811C228.097 283.413 225.091 281.601 231.967 280.166C232.506 280.313 231.583 280.822 231.24 281.121C234.045 280 236.729 278.594 239.253 276.927C244.487 271.402 244.155 268.119 251.098 263.325C253.437 265.398 247.658 267.325 248.998 269.297C249.867 267.59 251.26 266.211 252.969 265.368C252.679 267.219 253.232 266.146 253.214 267.653C254.164 267.36 255.039 265.531 255.662 263.832C256.283 262.126 256.592 260.475 256.688 260.605C256.353 260.101 255.692 260.29 254.541 261.512C254.691 258.758 260.466 255.678 262.669 252.084C261.713 253.021 258.427 255.617 258.467 253.46C260.13 252.164 261.324 250.352 261.865 248.303C262.156 246.513 262.586 244.748 263.149 243.025C267.402 240.205 262.762 247.443 264.953 248.197C266.082 248.089 268.724 247.654 267.957 249.838C271.37 246.666 271.922 242.816 274.009 239.323L274.43 239.778C277.6 234.959 278.685 228.506 282.045 225.038L280.204 226.858C280.351 225.87 281.911 223.493 281.598 221.536C282.412 222.201 284.972 219.415 284.987 221.136C284.131 219.229 285.172 216.184 286.149 213.095C287.018 209.955 288.005 206.851 287.044 204.969C288.328 203.911 289.114 205.5 289.625 206.212C288.018 209.373 286.886 210.148 287.316 212.399C288.48 209.7 290.122 208.056 290.615 208.762C289.953 205.217 291.689 198.428 290.16 196.38C291.784 194.714 292.951 192.94 294.312 194.156C295.09 189.665 293.504 190.39 292.147 190.97C290.778 191.554 289.586 192.005 290.931 187.275C293.725 183.337 291.849 192.137 294.086 186.227L294.026 187.418C299.366 184.05 291.8 183.524 293.088 178.668C295.546 178.47 293.932 182.512 296.372 179.388C296.624 174.562 293.656 172.026 294.921 167.543L295.82 168.395C296.103 165.42 297.003 159.666 297.01 156.677C297.479 156.559 297.403 156.99 297.48 157.566C298.575 152.061 296.358 155.229 298.108 150.733L297.001 149.431C295.679 152.396 295.342 155.713 296.042 158.886C294.915 155.999 292.743 163.084 290.854 161.499L291.614 162.116C287.544 168.963 285.676 177.768 282.018 185.949C282.209 187.296 282.132 188.669 281.792 189.986C281.42 191.157 280.946 192.292 280.374 193.379C279.022 195.665 278.109 198.187 277.682 200.813C279.886 202.752 277.806 202.09 276.177 207.032C276.988 204.382 274.406 205.864 273.382 207.247C273.497 208.47 273.342 209.704 272.928 210.86C271.583 211.69 270.385 212.741 269.386 213.971C268.697 214.589 268.138 215.339 267.74 216.178C267.343 217.016 267.115 217.926 267.071 218.855C264.659 220.995 266.727 217.79 266.518 216.891C264.721 217.251 266.173 219.609 264.821 219.975C264.751 219.904 264.699 219.818 264.67 219.723C264.64 219.628 264.634 219.528 264.651 219.43C262.4 222.881 259.807 226.092 256.911 229.013C258.771 230.959 254.839 233.474 254.101 235.686C253.896 234.584 251.543 237.107 250.273 237.806L249.95 241.081C249.371 244.172 246.636 242.907 244.844 245.86L245.765 245.648C244.587 248.022 238.62 251.144 235.872 251.48C229.833 259.2 221.581 264.857 212.241 267.681C208.033 269.144 203.686 270.237 199.079 271.489C196.782 272.134 194.363 272.67 191.896 273.463C189.368 274.056 186.797 274.97 184.001 275.76C182.71 276.9 185.409 276.845 184.526 278.294C182.913 278.9 181.25 279.359 179.557 279.665C181.604 279.997 181.11 279.138 181.025 279.947L184.137 278.437C184.342 278.595 183.999 278.757 184.401 279.062C185.538 278.376 186.759 277.839 188.032 277.465C186.232 278.744 186.105 280.76 183.12 280.691C183.275 280.371 183.619 280.203 184.315 279.863C181.974 280.238 182.061 281.222 180.209 281.086C177.978 281.032 178.622 281.547 178.185 280.739C175.905 280.769 173.655 280.878 171.388 280.75C170.714 281.351 169.921 281.799 169.061 282.065C168.201 282.33 167.295 282.407 166.404 282.289C165.222 282.097 164.053 281.839 162.899 281.517C163.487 279.652 167.27 280.685 168.676 278.651C167.841 278.305 167.02 278.007 166.198 277.622L166.196 279.064L162.802 278.927L162.971 278.636C162.616 279.227 162.236 279.817 161.345 279.388C161.187 279.201 160.839 278.834 161.207 278.721C160.426 279.064 159.637 279.348 158.843 279.626C160.18 278.104 156.716 279.233 157.02 277.511C149.349 276.809 147.03 279.754 140.399 276.89C141.43 277.84 137.957 279.304 135.866 278.722C134.702 278.15 134.459 277.729 135.317 277.176C134.361 277.369 133.406 277.505 132.449 277.619C131.128 276.226 129.374 275.33 127.478 275.08C125.333 274.71 123.232 274.116 121.209 273.307L121.648 272.647C119.387 273.151 117.027 272.943 114.886 272.051L115.82 270.775C112.95 268.657 112.354 272.967 109.058 270.779C108.496 272.347 110.536 273.894 110.405 275.486C110.036 273.677 106.247 271.953 106.741 273.382C102.868 272.556 104.239 272.343 104.078 271.856C103.251 271.872 102.399 271.929 101.579 271.896C99.1033 270.679 101.64 269.582 102.897 269.136C99.9338 269.657 97.8385 267.505 95.4709 265.889L96.8192 265.766L93.6351 263.79C92.1608 263.758 90.7155 263.371 89.4196 262.661C87.9713 261.956 86.6485 261.014 85.5043 259.874C86.4909 259.661 87.456 259.461 88.448 259.193C87.1563 257.118 87.1125 259.232 86.4258 259.24C82.9599 258.214 83.0592 256.63 82.2637 254.58C79.6112 253.677 77.3935 251.8 76.0526 249.322C74.4124 247.127 72.9655 245.005 70.149 244.658ZM226.75 35.9742L226.468 35.4119C227.698 35.768 228.474 35.8571 226.75 35.9742ZM198.308 21.1554C202.259 21.6402 200.726 22.2547 200.803 22.8799C199.398 22.0954 197.91 21.475 196.366 21.0308C194.938 20.5742 193.547 20.0039 192.208 19.3251C192.476 19.7871 192.612 20.3145 192.602 20.8495C191.355 20.3862 190.205 19.5679 190.052 18.3926C191.131 17.6173 193.597 18.5671 195.502 19.7658C197.429 20.9089 198.894 22.0121 198.308 21.1554ZM265.139 55.5186C264.91 55.5131 264.682 55.491 264.456 55.4524L264.441 55.4345L265.139 55.5186ZM249.554 41.9418C249.602 41.367 249.43 40.7955 249.072 40.3453C248.983 41.0258 248.945 41.6194 249.554 41.9418L249.554 41.9418ZM217.129 16.7721C216.655 15.5461 214.53 14.8915 213.003 14.4174C214.322 15.2987 215.701 16.0855 217.129 16.7721V16.7721ZM12.4558 115.299C12.4005 114.002 12.0716 111.455 10.9553 113.417C11.4629 114.616 9.72453 116.286 10.6633 117.405C10.6196 117.472 10.5699 117.535 10.5149 117.594C11.2381 116.898 11.8885 116.129 12.4558 115.299V115.299ZM40.0712 228.373C39.2311 228.701 37.9353 228.516 37.7173 229.36L37.5796 229.043C37.5077 229.457 37.4509 229.807 37.1583 229.724C37.4536 230.579 37.9439 231.352 38.5896 231.982C41.1017 230.583 42.6173 231.94 40.0712 228.373V228.373Z" fill="#F78536"/>
<path d="M11.7202 197.387C11.9179 197.838 12.0205 198.207 12.1594 198.482C12.0571 198.177 11.918 197.838 11.7202 197.387Z" fill="#F78536"/>
<path d="M38.4839 231.815C38.6811 231.78 38.2529 230.679 37.7173 229.36C37.588 229.793 37.7445 230.512 38.4839 231.815Z" fill="#F78536"/>
<path d="M285.614 117.84L285.082 116.801L284.754 119.206C285.117 120.214 285.722 121.116 286.515 121.831C287.308 122.545 288.264 123.051 289.297 123.302C288.493 121.945 287.887 120.478 287.498 118.947C287.126 117.201 286.654 115.479 286.084 113.788C286.004 115.133 285.778 116.502 285.614 117.84Z" fill="#F78536"/>
<path d="M294.389 113.628C294.858 112.928 295.154 112.126 295.253 111.287L294.255 110.927C294.305 111.829 294.392 112.719 294.389 113.628Z" fill="#F78536"/>
<path d="M278.834 67.4259L280.311 71.1675C281.634 71.8344 280.29 67.2216 278.834 67.4259Z" fill="#F78536"/>
<path d="M274.037 89.4282C274.596 89.8466 275.195 90.2502 275.726 90.6918C275.683 88.8301 274.526 86.8342 273.443 86.9878C274.974 88.7421 273.185 87.7532 274.037 89.4282Z" fill="#F78536"/>
<path d="M272.926 58.5777C270.814 58.6581 271.09 54.9786 269.323 55.3501C270.336 55.8737 271.444 59.468 272.926 58.5777Z" fill="#F78536"/>
<path d="M261.417 70.47C260.739 72.3435 262.996 72.9901 263.928 75.0648C262.91 73.5321 262.763 70.4195 261.417 70.47Z" fill="#F78536"/>
<path d="M255.629 46.0058C256.647 45.2487 257.695 46.5137 258.748 48.0347C258.033 47.9897 257.332 47.8125 256.68 47.512C258.365 48.47 259.986 49.5386 261.532 50.7109C260.507 48.3543 258.359 45.2796 259.715 44.4888C257.653 43.9183 254.801 43.6665 255.629 46.0058Z" fill="#F78536"/>
<path d="M258.024 66.3014C258.41 68.0701 259.055 69.7708 259.939 71.3474C260.356 70.6964 260.514 69.9111 260.382 69.1477C260.251 68.3843 259.839 67.6989 259.229 67.2277L260.936 67.091C260.264 64.5229 260.018 68.9984 258.024 66.3014Z" fill="#F78536"/>
<path d="M249.636 35.9415L250.141 37.2603C253.106 38.2442 255.363 41.2682 257.803 41.0941C256.447 39.8563 254.989 38.7358 253.446 37.7444C252.261 36.9755 250.98 36.3692 249.636 35.9415V35.9415Z" fill="#F78536"/>
<path d="M254.154 57.5077L252.441 58.5946C253.948 60.7491 252.818 57.9957 253.78 58.3824C254.056 59.1465 254.651 60.119 255.295 60.2872C253.126 58.2128 256.376 59.0669 254.154 57.5077Z" fill="#F78536"/>
<path d="M246.594 52.8441L243.612 51.1643L243.969 54.5436C247.26 56.6462 244.968 53.7789 246.594 52.8441Z" fill="#F78536"/>
<path d="M244.536 49.0118L244.522 48.4658L238.807 47.4041C240.637 48.1947 242.564 48.7354 244.536 49.0118V49.0118Z" fill="#F78536"/>
<path d="M195.551 6.49C194.721 7.14671 197.494 9.05792 196.452 7.7616C197.261 7.25155 193.418 4.98991 195.551 6.49Z" fill="#F78536"/>
<path d="M202.127 25.8034C201.068 25.0863 199.846 24.649 198.575 24.5315C196.983 24.3059 195.283 24.2057 194.251 24.1651C195.877 24.5262 197.483 24.9755 199.062 25.5112C200.703 26.0655 202.069 26.4065 202.127 25.8034Z" fill="#F78536"/>
<path d="M193.411 24.1249L194.251 24.1651C193.975 24.1055 193.691 24.0919 193.411 24.1249V24.1249Z" fill="#F78536"/>
<path d="M112.613 29.1851C112.419 29.2725 112.253 29.4125 112.134 29.5895L112.613 29.1851Z" fill="#F78536"/>
<path d="M114.283 28.0835C115.594 27.8875 117.941 26.7044 118.127 25.6816C116.14 26.5924 114.285 27.7709 112.613 29.185C113.436 28.7956 114.683 29.0584 114.283 28.0835Z" fill="#F78536"/>
<path d="M96.873 34.8085C97.4942 33.8658 98.8111 33.5094 98.1524 32.9112C97.4888 32.8187 96.0352 34.5914 96.873 34.8085Z" fill="#F78536"/>
<path d="M2.66538 131.664C1.92397 133.767 2.19722 135.077 3.48186 134.614C3.69336 132.211 2.8395 133.449 2.66538 131.664Z" fill="#F78536"/>
<path d="M3.53281 137.39L2.89389 137.633L1.83936 138.981L3.53281 137.39Z" fill="#F78536"/>
<path d="M1.26727 152.213C0.991914 151.98 0.794876 151.667 0.703369 151.317C0.89438 152.165 1.08519 152.882 1.26727 152.213Z" fill="#F78536"/>
<path d="M0.614624 150.889C0.63509 151.033 0.66479 151.177 0.703541 151.317L0.614624 150.889Z" fill="#F78536"/>
<path d="M0.987532 149.899L0.319458 149.73C0.4445 150.109 0.543084 150.496 0.614486 150.889C0.562148 150.705 0.570212 150.509 0.637469 150.331C0.704726 150.152 0.827552 150.001 0.987532 149.899V149.899Z" fill="#F78536"/>
<path d="M1.15829 156.719L2.98052 153.803C1.97336 150.874 2.09413 157.201 0 154.347L1.15829 156.719Z" fill="#F78536"/>
<path d="M2.47722 166.599C2.21962 169.408 5.60387 172.846 3.72463 174.699C6.24387 182.025 7.04349 172.373 9.50733 180.654C9.2417 176.587 8.09314 175.767 6.8504 175.04C5.67033 174.312 4.36206 173.68 4.55186 169.945C3.62249 173.666 3.1575 167.729 2.47722 166.599Z" fill="#F78536"/>
<path d="M6.06581 164.905C4.8935 164.585 5.21605 167.981 6.09185 168.931C6.09063 167.929 7.44142 166.08 6.06581 164.905Z" fill="#F78536"/>
<path d="M5.84534 181.279L5.52478 183.76L6.36487 184.199L5.84534 181.279Z" fill="#F78536"/>
<path d="M7.51668 190.039L5.63892 188.164C6.33546 188.77 7.16924 192.111 7.51668 190.039Z" fill="#F78536"/>
<path d="M9.71082 202.447C10.0948 204.642 13.5809 205.372 11.3643 201.365C11.4333 201.707 11.5145 202.044 11.6078 202.377C11.0724 202.284 10.9693 204.964 9.71082 202.447Z" fill="#F78536"/>
<path d="M26.1684 226.179C25.5059 224.888 24.3244 223.592 23.9329 224.166L26.4443 227.315L26.1684 226.179Z" fill="#F78536"/>
<path d="M32.1688 221.906C33.133 219.869 30.2608 218.927 29.6016 216.415C30.1747 218.367 31.0405 220.218 32.1688 221.906V221.906Z" fill="#F78536"/>
<path d="M26.3725 231.448C25.1547 230.934 24.6464 229.244 24.2232 228.317C23.583 229.288 25.3256 231.512 26.3725 231.448Z" fill="#F78536"/>
<path d="M30.4517 236.448C30.6051 237.954 29.4472 236.804 29.6106 237.913C30.0643 239.265 30.7391 240.53 31.6071 241.656C32.3087 242.563 33.2274 243.274 34.2767 243.723C34.4254 242.642 35.489 240.553 36.9198 240.889C33.6628 237.863 29.7 237.814 30.5351 234.56C28.9229 234.164 27.3912 233.681 25.8121 233.198C27.3391 236.576 29.1902 234.288 30.4517 236.448Z" fill="#F78536"/>
<path d="M30.6185 225.632L30.9612 228.165C31.5864 227.212 32.6828 228.598 33.623 229.442C35.2481 227.644 31.4561 226.693 30.6185 225.632Z" fill="#F78536"/>
<path d="M47.308 254.675C48.5708 255.799 49.962 256.785 51.2822 257.834L50.1912 256.603C49.2174 255.981 48.2359 255.359 47.308 254.675Z" fill="#F78536"/>
<path d="M49.0814 257.507L48.7056 258.087L52.3622 259.877L49.0814 257.507Z" fill="#F78536"/>
<path d="M52.3887 261.789L52.0217 261.294L49.4484 259.64L52.3887 261.789Z" fill="#F78536"/>
<path d="M60.2342 269.032L60.1076 267.675C58.9136 267.096 57.6417 264.588 56.9923 265.757C58.0991 266.183 60.1268 267.92 60.2342 269.032Z" fill="#F78536"/>
<path d="M100.717 264.757C99.74 265.033 99.9147 265.746 100.098 266.479L101.915 265.455C101.549 265.383 100.825 265.233 100.717 264.757Z" fill="#F78536"/>
<path d="M104.381 269.386L108.072 268.782C104.772 267.165 103.718 268.39 100.654 267.289C101.668 268.407 103.932 267.99 105.35 269.07L104.381 269.386Z" fill="#F78536"/>
<path d="M167.971 279.871C167.806 281.119 168.544 280.919 166.172 281.939C167.735 281.44 169.334 281.062 170.954 280.807C172.686 280.592 174.407 280.286 176.108 279.891C175.344 279.236 177.902 277.403 176.522 277.992C175.173 278.463 173.832 279.036 172.455 279.432L172.965 278.515C169.893 277.948 171.222 280.13 167.971 279.871Z" fill="#F78536"/>
<path d="M295.224 170.447C295.759 170.971 296.364 170.486 296.97 169.99C296.667 167.082 295.278 171.038 295.224 170.447Z" fill="#F78536"/>
<path d="M13.6695 149.431C12.8818 148.114 13.4127 149.875 13.5575 151.495L13.6695 149.431Z" fill="#F78536"/>
<path d="M13.5575 151.495L13.4764 152.958C13.5895 152.479 13.6169 151.984 13.5575 151.495V151.495Z" fill="#F78536"/>
<path d="M13.8435 165.137C12.8807 162.067 13.5047 158.259 12.4229 156.349C12.0817 159.555 12.6353 164.491 13.8435 165.137Z" fill="#F78536"/>
<path d="M14.0384 160.388L13.4945 160.034L14.5026 162.705L14.0384 160.388Z" fill="#F78536"/>
<path d="M14.3656 158.402L14.2064 158.808L15.0531 163.026L14.3656 158.402Z" fill="#F78536"/>
<path d="M15.0363 175.716L14.344 172.629C14.5275 169.61 15.6208 174.391 15.7467 172.375C15.1037 168.521 14.0808 171.267 13.662 166.352C13.4629 167.687 13.5057 169.048 13.7882 170.369C13.986 172.187 14.2408 173.85 13.6401 173.548C14.0425 177.714 14.2826 173.642 15.0363 175.716Z" fill="#F78536"/>
<path d="M147.202 285.735C147.353 285.786 147.485 285.806 147.622 285.844C147.461 285.727 147.292 285.642 147.202 285.735Z" fill="#F78536"/>
<path d="M195.827 278.29C196.503 278.174 197.167 278.015 197.807 277.843C197.526 277.802 197.241 277.797 196.958 277.83L195.827 278.29Z" fill="#F78536"/>
<path d="M116.094 282.614C115.431 282.301 114.819 282.042 114.256 281.817C114.817 282.19 115.44 282.46 116.094 282.614V282.614Z" fill="#F78536"/>
<path d="M278.273 82.9259C278.386 83.0078 278.527 83.0428 278.665 83.0237L278.643 82.928L278.134 82.5497L278.273 82.9259Z" fill="#F78536"/>
<path d="M242.197 249.37C242.756 248.889 243.274 248.363 243.748 247.797C243.193 248.282 242.675 248.808 242.197 249.37V249.37Z" fill="#F78536"/>
<path d="M98.9769 276.567L99.6649 276.888C99.4608 276.752 99.1781 276.58 98.8542 276.4L98.9429 276.551L98.9769 276.567Z" fill="#F78536"/>
<path d="M180.004 281.079C180.595 281.042 181.181 280.956 181.758 280.822C181.148 280.864 180.575 281 180.004 281.079Z" fill="#F78536"/>
<path d="M30.6368 221.356C30.9457 222.067 31.3583 222.727 31.8612 223.315C31.6408 222.56 31.217 221.882 30.6368 221.356V221.356Z" fill="#F78536"/>
<path d="M41.1085 236.866L41.0368 236.783C41.005 236.947 41.0595 236.973 41.1085 236.866Z" fill="#F78536"/>
<path d="M48.6745 246.127L48.5099 245.992C48.5377 246.153 48.5753 246.219 48.6745 246.127Z" fill="#F78536"/>
<path d="M31.8612 223.315C32.2995 224.856 31.4604 225.957 33.7572 226.87L33.7076 226.427C34.4064 227.715 35.2839 228.897 36.3135 229.936C36.3456 229.733 36.3466 229.527 36.3164 229.324C35.9451 228.733 35.492 227.928 34.8087 226.681C34.1708 225.09 32.9722 224.559 31.8612 223.315Z" fill="#F78536"/>
<path d="M146.999 285.999C146.843 285.733 145.645 285.807 146.999 285.999V285.999Z" fill="#F78536"/>
<path d="M131.603 285.471C132.096 285.571 132.582 285.704 133.096 285.769C132.607 285.628 132.108 285.529 131.603 285.471V285.471Z" fill="#F78536"/>
<path d="M78.0693 263.873L78.2688 264.073C78.4227 263.991 78.2217 263.889 78.0693 263.873Z" fill="#F78536"/>
<path d="M134.482 285.958L133.095 285.769C133.547 285.897 134.013 285.96 134.482 285.958V285.958Z" fill="#F78536"/>
<path d="M92.799 273.361C92.8618 273.413 92.9273 273.462 92.9953 273.507C92.9375 273.449 92.8713 273.4 92.799 273.361V273.361Z" fill="#F78536"/>
<path d="M63.5947 33.8923C64.4309 33.2303 65.3412 32.6696 66.307 32.2216C67.8095 29.7991 62.0004 35.6019 64.5006 32.5256C63.725 33.1525 63.0011 33.8416 62.3358 34.5863L64.2113 34.2613C65.8061 32.5451 62.8085 34.9803 63.5947 33.8923Z" fill="#F78536"/>
<path d="M272.145 68.8784L272.36 69.3678C272.503 68.8353 272.821 69.0178 271.83 67.2385C270.322 66.1978 271.079 68.9216 268.79 66.8881C269.27 67.463 269.69 68.0863 270.043 68.748C269.804 67.4263 270.982 68.0681 272.145 68.8784Z" fill="#F78536"/>
<path d="M270.043 68.748C270.05 68.7797 270.053 68.812 270.052 68.8444C270.057 69.0073 270.079 69.1693 270.118 69.3276C270.35 69.6482 270.544 69.9955 270.695 70.3624C270.577 69.7889 270.356 69.2419 270.043 68.748V68.748Z" fill="#F78536"/>
<path d="M99.4631 13.436L100.787 13.0034C100.315 13.0258 99.858 13.1751 99.4631 13.436V13.436Z" fill="#F78536"/>
<path d="M247.025 260.572C246.63 261.037 246.249 261.502 245.954 261.886C246.385 261.516 246.748 261.071 247.025 260.572V260.572Z" fill="#F78536"/>
<path d="M284.943 94.8809C285.045 95.3351 285.18 95.7938 285.339 96.2835L285.712 97.121L284.943 94.8809Z" fill="#F78536"/>
<path d="M218.203 31.8474C219.525 31.4488 217.556 31.4917 216.109 30.115L214.265 29.7855C215.637 30.6928 217.081 31.191 218.203 31.8474Z" fill="#F78536"/>
<path d="M62.1914 34.6129C62.2141 34.6365 62.2288 34.6667 62.2334 34.6992L62.3358 34.5863L62.1914 34.6129Z" fill="#F78536"/>
<path d="M168.209 16.0455L167.371 15.7936C167.639 15.9119 167.921 15.9965 168.209 16.0455V16.0455Z" fill="#F78536"/>
<path d="M275.628 78.5369L277.391 81.6907L279.003 84.9253L278.273 82.9259C277.416 82.2511 276.66 79.1038 275.628 78.5369Z" fill="#F78536"/>
<path d="M241.417 49.1564L241.456 50.0252C247.405 53.569 251.319 60.5497 256.15 63.4707C259.527 71.3177 261.143 66.5102 263.948 73.9043L264.059 73.5176C270.958 84.1739 276.319 95.7648 279.983 107.943C281.808 113.915 283.263 119.995 284.341 126.149C284.967 129.161 285.282 132.191 285.754 135.162C286.068 138.15 286.462 141.1 286.674 144.019L286.234 143.988C286.678 162.619 283.49 181.156 276.85 198.548C270.223 215.883 259.965 231.571 246.777 244.543C244.565 247.234 246.747 246.49 244.91 248.941C243.976 249.863 241.721 251.792 241.373 251.407C243.082 249.519 241.69 250.095 242.197 249.37C239.12 252.215 234.573 255.123 231.96 257.835C232.953 257.434 233.921 256.99 234.872 256.515C233.663 257.705 232.308 258.733 230.84 259.576C231.082 258.96 229.094 259.44 229.916 258.641C228.527 260.511 226.636 261.94 224.466 262.759C222.574 263.34 220.798 264.247 219.215 265.442C218.884 267.47 212.085 272.499 207.352 275.67C206.422 275.978 205.45 276.178 204.502 276.428C208.097 274.978 204.059 275.522 208.442 273.625C206.556 274.289 204.803 275.055 203.066 275.809C201.376 276.642 199.616 277.323 197.807 277.843C198.622 277.961 198.611 278.484 197.221 279.137C194.939 279.668 194.552 279.115 191.984 279.742C192.774 279.348 193.57 278.985 194.337 278.536C192.715 278.8 191.153 279.358 189.726 280.181C189.057 279.761 185.245 280.648 185.743 279.768C183.105 280.923 180.364 281.822 177.556 282.451C181.583 282.397 176.702 283.441 177.224 283.877C178.685 283.511 180.159 283.223 181.601 282.796C175.306 283.633 183.609 282.302 182.892 281.286C185.9 281.09 179.282 283.932 184.117 282.635C182.016 283.356 179.864 283.918 177.679 284.317C175.882 284.708 174.086 285.16 171.08 285.947C174.748 285.275 170.463 286.727 172.496 286.794C167.784 287.439 171.278 286.574 169.742 286.079C167.196 286.47 166.203 285.873 163.908 286.852C159.733 286.85 164.473 286.005 162.35 285.733C164.377 285.333 166.436 285.117 168.501 285.089C171.028 284.789 173.195 284.335 172.472 283.244C174.599 282.997 176.989 281.533 180.004 281.079C176.738 281.091 173.481 281.431 170.282 282.094L170.28 283.428C167.79 283.783 167.364 284.761 165.527 284.763C166.457 284.309 164.67 283.886 162.659 284.15C163.247 284.293 164.052 284.187 163.848 284.434C160.107 284.857 159.626 285.71 155.107 286.08C158.842 286.292 159.634 286.797 163.178 287.057C162.293 288.046 160.708 287.424 158.64 287.552C158.947 287.418 159.378 287.382 158.762 287.213L156.567 287.715C151.865 287.429 157.123 286.372 153.279 285.994C150.646 285.148 149.645 286.335 147.622 285.844C147.753 285.932 147.888 286.026 148.008 286.089C147.557 286.063 147.235 286.032 146.999 286C147.013 286.022 147.031 286.039 147.03 286.065C144.559 286.056 141.923 285.746 141.16 286.393C140.925 286.073 138.986 286.316 138.159 286.396C136.766 286.466 133.313 286.948 131.449 285.45L131.602 285.472C128.57 284.789 126.269 284.022 126.997 283.772C125.384 283.388 123.804 282.861 122.21 282.415L122.932 281.658C120.506 281.197 118.021 281.137 115.576 281.483C114.721 281.096 113.844 280.761 112.95 280.478C111.989 280.119 110.961 279.783 109.955 279.483C107.94 278.898 106.023 278.432 104.973 278.158C104.425 277.898 103.861 277.676 103.283 277.496L104.925 278.529C101.631 277.167 101.842 277.799 99.6646 276.888C100.079 277.169 100.121 277.245 98.9766 276.567L97.7697 275.943C98.1589 276.017 98.5282 276.173 98.854 276.4L98.5822 275.945C96.3915 273.872 94.3458 274.687 91.7876 272.938C92.1328 273.058 92.4704 273.2 92.7987 273.362C91.3725 272.352 89.7926 270.102 88.8018 270.466C88.3516 270.168 87.8404 269.976 87.3063 269.904L86.2833 269.154C86.7091 269.449 87.0295 269.69 87.2897 269.897C86.4892 269.731 85.6869 269.635 85.6946 269.418C84.4651 268.625 83.2021 267.891 82.0036 267.052C81.2479 266.456 80.4175 265.963 79.5339 265.585L79.111 264.867C77.741 264.049 77.8533 263.857 78.0691 263.874C76.4397 262.138 74.5466 260.676 72.4608 259.541C70.3222 258.281 68.3988 256.682 66.7642 254.806C65.5019 254.545 67.1949 256.373 67.1568 256.729C65.2536 255.887 63.4314 254.871 61.7134 253.692C60.2074 251.289 54.9392 244.957 56.787 244.999C53.488 241.369 57.293 246.646 55.2971 245.158L54.9429 244.712C55.8111 245.802 56.5033 247.022 56.9942 248.329C56.7619 249.115 53.5675 246.057 52.7879 244.932L54.1262 244.96C50.7241 241.872 50.3682 243.497 47.7447 241.941C45.6085 238.876 47.6614 239.941 47.8016 238.797C46.8823 237.894 46.071 236.898 45.208 235.942L45.7667 235.495C44.1077 233.635 43.1365 233.635 41.389 230.612C43.3694 232.253 38.9457 225.994 41.6714 228.287C40.7705 226.604 39.3064 226.927 39.5837 225.563C38.2369 224.867 40.1737 227.232 40.5719 228.133C40.3589 228.76 39.6112 227.994 38.7971 226.801C37.997 225.598 37.0746 224.014 36.334 223.115C36.7104 222.652 37.7207 224.052 36.5894 221.571C36.0334 221.223 35.5572 220.761 35.1927 220.213C34.8283 219.666 34.5839 219.046 34.4761 218.395C33.8822 218.74 32.774 215.82 32.1568 214.413C32.7852 216.035 33.6488 218.429 32.5264 217.761C31.282 216.339 30.293 214.709 29.6036 212.945L30.2765 215.006C28.1409 213.046 28.8403 210.702 27.086 207.471C27.8295 208.57 28.6589 209.607 29.5661 210.573C28.4824 209.181 26.7158 206.37 25.2823 204.021L25.1136 200.733C24.4879 200.566 23.8901 197.477 23.2223 197.726C22.8227 195.814 23.2626 196.486 23.9088 197.633C24.4083 198.655 25.036 199.608 25.7764 200.468C24.453 195.845 23.2839 197.274 22.8267 192.545L23.9431 193.782C23.4884 192.33 22.1742 189.527 22.483 189.231C22.2632 189.298 22.5335 190.02 22.8331 190.927C21.1784 190.466 19.9406 184.376 18.6634 185.31L19.1543 187.405C17.9305 184.331 16.5303 182.225 16.4419 179.625C16.4687 177.618 17.7225 180.751 18.349 181.779C17.7955 178.738 16.1134 179.7 15.6139 175.986C15.7235 177.964 15.1462 177.705 14.5671 176.608C14.8016 178.778 15.6561 183.259 16.0444 182.343L16.0077 181.543C16.4226 181.65 16.824 182.769 17.1402 183.294C17.8012 186.171 16.8198 184.797 16.6781 185.448C17.791 190.265 18.2077 185.451 19.3786 189.782L19.2645 190.429C20.2111 192.398 21.3933 195.509 22.4081 195.769C22.0754 197.966 24.5284 200.352 24.7547 202.55C23.864 203.141 23.201 201.35 22.5169 199.177C22.1126 197.138 21.381 195.179 20.351 193.378C20.7003 195.744 18.96 192.418 18.2163 191.6L21.446 198.402C21.3923 199.048 21.2209 201.475 22.4247 202.462L22.2553 201.897C23.5786 204.562 23.9986 203.514 24.7894 205.952C24.7764 206.389 24.1505 205.808 23.9396 205.684C24.7321 207.92 25.1785 207.286 25.9948 208.64C26.7901 210.872 24.7337 207.923 25.3315 209.824C27.1618 211.988 27.0859 213.797 28.182 215.923C28.671 214.554 34.161 223.342 32.5636 218.403C33.7492 219.879 34.8256 221.409 36.0852 222.814C36.2901 223.712 35.4243 223.125 34.4965 222.53C33.5896 221.925 32.6566 221.286 32.6128 222.23L30.4078 218.276C29.9482 218.961 31.3404 220.916 32.844 223.107C34.4646 224.879 35.6534 227.008 36.3163 229.324C37.6052 231.06 38.6891 232.942 39.5462 234.932L40.151 233.498C41.2832 235.608 41.2493 236.618 41.1082 236.866C41.9744 237.866 42.7868 238.911 43.5421 239.997C43.0107 239.759 42.5401 239.401 42.1662 238.952C42.7125 240.835 43.2372 241.095 43.9564 241.313C45.0154 242.112 45.9539 243.062 46.7426 244.132L45.4923 243.431C46.1741 244.055 47.0138 244.814 47.2572 244.731C47.6392 245.186 48.0581 245.607 48.5096 245.992C48.3329 244.726 47.8891 243.513 47.2082 242.434C48.6784 244.491 50.2639 246.461 51.9569 248.336C53.5054 250.109 54.9571 251.966 56.3054 253.899C55.9185 254.057 54.1543 253.022 54.553 253.471C56.1377 255.282 58.4756 256.56 58.7135 255.96C59.1424 256.285 59.4615 256.545 59.7363 256.78C59.889 257.543 60.2856 258.234 60.8654 258.747C61.1116 259.201 61.4375 259.606 61.8273 259.942C63.0579 259.707 66.3365 262.884 67.3882 263.135C66.4787 262.293 65.5199 261.506 64.5171 260.779C66.4512 261.418 68.2531 261.823 69.0609 263.182C65.8841 261.535 71.3813 266.385 67.009 263.322C69.1713 266.722 69.1428 263.737 72.0595 266.457L73.8506 268.386C73.1051 268.793 70.2422 266.271 70.5664 266.856L72.0789 267.822C70.4269 267.025 68.8582 266.064 67.3964 264.951C65.4562 263.472 63.4265 262.117 61.3189 260.892C63.3827 262.799 65.511 264.644 67.657 266.473C72.2209 269.23 77.0907 272.657 82.1469 275.415C86.6743 278.134 91.552 280.21 96.6421 281.584L96.2887 281.446C96.4597 281.443 96.5847 281.342 96.814 281.127L97.1034 281.469C97.7127 281.537 98.319 281.606 98.94 281.634C101.424 283.365 104.052 284.876 106.794 286.151C105.045 285.054 105.049 285.055 105.054 284.451C105.691 283.858 106.084 283.648 108.786 284.87C108.648 285.397 106.916 284.792 108.853 285.909C107.866 285.29 108.941 285.252 110.181 285.602C111.638 286.517 114.32 287.269 114.198 287.833C113.557 287.736 112.94 287.516 112.38 287.186C111.589 287.111 115.279 288.528 112.933 288.321L115.9 289.008C117.494 289.938 114.576 289.376 115.18 289.853C117.273 290.282 119.407 290.476 121.542 290.432C123.433 290.468 125.251 290.475 127.527 290.66C127.308 290.99 127.165 291.364 127.107 291.757C128.938 292.206 130.83 292.346 132.706 292.171C134.694 291.961 136.697 291.919 138.692 292.046C137.598 292.169 136.492 292.16 135.4 292.019C146.541 293.658 157.802 294.327 169.057 294.02L171.881 292.4L174.971 292.841C187.099 291.729 196.036 288.364 206.574 283.822C209.87 282.409 208.919 283.867 210.606 283.491C213.353 282.377 215.95 280.919 218.336 279.151C220.32 277.724 222.223 276.287 225.366 274.245C224.669 275.092 223.657 276.92 226.501 275.33C226.696 274.823 227 274.365 227.392 273.991C227.783 273.617 228.252 273.335 228.765 273.165C228.54 273.461 228.318 273.765 228.079 274.043C229.962 273.528 231.205 272.087 234.591 270.162C239.855 266.508 244.424 261.931 248.082 256.647C252.609 252.71 248.536 258.083 249.54 257.511C246.025 259.976 247.449 259.63 247.024 260.572C248.224 258.829 249.906 257.481 251.861 256.696C253.805 254.981 255.512 253.01 256.936 250.836C256.071 252.194 254.799 252.823 255.531 251.475C256.526 250.65 258.09 248.986 259.474 247.655C260.854 246.321 261.966 245.23 262.277 245.748C272.727 233.63 281.192 219.907 287.35 205.097C287.814 202.35 286.395 206.931 286.568 205.386C287.313 201.444 288.062 202.629 288.656 199.48L288.748 200.905C290.229 196.371 291.172 191.675 291.557 186.917C292.016 187.822 293.113 183.482 292.49 187.213C293.018 185.083 296.509 183.126 296.32 181.277L292.968 183.085C292.722 182.899 293.581 179.92 293.327 180.181C294.334 178.53 295.1 176.742 295.601 174.872C296.416 174.347 295.714 177.674 295.312 179.485C296.506 180.029 297.189 173.438 297.818 176.319C298.325 172.315 297.109 176.771 297.087 174.328C297.358 173.193 297.701 172.066 297.906 170.917C297.677 171.794 297.366 172.656 297.08 173.519C297.26 170.588 296.351 169.474 297.54 165.722C297.344 164.352 297.021 162.981 296.735 161.624C297.712 161.298 297.14 158.731 297.494 156.699L298.015 158.019C298.042 156.163 298.268 154.316 298.692 152.511C299.491 154.086 298.427 154.996 299.203 155.692L299.562 152.664C299.021 152.662 298.645 150.736 298.264 152.891C296.89 149.311 296.247 145.487 296.375 141.65C296.72 140.062 296.987 140.886 297.27 141.951C297.503 143.016 297.737 144.321 298.176 143.647C298.182 136.325 295.23 134.981 294.803 130.837C294.548 125.473 293.559 125.933 292.618 120.627C293.605 122.18 292.447 116.801 292.796 115.684L293.912 117.635C293.351 116.06 293.235 114.447 293.79 114.816C293.096 115.301 291.282 108.129 289.69 104.703L289.206 105.548L287.236 100.988C286.558 99.3656 285.795 97.7588 285.338 96.2834C283.473 92.1004 283.161 93.3588 281.054 90.4828C280.861 88.4471 281.641 88.2954 282.627 88.5517C283.144 90.2598 283.757 91.9367 284.463 93.5742C287.198 98.688 290.242 102.48 291.551 108.229C292.741 109.206 292.423 108.266 291.783 106.713C290.941 105.099 290.3 103.386 289.874 101.613C290 101.658 290.098 101.843 290.184 102.044C290.106 101.817 290.046 101.584 290.004 101.348C290.871 103.279 292.269 106.447 293.233 106.761C292.029 103.396 290.774 104.853 290.112 100.433C288.586 97.5325 288.826 94.5872 288.236 92.6707C286.783 90.9097 285.424 91.4185 283.509 86.4594L285.357 88.1652C282.841 82.662 282.832 86.2423 280.403 81.254C281.181 83.0431 278.7 80.042 280.346 83.34C278.548 81.0128 277.025 78.482 275.809 75.7991C275.294 75.2022 275.441 75.8319 275.084 75.8819C276.086 79.0942 278.309 80.0343 278.643 82.9279L280.623 84.4768C281.673 87.3952 281.035 88.0299 279.818 86.559C280.268 87.1587 280.602 87.839 280.801 88.5639C279.623 89.7136 279.701 85.0384 278.006 84.7209L279.075 86.5724C278.521 87.877 276.11 82.5133 274.724 80.1502L273.186 76.2269C272.753 75.1725 272.539 74.4017 272.8 74.1104C273.661 75.2215 274.476 76.3649 275.244 77.5407C274.73 75.2965 272.126 73.1496 270.866 71.0687C270.852 70.8247 270.794 70.5854 270.695 70.3623C270.707 70.5055 270.689 70.6038 270.628 70.645C270.397 70.2325 270.225 69.7889 270.117 69.3275C268.889 67.5612 266.769 65.2143 265.722 63.5072L265.34 64.1118L265.806 64.094C266.968 65.6766 268.122 68.1113 266.875 67.1913C266.039 66.4479 265.367 65.5347 264.905 64.5116C264.442 63.4884 264.2 62.3783 264.192 61.2539C265.629 61.4211 266.878 64.6544 268.413 66.3197C268.487 64.5697 265.847 62.5981 263.519 58.5592C265.522 59.3042 266.798 62.7934 268.243 62.9682C266.061 59.9164 264.936 59.5659 262.608 56.3986C263.367 56.4091 265.797 59.3882 266.146 58.7861L264.816 56.5831C268.747 61.4729 265.217 54.8184 268.463 58.526C267.379 56.3963 265.792 56.5158 264.159 53.5701C264.396 54.5955 265.416 57.1502 263.044 55.0592L260.983 52.1545C260.41 50.6574 264.294 54.1762 263.122 52.1105C262.215 51.2434 261.31 50.3784 260.344 49.5741C260.189 49.8955 261.29 51.307 260.183 50.8048C258.968 48.9928 256.827 49.132 254.765 47.674C253.661 46.7414 252.733 45.6157 252.026 44.3509C247.75 41.1452 243.306 38.176 238.711 35.4563C241.548 36.883 239.35 34.4171 238.084 32.939C241.09 34.97 241.7 34.2349 241.926 33.5171C240.115 32.1888 238.268 32.2564 238.976 33.1864C236.218 30.6774 236.484 32.2955 234.249 29.8225C232.727 28.3052 235.694 29.5692 235.32 28.8275C232.008 26.5248 233.707 29.2753 230.197 26.689C230.472 26.6996 230.828 26.8788 230.643 26.5269C229.252 25.2877 227.498 24.5398 225.648 24.3967C224.724 23.2049 223.518 22.2669 222.14 21.6695C220.888 21.0684 219.966 20.6446 220.49 20.1662C215.265 17.8703 220.913 21.2046 219.697 21.1C218.304 20.693 216.972 20.0993 215.736 19.3349C214.386 18.6265 213.177 17.8915 212.612 17.5156C213.905 17.8957 215.156 18.4069 216.346 19.0413C216.129 18.5741 215.899 18.1277 215.665 17.6848C209.452 14.1495 210.779 17.6521 204.775 14.4088C208.206 15.2524 206.11 14.1842 207.976 14.2231C206.902 14.0439 202.013 11.8234 204.778 13.6833L199.155 11.2329C197.147 10.7293 195.078 10.5152 193.011 10.597C190.472 9.74178 187.997 8.70309 185.607 7.48901C178.128 6.49348 171.377 4.24283 163.357 4.45674L163.938 4.5575C157.813 3.93366 166.563 5.9582 160.216 5.51188C161.121 4.39818 156.435 4.64636 154.37 3.99378C152.521 3.86353 150.665 3.85418 148.815 3.9658C147.114 4.0283 145.419 4.1895 143.737 4.44858C142.089 4.66872 140.463 4.8766 138.795 5.02796C137.076 5.27081 135.345 5.41488 133.61 5.45947C133.635 5.21649 134.062 4.87541 135.455 4.6681C134.067 4.75637 132.749 4.87029 131.476 5.00792L127.79 5.63471L124.217 6.30943L120.625 7.13853L120.806 6.9535C112.749 7.92045 105.983 11.1481 98.4569 14.6134C99.0285 14.232 99.0325 13.77 99.4632 13.4359C95.448 14.7029 89.2598 17.482 87.1451 19.8052C82.1806 21.0954 84.4243 21.6692 78.3068 23.9113C77.8839 23.9265 78.7639 23.4295 79.1124 23.1776C76.531 24.457 74.0321 25.8992 71.6307 27.4956C66.264 32.2308 65.7285 34.3415 59.2677 39.3011C57.9403 38.3893 62.8134 35.7123 62.2335 34.6992C61.1134 36.0978 59.7868 37.3146 58.3003 38.3072C58.9357 36.9538 58.2754 37.8255 58.6227 36.7766C57.5209 37.6615 56.5989 38.7524 55.9072 39.9897C55.0486 41.326 54.4587 42.6015 54.4121 42.5256C54.547 42.8087 55.0829 42.5169 56.2193 41.3668C55.4799 43.3793 50.4487 46.9468 48.0714 50.1666C48.9754 49.2475 51.9584 46.5325 51.436 48.1423C49.9471 49.4741 48.7013 51.0588 47.7553 52.8245C47.0438 54.2731 46.5578 55.6402 45.6062 57.2181C41.9423 60.4176 46.9339 53.6887 45.5491 53.6485C44.727 54.0025 42.7881 54.9391 43.8176 53.0957C40.7051 56.2703 39.5227 59.4293 37.3264 62.6757L37.1461 62.4058C34.0146 66.959 31.9085 72.5385 29.1387 76.2084L30.6427 74.2752C29.8337 75.8159 29.1843 77.4367 28.7048 79.1117C28.327 78.7048 26.2186 81.6111 26.5475 80.1287C26.2346 82.6563 25.488 85.1098 24.341 87.3794C23.2441 89.7289 22.5849 92.2618 22.3962 94.8517C21.4967 96.0395 21.3097 94.7178 21.1323 94.1617C22.5737 91.0368 23.4046 90.1465 23.5385 88.2156C22.388 90.8333 21.1504 92.5845 20.9911 92.037C20.7721 95.0883 18.7223 101.579 19.3039 103.281C18.1686 105.078 17.2769 106.884 16.7095 105.939C14.7906 114.487 20.3286 102.576 17.6537 111.985C15.6611 116.068 17.7759 107.489 15.8359 113.361L16.0174 112.227C12.795 116.029 16.7702 115.667 15.5585 120.509C14.2557 120.931 15.5216 116.903 13.9203 120.132C13.4 124.78 14.6522 127.018 13.7648 131.516L13.3597 130.736C12.9891 133.661 12.3358 139.353 12.2373 142.29C11.9997 142.418 12.0427 141.992 12.0291 141.429C11.3824 146.855 12.5533 143.715 11.6161 148.152L12.154 149.431C12.8386 146.368 13.0563 143.217 12.7994 140.087C13.2583 142.918 14.6127 135.814 15.5053 137.296L15.1459 136.712C17.5019 129.671 19.1796 120.628 22.2634 112.103C22.3494 110.753 22.5756 109.417 22.9384 108.115C23.3212 106.901 23.7803 105.759 24.2532 104.613C25.3658 102.163 26.2948 99.6334 27.0324 97.044C26.1024 95.6195 27.1692 95.8558 29.0864 90.9471C28.1011 93.5651 29.9031 91.6844 30.7814 90.1757C30.9873 89.0011 31.3344 87.8562 31.8152 86.7663C32.859 85.6451 33.8099 84.4395 34.6582 83.1616C35.8238 81.714 36.6941 80.0483 37.2189 78.2604C39.2986 75.8182 37.1777 79.1084 37.1303 79.881C38.3455 79.1184 37.9848 77.3864 38.9504 76.7467C38.9504 76.7467 39.0493 76.8691 38.9302 77.1847C41.2059 73.6007 43.7416 70.1914 46.5164 66.9848C45.732 65.8563 49.0813 62.7182 50.2332 60.767C50.0929 61.6011 52.4611 58.9518 53.5745 58.0455L54.6854 55.3987C55.919 52.8583 57.6356 53.0817 59.8225 50.3897L59.053 50.7925C61.733 47.9245 64.9174 45.5828 68.4447 43.8864C75.4447 36.7705 83.818 31.1781 93.0468 27.4552C97.241 25.6551 101.587 24.1591 106.283 22.6096C108.626 21.816 111.111 21.1589 113.669 20.2963C116.288 19.634 118.975 18.7009 121.908 17.9705C123.349 17.2151 120.621 17.5638 121.687 16.6939C123.379 16.1772 125.096 15.7471 126.831 15.4052C124.802 15.4414 125.214 15.8555 125.383 15.4144L122.094 16.5731C121.907 16.5136 122.27 16.388 121.904 16.2738C120.796 16.6574 119.529 17.2129 118.085 17.5835C120.039 16.6273 120.411 15.5827 123.369 15.2676C122.978 15.5341 122.542 15.7285 122.084 15.8415C123.47 15.38 124.884 15.0083 126.318 14.7285C128.557 14.5531 127.958 14.3456 128.322 14.7232C130.626 14.5052 132.909 14.2087 135.22 14.1484C136.844 13.3981 138.614 13.024 140.401 13.0536C142.044 13.0783 143.401 13.2883 143.959 13.301C143.282 14.2721 139.43 13.8689 137.866 15.0328C138.706 15.1569 139.538 15.2343 140.374 15.3971L140.451 14.6706L143.963 14.5999L143.777 14.7529C144.001 14.5372 144.276 14.3831 144.576 14.3052C144.876 14.2273 145.191 14.2283 145.491 14.308C145.648 14.3955 145.999 14.5655 145.613 14.6374C146.435 14.4242 147.263 14.2705 148.094 14.1237C146.67 14.904 150.297 14.2909 149.956 15.157C158.027 15.4233 160.341 14.0693 167.371 15.7935C166.255 15.2415 169.764 14.7367 171.947 15.1734C173.186 15.5434 173.473 15.7754 172.627 15.9984C173.604 15.9565 174.575 15.971 175.546 16.0089C177.215 16.91 179.024 17.5178 180.895 17.8063C183.128 18.2539 185.334 18.8255 187.503 19.5186L187.146 19.8097C189.5 19.8849 191.826 20.3324 194.042 21.1358L193.31 21.6835C196.522 23.3545 196.406 21.0401 200.011 22.8268C200.288 22.0191 198.026 20.8359 197.901 19.9708C198.56 21.0049 202.534 22.6672 201.799 21.7754C205.659 22.9535 204.384 22.8253 204.629 23.134C205.417 23.2809 206.226 23.385 207.001 23.5785C209.562 24.7902 207.394 24.9284 206.277 24.9288C209.047 25.5385 211.66 26.7285 213.944 28.4217L212.715 28.1967L216.109 30.1149C217.548 30.4855 218.932 31.0522 220.22 31.7996C221.694 32.5711 223.092 33.4826 224.394 34.5218C223.57 34.416 222.762 34.2947 221.921 34.2389C223.594 35.8931 223.113 34.5448 223.727 34.7057C225.764 35.4873 227.473 36.9489 228.57 38.847C231.129 40.154 233.408 41.9566 235.276 44.1518C236.995 46.1919 239.078 47.8893 241.417 49.1564ZM78.9817 265.067L79.3584 265.501C78.2105 264.978 77.5189 264.737 78.9817 265.067V265.067ZM108.077 279.874C104.208 278.973 105.587 278.841 105.401 278.491C106.881 279.184 108.407 279.772 109.968 280.25C111.348 280.699 112.648 281.211 114.257 281.817C113.969 281.594 113.757 281.287 113.651 280.938C114.754 281.171 115.751 281.759 116.493 282.615C114.508 283.302 106.639 278.743 108.077 279.874V279.874ZM44.2827 241.421C44.4517 241.482 44.6171 241.553 44.778 241.634L44.7931 241.651L44.2827 241.421ZM58.9434 255.402C59.0898 255.875 59.3504 256.305 59.702 256.652C59.6754 256.4 59.5935 256.157 59.4623 255.941C59.3311 255.724 59.1539 255.54 58.9434 255.402V255.402ZM91.4667 279.058C92.6877 280.027 94.0845 280.746 95.5787 281.176C94.9387 280.825 93.803 280.175 91.4667 279.058ZM291.901 182.893C291.794 184.129 291.706 186.506 292.495 184.516C292.352 183.433 293.436 181.663 293.06 180.695L293.157 180.5C292.689 181.27 292.27 182.069 291.901 182.893V182.893ZM267.689 70.0578C268.171 69.9821 269.074 70.4363 269.019 69.7819L269.185 70.0781C269.135 69.7488 269.091 69.4712 269.304 69.6072C268.9 68.8156 268.404 68.0748 267.828 67.4004C266.479 67.968 265.138 66.4625 267.689 70.0578Z" fill="#F78536"/>
<path d="M290.578 103.111L290.184 102.044L290.578 103.111Z" fill="#F78536"/>
<path d="M267.937 67.5634C268.204 68.3456 268.568 69.0908 269.019 69.7819C268.813 68.9754 268.445 68.2202 267.937 67.5634V67.5634Z" fill="#F78536"/>
<path d="M19.7348 181.449L20.1307 182.538L20.034 180.196C18.688 176.569 18.1305 176.473 17.2472 175.674C17.7862 177.138 18.2449 178.632 18.6212 180.147C19.0085 181.618 19.2625 183.251 19.9617 185.368C19.8112 184.074 19.8043 182.75 19.7348 181.449Z" fill="#F78536"/>
<path d="M15.5682 184.521C15.3834 185.209 15.3205 185.926 15.3823 186.637L15.9601 187.096C15.824 186.237 15.6513 185.389 15.5682 184.521Z" fill="#F78536"/>
<path d="M32.484 228.696L30.7543 225.266C29.7797 224.44 31.6013 228.555 32.484 228.696Z" fill="#F78536"/>
<path d="M30.8441 210.562C30.4225 210.062 29.9616 209.578 29.5695 209.059C29.966 210.778 31.09 212.814 31.7138 212.91C30.4193 210.992 31.7114 212.269 30.8441 210.562Z" fill="#F78536"/>
<path d="M38.2638 237.198C39.6737 237.612 40.3173 240.455 41.4346 240.569C40.6299 239.924 39.0604 236.824 38.2638 237.198Z" fill="#F78536"/>
<path d="M43.2564 230.202C43.2624 228.783 41.5585 227.677 40.4408 225.669C41.4884 227.247 42.3636 229.905 43.2564 230.202Z" fill="#F78536"/>
<path d="M53.3805 250.962C52.7951 251.284 51.7449 250.077 50.6148 248.684C51.1933 248.916 51.7422 249.217 52.2497 249.581C49.8716 247.757 49.7928 247.546 47.9567 246.003C49.2657 248.031 51.5458 250.838 50.7375 251.098C52.3486 252.026 54.5756 252.866 53.3805 250.962Z" fill="#F78536"/>
<path d="M46.6452 234.53C45.8765 232.912 45.0085 231.344 44.0462 229.835C43.9387 230.401 43.8263 231.431 45.5691 233.46L44.4171 233.145C45.5302 235.426 44.5709 231.8 46.6452 234.53Z" fill="#F78536"/>
<path d="M60.2991 259.622L59.6057 258.577C57.078 257.215 54.7061 254.476 52.9321 254.032C54.1834 255.187 55.6104 256.457 56.9602 257.468C58.0201 258.266 59.136 258.986 60.2991 259.622Z" fill="#F78536"/>
<path d="M51.6342 242.591L52.6149 242.184C50.9683 240.083 52.4884 242.56 51.6889 241.999C51.2956 241.264 50.7596 240.616 50.1129 240.094C52.2052 242.305 49.6374 240.78 51.6342 242.591Z" fill="#F78536"/>
<path d="M58.5104 248.132L61.2554 250.177L60.0966 247.545C56.982 245.081 59.5274 247.86 58.5104 248.132Z" fill="#F78536"/>
<path d="M61.0814 251.53L61.2286 251.938L66.052 254.186C64.4631 253.177 62.8016 252.289 61.0814 251.53V251.53Z" fill="#F78536"/>
<path d="M112.786 288.292C113.482 288.044 110.63 286.669 111.778 287.496C111.092 287.671 114.969 289.361 112.786 288.292Z" fill="#F78536"/>
<path d="M103.626 276.587C104.775 277.195 105.996 277.653 107.26 277.953C108.844 278.334 110.52 278.666 111.539 278.858C110.35 278.55 108.314 277.894 106.623 277.315C104.945 276.697 103.573 276.253 103.626 276.587Z" fill="#F78536"/>
<path d="M112.369 279.018L111.539 278.858C111.811 278.935 112.089 278.988 112.369 279.018Z" fill="#F78536"/>
<path d="M196.689 276.024C196.885 275.949 197.069 275.846 197.235 275.718L196.689 276.024Z" fill="#F78536"/>
<path d="M194.844 276.92C193.325 277.262 191.89 277.911 190.627 278.827C192.724 278.072 194.753 277.134 196.689 276.024C195.805 276.38 194.602 276.446 194.844 276.92Z" fill="#F78536"/>
<path d="M213.032 269.632C212.248 270.351 210.937 270.86 211.429 271.074C212.032 270.989 213.766 269.576 213.032 269.632Z" fill="#F78536"/>
<path d="M298.241 166.472C298.749 164.434 298.642 163.195 297.98 163.694C297.768 166.005 298.247 164.779 298.241 166.472Z" fill="#F78536"/>
<path d="M298.05 161.033L298.381 160.776L298.956 159.45L298.05 161.033Z" fill="#F78536"/>
<path d="M299.39 146.766C299.545 147.03 299.645 147.323 299.683 147.627C299.577 146.816 299.474 146.126 299.39 146.766Z" fill="#F78536"/>
<path d="M299.731 148.037L299.683 147.627L299.731 148.037Z" fill="#F78536"/>
<path d="M299.557 148.984L299.893 149.146C299.839 148.913 299.786 148.464 299.732 148.038C299.799 148.364 299.736 148.704 299.557 148.984Z" fill="#F78536"/>
<path d="M299.393 142.454L298.515 145.221C299.053 148.045 298.919 141.974 300 144.741L299.393 142.454Z" fill="#F78536"/>
<path d="M298.371 132.971C298.336 130.328 296.449 126.818 297.232 125.199C295.342 118.055 295.745 127.16 293.747 119.047C294.274 122.951 294.889 123.849 295.599 124.635C296.249 125.428 297.027 126.108 297.127 129.662C297.387 126.174 297.962 131.863 298.371 132.971Z" fill="#F78536"/>
<path d="M296.652 134.416C297.263 134.777 296.904 131.506 296.404 130.54C296.462 131.499 295.886 133.213 296.652 134.416Z" fill="#F78536"/>
<path d="M295.594 118.807L295.514 116.513L295.03 116.016L295.594 118.807Z" fill="#F78536"/>
<path d="M293.788 110.443L295.012 112.393C294.57 111.756 293.725 108.567 293.788 110.443Z" fill="#F78536"/>
<path d="M290.983 98.7921C290.429 96.7734 288.373 95.5677 290.221 99.5264C290.138 99.2042 290.044 98.8863 289.937 98.5726C290.248 98.734 289.893 96.3455 290.983 98.7921Z" fill="#F78536"/>
<path d="M277.11 75.0142C277.779 76.2521 278.768 77.5983 278.893 77.1883L276.711 73.9943L277.11 75.0142Z" fill="#F78536"/>
<path d="M274.246 77.3901C274.068 78.9571 276.081 80.3919 276.996 82.741C276.23 80.8828 275.31 79.0929 274.246 77.3901V77.3901Z" fill="#F78536"/>
<path d="M275.883 70.57C276.735 71.4504 277.417 72.4828 277.894 73.6146C278.098 72.932 276.534 70.7404 275.883 70.57Z" fill="#F78536"/>
<path d="M272.198 65.5941C271.77 64.343 272.777 65.525 272.43 64.5949C271.833 63.3852 271.126 62.2337 270.318 61.1552C269.672 60.3143 268.912 59.5685 268.062 58.9393C268.199 59.7518 267.956 61.1667 266.909 60.5732C269.845 63.7134 272.366 64.667 272.558 67.1076C273.709 67.7735 274.773 68.5151 275.877 69.2451C274.223 66.1437 273.489 67.6256 272.198 65.5941Z" fill="#F78536"/>
<path d="M274.429 74.5296L273.658 72.3195C273.465 72.9848 272.462 71.5758 271.673 70.6528C271.018 71.7994 273.668 73.4605 274.429 74.5296Z" fill="#F78536"/>
<path d="M256.419 47.5682C255.258 46.4193 253.967 45.4057 252.745 44.3262L253.846 45.4756C254.718 46.1551 255.596 46.832 256.419 47.5682Z" fill="#F78536"/>
<path d="M254.458 45.0772L254.602 44.745L251.469 42.5961L254.458 45.0772Z" fill="#F78536"/>
<path d="M251.016 41.2184L251.4 41.6598L253.693 43.4521L251.016 41.2184Z" fill="#F78536"/>
<path d="M243.328 34.41L243.732 35.3579C244.807 36.0087 246.364 38.0319 246.593 37.3825C245.326 36.6112 244.218 35.6021 243.328 34.41V34.41Z" fill="#F78536"/>
<path d="M209.239 27.9715C210.116 28.0107 209.797 27.5484 209.472 27.0756L207.946 27.306C208.425 27.4171 208.869 27.6457 209.239 27.9715V27.9715Z" fill="#F78536"/>
<path d="M204.803 24.4987L201.329 24.1532C204.857 25.702 205.649 25.1876 208.777 26.4805C207.589 25.6169 205.518 25.368 203.926 24.5002L204.803 24.4987Z" fill="#F78536"/>
<path d="M138.664 14.3655C138.905 13.7322 138.14 13.8478 140.62 13.2208C138.907 13.5372 137.326 13.8742 135.667 14.0906C134.007 14.3065 132.287 14.5387 130.347 14.9698C131.07 15.2358 128.291 16.4225 129.754 15.9888C131.177 15.6305 132.588 15.1715 134.032 14.8917L133.438 15.3935C136.56 15.4735 135.345 14.4535 138.664 14.3655Z" fill="#F78536"/>
<path d="M13.7862 128.69C13.5456 128.216 13.2083 128.734 12.8709 129.256C12.8509 132.07 13.7936 128.121 13.7862 128.69Z" fill="#F78536"/>
</g>
<defs>
<clipPath id="clip0_127_2">
<rect width="300" height="300" fill="white"/>
</clipPath>
</defs>
</svg>
