<svg width="39" height="38" viewBox="0 0 39 38" fill="none" xmlns="http://www.w3.org/2000/svg">
<path d="M17.0447 0.133163C8.19481 1.09511 1.07639 8.21353 0.114437 16.8711C-0.847512 25.9134 4.34701 33.9938 12.235 37.072C12.8122 37.2644 13.3893 36.8796 13.3893 36.11V33.0318C13.3893 33.0318 12.6198 33.2242 11.6578 33.2242C8.96437 33.2242 7.81003 30.9155 7.61764 29.5688C7.42525 28.7992 7.04047 28.2221 6.4633 27.6449C5.88613 27.4525 5.69374 27.4525 5.69374 27.2601C5.69374 26.8753 6.27091 26.8753 6.4633 26.8753C7.61764 26.8753 8.57959 28.2221 8.96437 28.7992C9.92631 30.3384 11.0807 30.7231 11.6578 30.7231C12.4274 30.7231 13.0046 30.5307 13.3893 30.3384C13.5817 28.9916 14.1589 27.6449 15.3132 26.8753C10.8883 25.9134 7.61764 23.4123 7.61764 19.1798C7.61764 17.0635 8.57959 14.9472 9.92631 13.4081C9.73392 13.0233 9.54154 12.0613 9.54154 10.7146C9.54154 9.94504 9.54154 8.7907 10.1187 7.63636C10.1187 7.63636 12.8122 7.63636 15.5056 10.1374C16.4676 9.75265 17.8143 9.56026 19.161 9.56026C20.5078 9.56026 21.8545 9.75265 23.0088 10.1374C25.5099 7.63636 28.3957 7.63636 28.3957 7.63636C28.7805 8.7907 28.7805 9.94504 28.7805 10.7146C28.7805 12.2537 28.5881 13.0233 28.3957 13.4081C29.7425 14.9472 30.7044 16.8711 30.7044 19.1798C30.7044 23.4123 27.4338 25.9134 23.0088 26.8753C24.1632 27.8373 24.9327 29.5688 24.9327 31.3003V36.3024C24.9327 36.8796 25.5099 37.4568 26.2794 37.2644C33.3979 34.3785 38.4 27.4525 38.4 19.3721C38.4 7.82875 28.5881 -1.21357 17.0447 0.133163Z" fill="#525252"/>
</svg>
