<svg width="341" height="433" viewBox="0 0 341 433" fill="none" xmlns="http://www.w3.org/2000/svg">
<path d="M333.78 74.0047C336.55 81.6447 334.78 89.7547 333.32 97.4947C331.8 105.415 331.25 113.415 329.91 121.365C327.17 138.537 322.917 155.432 317.2 171.855C311.33 188.165 303.51 203.705 294.86 218.695C286.42 233.325 277.46 247.995 267.36 261.555C256.46 276.195 244.02 289.555 231.7 303.035C219.95 315.855 207.99 328.395 195.14 340.145C176.99 356.745 157.84 372.095 135.92 383.415C105.971 398.892 72.7218 406.893 39.0102 406.735C35.7902 406.735 35.7902 411.735 39.0102 411.735C69.8762 411.877 100.408 405.341 128.51 392.575C150.36 382.665 169.51 368.975 187.68 353.425C201.563 341.538 214.739 328.85 227.14 315.425C239.65 301.875 252.31 288.365 263.92 274.035C275 260.355 284.54 245.525 293.67 230.485C302.889 215.598 310.965 200.033 317.83 183.925C325.72 164.925 330.83 144.745 334.39 124.545C336 115.485 336.69 106.335 338.39 97.2947C339.93 89.1947 341.39 80.6647 338.55 72.6947C337.51 69.7047 332.68 71.0047 333.78 74.0047Z" fill="#F78536"/>
<path d="M288.66 231.585C263.04 229.115 238.12 235.885 214.47 245.215C192.73 253.785 170.13 263.215 151.65 277.825C131.22 293.935 110.74 311.715 93.7603 331.475C85.9003 340.615 78.6703 350.275 71.3403 359.835C63.7803 369.705 55.3403 378.905 47.8903 388.835C45.0703 392.605 42.6903 396.385 39.5303 399.835C37.5303 402.005 34.9703 404.665 35.0003 407.835C35.0603 413.435 42.4903 416.245 46.7103 418.005C64.0503 425.215 82.0603 430.815 100.92 432.145C112.73 432.975 124.06 429.745 135.08 425.855C146.698 421.742 157.953 416.672 168.73 410.695C189.435 399.198 208.454 384.9 225.25 368.205C243.67 349.935 259.79 328.965 271.62 305.825C277.234 294.976 281.727 283.584 285.03 271.825C287.01 264.931 288.539 257.916 289.61 250.825C290.35 245.535 289.49 239.825 291.07 234.755C292.07 231.675 287.21 230.365 286.25 233.425C285.14 236.955 285.45 239.905 285.25 243.635C284.96 250.355 283.51 256.915 281.96 263.435C279.472 274.048 275.99 284.404 271.56 294.365C262.545 314.052 250.759 332.347 236.56 348.695C207.26 382.895 168.68 410.695 125.32 423.865C105.01 430.005 81.5403 426.695 62.1203 418.495C56.1203 415.945 49.5703 414.405 43.8403 411.165C40.7703 409.435 39.0803 408.385 41.4903 405.165C43.6503 402.305 46.2803 400.005 48.2603 396.985C54.7203 387.075 63.1003 378.495 70.3703 369.175C77.4703 360.065 84.3703 350.765 91.6003 341.795C106.5 323.435 124.12 307.635 142.04 292.295C152.39 283.435 162.8 275.225 174.81 268.695C185.89 262.814 197.265 257.507 208.89 252.795C234.21 242.235 260.89 233.875 288.66 236.545C291.86 236.885 291.84 231.885 288.66 231.585Z" fill="#F78536"/>
<path d="M40.4003 406.925C74.4003 390.835 110.88 379.015 141.4 356.585C157.82 344.535 172.55 330.035 187.66 316.425C195.26 309.575 203.22 303.095 210.72 296.145C217.79 289.595 223.98 282.195 230.46 275.085C237.524 267.333 245.235 260.197 253.51 253.755C262.19 246.995 272.14 240.755 283.4 239.995C286.6 239.785 286.62 234.785 283.4 234.995C265.53 236.145 250.93 248.775 238.17 260.185C231.04 266.565 224.86 273.905 218.46 280.985C211.52 288.665 203.97 295.355 196.19 302.155C179.85 316.435 164.09 331.375 147.54 345.425C132.51 358.205 115.09 367.865 97.2703 376.265C77.6703 385.505 57.4503 393.335 37.8703 402.605C35.0103 404.005 37.5003 408.295 40.4003 406.925Z" fill="#F78536"/>
<path d="M41.9103 414.245C46.4003 413.665 50.7703 415.685 54.9103 417.245C59.0091 418.848 63.329 419.816 67.7203 420.115C79.2703 420.885 90.7203 421.735 102.22 420.065C125.29 416.705 145.87 404.915 166.64 395.065C176.27 390.475 184.85 385.935 192.64 378.515C200.43 371.095 207.37 362.415 214.9 354.515C222.96 346.065 230.76 337.515 238.49 328.775C245.49 320.875 252.87 313.405 258.88 304.715C266.29 294.005 271.44 282.235 277.65 270.855C283.05 260.965 290.57 251.315 289.08 239.395C288.69 236.245 283.68 236.205 284.08 239.395C285.45 250.395 278.29 259.195 273.33 268.335C268.05 278.055 263.62 288.175 257.67 297.525C251.72 306.875 244.56 314.615 237.25 322.675C229.94 330.735 222.85 339.085 215.25 346.965C201.38 361.305 189.43 378.705 171 387.475C150.66 397.155 130.21 409.255 108 414.005C95.4403 416.695 83.2503 416.005 70.5503 415.315C65.1806 415.027 59.891 413.886 54.8803 411.935C50.7603 410.395 46.4303 408.715 41.9603 409.305C38.8103 409.715 38.7703 414.715 41.9603 414.305L41.9103 414.245Z" fill="#F78536"/>
<path d="M39.3002 409.625C45.6002 407.185 49.6002 401.395 53.3002 396.005C58.0802 389.005 62.8102 382.005 69.1802 376.315C76.4602 369.795 85.1102 364.685 92.6502 358.405C100.36 351.975 107.84 345.235 115.94 339.295C124.04 333.355 132.87 328.135 141.23 322.425C149.59 316.715 157.63 311.135 166.16 305.985C183.1 295.755 198.83 283.795 215.9 273.765C225.9 267.875 235.54 261.385 245.18 254.915C254.82 248.445 265.18 243.915 275.58 239.035C278.49 237.655 275.95 233.345 273.06 234.715C263.82 239.085 254.37 243.125 245.7 248.595C237.46 253.795 229.55 259.505 221.28 264.665C212.64 270.055 203.71 274.895 195.35 280.735C187.66 286.105 180.19 291.815 172.17 296.735C154.94 307.205 138.51 318.735 121.48 329.545C105.01 339.885 91.5402 354.155 75.6502 365.315C67.6592 370.707 60.6086 377.376 54.7802 385.055C50.0702 391.355 45.7802 401.795 37.9802 404.805C34.9802 405.955 36.3002 410.805 39.3102 409.625H39.3002Z" fill="#F78536"/>
<g clip-path="url(#clip0_127_160)">
<path d="M275.88 152.12C269.41 132.31 243.29 141.84 225.38 145.47C206.6 142.15 187.84 138.47 169.38 134.18C154.883 130.642 140.707 125.899 127 120C147.07 120.3 202.54 120.42 197.09 100.09C193.47 86.5698 161.36 100.69 153.81 103.41C141.34 107.41 129.01 111.83 116.45 115.41C110.18 112.62 103.97 109.73 97.7901 106.82C87.2801 101.91 76.6201 97.4998 67.6601 89.9998C58.7001 82.4998 51.5901 73.1998 44.8801 63.8198C42.7934 60.9064 40.6868 58.0098 38.5601 55.1298C46.9517 62.5614 56.3305 68.7971 66.4301 73.6598C79.7901 79.7398 99.5201 88.9498 113.59 79.6598C121.91 74.6598 113.7 67.2098 107.34 64.0798C97.7101 59.0798 86.5501 58.6098 76.3401 56.5198C62.1401 53.3598 43.5901 50.3798 29.7701 43.1098C27.8101 40.4098 25.8801 37.6898 24.0001 34.9998C20.3301 29.6098 17.1201 23.9998 13.5801 18.5998C10.0401 13.1998 6.30011 8.10978 4.90011 1.80978C4.20011 -1.34022 -0.62989 -0.00022006 0.0701103 3.09978C1.32011 8.70978 4.27011 13.5398 7.39011 18.2998C10.8801 23.6298 14.1401 29.1098 17.6401 34.4398C24.5401 44.9598 32.4301 54.8098 39.6401 65.0898C45.9501 74.0898 52.6401 82.7398 60.5601 90.3498C65.3801 106.73 73.8501 121.56 80.7301 137.45C83.5464 145.309 86.9805 152.933 91.0001 160.25C93.6701 165.06 99.5201 176.6 104.36 166.33C110.79 154.25 97.5401 135.72 91.5601 126.28C86.5601 118.67 80.4301 107.04 72.5601 99.5798C78.3512 103.025 84.3306 106.143 90.4701 108.92C108.06 117.27 125.81 125.47 144.18 131.92C146.18 136.06 153.26 141.92 155.7 144.29C160 150.04 164.13 155.14 167.79 161.07C171.1 165.7 187.71 191.62 194.65 181.48C200.18 173.79 190.24 159.88 184.83 155.12C178.6 149.89 172.06 146.12 165.53 142.35C162.99 140.61 159.7 138.03 156.26 135.84C158.46 136.5 160.67 137.14 162.89 137.74C175.89 141.22 189.25 143.38 202.41 146.02C207.077 146.953 211.743 147.866 216.41 148.76C225.67 155.96 240.6 158.15 251.41 161.45C258.07 163.12 263.09 163.84 269.71 162.76C277.65 161.31 278.59 159.67 275.88 152.12ZM62.7201 93.2898L61.7201 91.4398C62.7534 92.3864 63.8034 93.2898 64.8701 94.1498C64.1709 93.8214 63.453 93.5342 62.7201 93.2898Z" fill="white"/>
</g>
<defs>
<clipPath id="clip0_127_160">
<rect width="277.25" height="183.8" fill="white"/>
</clipPath>
</defs>
</svg>
