<svg width="274" height="171" viewBox="0 0 274 171" fill="none" xmlns="http://www.w3.org/2000/svg">
<path d="M184.052 157.024C184.482 157.966 183.406 158.751 182.546 159.379C182.689 158.961 182.904 158.542 183.048 158.123C182.833 157.809 182.546 157.495 182.331 157.233C182.331 156.867 182.402 156.501 182.402 156.134C182.618 156.658 183.263 156.919 184.052 157.024Z" fill="#497285"/>
<path d="M181.04 158.961C181.184 159.17 181.47 159.536 181.614 159.693C176.236 162.468 171.504 166.027 165.768 168.487C164.693 169.795 162.9 170.58 160.964 170.999C155.874 171.052 151.644 168.539 148.202 165.974C147.198 165.765 146.266 165.451 145.334 165.189C145.119 164.771 144.975 164.3 144.76 163.828C143.613 164.09 142.466 164.509 143.47 163.2C143.111 163.043 142.753 162.939 142.394 162.782C142.609 162.939 142.968 163.2 143.183 163.357L142.394 163.881C142.179 163.671 141.749 163.305 141.534 163.096C129.345 159.222 118.662 152.784 108.266 146.765C104.609 144.148 100.594 141.845 97.0805 139.123C95.4314 137.867 95.9333 136.088 96.0767 134.517C96.2918 134.622 96.722 134.831 96.9371 134.936C96.5069 134.308 96.4352 133.523 95.7182 132.999C96.5069 131.639 95.5748 129.911 94.9296 128.55C94.7862 128.707 94.4277 129.074 94.2843 129.231C94.5711 128.812 94.7862 128.341 94.9296 127.922C95.1446 128.603 95.5748 129.231 95.9333 129.807C96.9371 128.864 95.2164 128.184 96.7937 127.085C96.8654 127.137 96.9371 127.294 97.0088 127.347C96.8654 127.556 96.5786 127.922 96.4352 128.132C96.6503 128.603 96.9371 129.021 97.3673 129.388C97.9409 128.812 97.7975 128.393 96.9371 128.079C97.5824 128.236 98.2994 128.341 98.9447 128.393C98.7296 128.184 98.3711 127.713 98.156 127.504C98.2994 127.451 98.6579 127.294 98.8013 127.242C98.873 127.608 98.873 127.922 98.9447 128.289C99.3749 128.341 99.7334 128.446 100.164 128.55C99.7334 128.969 99.2315 129.335 98.8013 129.754C99.0164 129.911 99.3749 130.278 99.5183 130.487C99.5183 130.173 99.59 129.911 99.59 129.597C99.9485 129.807 100.307 130.016 100.594 130.173C100.881 129.178 101.669 128.289 101.669 127.242C101.956 127.19 102.673 127.137 102.96 127.085C102.53 126.718 102.099 126.352 101.669 125.986C101.669 125.881 101.598 125.672 101.598 125.567C102.458 125.933 103.39 126.247 104.25 126.666C104.466 126.561 104.824 126.404 105.039 126.3C105.971 126.666 106.975 127.032 107.979 127.294C107.549 127.818 107.118 128.236 106.617 128.76C107.835 128.132 108.839 127.19 110.345 126.875C109.628 126.614 108.983 126.404 108.337 126.09C108.911 126.09 109.413 126.09 109.986 126.143C110.201 126.3 110.632 126.666 110.847 126.823C110.488 127.137 110.058 127.399 109.628 127.713C109.771 127.713 110.201 127.765 110.345 127.765C110.632 127.556 110.847 127.347 111.062 127.137C111.707 127.294 112.281 127.504 112.854 127.661C112.352 127.347 111.779 127.032 111.277 126.718C112.066 126.718 112.926 126.561 113.571 126.98C113.5 127.504 113.213 127.922 112.854 128.341C113.069 128.498 113.428 128.76 113.571 128.864C113.643 128.446 113.715 128.079 113.786 127.661L114.217 127.975C114.217 127.818 114.145 127.556 114.073 127.451C114.145 127.347 114.288 127.085 114.36 126.98C117.873 127.87 120.67 130.278 124.183 131.01C121.817 129.231 118.303 128.393 115.722 126.771C114.073 126.928 112.496 126.404 110.918 125.986C111.707 125.567 112.639 125.358 113.571 125.201C113.858 125.515 114.145 125.829 114.432 126.143C115.435 125.881 116.439 126.404 117.515 126.143C119.522 127.661 122.247 128.446 124.613 129.545C124.541 129.283 124.47 128.812 124.47 128.603C125.187 128.917 125.904 129.178 126.621 129.545C127.051 129.283 127.409 129.021 127.839 128.76C127.266 128.707 126.621 128.603 125.975 128.55C125.832 127.922 125.402 127.347 125.043 126.823C124.971 126.98 124.756 127.242 124.613 127.347C124.183 127.085 123.753 126.823 123.322 126.561C122.534 126.143 121.817 124.782 120.885 125.724C120.956 125.567 121.1 125.201 121.171 125.044C120.526 125.096 119.881 125.044 119.236 124.939C119.666 124.834 120.024 124.782 120.454 124.677C121.243 124.939 121.96 125.148 122.749 125.41C122.605 125.148 122.247 124.677 122.104 124.415C121.53 124.206 120.956 123.944 120.383 123.683C120.67 123.578 121.243 123.369 121.53 123.264C123.896 124.939 126.262 126.614 128.843 128.132C125.402 125.776 122.319 122.793 118.375 120.961C119.236 121.746 120.311 122.479 121.315 123.159L120.311 123.578C119.881 123.159 119.379 122.688 118.949 122.269C118.805 122.269 118.59 122.269 118.447 122.217C117.945 120.699 114.934 120.071 115.077 118.344C116.296 119.077 116.941 120.333 118.519 120.804C118.017 120.28 117.515 119.809 116.941 119.338C117.013 119.181 117.085 118.867 117.156 118.71C117.013 118.815 116.654 118.972 116.439 119.077C115.651 117.873 113.93 117.088 113.428 115.779C113.356 115.831 113.141 115.936 113.069 115.988C112.854 115.727 112.424 115.256 112.209 115.046C111.42 115.936 113.5 116.46 113.858 117.192C112.711 117.035 112.209 116.145 111.42 115.622C111.134 115.256 110.201 114.889 110.56 114.418C111.062 114.575 111.564 114.785 112.137 114.785C111.851 114.575 111.492 114.366 111.134 114.157C111.062 113.999 110.918 113.633 110.918 113.424C110.775 113.581 110.56 113.947 110.417 114.104C108.983 114.209 109.843 111.696 105.111 110.493L104.967 110.597C105.039 110.807 105.183 111.173 105.254 111.33C104.394 110.911 103.605 110.44 102.888 109.865C103.39 109.969 103.892 110.283 104.394 110.336C104.035 109.917 103.533 109.446 102.745 109.603C102.458 109.184 102.243 108.765 101.956 108.347C100.952 108.033 100.235 107.404 99.59 106.776C99.4466 107.247 99.3032 107.719 99.1598 108.19C99.0164 107.771 98.873 107.404 98.7296 106.986C98.3711 106.776 97.9409 106.515 97.5107 106.305C97.6541 106.567 98.0126 107.038 98.2277 107.247C97.5107 106.986 96.7937 106.776 96.005 106.515C96.5069 106.305 96.9371 106.096 97.3673 105.887C97.1522 105.887 96.6503 105.834 96.4352 105.782C96.2918 105.573 96.005 105.206 95.7899 104.997L95.3598 105.468C94.7862 104.683 93.8541 104.107 92.922 103.584L92.7786 103.688C92.922 103.898 93.2088 104.316 93.3522 104.526C90.9144 103.531 88.2615 102.066 86.1106 100.652C87.7596 100.862 88.6917 102.066 90.3408 102.432C89.4087 101.49 87.903 101.019 86.971 100.077C86.8993 100.129 86.6842 100.181 86.5408 100.234C86.1823 99.815 85.7521 99.3962 85.0351 99.3439L84.8917 98.5588C84.4615 98.8728 84.103 99.2392 83.8162 99.658C81.5935 97.669 78.5822 96.2558 76.2161 94.3715C76.8614 94.2144 77.435 93.9527 77.9369 93.5864C77.1482 93.4817 76.3595 93.4293 75.6425 93.691C75.5708 93.6387 75.3557 93.4817 75.284 93.377C75.8576 93.2723 76.5029 93.1153 77.0765 93.0106C76.7897 92.9059 76.2878 92.6442 76.0727 92.4872C76.5029 92.3825 76.9331 92.2778 77.2916 92.1731C77.0048 92.1208 76.4312 91.9638 76.2161 91.9114C77.2916 91.2833 77.9369 90.1318 79.3709 89.8701C80.0878 88.6663 81.4501 87.7765 82.8124 86.939C83.0275 87.253 83.1709 87.5671 83.386 87.8811L83.6011 87.6718C83.7445 87.9335 84.103 88.4046 84.2464 88.6139C84.2464 88.2475 84.2464 87.8288 84.3181 87.4624L83.6728 87.7241C83.386 87.3577 83.0992 86.9913 82.8124 86.625C84.3898 85.5781 85.7521 84.4266 87.5446 83.5892C87.6162 83.2751 87.7596 82.9087 87.8313 82.5947C88.6917 83.1704 89.5521 83.7985 90.4125 84.3743L89.6238 84.793C89.1219 84.3219 88.5483 83.7985 87.903 83.3274C87.903 84.1649 88.62 85.3688 89.9106 85.5258C90.054 84.8977 90.6993 84.5313 91.488 84.3743C90.4842 83.7985 89.4804 83.1704 88.62 82.4376C88.7634 82.2806 88.9785 81.9666 89.0502 81.8095L89.7672 82.1236C89.8389 82.0713 89.9823 82.0189 90.054 81.9666C89.9823 81.7572 89.9106 81.4955 90.054 81.2861C90.771 82.1759 91.0578 83.2751 92.1333 83.9555C92.4918 83.6938 93.2088 83.2751 93.4956 83.0134L92.922 82.3853C92.7069 82.5423 92.2767 82.9087 92.0616 83.1181C91.9899 83.0657 91.7748 82.9087 91.7031 82.8564C91.9899 82.7517 92.4918 82.5947 92.7786 82.49C92.1333 81.6002 90.9861 81.1291 89.9106 80.6057C90.054 80.5534 90.2691 80.3963 90.4125 80.344C89.8389 79.9776 89.337 79.5589 88.7634 79.1925C89.5521 79.4018 90.2691 79.6112 91.0578 79.8206C90.5559 79.5065 89.9823 79.1401 89.4804 78.7738C90.1974 78.8261 90.9144 78.9308 91.5597 78.9831C91.1295 78.6167 90.6993 78.198 90.2691 77.8316C91.9182 76.8371 92.8503 75.2145 95.0013 74.6911C95.1447 73.6443 96.3635 72.9639 97.2239 72.2834C100.665 69.6664 103.892 66.9446 107.118 64.2229C106.688 63.8041 106.115 63.3854 105.971 62.8096C106.76 63.1237 107.477 63.3854 108.266 63.6994C107.62 63.2284 106.975 62.7573 106.33 62.2862C107.118 62.4432 107.907 62.6003 108.696 62.8096C108.266 62.3386 107.835 61.9198 107.333 61.4488C108.983 60.3496 110.13 58.8317 112.137 57.9942C113.428 56.3193 115.507 55.1155 117.156 53.5976C117.443 53.5452 117.73 53.4929 117.945 53.4405C118.232 52.5507 119.164 51.8703 120.311 51.5562L119.737 51.4516C121.96 49.6196 124.47 47.9447 126.549 46.0081C126.692 46.1651 126.979 46.4268 127.122 46.5838C126.907 45.1183 128.772 44.3855 130.205 43.705C130.349 42.9723 131.066 42.3442 131.711 41.7684C131.998 41.8731 132.643 42.1348 132.93 42.2395C132.93 41.9778 131.998 41.0356 132.787 41.088C133.073 41.402 133.432 41.559 133.934 41.5067C133.79 41.559 133.504 41.7161 133.36 41.7684C133.575 42.1871 133.79 42.6059 134.006 43.0246C135.44 42.3442 136.658 41.4544 137.806 40.6169C138.164 40.7216 138.523 40.7739 138.881 40.8786C138.666 40.8263 138.236 40.6692 138.021 40.6169C142.538 36.953 147.557 33.7078 152.289 30.201C148.919 27.0605 145.262 23.6583 143.9 19.7327C152.289 12.8236 162.255 6.75205 170.931 0C171.002 0.366389 171.002 0.680438 171.002 1.04683C171.289 0.994486 171.934 0.837462 172.293 0.78512C172.436 0.994486 172.723 1.30854 172.795 1.5179C173.368 1.62258 173.942 1.77961 174.444 2.04131C174.516 1.93663 174.731 1.77961 174.874 1.67493C174.802 2.35536 175.448 2.98346 176.38 3.0358C176.093 3.14048 175.591 3.34985 175.304 3.45453C177.383 3.71624 178.531 4.86775 180.18 5.70521C180.18 5.91459 180.18 6.33332 180.18 6.54268C180.467 6.438 181.112 6.22863 181.47 6.12395C181.47 7.74653 183.98 8.63634 185.629 9.4738C186.418 10.6253 187.995 11.4628 189.787 11.4628C189.501 11.6198 188.999 11.9862 188.712 12.1432C189.357 12.1432 189.931 12.0909 190.576 12.0909C190.504 12.2479 190.289 12.6143 190.218 12.7713C190.433 12.8236 190.935 12.876 191.221 12.876C191.437 13.2424 191.58 13.6088 191.795 13.9228C192.369 14.1845 192.942 14.4462 193.444 14.7603C193.659 14.6033 194.161 14.3415 194.376 14.1845C194.233 14.3415 193.946 14.7079 193.731 14.865C193.946 15.022 194.304 15.3884 194.52 15.5454C194.591 15.3884 194.806 15.1267 194.878 14.9696C195.165 16.0165 197.244 16.0688 197.101 17.2203C197.244 17.2203 197.531 17.2727 197.674 17.325C198.893 18.2148 200.327 19.0523 201.403 20.0468L201.976 19.6804C202.048 19.8897 202.191 20.3608 202.191 20.6225L202.765 19.9944C202.765 20.3085 202.837 20.8842 202.908 21.1459C206.135 22.7685 208.859 24.7575 212.158 26.4324C211.942 26.5371 211.584 26.6941 211.369 26.7988C211.584 26.8511 212.014 26.9035 212.301 26.9035C213.376 28.4214 215.886 28.7354 217.176 29.9916C217.392 29.9393 217.893 29.8869 218.109 29.8346C218.109 30.0963 218.109 30.4103 218.109 30.672C219.327 31.3001 219.901 32.7657 221.478 32.818C221.622 33.0797 221.98 33.6032 222.124 33.8649C222.267 33.7602 222.554 33.5508 222.697 33.4461C222.912 33.6555 223.271 34.0742 223.486 34.2836C223.916 34.1789 224.275 34.0742 224.633 33.9696L223.486 34.5976C223.844 34.65 224.561 34.807 224.92 34.8594C224.705 34.964 224.346 35.1211 224.203 35.2257C227.286 37.11 229.724 39.7271 233.309 41.088C233.739 41.9254 234.528 42.6059 235.531 43.1293C236.32 44.9089 239.547 45.4323 240.048 47.3689C238.686 48.5728 237.539 46.8455 236.535 46.2698C236.679 46.1651 236.965 45.9034 237.109 45.7464C235.675 46.5315 235.46 44.9612 234.599 44.4378C234.169 44.5425 233.739 44.6995 233.309 44.8042C234.671 46.4268 237.324 47.1596 237.754 49.0439C237.969 48.9392 238.328 48.7822 238.543 48.6775C238.399 49.0962 238.328 49.5149 238.184 49.8813C237.611 49.5673 237.037 49.2532 236.464 49.0439C237.396 50.0383 238.686 50.8235 239.977 51.6086C239.833 51.1375 239.618 50.6664 239.475 50.1954C239.116 50.0907 238.686 49.986 238.328 49.8813C239.403 49.5673 240.55 48.9915 239.116 48.2587C239.547 47.997 239.977 47.7353 240.335 47.4736C242.701 48.7298 244.135 50.6664 246.43 51.8703C246.43 52.0797 246.501 52.446 246.501 52.6031C246.716 52.6031 247.147 52.6554 247.362 52.6554C248.294 53.9639 249.441 55.3772 251.305 56.1099C251.305 56.9474 250.23 57.0521 249.298 57.2615C248.724 56.7904 248.437 55.1678 247.29 56.0053C247.218 55.7959 247.147 55.3772 247.075 55.1678C246.86 55.2201 246.501 55.3772 246.286 55.4818C247.003 56.0053 247.649 56.581 248.366 57.1044C248.007 57.3138 247.29 57.7325 246.932 57.9419C247.577 57.9419 248.15 57.8895 248.652 57.6278C248.581 57.8372 248.366 58.2036 248.222 58.413C248.437 58.3083 248.867 58.0989 249.083 57.9419C249.513 58.413 249.943 58.9364 250.373 59.4074C250.015 59.4074 249.369 59.3551 249.083 59.3028C249.656 60.3496 250.803 59.9309 251.879 59.8262C252.237 60.1926 252.667 60.559 252.954 60.9253C252.811 61.0824 252.524 61.3964 252.309 61.5534C252.524 61.3964 252.883 61.1347 253.098 60.9777C253.671 61.4488 254.245 61.9198 254.747 62.3909C254.317 62.3386 253.456 62.1815 253.026 62.0769C253.098 62.2862 253.241 62.4956 253.313 62.705C254.173 62.6526 255.32 62.2862 255.894 63.176C255.392 63.176 254.46 63.176 254.03 63.176C254.532 63.4901 255.249 63.6994 255.535 64.1705C255.966 64.1182 256.754 64.1182 257.185 64.0658C256.969 64.2229 256.468 64.5892 256.252 64.7463C259.909 67.8344 263.637 70.8179 266.721 74.22C266.864 74.063 267.151 73.749 267.294 73.5396C267.868 74.063 268.441 74.5864 269.015 75.1099C268.585 74.7958 268.083 74.4818 267.653 74.1677C267.509 74.2724 267.222 74.4294 267.079 74.5341C268.083 75.3192 268.8 76.3137 269.517 77.2558C269.66 77.0465 269.947 76.6801 270.09 76.5231C270.234 76.7324 270.592 77.0988 270.807 77.3082C270.521 77.2559 269.947 77.2035 269.588 77.1512C269.732 78.041 270.807 79.0355 270.019 79.8729C268.8 76.6801 265 74.4818 263.351 71.4983C263.136 71.5506 262.705 71.6553 262.49 71.7077C262.562 71.3413 262.562 71.0272 262.634 70.6608C262.419 70.7132 262.132 70.8702 261.917 70.9749C259.622 68.4102 256.324 66.4212 253.743 64.0135C252.883 63.5948 252.309 62.705 251.162 62.705C257.328 68.2008 265.143 73.0162 268.871 79.6636C268.728 79.7159 268.513 79.8729 268.441 79.9253C265 74.5864 259.264 70.2421 253.815 66.0025C253.671 66.0548 253.384 66.2118 253.241 66.3165C253.241 66.7352 253.671 66.9969 254.46 67.1016C254.317 67.2063 254.03 67.3633 253.815 67.468C254.101 67.625 254.747 67.9391 255.105 68.0961C254.818 68.2008 254.173 68.3578 253.886 68.4625C254.245 68.4625 254.962 68.5148 255.32 68.5148C255.034 68.8289 254.675 69.1429 254.388 69.457C255.034 69.2476 255.679 68.9859 256.324 68.7766C258.475 70.8702 260.913 72.8592 263.064 74.9528C262.992 75.1622 262.849 75.5286 262.777 75.6856C265.215 76.6278 266.004 78.7214 267.509 80.2916C266.29 80.9721 265 81.6525 263.637 82.1759C263.422 82.1236 262.92 81.9666 262.634 81.8619C262.347 82.0189 261.773 82.2806 261.486 82.3853C260.339 81.2861 259.551 80.0299 258.403 78.9308C259.694 80.6057 260.339 82.5423 262.132 84.0079C262.419 84.0079 262.92 84.0602 263.207 84.0602C262.634 84.1649 262.06 84.2696 261.486 84.4266C262.203 85.3164 263.136 86.0492 264.211 86.7296L263.566 86.8343C265.287 87.3054 265 88.771 265.86 89.7654C267.007 89.9225 267.437 90.7599 267.653 91.4927C267.868 91.4927 268.226 91.4404 268.37 91.4404C267.222 92.0685 268.513 92.7489 268.943 93.377L269.158 92.9059C269.302 93.7434 269.732 94.5285 269.66 95.366C269.804 96.4651 271.022 97.3026 270.521 98.5064C270.019 98.9252 269.373 99.2392 268.8 99.6056C268.585 99.6056 268.155 99.658 267.868 99.658C262.849 102.955 257.041 105.52 251.592 108.451C248.867 109.603 247.075 111.958 243.777 110.336C243.633 111.016 243.777 111.644 244.135 112.272C242.916 113.319 241.339 114.366 239.403 114.418C235.603 113.057 231.875 111.33 228.792 109.079C226.999 110.022 225.278 111.016 223.486 111.853C223.629 111.435 223.844 111.068 223.988 110.65C222.841 113.005 219.184 113.895 216.818 115.57C216.173 116.145 215.241 115.674 214.38 115.622C214.308 116.093 214.38 116.564 214.524 116.983C214.237 117.035 213.95 117.088 213.735 117.088C214.667 118.815 215.671 120.49 216.531 122.269C216.818 121.955 217.176 121.694 217.463 121.38C217.822 122.165 218.18 122.898 218.467 123.683C218.826 123.421 219.184 123.212 219.471 122.95C219.112 122.426 218.826 121.903 218.61 121.38C219.184 121.484 219.686 121.589 220.188 121.746C221.478 123.526 222.052 125.619 221.55 127.661C216.89 130.173 212.014 132.79 207.784 135.564C207.497 135.302 207.21 134.988 206.852 134.727C206.422 134.988 205.991 135.198 205.561 135.459C205.49 135.616 205.418 135.878 205.418 135.983C205.633 135.564 206.135 135.302 206.708 135.198C206.852 135.302 207.067 135.564 207.139 135.669C205.346 136.768 203.554 137.815 201.546 138.757C201.044 138.652 200.542 138.495 199.969 138.548C199.969 138.757 199.969 139.176 199.969 139.385L199.467 139.437C199.969 139.804 200.399 140.118 200.901 140.484C200.614 140.537 200.399 140.589 200.112 140.641C199.969 140.38 199.754 140.065 199.61 139.804C199.037 140.327 198.463 140.851 197.818 141.322C199.18 141.322 199.61 142.473 200.399 143.101L199.754 143.572C199.18 143.049 198.535 142.473 198.535 141.793C198.176 142.578 198.678 143.258 199.467 143.782C198.822 145.247 196.312 145.247 195.237 146.503C193.803 147.76 191.938 148.649 189.931 149.382C189.787 149.278 189.572 149.016 189.501 148.911C189.286 148.964 188.855 149.121 188.64 149.173C188.999 149.225 189.644 149.382 189.931 149.435C189.286 149.958 188.282 150.586 187.565 149.749C187.923 150.01 188.21 150.22 188.569 150.481C187.565 151.214 186.418 151.79 185.055 152.209C184.697 152.784 183.98 153.046 183.191 153.255C182.976 153.151 182.546 152.941 182.402 152.837C182.187 152.889 181.685 152.994 181.47 153.046C181.829 154.355 180.682 155.14 179.463 155.977C180.251 156.134 181.614 156.605 180.395 157.129C181.255 157.129 181.614 157.705 182.044 158.123C181.972 158.804 181.327 158.908 181.04 158.961ZM178.961 157.129C178.889 156.658 178.602 156.553 178.1 156.762C178.172 157.233 178.459 157.338 178.961 157.129ZM219.758 123.944C219.041 124.311 218.324 124.729 217.535 125.096C217.75 125.724 218.467 125.672 219.184 125.567C219.829 126.457 219.112 127.661 220.475 128.289C220.69 126.823 220.188 125.358 219.758 123.944ZM267.509 96.2558C267.438 96.4128 267.366 96.7792 267.366 96.9362C267.222 96.9362 266.864 96.8839 266.721 96.8839C266.792 97.1456 266.936 97.6166 267.007 97.8783C266.649 97.7737 266.004 97.5643 265.645 97.512C265.645 97.6166 265.717 97.7737 265.717 97.8783C266.649 97.7737 267.581 98.4541 268.298 97.7737C268.37 98.1924 268.513 98.6111 268.728 98.9775C269.445 97.983 268.656 96.8839 267.509 96.2558ZM170.787 156.03C170.787 155.506 170.572 155.401 169.998 155.663C169.998 156.134 170.285 156.291 170.787 156.03ZM217.32 128.132C217.32 127.661 217.392 126.928 216.746 126.718C215.886 126.823 216.961 128.917 217.32 128.132ZM166.915 157.076C166.915 156.605 166.629 156.448 166.055 156.71C166.055 157.233 166.342 157.338 166.915 157.076ZM264.426 99.1869C264.211 98.7158 263.924 98.7158 263.566 99.0822C263.853 99.5533 264.139 99.6056 264.426 99.1869ZM170.357 155.035C169.712 153.622 167.991 152.784 166.844 151.633C166.342 151.895 165.912 152.209 165.41 152.47L165.983 152.732L166.485 152.156C167.632 153.255 168.636 154.459 170.357 155.035ZM215.599 127.19C214.739 125.829 214.308 124.415 213.663 123.055C213.735 123.002 213.878 122.898 213.95 122.845C215.742 123.473 215.456 125.253 216.244 126.404C216.388 126.247 216.675 125.986 216.818 125.829C216.244 125.305 215.958 124.677 216.101 123.997C215.958 123.84 215.742 123.735 215.527 123.63C215.599 121.641 213.09 120.28 213.52 118.344C213.161 118.448 212.875 118.606 212.516 118.71C212.803 119.966 213.878 121.013 214.308 122.217C214.165 122.269 213.878 122.426 213.735 122.479H213.448C212.875 121.38 212.301 120.228 211.656 119.181C211.369 119.234 210.867 119.338 210.652 119.443C211.656 120.437 212.731 121.641 212.158 122.95C212.301 123.055 212.659 123.212 212.875 123.264C212.588 123.421 212.014 123.787 211.727 123.944C212.373 123.787 212.946 123.578 213.592 123.421C213.592 124.52 214.022 125.515 214.308 126.561C214.452 126.614 214.739 126.718 214.954 126.771C214.882 126.928 214.667 127.242 214.595 127.399C214.882 127.294 215.241 127.242 215.599 127.19ZM267.151 95.9417C267.007 95.8894 266.649 95.7323 266.505 95.68C267.366 94.7902 266.219 93.9527 265.215 93.4293C265.358 93.377 265.645 93.22 265.788 93.1676C264.354 92.0685 264.139 90.4459 262.705 89.3467C262.849 89.242 263.064 89.0327 263.207 88.928C261.415 88.1952 261.486 86.4156 259.694 85.6828C259.909 85.5781 260.268 85.4211 260.483 85.3688C260.052 84.95 259.622 84.5313 259.12 84.1126C258.69 84.3219 258.188 84.5313 257.686 84.7407C258.834 85.9969 259.981 87.253 261.63 88.1429C261.415 88.2999 261.056 88.5616 260.913 88.7186C261.988 88.0382 262.562 88.6663 262.419 89.399C262.132 89.3467 261.63 89.1897 261.343 89.1373C261.845 89.6607 262.347 90.1318 262.849 90.6552C262.849 90.8123 262.777 91.1263 262.705 91.2833C262.92 91.1263 263.279 90.8123 263.494 90.6552L263.996 91.1263C263.064 91.4927 263.422 92.1208 263.781 92.6965C263.924 92.5919 264.211 92.3302 264.283 92.2255L265.071 92.9059L264.283 93.1153C264.713 93.377 265.215 93.691 265.645 93.9527C265.573 94.1621 265.358 94.6332 265.215 94.8949C265.43 94.7379 265.86 94.4238 266.075 94.2668L266.577 94.7379C266.362 94.8949 266.004 95.1566 265.86 95.2613C266.004 95.68 266.147 96.0464 266.29 96.4651C266.505 96.3604 266.936 96.0987 267.151 95.9417ZM160.606 153.255C156.878 150.795 153.149 148.44 149.206 146.189C148.919 146.346 148.417 146.608 148.13 146.765C148.56 146.765 149.349 146.765 149.779 146.765C149.708 146.922 149.564 147.236 149.564 147.393C150.425 147.55 151.142 147.917 151.859 148.231C151.715 148.44 151.5 148.806 151.428 149.016C151.644 148.911 152.002 148.649 152.145 148.545C152.504 148.754 153.221 149.225 153.579 149.435C153.364 149.801 153.221 150.22 153.006 150.586C153.436 150.272 153.938 149.906 154.368 149.592C154.511 149.958 154.727 150.324 154.87 150.691C155.013 150.638 155.372 150.534 155.515 150.481C155.73 150.795 155.802 151.424 156.591 151.109C156.949 151.476 157.379 151.79 157.738 152.156C157.595 152.313 157.379 152.575 157.236 152.68C157.738 152.575 158.168 152.523 158.67 152.418C158.742 152.732 158.813 153.046 158.813 153.36C159.029 153.256 159.387 153.098 159.53 153.046L159.961 153.57C159.746 153.674 159.387 153.831 159.244 153.936C159.746 153.884 160.176 153.884 160.678 153.831C161.108 154.198 161.538 154.616 161.753 155.087C162.183 154.983 162.685 154.878 163.115 154.721C161.753 154.826 161.466 153.727 160.606 153.255ZM164.047 154.25C163.474 153.674 162.829 153.151 162.183 152.627C162.255 152.523 162.47 152.366 162.542 152.261C162.327 152.261 161.968 152.313 161.753 152.313C155.659 148.231 149.277 144.462 142.825 140.694C142.896 140.955 142.968 141.217 142.968 141.479C150.425 145.404 157.093 150.01 164.047 154.25ZM166.414 151.424C164.191 149.696 161.466 148.492 158.813 147.132C158.813 148.44 160.964 148.806 161.753 149.853C161.251 149.801 160.749 149.749 160.247 149.696C160.821 150.377 161.538 150.429 162.255 149.853C162.972 150.795 164.191 151.424 165.338 152.052C165.553 151.947 166.127 151.633 166.414 151.424ZM260.913 94.0574C260.985 93.534 260.554 92.3302 259.694 92.5395C259.766 93.0629 260.196 94.0051 260.913 94.0574ZM254.173 85.0024C254.03 84.95 253.743 84.793 253.671 84.7407C253.6 84.5313 253.384 84.1649 253.241 84.0079C254.46 86.3632 256.396 88.6139 258.619 90.6029C257.185 88.6663 255.607 86.8343 254.173 85.0024ZM258.977 87.5671C259.049 87.1484 258.69 86.6773 258.188 86.4679C257.471 86.6773 258.403 87.7241 258.977 87.5671ZM257.902 86.0492C257.902 85.5258 257.615 85.4211 257.113 85.6828C257.113 86.2062 257.4 86.3109 257.902 86.0492ZM151.859 143.991C150.998 143.52 150.138 143.049 149.277 142.526C149.206 142.578 148.991 142.735 148.919 142.787C150.64 143.625 152.145 144.672 153.723 145.561C153.293 144.933 152.719 144.357 151.859 143.991ZM148.847 145.98C146.911 144.829 145.119 143.625 142.968 142.683C142.968 143.206 143.326 143.468 144.043 143.468C144.33 143.886 144.545 144.305 144.832 144.724C145.047 144.672 145.406 144.567 145.621 144.514C145.908 144.724 146.481 145.195 146.768 145.457C146.553 145.666 146.338 145.875 146.123 146.085C146.409 145.928 146.911 145.666 147.198 145.509C147.342 145.718 147.557 146.189 147.7 146.451C148.059 146.294 148.417 146.137 148.847 145.98ZM142.896 142.683C142.896 142.211 141.821 141.845 141.391 142.159C141.534 142.578 142.466 143.101 142.896 142.683ZM141.391 141.793C140.817 141.426 140.243 141.06 139.598 140.746C139.311 141.008 139.024 141.322 138.738 141.583C139.24 141.426 139.741 141.008 140.243 141.374C140.1 141.531 139.885 141.897 139.741 142.054C140.315 142.002 140.889 141.897 141.391 141.793ZM142.179 140.589C142.179 140.223 141.606 139.751 141.032 139.908C140.602 140.275 141.821 141.008 142.179 140.589ZM142.538 138.391C141.892 138.077 141.175 137.762 140.53 137.448C140.817 138.024 141.534 138.338 142.179 138.705C142.251 138.6 142.466 138.443 142.538 138.391ZM140.817 139.908C139.526 138.757 137.806 137.867 136.228 137.03C136.372 136.925 136.587 136.716 136.73 136.611C136.587 136.716 136.3 136.873 136.157 136.977C133.719 135.773 131.639 133.889 128.7 133.418C132.787 135.459 136.515 138.077 140.817 139.908ZM138.953 140.537C137.591 139.49 135.87 138.652 134.292 137.71C131.998 136.873 130.492 135.145 128.055 134.674L128.556 134.308C127.624 134.099 126.692 133.627 125.76 133.994C126.692 134.36 127.911 134.465 128.485 135.198C129.704 135.407 130.277 136.454 131.496 136.768C131.424 136.925 131.353 137.239 131.281 137.396C131.496 137.291 131.855 137.134 131.998 137.03C132.285 137.448 132.572 137.815 132.858 138.234C133.002 138.077 133.289 137.71 133.432 137.553C134.221 138.338 135.941 138.757 135.941 139.856C136.085 139.699 136.3 139.385 136.443 139.228C136.945 139.961 137.877 140.38 138.953 140.537ZM253.886 66.2118C246.286 61.2394 240.048 54.9584 232.162 50.2477C232.879 50.8235 233.596 51.3469 234.384 51.9226C234.169 52.2367 234.026 52.5507 233.811 52.8648C234.026 52.7078 234.528 52.3937 234.814 52.2367C235.03 52.4461 235.531 52.8648 235.747 53.0741C235.531 53.1265 235.101 53.2835 234.814 53.3359C235.316 53.3882 235.747 53.5452 236.177 53.8069C236.464 53.8069 236.965 53.8593 237.252 53.8593C237.109 54.121 236.894 54.6444 236.75 54.9061C237.037 54.7491 237.539 54.435 237.754 54.2257C237.969 54.6444 237.897 55.0631 237.611 55.4818C237.826 55.3248 238.328 55.0631 238.614 54.9061C238.614 55.1155 238.686 55.4818 238.686 55.6912C239.762 55.9006 240.335 56.581 241.052 57.1044C240.837 57.2615 240.479 57.5232 240.264 57.6802C240.622 57.6278 241.411 57.5232 241.769 57.4708C241.698 57.6802 241.482 58.1513 241.339 58.413C241.554 58.2559 241.984 57.9419 242.199 57.7849C242.558 58.2559 242.415 58.727 241.769 59.0934C241.841 59.1457 241.913 59.1981 241.913 59.2504C242.199 59.0411 242.701 58.6747 242.916 58.5176L243.705 59.1457C243.418 59.3551 242.773 59.7215 242.415 59.8785C242.916 59.6692 243.418 59.5121 243.849 59.3028C244.637 59.9832 245.498 60.6113 246.143 61.3964C246.286 61.3964 246.573 61.4488 246.716 61.5011C247.433 62.2862 249.011 62.862 248.867 63.9088C250.875 63.9611 251.377 65.7408 252.954 66.2642C253.241 66.3688 253.671 66.2642 253.886 66.2118ZM251.377 63.019C243.92 56.8427 236.248 50.3001 227.645 44.9089C235.818 50.7188 242.773 57.5755 251.377 63.019ZM128.987 133.209C127.553 132.633 126.262 131.796 124.756 131.377C125.76 132.319 127.266 133.104 128.987 133.209ZM129.345 131.481C128.987 130.958 128.628 130.958 128.27 131.377C128.556 131.9 128.915 131.9 129.345 131.481ZM125.904 133.68C125.115 132.999 124.111 132.214 122.749 132.214C123.036 132.371 123.681 132.685 123.968 132.79C123.753 132.999 123.537 133.209 123.251 133.418C124.254 132.999 125.043 133.47 125.904 133.68ZM128.055 130.016C128.556 129.754 128.126 128.969 127.553 129.335C127.051 129.597 127.481 130.382 128.055 130.016ZM247.147 55.0631C245.139 54.2257 243.92 52.9171 242.988 51.3992C243.06 51.2945 243.203 51.0328 243.275 50.8758C243.132 51.0328 242.845 51.2945 242.701 51.4516C241.984 50.6664 241.196 49.9337 240.264 49.2532C240.12 49.7243 240.264 50.143 240.765 50.5094C240.55 50.5618 240.192 50.7188 239.977 50.7711C241.411 51.6086 242.486 52.8124 243.992 53.5976C244.35 54.4874 245.354 55.0631 246.071 55.6912C246.43 55.5342 246.932 55.2201 247.147 55.0631ZM97.7975 137.448C98.2277 137.187 97.7975 136.454 97.2239 136.716C96.7937 137.03 97.2239 137.762 97.7975 137.448ZM241.267 52.4461C240.981 51.975 240.694 51.975 240.335 52.3414C240.622 52.7601 240.909 52.8124 241.267 52.4461ZM137.232 110.545C137.017 110.597 136.658 110.754 136.443 110.807C134.364 108.504 130.707 107.143 127.624 105.677C127.409 105.887 126.907 106.305 126.692 106.515C126.979 106.515 127.624 106.462 127.983 106.462C128.055 106.567 128.126 106.829 128.126 106.933C128.485 106.986 129.202 107.09 129.56 107.195C129.417 107.404 129.202 107.771 129.13 107.928C129.919 107.195 130.707 107.823 130.994 108.451C131.138 108.399 131.353 108.242 131.496 108.19C133.217 109.236 135.368 109.969 136.658 111.33C136.73 111.121 137.089 110.702 137.232 110.545ZM234.026 44.3855C233.739 44.1761 233.165 43.8097 232.879 43.6527C233.022 43.6004 233.38 43.4957 233.524 43.4433C231.014 42.5012 229.15 40.6692 226.856 39.4131C226.712 39.4131 226.354 39.4654 226.211 39.5177C223.343 37.3717 220.69 35.1211 217.607 33.0797C217.678 33.3938 217.75 33.7602 217.822 34.0742C217.392 33.6555 216.89 33.2368 216.173 33.0797C216.961 33.9696 218.395 34.3883 219.112 35.2781C218.969 34.8594 218.897 34.4406 218.754 34.0742C219.399 34.65 219.973 35.2257 220.618 35.7492C220.546 35.9062 220.331 36.1679 220.26 36.2726C221.55 37.0577 222.841 37.8428 224.06 38.6803C224.06 39.099 223.414 39.256 222.984 39.4654C223.558 39.4654 223.988 39.6748 224.346 39.8841C224.203 37.6334 230.584 44.0191 231.803 44.2808C232.018 44.2285 232.448 44.1761 232.663 44.1238C232.735 44.3331 232.95 44.6995 233.094 44.8566L234.026 44.3855ZM127.839 105.206C126.979 105.311 126.119 105.206 125.473 104.735C125.115 104.944 124.47 105.311 124.111 105.468C124.971 105.573 125.688 105.834 126.405 106.096C126.907 105.782 127.409 105.468 127.839 105.206ZM126.692 104.421C126.621 104.002 125.617 103.479 125.187 103.898C125.258 104.264 126.262 104.735 126.692 104.421ZM125.115 104.735C124.9 104.526 124.47 104.159 124.183 103.95C124.398 103.793 124.828 103.531 125.043 103.427C123.968 103.06 122.892 102.589 121.888 102.066C122.104 101.961 122.534 101.752 122.749 101.647C117.945 99.9197 114.288 96.5698 110.058 94.1098C104.752 90.4459 99.0164 87.096 93.9258 83.2751C93.639 83.4845 93.0654 83.9032 92.7069 84.1126C92.7786 84.3219 92.922 84.793 92.9937 85.0024C93.3522 84.793 93.9975 84.4266 94.2843 84.2173C94.1409 84.3743 93.7824 84.7407 93.5673 84.95C97.0088 87.096 99.9485 89.6084 103.533 91.5974C103.032 91.8591 102.601 92.1208 102.099 92.3825C102.458 92.6442 103.175 93.1153 103.462 93.377C99.9485 91.7021 96.722 89.4514 93.8541 87.1484C96.8654 88.5092 99.3749 90.6029 101.956 92.4348C102.028 92.1208 102.099 91.8067 102.099 91.4927C101.382 90.9169 100.665 90.2888 100.092 89.6607C99.9485 89.7131 99.7334 89.8701 99.6617 89.9225C98.9447 89.242 98.156 88.5092 97.439 87.7765C97.3673 87.8811 97.1522 88.0382 97.0088 88.1429C95.7182 86.625 93.4239 85.9445 91.9182 84.5836C91.7748 84.6883 91.488 84.95 91.4163 85.0547C92.1333 85.5781 92.8503 86.1015 93.3522 86.782C92.922 86.5726 91.9899 86.1015 91.5597 85.8922C91.6314 86.4156 92.2767 87.0437 91.7031 87.5148C94.8579 88.0382 96.005 90.4982 98.5862 91.545C98.873 91.9638 99.0881 92.4348 99.3749 92.8536C99.59 92.8012 100.092 92.6442 100.307 92.5395C100.737 92.9059 101.167 93.2723 101.598 93.6387C101.382 93.7957 100.881 94.1098 100.665 94.2668C101.167 94.1621 101.598 94.1098 102.099 94.0051C102.243 94.3715 102.315 94.6855 102.458 95.0519C103.175 95.1043 103.892 95.1566 104.609 95.2089C104.752 95.4706 104.967 95.7847 105.111 96.0464C105.326 96.0464 105.684 96.0464 105.828 96.0987C106.545 96.7792 107.907 97.3026 107.405 98.2971C107.835 98.0877 108.266 97.8783 108.696 97.669C108.122 97.1456 108.266 96.7268 109.054 96.4128C108.696 96.0987 108.337 95.7847 107.907 95.4706C108.194 95.3136 108.767 94.9472 109.054 94.7902C109.556 95.2613 110.058 95.7847 110.632 96.2558C110.99 96.2034 111.779 96.2034 112.137 96.1511C111.994 96.4128 111.779 96.9362 111.635 97.1979C111.851 97.0409 112.281 96.7268 112.424 96.5175C112.783 96.8315 113.428 97.4073 113.786 97.669C113.5 97.6166 112.854 97.512 112.496 97.4073C112.281 97.5643 111.779 97.8783 111.564 98.0354C110.847 97.5643 110.13 97.1456 109.341 96.7268C109.986 97.3026 110.847 97.7737 111.277 98.4541C110.703 98.8205 110.13 99.2392 109.269 99.2392C109.556 99.5009 109.915 99.7103 110.201 99.972C110.847 99.7103 111.564 99.7103 112.281 99.7626C112.137 100.129 112.066 100.495 111.922 100.862C112.998 101.228 114.145 101.595 115.22 101.909C115.005 101.647 114.575 101.124 114.36 100.862C114.934 100.862 115.435 101.019 115.937 101.228C115.22 100.443 114.503 99.5533 113.141 99.3439C113.356 99.6579 113.858 100.234 114.073 100.495C113.285 100.443 112.711 99.972 112.066 99.7103C112.998 99.1869 113.858 98.6111 114.934 98.2447C114.79 98.6635 114.647 99.0299 114.432 99.4486C114.647 99.4486 115.149 99.4486 115.364 99.4486C115.364 99.6056 115.292 99.9197 115.292 100.077C115.651 100.181 116.439 100.443 116.869 100.6C116.869 100.391 116.869 100.024 116.869 99.815C117.228 100.129 117.658 100.391 118.017 100.705C117.802 100.757 117.371 100.862 117.156 100.862C117.873 101.385 118.59 101.909 119.379 102.38C119.953 102.38 120.598 102.432 121.171 102.589C120.813 102.641 120.096 102.694 119.737 102.746C120.885 103.217 121.745 104.84 123.251 104.264C123.394 104.526 123.537 104.735 123.609 104.997C124.183 104.944 124.685 104.84 125.115 104.735ZM126.836 103.322C125.904 102.641 124.828 102.118 123.824 101.49C123.896 101.385 124.111 101.124 124.183 101.019C123.466 101.124 122.892 100.862 122.247 100.705C123.537 101.752 125.043 102.694 126.836 103.322ZM120.454 104.055C119.379 102.851 117.873 101.909 116.296 101.019C115.507 102.066 117.73 102.484 118.447 103.217C118.088 103.479 117.658 103.741 117.3 104.055C117.586 103.845 118.232 103.479 118.519 103.322C119.02 103.636 119.522 104.212 120.454 104.055ZM104.179 107.614C103.677 107.561 103.103 107.509 102.601 107.457C102.099 107.195 101.598 106.881 101.096 106.619C101.311 107.143 101.884 107.509 102.386 107.876C102.96 107.876 103.533 107.719 104.179 107.614ZM119.164 98.6111C118.088 97.8783 117.013 97.0932 115.651 96.6222C116.798 97.3026 117.73 98.1924 119.164 98.6111ZM105.183 106.148C104.681 105.049 103.175 104.63 102.315 103.688C102.53 104.107 102.816 104.526 103.032 104.944C103.892 105.154 104.466 105.677 105.183 106.148ZM107.477 102.38C107.262 102.38 106.76 102.38 106.545 102.38C106.115 102.118 105.684 101.804 105.254 101.542C105.541 102.17 106.115 102.903 105.039 103.322C105.828 103.008 106.616 102.694 107.477 102.38ZM215.527 31.4572C215.097 31.4572 214.237 31.5095 213.807 31.5618C214.093 31.4048 214.595 31.0384 214.81 30.8814C214.524 30.9861 214.022 31.2478 213.735 31.3525C213.592 30.8814 213.52 30.4627 213.305 29.9916C213.09 30.1486 212.731 30.4103 212.516 30.515C212.588 30.3057 212.659 29.8346 212.731 29.5729C212.444 29.7299 211.799 30.0439 211.512 30.201C212.588 30.8291 213.663 31.5095 214.667 32.2423C215.025 31.9806 215.312 31.7189 215.527 31.4572ZM103.39 95.4706C103.103 95.8894 103.318 96.0464 103.964 95.9417C104.25 95.5753 104.107 95.366 103.39 95.4706ZM92.6352 93.8481C90.9861 92.8536 89.5521 91.7544 87.7597 90.8646C87.688 90.7599 87.5446 90.4982 87.4729 90.3412C87.1144 90.2365 86.7559 90.0795 86.3974 89.9748C88.2615 91.388 90.1257 92.8012 92.205 94.0574C92.3484 94.0051 92.4918 93.9004 92.6352 93.8481ZM84.3898 98.6111C83.7445 98.4541 83.4577 98.6111 83.5294 99.1345C84.103 99.1869 84.3181 98.9775 84.3898 98.6111ZM82.2388 97.9307C82.669 97.669 82.1671 96.9362 81.5935 97.1979C81.1633 97.512 81.6652 98.1924 82.2388 97.9307ZM203.123 23.763L203.697 23.6583C201.546 22.3498 199.252 21.2506 197.459 19.628C197.244 19.628 196.886 19.628 196.671 19.628C196.527 19.4187 196.24 19.0523 196.025 18.8952C196.025 19.314 196.24 19.7327 196.599 20.0468C196.599 20.2038 196.599 20.4655 196.599 20.6225C196.742 20.4655 197.029 20.2561 197.172 20.0991L197.388 20.0468C198.105 20.2038 197.818 20.7795 197.889 21.1983C199.538 21.931 200.255 23.4489 202.191 23.8677L202.478 24.7051C202.55 24.2864 202.622 23.8677 202.622 23.4489C202.765 23.7106 203.052 24.2341 203.267 24.4958C203.267 24.2864 203.195 23.92 203.123 23.763ZM80.4463 96.6222C80.0878 95.9417 79.2275 94.6332 78.0086 95.4183C78.7973 95.7847 79.2992 96.8839 80.4463 96.6222ZM198.606 25.2285C196.097 23.3443 193.372 21.6693 190.648 19.9421C193.086 21.8264 195.595 23.9724 198.606 25.2285ZM195.308 18.8952C194.735 18.2671 194.161 17.6914 193.587 17.0633C193.372 17.168 192.942 17.325 192.727 17.3773C192.655 16.9586 192.44 16.5922 191.938 16.3829C191.867 16.2782 191.795 16.0165 191.723 15.9118C191.221 16.0165 190.791 16.0688 190.289 16.1735C191.867 17.168 193.444 18.0578 194.806 19.2093L195.308 18.8952ZM153.723 29.4159C153.723 28.9448 153.508 28.7878 152.934 28.9971C152.934 29.5205 153.221 29.6776 153.723 29.4159ZM152.719 28.7354C151.357 26.7464 149.349 25.0715 147.915 23.1349C148.632 25.2285 151.07 26.9558 152.719 28.7354ZM180.108 8.58399C180.18 7.85122 178.817 8.42697 178.817 8.8457C179.033 9.31677 180.036 9.00273 180.108 8.58399ZM178.889 8.00824C177.957 7.48483 177.097 6.01927 175.734 6.54268C175.448 5.70521 174.516 5.12946 173.727 4.5537C173.153 4.65838 172.651 4.81541 172.149 4.97243C172.723 5.02477 173.225 5.07711 173.799 5.12945C174.014 5.23413 174.516 5.49584 174.731 5.60053C174.587 5.75756 174.229 6.07161 174.085 6.22863C174.874 6.49034 175.663 6.80439 176.523 7.01375C176.595 7.3278 176.666 7.58951 176.738 7.90356C176.882 7.85122 177.24 7.74653 177.383 7.69419L176.953 7.01375C177.312 7.17078 177.957 7.43249 178.244 7.53717C178.029 7.85122 177.885 8.21761 177.67 8.53165C178.029 8.42697 178.602 8.16526 178.889 8.00824ZM173.082 4.03029C172.795 4.08263 172.149 4.18731 171.863 4.23965C171.648 3.87326 171.432 3.50687 171.217 3.14048C171.074 3.19282 170.859 3.29751 170.715 3.34985C171.146 3.76858 171.504 4.13497 171.934 4.5537C172.221 4.44902 172.795 4.13497 173.082 4.03029Z" fill="#497285"/>
<path d="M202.622 143.311C202.263 143.468 201.833 143.625 201.474 143.782C201.116 143.572 200.829 143.363 200.471 143.101C200.901 142.839 201.259 142.578 201.618 142.316C201.976 142.682 202.263 142.996 202.622 143.311Z" fill="#497285"/>
<path d="M273.962 78.7213C273.962 79.4018 272.456 79.4017 272.743 78.669C272.815 78.0409 274.249 77.9885 273.962 78.7213Z" fill="#497285"/>
<path d="M260.626 63.6471C260.268 64.2229 259.622 64.4846 258.762 64.4846C258.045 63.8042 256.826 63.3331 256.826 62.3909C254.603 61.9722 253.958 59.8786 252.739 58.6224C252.237 58.727 251.735 58.7794 251.162 58.8841C251.018 58.6747 250.66 58.256 250.445 57.9943C250.66 57.8896 251.162 57.6279 251.377 57.5232C251.807 57.6802 252.237 57.7849 252.667 57.9419C252.883 57.8372 253.241 57.6279 253.384 57.5232C253.241 57.6802 252.954 57.9943 252.811 58.1513C254.03 59.5645 256.037 60.3496 257.4 61.5535C257.615 61.5011 257.973 61.3965 258.117 61.3441C257.902 61.4488 257.4 61.7105 257.185 61.8675C258.403 62.4956 259.264 63.3854 260.626 63.6471Z" fill="#497285"/>
<path d="M114.934 118.501C114.288 118.71 113.715 117.925 113.571 117.506C114.145 117.297 114.862 118.082 114.934 118.501Z" fill="#497285"/>
<path d="M108.624 113.372C108.122 113.581 107.835 113.476 107.764 112.953C108.337 112.743 108.624 112.848 108.624 113.372Z" fill="#497285"/>
<path d="M96.005 106.148C95.3598 106.672 95.0013 105.363 95.9334 105.887L96.005 106.148Z" fill="#497285"/>
<path d="M111.134 95.9417C110.488 96.1511 109.843 95.366 109.7 94.9472C110.345 94.7902 111.062 95.523 111.134 95.9417Z" fill="#497285"/>
<path d="M94.4276 105.258C93.7823 105.939 93.4239 104.683 94.3559 104.944L94.4276 105.258Z" fill="#497285"/>
<path d="M107.907 94.6856C107.333 95.3137 107.979 96.0464 108.05 96.7269C106.903 96.3605 106.258 95.523 105.469 94.8426L105.684 94.6856C106.186 95.1566 106.688 95.6277 107.19 96.0988C107.262 95.8371 107.333 95.523 107.405 95.2613C106.832 94.7902 106.33 94.3192 105.756 93.8481C106.115 93.6387 106.545 93.4817 106.903 93.2723C107.262 93.7434 107.62 94.2145 107.907 94.6856Z" fill="#497285"/>
<path d="M85.9672 100.652C85.4653 100.914 85.1068 100.81 85.0351 100.338C85.6087 100.077 85.8955 100.181 85.9672 100.652Z" fill="#497285"/>
<path d="M213.95 61.0824C216.531 60.0879 219.901 59.1458 222.554 60.4543C222.841 60.2973 223.127 60.1403 223.343 59.9833C234.814 65.4268 242.773 73.8014 251.52 81.3385C253.169 83.5892 257.256 84.9501 257.471 87.6195C256.683 87.8812 255.894 88.1952 255.177 88.457C255.034 88.1429 254.818 87.8288 254.675 87.5671C251.305 85.8922 248.509 83.6415 244.781 82.2283C243.92 82.7517 243.418 82.3854 242.988 81.7573C241.841 81.5479 240.694 81.4432 239.547 81.4432C239.26 81.2338 238.973 81.0245 238.686 80.8151C223.844 82.2807 221.263 95.7847 209.003 100.443C201.474 104.264 192.44 102.066 184.984 99.3963C179.893 98.1924 176.165 95.1566 171.217 93.7434C170.572 93.6387 170.07 93.3247 169.712 92.9583C168.851 92.8536 168.063 92.6966 167.202 92.7489C162.613 96.4652 162.829 102.013 160.463 106.567C155.73 113.947 145.549 116.512 135.511 112.953C135.726 112.848 136.085 112.639 136.3 112.534C135.87 112.586 135.511 112.691 135.081 112.743C133.575 111.958 131.711 111.487 130.492 110.44C126.692 109.603 124.47 106.515 120.239 106.253C120.311 106.044 120.383 105.677 120.454 105.52C120.311 105.677 120.096 105.991 120.024 106.148C116.726 106.201 115.077 108.242 113.5 110.074C113.069 110.126 112.639 110.126 112.209 110.179C112.424 110.231 112.926 110.283 113.141 110.336C112.783 111.016 112.281 111.697 111.779 112.377C111.564 112.377 111.134 112.325 110.847 112.325L111.564 112.429C103.749 126.98 81.952 123.735 67.1103 117.349C67.182 117.454 67.2537 117.716 67.3254 117.873C66.1065 116.826 64.1707 117.349 62.5216 117.297C61.0876 118.187 59.2951 118.71 57.8611 119.6C57.3592 118.134 59.7253 117.716 60.7291 116.826C56.2121 118.71 52.412 121.38 47.5365 123.055C50.9063 122.845 52.9856 120.385 56.2838 120.385C52.2686 123.002 47.1063 124.52 41.944 125.253C42.1591 125.358 42.5892 125.619 42.8043 125.776C42.4458 125.724 41.7289 125.672 41.4421 125.672C41.3704 125.829 41.1553 126.143 41.0119 126.3C39.793 126.404 38.6458 126.3 37.4269 126.247C37.4986 126.457 37.642 126.875 37.7137 127.085C37.2118 126.3 36.4948 126.614 35.8495 127.033C32.9099 126.666 30.4721 128.236 27.6041 128.498C25.2381 129.388 22.2984 129.44 20.1474 130.696C20.004 130.173 19.8606 129.65 19.7172 129.126C19.7172 129.388 19.7889 129.911 19.7889 130.173C13.5511 129.074 8.53219 126.038 3.65665 123.159C4.08685 122.322 3.87175 121.38 4.01515 120.49C4.44534 120.176 4.94724 119.914 5.30573 119.6C4.44534 119.809 3.72835 120.176 3.01136 120.542C2.93966 120.752 2.79626 121.223 2.72456 121.432C2.50947 121.275 2.07927 121.013 1.86418 120.856C2.93966 118.815 6.16612 118.71 8.38879 117.716C6.02272 117.977 3.72835 118.71 1.72078 119.6C1.72078 120.176 1.64908 120.699 1.64908 121.275C1.14719 120.961 0.645292 120.647 0.215097 120.333C0.286796 120.176 0.358495 119.914 0.430194 119.809H0.0716991L0 119.129C0.78869 119.181 1.50568 119.024 2.15097 118.71C1.79248 118.501 1.43398 118.292 1.00379 118.134C1.14719 118.082 1.50568 118.03 1.72078 118.03L2.15097 117.402C2.15097 117.611 2.22267 118.03 2.29437 118.239C3.87175 117.873 5.52083 117.454 7.02651 116.931C6.73971 116.721 6.52461 116.46 6.23782 116.25C7.24161 116.355 8.31709 116.407 9.24918 116.826C9.46428 116.25 9.67937 115.674 9.89447 115.099C9.39258 115.151 8.46049 115.203 7.9586 115.256C8.10199 113.895 10.253 114.418 11.4002 113.843C12.3322 113.371 13.336 113.057 14.4832 112.9C16.4191 110.964 20.0757 110.964 22.7286 109.812C22.6569 109.655 22.5852 109.289 22.5852 109.132C22.6569 109.289 22.8003 109.551 22.9437 109.708C28.5362 107.823 34.0571 105.73 38.4307 102.537C41.1553 101.961 44.0232 102.066 46.8195 102.066C46.8195 101.909 46.8195 101.595 46.8195 101.385C47.1063 101.961 47.9667 101.961 48.612 102.17C48.7554 102.066 49.1139 101.909 49.329 101.804C51.8384 102.641 54.7064 101.856 57.2159 102.432C57.5027 102.327 57.7894 102.17 58.1479 102.066C58.7932 102.17 59.5102 102.327 60.2272 102.432C61.3744 101.438 63.0235 102.903 64.1707 102.118C64.5292 102.118 65.3178 102.118 65.6763 102.118C65.8197 102.223 66.1065 102.38 66.2499 102.484C66.3933 102.38 66.6801 102.17 66.8235 102.013C68.4726 102.066 70.1217 101.909 71.7708 101.647C71.8425 100.81 72.9896 101.071 73.5632 101.49C73.4915 101.333 73.2764 101.071 73.2047 100.914C73.85 100.862 74.567 100.81 75.2123 100.757C75.1406 100.652 74.9255 100.391 74.7821 100.286C75.5708 100.129 76.4312 100.024 77.2199 99.8674C76.8614 99.815 76.2161 99.7103 75.8576 99.658C76.3595 99.2393 77.1482 99.0822 77.8652 99.0299C77.8652 98.8205 77.7935 98.3495 77.7935 98.1401C78.0803 98.1401 78.7256 98.0878 79.0841 98.0354C79.0124 97.4073 79.4426 96.8839 79.8728 96.4128L78.869 96.5175C79.2992 96.3081 79.7294 96.0988 80.2313 95.9418C80.1596 95.7847 80.0162 95.523 79.9445 95.4183C80.518 95.366 81.0199 95.2613 81.5935 95.209C81.5218 95.1043 81.3067 94.7903 81.1633 94.6856C81.5218 94.5285 81.8803 94.3715 82.3105 94.2145C81.5935 93.5341 82.5256 92.9583 83.4577 93.22C83.386 93.063 83.0992 92.7489 83.0275 92.5919C83.3143 92.5396 83.8162 92.4872 84.103 92.4349C83.8879 92.3825 83.386 92.2779 83.0992 92.2255L83.1709 91.5451C83.5294 91.5974 84.3181 91.6498 84.7483 91.6498C84.6766 91.3881 84.6049 90.917 84.5332 90.6553C84.82 90.6029 85.3219 90.4459 85.6087 90.3936C85.4653 90.1842 85.1785 89.7131 85.0351 89.5038C85.9672 89.6608 86.6842 89.6608 86.3257 88.928C88.8351 87.7242 90.054 84.7407 93.7824 85.1594C94.4994 85.1071 95.3598 85.5258 95.8616 85.0024C95.8616 85.1071 95.7183 85.3165 95.7183 85.4212C102.028 87.3054 107.334 90.76 114.002 92.0162C114.288 92.0162 114.575 92.0162 114.934 91.9638C115.937 92.4349 117.156 92.5396 118.303 92.5919C119.522 91.8068 121.1 92.5396 122.462 92.0685C123.537 91.7545 124.613 91.3881 125.832 91.231C126.621 90.7076 128.126 90.5506 128.055 89.6608C128.7 89.6085 128.987 89.3467 128.915 88.8757C129.345 88.6663 129.775 88.4046 130.277 88.1952L129.704 88.0906C130.277 87.0961 130.492 85.9446 131.926 85.4212C131.711 85.2641 131.281 84.9501 131.066 84.7407C131.496 84.7407 132.428 84.7407 132.858 84.7407C132.643 84.636 132.285 84.4267 132.07 84.322C132.787 82.9611 133.289 81.5479 133.504 80.0823C133.719 80.0823 134.221 80.1347 134.507 80.1347C134.364 79.9776 134.006 79.6113 133.862 79.4542C134.077 79.1925 134.436 78.6691 134.579 78.4074L133.719 78.4597C134.149 78.0934 134.651 77.727 135.368 77.727C135.153 77.5176 134.938 77.3082 134.723 77.0989C135.224 76.2091 135.511 75.2669 135.87 74.3771C136.3 74.2201 136.73 74.0631 137.16 73.9584H136.157C136.085 73.1209 137.232 73.1733 137.877 72.9116C137.447 72.8069 136.945 72.6499 136.515 72.5452C137.447 72.2835 138.523 72.1264 139.096 71.4983C138.738 71.6554 138.092 71.9171 137.734 72.0741C137.591 71.1843 138.666 70.8703 139.383 70.3992C139.024 70.3992 138.307 70.3468 137.949 70.3468C138.523 70.2945 139.168 70.2422 139.741 70.1375C139.885 70.1898 140.1 70.2422 140.243 70.2945C140.243 69.5094 141.319 69.5617 142.108 69.4047C142.108 69.3 142.108 69.0383 142.036 68.9336C142.609 69.9281 144.187 69.6664 145.334 69.5617C145.334 69.6664 145.262 69.9281 145.262 70.0328C145.979 70.0328 146.696 70.1898 147.198 70.6085C157.451 74.4818 166.485 81.7049 178.817 81.6526C179.033 81.3385 179.176 81.0768 179.391 80.7628C179.319 81.0245 179.248 81.5479 179.248 81.8096C180.825 81.7049 182.331 81.4956 183.836 81.3909C184.123 81.1815 184.41 80.9721 184.697 80.7628C185.055 80.7628 185.414 80.8151 185.772 80.8675C186.633 80.6057 187.493 80.3964 188.353 80.344C188.497 80.03 188.64 79.6636 188.784 79.3496C188.927 79.4542 189.214 79.7159 189.357 79.873C190.504 79.0878 192.727 78.6691 192.799 77.4129C192.942 77.5699 193.157 77.8317 193.301 77.9363C194.161 76.9942 195.523 76.3138 196.169 75.2146C196.599 75.0576 197.029 74.9005 197.459 74.7435C197.459 73.8014 198.463 73.278 199.252 72.6499C199.467 73.1209 199.682 73.5397 199.969 74.0107C199.037 74.3771 198.105 74.7435 197.244 75.2146C197.172 75.9474 196.886 76.7325 196.384 77.4129C196.24 77.2036 196.025 76.7848 195.882 76.5755C195.523 77.2559 195.595 78.5644 194.089 78.0934C194.089 78.3551 194.018 78.8261 194.018 79.0878C193.587 79.0878 192.799 79.1402 192.44 79.1925C192.655 79.4019 193.014 79.8206 193.229 80.03C193.014 80.187 192.799 80.344 192.655 80.5534C194.089 80.8675 194.95 79.6636 196.312 79.4019C195.595 80.344 194.089 80.6581 193.444 81.6002C195.021 80.9198 196.599 80.2394 197.746 79.1925C197.603 78.7738 197.388 78.3551 197.172 77.9887C198.248 77.4129 198.678 76.3661 199.897 75.9474L199.825 76.5755C200.901 76.052 201.976 75.4763 202.693 74.6388C202.478 74.2724 202.263 73.9061 202.048 73.5397C202.478 73.5397 203.339 73.592 203.769 73.592C204.127 73.1733 204.271 72.7022 204.557 72.2311C204.056 72.5975 203.554 73.0162 203.052 73.435C203.052 73.0162 203.123 72.5975 203.195 72.2311C203.41 72.1264 203.84 71.9694 204.056 71.9171C204.199 71.603 204.342 71.2366 204.486 70.9226C204.916 70.8179 205.418 70.7132 205.848 70.6085C205.848 70.3468 205.776 69.8758 205.776 69.6141C206.637 69.3524 207.425 68.986 207.856 68.3579C207.999 68.3579 208.286 68.4102 208.429 68.4625C208.429 67.7298 209.074 67.154 209.576 66.5783C209.863 66.4736 210.437 66.2642 210.724 66.1595C210.795 66.3689 210.867 66.7353 210.867 66.9447C211.512 66.4736 212.158 66.0548 212.875 65.6361C212.158 65.7931 211.441 65.9502 210.795 66.1595C211.154 65.6885 211.512 65.2174 211.871 64.7463C212.229 65.008 212.659 65.3221 213.09 65.5838C214.093 65.1127 215.097 64.6416 216.029 64.1706C215.169 64.1706 214.38 64.2229 213.52 64.2752C214.452 63.9612 215.742 62.6003 216.531 63.5948C216.531 63.3854 216.603 63.019 216.603 62.862C217.607 63.0714 218.61 63.2808 219.614 63.3331C218.826 62.9144 217.678 62.6003 217.893 61.7105C219.543 61.8152 221.192 61.8152 222.841 61.9199C222.841 61.8675 222.841 61.7105 222.841 61.6058C220.905 61.6058 218.897 61.1871 216.961 61.6582C216.89 61.8152 216.818 62.1816 216.818 62.3386C216.818 62.2339 216.746 62.0246 216.746 61.9199C216.101 61.8675 215.456 61.8675 214.882 61.8152C214.309 63.019 211.727 63.5425 210.365 62.6527C211.441 62.1293 212.875 61.8152 213.95 61.0824ZM226.569 62.4956C226.282 62.862 227.143 63.3331 227.573 63.0714C227.86 62.705 226.999 62.2863 226.569 62.4956ZM210.652 69.2477C213.376 67.5204 216.029 65.8455 219.471 64.7987C220.618 64.2229 222.195 64.7463 223.343 64.1182C218.18 63.9089 213.592 66.3689 210.652 69.2477ZM218.467 66.2119C219.184 66.2642 219.901 66.3166 220.618 66.3689C220.833 66.1595 221.335 65.7931 221.622 65.5838C221.694 65.7408 221.765 66.0548 221.837 66.2642V65.7931C222.124 65.7931 222.697 65.7408 222.984 65.6885C221.407 65.3744 219.829 65.5838 218.467 66.2119ZM215.886 67.154C215.312 67.9391 217.32 67.9391 217.392 67.2587C217.32 66.7353 216.244 66.7876 215.886 67.154ZM213.018 69.4047C213.878 69.2477 214.81 69.143 215.742 69.0383C215.527 68.986 215.026 68.8289 214.81 68.7766C214.882 68.6196 215.097 68.2532 215.169 68.0438C214.38 68.4102 213.448 68.7766 213.018 69.4047ZM203.84 75.3193C201.331 77.3606 199.61 81.0245 195.667 81.5479C195.882 81.6526 196.24 81.8096 196.455 81.9143C192.225 84.0079 187.278 85.8399 182.116 85.7875C188.497 86.311 195.595 83.6939 199.682 80.0823C203.267 76.5755 206.923 73.1209 210.365 69.5094C207.856 71.1843 205.991 73.3303 203.84 75.3193ZM209.72 71.603C209.218 72.0218 210.15 72.5452 210.652 72.1264C211.082 71.7077 210.15 71.1843 209.72 71.603ZM207.21 74.3248C205.848 75.5286 204.701 76.7848 203.554 78.041C204.271 77.9887 204.988 77.884 205.705 77.8317C205.418 77.7793 204.844 77.6223 204.557 77.5176C204.916 77.2036 205.203 76.8895 205.561 76.5755C205.848 76.6278 206.493 76.6801 206.78 76.7325C206.35 76.5231 205.848 76.3138 205.418 76.1044C205.776 75.9997 206.493 75.8427 206.852 75.738C206.852 74.9529 207.569 74.5341 208.573 74.5341C208.071 74.4818 207.64 74.3771 207.21 74.3248ZM219.399 74.4818C218.682 74.5865 218.969 75.3716 219.686 75.1099C220.403 74.9529 220.116 74.1678 219.399 74.4818ZM198.535 78.3551C199.108 78.0934 199.108 77.884 198.606 77.6746C198.033 77.9363 197.961 78.1457 198.535 78.3551ZM200.471 80.9198C201.546 81.0245 202.048 80.7628 202.048 80.0823C202.263 80.03 202.765 79.9253 202.98 79.873C202.908 79.4019 202.908 78.9308 202.837 78.4597C202.12 79.2972 201.259 80.0823 200.471 80.9198ZM190.218 80.2917C189.501 81.4955 187.421 81.4432 186.274 82.2283C180.251 83.1181 176.308 83.3275 170.572 81.4432C170.787 81.8096 171.074 82.176 171.361 82.5947C171.576 82.49 171.791 82.333 172.078 82.2283C172.723 82.5424 173.368 82.6994 174.157 82.8041C173.942 82.9088 173.583 83.1705 173.368 83.3275C173.799 83.1705 174.157 82.9611 174.587 82.8041C177.814 84.2696 181.829 83.5892 185.342 83.7462C185.127 84.322 183.98 84.165 183.406 84.479C184.338 84.479 185.27 84.4267 186.274 84.3743C186.059 84.0603 185.987 83.7986 185.916 83.4322C187.493 83.0134 189.07 82.49 190.648 81.9666C190.003 83.5369 192.082 82.5424 193.014 82.1236C192.799 82.019 192.369 81.8096 192.082 81.7049L192.655 81.3385C192.297 80.9721 192.082 80.6057 191.867 80.187C191.437 80.187 190.576 80.2917 190.218 80.2917ZM154.081 82.9611C154.727 83.0658 154.942 82.9088 154.87 82.4377C154.225 82.333 154.01 82.49 154.081 82.9611ZM92.3484 86.468C92.3484 86.5727 92.4201 86.8344 92.4201 86.939C91.2012 87.3054 90.1974 87.9859 89.2653 88.6663C89.4804 88.771 89.9106 89.0327 90.1257 89.1374C88.7634 88.6663 88.5483 89.6608 88.1182 90.3412C87.9031 90.1842 87.688 90.0272 87.4729 89.8702C87.3295 89.9748 86.971 90.2366 86.8276 90.3412C87.0427 90.5506 87.2578 90.7076 87.4012 90.917C86.6842 91.8591 85.6087 92.6443 85.3936 93.6911C85.0351 93.9005 84.6049 94.1622 84.2464 94.3715C84.3898 94.4762 84.7483 94.7379 84.9634 94.8426C84.4615 94.9473 83.8879 95.052 83.386 95.1566C83.4577 95.3137 83.6728 95.6277 83.7445 95.7847C83.6011 95.7847 83.2426 95.8371 83.0992 95.8894C83.0275 96.3605 82.9558 96.9886 82.0954 96.7792C82.3105 97.0933 82.3105 97.4073 82.1671 97.7737C82.3822 97.9307 82.8124 98.1924 82.9558 98.3495C82.5973 98.3495 81.8086 98.4018 81.4501 98.4541C81.3067 98.9252 81.235 99.3439 81.0916 99.815C81.4501 99.815 81.8086 99.815 82.1671 99.815C82.8841 98.8729 83.6011 97.8784 84.4615 96.9362C84.1747 96.9362 83.6728 96.9362 83.4577 96.8839C83.5294 96.6222 83.6728 96.3082 83.7445 96.0464C84.0313 96.3082 84.3181 96.5699 84.6766 96.8316C86.6125 94.0575 88.9068 91.3357 91.4163 88.771C92.1333 88.5616 92.6352 88.0906 92.8503 87.5148C92.8503 87.9335 92.8503 88.3523 92.8503 88.771C93.5673 88.5093 94.2843 88.2476 95.0013 87.9859C94.6428 88.0382 93.9258 88.0906 93.4956 88.0906C93.4956 87.8812 93.5673 87.4625 93.639 87.2531C94.7862 87.3054 95.6466 86.8344 96.4352 86.2586C95.0013 86.3633 93.7107 86.4156 92.3484 86.468ZM134.507 86.5727C133.36 86.6773 133.504 87.6195 133.934 88.1429C133.719 88.0906 133.289 88.0382 133.002 88.0382L133.145 88.457C132.93 88.5093 132.5 88.614 132.285 88.6663C131.639 89.6085 130.779 90.4459 129.632 91.074C129.99 91.0217 130.779 90.917 131.209 90.8123C130.922 91.5451 129.919 91.7021 129.058 91.8591C128.27 91.4404 127.839 92.0162 127.409 92.3826C126.477 92.5919 125.473 92.8013 124.541 93.063C124.756 93.4294 124.971 93.7958 125.187 94.1622C125.975 93.9528 126.621 93.6387 126.334 92.9583C126.477 93.1153 126.836 93.4817 126.979 93.6387C127.696 93.377 128.341 93.1153 129.058 92.8013C129.273 93.063 129.56 93.3247 129.775 93.5864C130.492 93.22 131.209 92.906 131.926 92.5919C131.138 92.8013 130.349 92.9583 129.56 93.22C129.919 92.3302 130.707 91.6498 131.783 91.1787C131.568 91.0217 131.209 90.6553 130.994 90.4459C131.568 90.3412 132.787 90.0795 133.36 89.9225C133.36 90.2889 133.432 90.9693 133.432 91.3357C133.504 90.6553 133.79 90.0272 134.866 90.2366C134.221 89.8702 133.504 89.6608 132.858 89.2944C133.217 88.9804 133.647 88.7187 134.077 88.4046C134.006 88.1429 133.934 87.6195 133.862 87.3578C134.077 87.4101 134.507 87.4625 134.794 87.5148C134.579 87.0437 134.938 86.5727 135.153 86.1539C135.081 86.3633 134.723 86.5203 134.507 86.5727ZM96.7937 87.0961C97.0805 87.4101 97.7975 87.5671 98.2994 87.4101C98.5145 86.9391 96.8654 86.468 96.7937 87.0961ZM95.2881 89.8178C94.2843 90.5506 92.8503 91.1787 92.6352 92.2779C94.356 91.1264 95.7182 89.2944 98.3711 89.2944C98.0843 89.1897 97.7975 89.1374 97.5824 89.0327C96.722 89.2421 95.8616 89.3467 95.2881 89.8178ZM96.7937 90.9693C96.5069 91.1787 96.1484 91.4404 95.8616 91.7021C95.9333 91.8068 96.1484 91.9638 96.2918 92.0162C96.8654 91.6498 97.439 91.2834 98.0126 90.917C97.7258 90.9693 97.0805 90.9693 96.7937 90.9693ZM134.149 93.3247C132.858 94.3715 131.138 94.9996 129.704 95.8894C132.643 95.1566 134.651 93.5864 136.228 91.7021C135.44 92.1732 134.866 92.7489 134.149 93.3247ZM114.862 93.5341C115.866 94.2145 117.658 94.0575 118.232 94.9996C118.232 94.8426 118.232 94.5809 118.232 94.4239C119.236 94.4762 120.168 94.4762 121.171 94.5285C121.315 94.4762 121.673 94.3192 121.888 94.2145C122.82 94.3715 123.824 94.2668 124.828 94.2145C124.756 94.0051 124.613 93.5341 124.541 93.3247C121.387 93.7434 117.873 94.3192 114.862 93.5341ZM84.1747 101.961C82.1671 104.002 78.7973 105.311 75.4274 105.677L75.4991 105.887C76.5746 105.625 77.6501 105.468 78.7256 105.363C85.3936 103.322 87.7597 97.8261 91.2729 93.5341C88.5483 96.1511 86.971 99.3439 84.1747 101.961ZM76.7897 101.804C76.6463 101.699 76.4312 101.542 76.2878 101.49C75.9293 101.49 75.6425 101.647 75.4274 101.856C76.0727 103.06 73.0613 102.327 72.9179 103.479C71.1972 103.113 69.1179 103.27 68.1141 104.473C69.7632 103.427 72.7029 104.683 73.9217 103.27C74.4953 103.113 75.0689 102.903 75.6425 102.694C75.8576 103.374 76.0727 103.427 76.2878 102.851C76.7897 102.851 77.2916 102.851 77.7935 102.798C77.5784 102.641 77.2199 102.38 77.0765 102.223C77.3633 102.066 77.8652 101.699 78.0803 101.542C78.152 101.752 78.2237 102.118 78.2954 102.275C78.869 101.961 80.303 101.647 79.0841 101.124C79.8011 101.019 80.7331 101.071 81.0916 100.443C79.3709 100.077 78.2954 101.281 76.7897 101.804ZM85.8955 102.956C86.1106 102.903 86.6125 102.851 86.8993 102.851C87.1144 102.484 87.4012 102.118 87.6163 101.752C87.9031 101.856 88.4049 102.013 88.6917 102.118C88.2615 101.909 87.8314 101.752 87.4012 101.542C86.8993 102.013 86.3974 102.484 85.8955 102.956ZM40.1515 102.641C40.0798 103.531 38.7175 103.741 37.8571 104.107C36.4948 105.259 34.9174 106.462 32.8382 106.881C32.3363 107.3 31.7627 107.771 31.1174 108.085C30.974 107.98 30.6872 107.719 30.5438 107.614C30.1853 107.98 29.7551 108.347 29.1098 108.556C29.1815 108.713 29.3249 109.079 29.3966 109.236C31.4042 109.655 33.2684 107.038 34.9891 108.347C35.3476 108.137 36.1363 107.771 36.5665 107.614C36.0646 107.614 35.1325 107.666 34.7023 107.666C34.6306 107.457 34.5589 107.09 34.4872 106.933C34.774 107.038 35.3476 107.195 35.6344 107.247C35.5627 106.986 35.4193 106.462 35.3476 106.253C36.4231 106.567 37.2835 105.782 38.2873 105.677C37.7854 106.201 37.2835 106.724 36.7816 107.247C37.2118 107.143 37.642 107.038 38.0722 106.986C38.5024 106.619 38.9326 106.201 39.3628 105.834C39.1477 105.677 38.6458 105.416 38.4307 105.259C39.1477 104.84 39.8647 104.473 40.6534 104.107C40.5817 104.369 40.3666 104.84 40.2949 105.101C40.8685 104.997 41.4421 104.84 41.944 104.735C41.8006 104.63 41.4421 104.421 41.227 104.264C41.3704 104.002 41.7289 103.531 41.8723 103.27L42.5175 103.793C44.9553 103.008 47.6799 103.584 50.261 103.374C49.9742 103.217 49.4724 102.956 49.1856 102.851C46.3176 102.694 43.3062 102.537 40.51 103.165C40.4383 103.008 40.2232 102.798 40.1515 102.641ZM43.3062 105.259C39.8647 106.253 37.7137 108.661 34.4872 109.865C33.3401 110.336 31.9061 110.597 31.1174 111.382C37.5703 110.493 41.1553 104.578 47.895 105.101C47.895 104.997 47.895 104.84 47.895 104.735C46.3176 104.683 44.7402 104.84 43.3062 105.259ZM42.2308 107.195C42.3024 107.352 42.5175 107.666 42.5892 107.823C42.7326 107.247 43.2345 106.986 44.0232 106.986C44.2383 106.724 44.3817 106.515 44.5968 106.253C43.8081 106.567 43.0194 106.829 42.2308 107.195ZM35.7778 110.859C38.5741 110.964 40.2232 108.765 42.5175 107.928C42.3024 107.771 41.944 107.509 41.8006 107.352C39.9364 108.661 37.8571 109.812 35.7778 110.859ZM22.4418 111.173C18.6418 111.854 15.487 114 11.6152 114.261C11.0417 114.523 10.5398 114.785 9.96617 115.099C9.96617 115.57 9.96617 116.041 9.96617 116.564C11.4719 116.146 13.1209 115.936 14.6983 115.727C14.4115 115.517 14.1964 115.308 13.9096 115.099C14.4115 114.785 14.9851 114.471 15.487 114.209C16.1323 114.68 17.4946 115.256 17.8531 114.209C17.4946 114.261 16.7059 114.366 16.2757 114.418C16.7059 114.052 17.1361 113.685 17.5663 113.319C19.7172 112.9 21.9399 112.691 23.5173 111.382C24.4494 111.121 30.1853 110.231 28.4645 109.236C26.457 109.551 24.4494 110.44 22.4418 111.173ZM30.8306 109.498C31.1174 109.865 31.4759 109.865 31.9061 109.498C31.5476 109.132 31.1891 109.132 30.8306 109.498ZM44.4534 114.052C43.7364 114.471 43.0911 114.889 42.4458 115.308C43.3779 114.994 44.2383 114.575 45.1704 114.209C44.9553 114.209 44.5968 114.104 44.4534 114.052ZM10.6832 117.192C12.0454 117.14 13.4077 117.035 14.77 116.983C16.7059 115.884 19.2153 115.622 21.0795 114.471C17.638 115.465 14.3398 116.669 10.6832 117.192ZM18.2116 116.721C18.8569 116.774 19.5021 116.826 20.1474 116.878C19.9323 116.721 19.4304 116.407 19.2153 116.25C19.6455 116.25 20.5059 116.198 21.0078 116.146C21.1512 116.041 21.3663 115.779 21.438 115.622C20.1474 115.674 19.072 116.093 18.2116 116.721ZM42.3024 124.52C44.0232 124.258 45.6723 123.735 47.178 123.159C45.3855 123.264 43.7364 123.84 42.3024 124.52Z" fill="#F78536"/>
<path d="M205.991 66.3689C207.21 65.165 208.429 63.8565 210.222 63.019C210.652 63.2807 211.082 63.4901 211.512 63.7518C209.72 64.7986 208.357 66.4736 206.063 66.9446C206.135 67.2064 206.207 67.4157 206.278 67.6774C205.49 68.2532 204.557 68.7766 204.271 69.5617C204.127 69.3523 203.84 68.986 203.769 68.8289C203.554 69.0906 203.123 69.6664 202.98 69.9804C203.41 70.2422 203.84 70.5039 204.271 70.7656L203.339 70.5562C203.41 70.7656 203.625 71.2366 203.697 71.446C203.339 71.3937 202.98 71.289 202.622 71.2366C202.263 71.3937 201.976 71.4983 201.618 71.6554C201.833 71.8124 202.263 72.0741 202.478 72.2311C201.618 72.4405 200.757 72.5975 199.897 72.8069C199.969 72.4928 200.04 71.8647 200.112 71.5507C200.829 71.3413 201.044 70.8702 201.188 70.3992C201.403 70.3468 201.833 70.1898 202.12 70.1375C202.693 69.5094 203.267 68.8813 203.84 68.3055C203.769 67.8868 203.84 67.4157 203.912 66.997L203.984 67.6774C204.629 67.4157 205.418 66.9446 205.991 66.3689Z" fill="#F78536"/>
<path d="M11.3284 115.465C11.8303 115.151 12.1171 115.203 12.2605 115.674C11.7586 115.988 11.4718 115.936 11.3284 115.465Z" fill="#F78536"/>
<path d="M0.860367 116.355C1.00376 115.884 2.00755 115.727 2.43775 116.041C2.86794 116.669 1.00376 117.035 0.860367 116.355Z" fill="#F78536"/>
<path d="M55.7819 119.914C55.9253 119.391 57.0008 119.391 57.431 119.757C57.2876 120.228 55.9253 120.542 55.7819 119.914Z" fill="#F78536"/>
</svg>
