<svg width="463" height="294" viewBox="0 0 463 294" fill="none" xmlns="http://www.w3.org/2000/svg">
<g clip-path="url(#clip0_39_401)">
<path d="M90.1217 98.5734C80.0149 112.068 74.4 125.563 69.9081 141.307C66.5391 153.677 64.2932 168.296 67.6621 181.791C71.0311 197.535 83.3838 202.033 93.4906 211.03C106.966 222.275 112.581 239.144 126.057 250.389C138.41 259.386 155.254 263.884 167.607 269.507C197.928 284.126 230.494 297.621 264.183 293.123C302.365 287.5 336.054 266.133 343.915 226.774C349.53 195.286 352.898 162.673 351.776 130.061C350.653 96.3242 328.193 60.3382 297.873 45.7189C279.905 36.7223 261.937 34.4732 242.847 34.4732C220.387 34.4732 193.436 29.975 172.099 36.7223C150.762 42.3452 96.8596 89.5768 90.1217 98.5734Z" fill="#F3F3F3"/>
</g>
<g clip-path="url(#clip1_39_401)">
<path d="M124.139 157.306C124.139 156.866 123.904 158.478 124.139 157.906C123.968 158.437 123.642 158.905 123.203 159.25C122.764 159.594 122.232 159.8 121.676 159.84C122.648 159.84 123.58 159.454 124.267 158.768C124.955 158.081 125.341 157.149 125.341 156.178C125.341 155.206 124.955 154.275 124.267 153.588C123.58 152.901 122.648 152.515 121.676 152.515C120.856 152.518 120.05 152.73 119.335 153.13C118.619 153.529 118.017 154.104 117.585 154.8C117.143 155.563 116.901 156.425 116.881 157.306C116.881 158.277 117.268 159.209 117.955 159.896C118.642 160.583 119.575 160.968 120.547 160.968C121.519 160.968 122.451 160.583 123.139 159.896C123.826 159.209 124.212 158.277 124.212 157.306H124.139Z" fill="#51B7D4"/>
<path d="M143.36 141.498V140.369C143.36 139.398 142.974 138.466 142.286 137.78C141.599 137.093 140.667 136.707 139.695 136.707C138.723 136.707 137.79 137.093 137.103 137.78C136.415 138.466 136.029 139.398 136.029 140.369V141.498C136.029 142.469 136.415 143.401 137.103 144.088C137.79 144.774 138.723 145.16 139.695 145.16C140.667 145.16 141.599 144.774 142.286 144.088C142.974 143.401 143.36 142.469 143.36 141.498Z" fill="#51B7D4"/>
<path d="M152.861 131.095C156.761 128.165 160.793 124.898 165.558 123.55C170.088 122.276 168.167 115.214 163.608 116.489C158.168 117.954 153.623 121.426 149.166 124.766C145.442 127.565 149.093 133.923 152.861 131.095Z" fill="#51B7D4"/>
<path d="M184.926 104.489C189.647 104.489 189.647 97.1641 184.926 97.1641C180.205 97.1641 180.205 104.489 184.926 104.489Z" fill="#51B7D4"/>
<path d="M212.768 82.5279C215.143 81.1598 217.298 79.4409 219.16 77.4295C219.501 77.0889 219.771 76.6846 219.956 76.2397C220.14 75.7948 220.235 75.3179 220.235 74.8363C220.235 74.3547 220.14 73.8778 219.956 73.4328C219.771 72.9879 219.501 72.5836 219.16 72.2431C218.819 71.9025 218.415 71.6324 217.969 71.4481C217.524 71.2638 217.047 71.1689 216.565 71.1689C216.083 71.1689 215.606 71.2638 215.16 71.4481C214.715 71.6324 214.311 71.9025 213.97 72.2431C212.574 73.8261 210.918 75.159 209.073 76.1841C208.239 76.679 207.633 77.4818 207.386 78.4193C207.139 79.3568 207.271 80.3537 207.753 81.1947C208.259 82.0169 209.062 82.6127 209.996 82.8582C210.93 83.1038 211.922 82.9803 212.768 82.5133V82.5279Z" fill="#51B7D4"/>
<path d="M196.552 96.6953L197.681 95.5672C198.369 94.8794 198.756 93.9466 198.756 92.974C198.756 92.0013 198.369 91.0685 197.681 90.3808C196.993 89.693 196.059 89.3066 195.086 89.3066C194.112 89.3066 193.179 89.693 192.491 90.3808L191.362 91.5089C191.021 91.8494 190.751 92.2537 190.566 92.6987C190.382 93.1436 190.287 93.6205 190.287 94.1021C190.287 94.5837 190.382 95.0606 190.566 95.5055C190.751 95.9505 191.021 96.3547 191.362 96.6953C191.703 97.0358 192.107 97.306 192.552 97.4903C192.998 97.6746 193.475 97.7694 193.957 97.7694C194.439 97.7694 194.916 97.6746 195.361 97.4903C195.807 97.306 196.211 97.0358 196.552 96.6953Z" fill="#51B7D4"/>
<path d="M240.097 69.9136C240.669 68.7562 241.152 67.5694 241.754 66.4413C241.9 66.163 242.047 65.8846 242.223 65.6209C242.399 65.3572 242.78 64.8004 242.56 65.0788C242.34 65.3572 242.912 64.7125 242.97 64.6539C243.469 64.1265 242.648 64.8151 243.308 64.4488C244.148 63.9592 244.758 63.1563 245.006 62.2166C245.253 61.277 245.117 60.2776 244.627 59.4383C244.137 58.599 243.334 57.9885 242.393 57.7412C241.453 57.494 240.453 57.6301 239.613 58.1197C236.49 59.8485 235.214 63.1889 233.748 66.2069C233.281 67.0514 233.157 68.0433 233.403 68.9765C233.649 69.9097 234.245 70.7123 235.068 71.2175C235.91 71.6995 236.907 71.8314 237.845 71.5847C238.783 71.338 239.587 70.7325 240.082 69.8989L240.097 69.9136Z" fill="#51B7D4"/>
<path d="M265.901 48.6406C268.214 47.6415 270.368 46.3088 272.293 44.6849C272.976 43.994 273.358 43.0623 273.358 42.0917C273.358 41.121 272.976 40.1894 272.293 39.4985C271.596 38.8271 270.666 38.4519 269.698 38.4519C268.73 38.4519 267.8 38.8271 267.103 39.4985L266.663 39.8941C266.976 39.6499 266.952 39.6499 266.59 39.8941C266.15 40.1578 265.725 40.4361 265.27 40.6852C264.259 41.2566 263.232 41.7694 262.191 42.2821C261.357 42.777 260.751 43.5798 260.504 44.5173C260.258 45.4548 260.39 46.4517 260.872 47.2927C261.378 48.1149 262.181 48.7107 263.115 48.9562C264.048 49.2018 265.041 49.0783 265.886 48.6113L265.901 48.6406Z" fill="#51B7D4"/>
<path d="M305.883 29.9316H309.27C310.242 29.9316 311.174 29.5457 311.861 28.8588C312.549 28.1719 312.935 27.2403 312.935 26.2689C312.935 25.2975 312.549 24.3659 311.861 23.679C311.174 22.9921 310.242 22.6062 309.27 22.6062H305.883C304.911 22.6062 303.978 22.9921 303.291 23.679C302.604 24.3659 302.218 25.2975 302.218 26.2689C302.218 27.2403 302.604 28.1719 303.291 28.8588C303.978 29.5457 304.911 29.9316 305.883 29.9316Z" fill="#51B7D4"/>
<path d="M342.068 31.6458C339.135 31.6458 336.203 31.7776 333.828 33.8434C333.145 34.5343 332.763 35.4659 332.763 36.4366C332.763 37.4072 333.145 38.3388 333.828 39.0298C334.526 39.6978 335.456 40.0707 336.423 40.0707C337.39 40.0707 338.319 39.6978 339.018 39.0298C338.637 39.2935 338.637 39.3179 339.018 39.103C338.607 39.2691 338.607 39.2691 339.018 39.103C339.165 39.103 340.118 38.9419 339.414 39.0005C340.323 38.9272 341.217 38.9272 342.126 38.9272C343.098 38.9272 344.031 38.5413 344.718 37.8544C345.405 37.1675 345.792 36.2359 345.792 35.2645C345.792 34.2931 345.405 33.3615 344.718 32.6746C344.031 31.9877 343.098 31.6018 342.126 31.6018L342.068 31.6458Z" fill="#51B7D4"/>
<path d="M293.127 46.2673C293.127 46.2673 292.834 46.6042 292.775 46.5896L293.01 46.4138L292.79 46.5603C292.451 46.7905 292.098 47.0008 291.734 47.1903C291.661 47.1903 291.28 47.3514 291.251 47.4247C291.221 47.4979 291.94 47.1903 291.427 47.3368C291.241 47.372 291.059 47.426 290.884 47.4979C290.562 47.6884 291.778 47.4979 291.207 47.4979C290.235 47.4979 289.302 47.8838 288.615 48.5707C287.927 49.2576 287.541 50.1892 287.541 51.1606C287.541 52.1321 287.927 53.0637 288.615 53.7506C289.302 54.4375 290.235 54.8233 291.207 54.8233C293.892 54.577 296.408 53.4006 298.317 51.4976C299 50.8067 299.382 49.8751 299.382 48.9044C299.382 47.9338 299 47.0022 298.317 46.3112C297.621 45.6398 296.69 45.2646 295.722 45.2646C294.754 45.2646 293.824 45.6398 293.127 46.3112V46.2673Z" fill="#51B7D4"/>
<path d="M301.089 55.6732V59.0575C301.089 60.0289 301.475 60.9606 302.162 61.6475C302.85 62.3343 303.782 62.7202 304.754 62.7202C305.726 62.7202 306.658 62.3343 307.346 61.6475C308.033 60.9606 308.419 60.0289 308.419 59.0575V55.6732C308.419 54.7018 308.033 53.7702 307.346 53.0833C306.658 52.3964 305.726 52.0105 304.754 52.0105C303.782 52.0105 302.85 52.3964 302.162 53.0833C301.475 53.7702 301.089 54.7018 301.089 55.6732Z" fill="#51B7D4"/>
<path d="M273.261 70.1775C269.623 71.6204 266.363 73.8755 263.731 76.7703C260.388 80.1107 265.578 85.2824 268.921 81.9567C270.641 79.9402 272.79 78.3334 275.211 77.2538C276.138 76.9773 276.923 76.3535 277.401 75.5127C277.879 74.6718 278.014 73.679 277.777 72.7414C277.513 71.8063 276.891 71.0127 276.046 70.5328C275.201 70.0528 274.2 69.9252 273.261 70.1775Z" fill="#51B7D4"/>
<path d="M238.059 90.9375C242.78 90.9375 242.78 83.6121 238.059 83.6121C233.338 83.6121 233.338 90.9375 238.059 90.9375Z" fill="#51B7D4"/>
<path d="M207.255 109.881C207.255 110.071 207.255 110.277 207.255 110.467C207.255 110.657 207.255 111.229 207.255 110.467C207.314 110.125 207.314 110.047 207.255 110.233C207.196 110.418 207.275 110.247 207.49 109.72C207.738 109.34 208.071 109.024 208.463 108.795C208.855 108.566 209.295 108.431 209.747 108.401C208.775 108.401 207.843 108.787 207.156 109.474C206.468 110.161 206.082 111.093 206.082 112.064C206.082 113.035 206.468 113.967 207.156 114.654C207.843 115.341 208.775 115.727 209.747 115.727C210.576 115.718 211.389 115.495 212.106 115.079C212.823 114.663 213.42 114.068 213.838 113.353C214.372 112.251 214.614 111.03 214.542 109.808C214.542 108.836 214.156 107.905 213.468 107.218C212.781 106.531 211.848 106.145 210.876 106.145C209.904 106.145 208.972 106.531 208.285 107.218C207.597 107.905 207.211 108.836 207.211 109.808L207.255 109.881Z" fill="#51B7D4"/>
<path d="M247.09 112.987H241.431C240.459 112.987 239.527 113.373 238.839 114.06C238.152 114.747 237.766 115.678 237.766 116.65C237.766 117.621 238.152 118.553 238.839 119.24C239.527 119.927 240.459 120.312 241.431 120.312H247.09C248.062 120.312 248.995 119.927 249.682 119.24C250.37 118.553 250.756 117.621 250.756 116.65C250.756 115.678 250.37 114.747 249.682 114.06C248.995 113.373 248.062 112.987 247.09 112.987Z" fill="#51B7D4"/>
<path d="M224.218 106.482C224.218 106.922 224.453 105.31 224.218 105.881C224.389 105.35 224.715 104.883 225.154 104.538C225.593 104.193 226.125 103.988 226.681 103.947C225.709 103.947 224.777 104.333 224.09 105.02C223.402 105.707 223.016 106.639 223.016 107.61C223.016 108.582 223.402 109.513 224.09 110.2C224.777 110.887 225.709 111.273 226.681 111.273C227.501 111.269 228.307 111.058 229.022 110.658C229.738 110.258 230.34 109.683 230.772 108.987C231.216 108.22 231.458 107.353 231.476 106.467C231.476 105.496 231.09 104.564 230.402 103.877C229.715 103.191 228.783 102.805 227.81 102.805C226.838 102.805 225.906 103.191 225.219 103.877C224.531 104.564 224.145 105.496 224.145 106.467L224.218 106.482Z" fill="#51B7D4"/>
<path d="M178.87 132.238C180.104 131.534 181.23 130.656 182.213 129.63C182.594 129.249 182.975 128.854 183.386 128.488C183.386 128.488 184.251 127.828 183.664 128.224C183.944 128.038 184.233 127.867 184.53 127.711C185.364 127.216 185.97 126.413 186.217 125.476C186.463 124.538 186.331 123.542 185.849 122.7C185.346 121.875 184.543 121.277 183.608 121.031C182.673 120.786 181.679 120.911 180.835 121.382C179.57 122.079 178.414 122.957 177.404 123.99C177.023 124.371 176.642 124.766 176.231 125.132C176.231 125.132 175.366 125.792 175.953 125.396C175.673 125.582 175.384 125.753 175.087 125.909C174.253 126.404 173.647 127.207 173.4 128.144C173.154 129.082 173.286 130.078 173.768 130.92C174.271 131.745 175.074 132.343 176.009 132.589C176.944 132.834 177.938 132.709 178.782 132.238H178.87Z" fill="#51B7D4"/>
<path d="M180.732 156.515L181.172 156.119C180.859 156.363 180.884 156.363 181.245 156.119C181.685 155.855 182.11 155.577 182.565 155.328C183.577 154.757 184.603 154.244 185.644 153.731C186.478 153.236 187.084 152.433 187.331 151.496C187.578 150.558 187.446 149.561 186.963 148.72C186.458 147.898 185.655 147.302 184.721 147.057C183.787 146.811 182.794 146.935 181.949 147.402C179.636 148.401 177.483 149.734 175.557 151.358C174.874 152.048 174.492 152.98 174.492 153.951C174.492 154.921 174.874 155.853 175.557 156.544C176.254 157.215 177.184 157.59 178.152 157.59C179.12 157.59 180.05 157.215 180.747 156.544L180.732 156.515Z" fill="#51B7D4"/>
<path d="M200.745 147.416C201.645 147.369 202.529 147.161 203.355 146.801C203.705 146.656 204.062 146.529 204.425 146.42C204.543 146.42 204.938 146.215 205.056 146.274H204.645H205.261C206.233 146.274 207.165 145.888 207.853 145.201C208.54 144.514 208.926 143.582 208.926 142.611C208.926 141.64 208.54 140.708 207.853 140.021C207.165 139.334 206.233 138.948 205.261 138.948C204.086 138.961 202.922 139.169 201.815 139.564L200.848 139.944C200.716 139.944 200.555 140.032 200.423 140.091C199.88 140.355 201.361 140.091 200.745 140.091C199.773 140.091 198.841 140.477 198.153 141.164C197.466 141.851 197.08 142.782 197.08 143.754C197.08 144.725 197.466 145.657 198.153 146.344C198.841 147.031 199.773 147.416 200.745 147.416Z" fill="#51B7D4"/>
<path d="M227.884 144.032C232.605 144.032 232.605 136.707 227.884 136.707C223.163 136.707 223.163 144.032 227.884 144.032Z" fill="#51B7D4"/>
<path d="M145.354 165.554C150.075 165.554 150.075 158.229 145.354 158.229C140.633 158.229 140.633 165.554 145.354 165.554Z" fill="#51B7D4"/>
<path d="M146.204 179.912V183.296C146.204 184.268 146.591 185.199 147.278 185.886C147.965 186.573 148.898 186.959 149.87 186.959C150.842 186.959 151.774 186.573 152.462 185.886C153.149 185.199 153.535 184.268 153.535 183.296V179.912C153.535 178.941 153.149 178.009 152.462 177.322C151.774 176.635 150.842 176.249 149.87 176.249C148.898 176.249 147.965 176.635 147.278 177.322C146.591 178.009 146.204 178.941 146.204 179.912Z" fill="#51B7D4"/>
<path d="M177.404 183.619C179.471 181.509 180.996 178.96 183.063 176.835C186.362 173.451 181.172 168.265 177.873 171.649C175.806 173.759 174.281 176.308 172.214 178.432C168.915 181.816 174.105 187.003 177.404 183.619Z" fill="#51B7D4"/>
<path d="M210.129 171.195C211.924 169.574 213.962 168.245 216.169 167.254C216.585 167.011 216.949 166.689 217.24 166.306C217.532 165.923 217.745 165.487 217.867 165.021C217.99 164.556 218.02 164.071 217.955 163.594C217.89 163.118 217.731 162.659 217.489 162.243C217.246 161.827 216.924 161.464 216.541 161.172C216.157 160.881 215.72 160.668 215.255 160.546C214.789 160.423 214.304 160.394 213.827 160.459C213.35 160.524 212.89 160.682 212.474 160.924C209.717 162.223 207.18 163.943 204.953 166.023C201.566 169.319 206.756 174.491 210.143 171.209L210.129 171.195Z" fill="#51B7D4"/>
<path d="M235.786 159.84C237.317 159.763 238.763 159.12 239.847 158.038C240.93 156.955 241.573 155.509 241.651 153.98C241.643 153.011 241.255 152.084 240.569 151.399C239.883 150.713 238.955 150.325 237.986 150.317C237.02 150.34 236.101 150.733 235.418 151.415C234.736 152.097 234.343 153.016 234.32 153.98C234.437 153.375 234.437 153.213 234.32 153.497C234.203 153.78 234.262 153.648 234.496 153.101C234.218 153.643 234.936 152.662 234.628 152.94C234.32 153.218 235.405 152.5 234.789 152.808L235.288 152.603C234.907 152.701 235.034 152.701 235.669 152.603C234.697 152.603 233.765 152.989 233.077 153.676C232.39 154.363 232.004 155.294 232.004 156.266C232.004 157.237 232.39 158.169 233.077 158.856C233.765 159.542 234.697 159.928 235.669 159.928L235.786 159.84Z" fill="#51B7D4"/>
<path d="M257.602 139.564L258.731 138.435C259.28 137.728 259.551 136.844 259.492 135.95C259.433 135.057 259.049 134.216 258.412 133.586C257.775 132.957 256.929 132.582 256.034 132.534C255.139 132.485 254.258 132.766 253.556 133.322L252.427 134.45C251.739 135.138 251.352 136.071 251.352 137.044C251.352 138.016 251.739 138.949 252.427 139.637C253.115 140.325 254.049 140.711 255.022 140.711C255.995 140.711 256.929 140.325 257.617 139.637L257.602 139.564Z" fill="#51B7D4"/>
<path d="M277.894 120.034C277.777 120.669 277.777 120.796 277.894 120.415C278.011 120.034 277.962 120.142 277.747 120.737C277.868 120.591 277.966 120.428 278.041 120.254C278.207 120.029 278.173 120.068 277.938 120.371C277.703 120.674 277.664 120.728 277.821 120.532C277.88 120.479 277.934 120.42 277.982 120.356C278.668 119.657 279.048 118.714 279.039 117.734C279.029 116.755 278.631 115.819 277.931 115.133C277.231 114.448 276.287 114.068 275.307 114.077C274.326 114.087 273.39 114.485 272.704 115.185C271.401 116.477 270.618 118.203 270.505 120.034C270.512 121.003 270.901 121.93 271.587 122.616C272.272 123.301 273.2 123.689 274.17 123.697C275.135 123.674 276.054 123.281 276.737 122.599C277.42 121.917 277.813 120.998 277.835 120.034H277.894Z" fill="#51B7D4"/>
<path d="M262.925 109.002C267.646 109.002 267.646 101.677 262.925 101.677C258.204 101.677 258.204 109.002 262.925 109.002Z" fill="#51B7D4"/>
<path d="M295.488 97.0324C295.737 96.5489 296.001 96.0654 296.294 95.5673L296.705 94.9666L296.866 94.7468L296.69 94.9666C296.91 94.9666 297.262 94.3073 297.423 94.1462L298.318 93.2378C299.006 92.5501 299.393 91.6173 299.393 90.6446C299.393 89.672 299.006 88.7392 298.318 88.0514C297.629 87.3637 296.696 86.9773 295.723 86.9773C294.749 86.9773 293.816 87.3637 293.127 88.0514C291.54 89.586 290.204 91.3609 289.169 93.3111C288.679 94.1504 288.543 95.1498 288.79 96.0894C289.038 97.0291 289.649 97.8321 290.488 98.3216C291.328 98.8112 292.328 98.9474 293.269 98.7001C294.209 98.4528 295.013 97.8424 295.503 97.0031L295.488 97.0324Z" fill="#51B7D4"/>
<path d="M295.708 85.2823C298.769 85.2191 301.701 84.0358 303.947 81.9566C304.63 81.2657 305.012 80.3341 305.012 79.3634C305.012 78.3927 304.63 77.4611 303.947 76.7702C303.251 76.0988 302.32 75.7236 301.352 75.7236C300.384 75.7236 299.454 76.0988 298.757 76.7702C298.464 77.0339 298.464 77.0339 298.757 76.7702L298.2 77.1511C297.892 77.3478 297.568 77.5193 297.232 77.6639C297.746 77.4588 296.631 77.8104 296.646 77.8104L295.869 77.9716C296.182 77.913 296.108 77.913 295.649 77.9716C294.677 77.9716 293.745 78.3575 293.057 79.0444C292.37 79.7313 291.984 80.6629 291.984 81.6343C291.984 82.6057 292.37 83.5373 293.057 84.2242C293.745 84.9111 294.677 85.297 295.649 85.297L295.708 85.2823Z" fill="#51B7D4"/>
<path d="M322.04 77.4295C324.163 75.3919 326.58 73.6832 329.209 72.3603C330.049 71.8668 330.658 71.0601 330.903 70.1177C331.148 69.1753 331.008 68.1744 330.514 67.3351C330.02 66.4958 329.213 65.8869 328.27 65.6423C327.327 65.3978 326.325 65.5377 325.485 66.0311C322.31 67.6681 319.395 69.7665 316.835 72.2577C313.448 75.5542 318.638 80.7259 322.025 77.4441L322.04 77.4295Z" fill="#51B7D4"/>
<path d="M346.583 63.8191H349.97C350.942 63.8191 351.874 63.4332 352.562 62.7463C353.249 62.0594 353.635 61.1278 353.635 60.1564C353.635 59.1849 353.249 58.2533 352.562 57.5664C351.874 56.8795 350.942 56.4937 349.97 56.4937H346.583C345.611 56.4937 344.679 56.8795 343.991 57.5664C343.304 58.2533 342.918 59.1849 342.918 60.1564C342.918 61.1278 343.304 62.0594 343.991 62.7463C344.679 63.4332 345.611 63.8191 346.583 63.8191Z" fill="#51B7D4"/>
<path d="M370.599 46.6041V45.8863C370.599 45.8863 370.423 46.7214 370.599 45.8863L370.672 45.6518C370.789 45.3491 370.789 45.3491 370.672 45.6518C370.555 45.9546 370.555 45.9546 370.672 45.6518L370.877 45.3295C370.98 45.0365 370.408 45.7397 370.877 45.3295C371.039 45.1977 371.669 44.7728 371.024 45.1537L371.845 44.6556C372.475 44.2893 371.478 44.7581 372.285 44.4798C373.222 44.2214 374.018 43.6016 374.498 42.7567C374.978 41.9118 375.102 40.9111 374.843 39.9747C374.585 39.0382 373.964 38.2428 373.119 37.7633C372.273 37.2839 371.272 37.1597 370.335 37.4181C366.171 38.8832 363.209 42.0331 363.121 46.6041C363.121 47.5756 363.508 48.5072 364.195 49.1941C364.882 49.881 365.815 50.2668 366.787 50.2668C367.759 50.2668 368.691 49.881 369.379 49.1941C370.066 48.5072 370.452 47.5756 370.452 46.6041H370.599Z" fill="#51B7D4"/>
<path d="M398.177 31.6897C400.489 30.6893 402.643 29.3566 404.569 27.7339C405.252 27.043 405.634 26.1114 405.634 25.1408C405.634 24.1701 405.252 23.2385 404.569 22.5476C403.873 21.8761 402.942 21.501 401.974 21.501C401.006 21.501 400.076 21.8761 399.379 22.5476L398.939 22.9431C399.252 22.699 399.228 22.699 398.866 22.9431C398.426 23.2068 398.001 23.4852 397.547 23.7343C396.535 24.3057 395.509 24.8184 394.468 25.3312C393.633 25.8261 393.027 26.6289 392.781 27.5664C392.534 28.5038 392.666 29.5007 393.148 30.3418C393.654 31.1639 394.457 31.7597 395.391 32.0053C396.325 32.2509 397.317 32.1273 398.162 31.6604L398.177 31.6897Z" fill="#51B7D4"/>
<path d="M371.449 27.6755H373.707C374.679 27.6755 375.611 27.2896 376.299 26.6027C376.986 25.9158 377.372 24.9842 377.372 24.0128C377.372 23.0414 376.986 22.1098 376.299 21.4229C375.611 20.736 374.679 20.3501 373.707 20.3501H371.449C370.477 20.3501 369.545 20.736 368.857 21.4229C368.17 22.1098 367.784 23.0414 367.784 24.0128C367.784 24.9842 368.17 25.9158 368.857 26.6027C369.545 27.2896 370.477 27.6755 371.449 27.6755Z" fill="#51B7D4"/>
<path d="M340.704 25.8587C342.654 23.0311 345.615 21.0679 348.035 18.6945C351.407 15.3834 346.231 10.2116 342.844 13.5081C339.912 16.4382 336.716 18.7384 334.355 22.152C333.873 22.9931 333.741 23.99 333.988 24.9275C334.235 25.8649 334.841 26.6678 335.675 27.1626C336.519 27.6333 337.513 27.7589 338.448 27.513C339.383 27.2672 340.186 26.669 340.689 25.844L340.704 25.8587Z" fill="#51B7D4"/>
<path d="M310.135 43.2052V52.2447C310.135 56.9623 317.466 56.9623 317.466 52.2447V43.2052C317.466 38.4876 310.135 38.4876 310.135 43.2052Z" fill="#51B7D4"/>
<path d="M419.319 20.9507C425.545 14.1798 433.635 9.39877 442.572 7.20823C447.117 5.99221 445.197 -1.08412 440.622 0.146544C430.682 2.81299 420.976 7.97007 414.129 15.779C411.035 19.3098 416.196 24.5694 419.319 20.9653V20.9507Z" fill="#51B7D4"/>
<path d="M290.298 29.6533V27.3971C290.298 26.4257 289.911 25.494 289.224 24.8072C288.537 24.1203 287.604 23.7344 286.632 23.7344C285.66 23.7344 284.728 24.1203 284.04 24.8072C283.353 25.494 282.967 26.4257 282.967 27.3971V29.6533C282.967 30.6247 283.353 31.5563 284.04 32.2432C284.728 32.9301 285.66 33.316 286.632 33.316C287.604 33.316 288.537 32.9301 289.224 32.2432C289.911 31.5563 290.298 30.6247 290.298 29.6533Z" fill="#51B7D4"/>
<path d="M407.59 40.6854C404.994 40.6229 402.42 41.1804 400.083 42.3116C399.246 42.8038 398.637 43.6067 398.39 44.5453C398.143 45.4839 398.277 46.4821 398.763 47.3222C399.269 48.1444 400.072 48.7402 401.006 48.9857C401.94 49.2313 402.933 49.1078 403.778 48.6408C404.218 48.4454 404.296 48.4015 404.012 48.5089L404.672 48.2745C404.775 48.2745 405.904 47.9522 405.405 48.0694C404.907 48.1866 406.036 48.0694 406.153 48.0694H407.619C408.591 48.0694 409.523 47.6835 410.211 46.9966C410.898 46.3097 411.284 45.3781 411.284 44.4067C411.284 43.4353 410.898 42.5037 410.211 41.8168C409.523 41.1299 408.591 40.744 407.619 40.744L407.59 40.6854Z" fill="#51B7D4"/>
<path d="M378.267 64.947C382.988 64.947 382.988 57.6216 378.267 57.6216C373.546 57.6216 373.546 64.947 378.267 64.947Z" fill="#51B7D4"/>
<path d="M354.808 82.7478C354.808 82.6306 354.808 82.5085 354.808 82.3815C354.808 82.0885 354.808 82.2252 354.808 82.7917C354.808 82.7917 354.97 82.191 354.955 82.1764C355.043 82.3961 354.442 82.9089 354.867 82.4108C355.292 81.9127 354.456 82.7624 354.764 82.4987C355.072 82.235 355.014 82.2496 355.131 82.1324C355.629 81.6197 354.442 82.5427 355.131 82.1324C355.82 81.7222 356.011 81.605 356.465 81.3706C357.299 80.8757 357.905 80.0729 358.152 79.1354C358.399 78.198 358.267 77.2011 357.785 76.36C357.279 75.5379 356.476 74.9421 355.542 74.6965C354.608 74.4509 353.615 74.5745 352.77 75.0414C351.236 75.6762 349.92 76.7423 348.98 78.1102C348.041 79.4781 347.519 81.0892 347.478 82.7478C347.478 83.7192 347.864 84.6508 348.551 85.3377C349.238 86.0246 350.171 86.4105 351.143 86.4105C352.115 86.4105 353.047 86.0246 353.735 85.3377C354.422 84.6508 354.808 83.7192 354.808 82.7478Z" fill="#51B7D4"/>
<path d="M320.588 102.233H324.019C324.991 102.233 325.924 101.847 326.611 101.161C327.298 100.474 327.685 99.5421 327.685 98.5707C327.685 97.5993 327.298 96.6676 326.611 95.9807C325.924 95.2938 324.991 94.908 324.019 94.908H320.632C319.66 94.908 318.728 95.2938 318.041 95.9807C317.353 96.6676 316.967 97.5993 316.967 98.5707C316.967 99.5421 317.353 100.474 318.041 101.161C318.728 101.847 319.66 102.233 320.632 102.233H320.588Z" fill="#51B7D4"/>
<path d="M297.966 117.5C297.078 117.513 296.21 117.755 295.444 118.203C294.764 118.646 294.205 119.252 293.819 119.966C293.432 120.68 293.23 121.479 293.23 122.29C293.234 123.261 293.621 124.19 294.308 124.876C294.994 125.562 295.924 125.949 296.895 125.953C297.86 125.931 298.78 125.538 299.462 124.856C300.145 124.173 300.538 123.255 300.561 122.29C300.522 122.847 300.317 123.38 299.972 123.819C299.627 124.257 299.158 124.583 298.625 124.752C299.183 124.591 297.526 124.825 298.024 124.752C298.996 124.752 299.929 124.366 300.616 123.679C301.303 122.992 301.69 122.06 301.69 121.089C301.69 120.118 301.303 119.186 300.616 118.499C299.929 117.812 298.996 117.426 298.024 117.426L297.966 117.5Z" fill="#51B7D4"/>
<path d="M273.437 147.475L273.041 147.753L273.232 147.622C273.515 147.475 273.515 147.475 273.232 147.622C272.948 147.768 272.914 147.768 273.129 147.622C273.49 147.558 273.847 147.475 274.199 147.373C274.023 147.373 273.437 147.373 273.935 147.373H274.39H275.358C276.33 147.373 277.262 146.987 277.949 146.3C278.637 145.613 279.023 144.681 279.023 143.71C279.023 142.738 278.637 141.807 277.949 141.12C277.262 140.433 276.33 140.047 275.358 140.047C272.793 139.846 270.249 140.632 268.247 142.245C267.564 142.936 267.182 143.867 267.182 144.838C267.182 145.809 267.564 146.74 268.247 147.431C268.945 148.099 269.875 148.472 270.842 148.472C271.809 148.472 272.738 148.099 273.437 147.431V147.475Z" fill="#51B7D4"/>
<path d="M241.167 169.744V170.872C241.167 171.844 241.553 172.775 242.241 173.462C242.928 174.149 243.86 174.535 244.832 174.535C245.804 174.535 246.737 174.149 247.424 173.462C248.112 172.775 248.498 171.844 248.498 170.872V169.744C248.498 168.773 248.112 167.841 247.424 167.154C246.737 166.467 245.804 166.082 244.832 166.082C243.86 166.082 242.928 166.467 242.241 167.154C241.553 167.841 241.167 168.773 241.167 169.744Z" fill="#51B7D4"/>
<path d="M201.156 186.915C197.886 189.025 194.25 190.446 190.981 192.555C187.037 195.105 190.702 201.449 194.675 198.885C197.945 196.775 201.581 195.354 204.85 193.244C208.794 190.695 205.129 184.351 201.156 186.915Z" fill="#51B7D4"/>
<path d="M223.089 186.681C223.089 186.944 223.089 187.208 223.089 187.472C223.089 187.076 223.089 187.472 223.089 187.662C222.957 188.204 222.811 188.746 222.664 189.288C222.347 190.273 222.145 191.29 222.063 192.321C222.071 193.29 222.459 194.217 223.145 194.903C223.831 195.588 224.759 195.976 225.728 195.984C226.693 195.961 227.613 195.568 228.295 194.886C228.978 194.204 229.371 193.285 229.394 192.321C229.394 192.526 229.218 193.112 229.394 192.599C229.394 192.409 229.482 192.219 229.54 192.043C229.672 191.545 229.834 191.046 229.966 190.578C230.317 189.316 230.519 188.018 230.567 186.71C230.559 185.741 230.17 184.814 229.485 184.128C228.799 183.443 227.871 183.055 226.901 183.047C225.935 183.066 225.014 183.458 224.33 184.141C223.647 184.824 223.255 185.744 223.236 186.71L223.089 186.681Z" fill="#51B7D4"/>
<path d="M188.312 220.846C191.277 220.96 194.228 220.404 196.948 219.22C197.782 218.725 198.388 217.922 198.635 216.985C198.882 216.047 198.75 215.05 198.267 214.209C197.762 213.387 196.959 212.791 196.025 212.546C195.091 212.3 194.098 212.424 193.253 212.891C191.671 213.457 189.985 213.672 188.312 213.521C183.591 213.521 183.591 220.846 188.312 220.846Z" fill="#51B7D4"/>
<path d="M166.261 204.467H170.22C171.192 204.467 172.124 204.081 172.812 203.394C173.499 202.707 173.885 201.775 173.885 200.804C173.885 199.833 173.499 198.901 172.812 198.214C172.124 197.527 171.192 197.141 170.22 197.141H166.261C165.289 197.141 164.357 197.527 163.67 198.214C162.982 198.901 162.596 199.833 162.596 200.804C162.596 201.775 162.982 202.707 163.67 203.394C164.357 204.081 165.289 204.467 166.261 204.467Z" fill="#51B7D4"/>
<path d="M221.095 223.102H226.183C227.155 223.102 228.087 222.717 228.775 222.03C229.462 221.343 229.848 220.411 229.848 219.44C229.848 218.468 229.462 217.537 228.775 216.85C228.087 216.163 227.155 215.777 226.183 215.777H221.095C220.123 215.777 219.191 216.163 218.503 216.85C217.816 217.537 217.43 218.468 217.43 219.44C217.43 220.411 217.816 221.343 218.503 222.03C219.191 222.717 220.123 223.102 221.095 223.102Z" fill="#51B7D4"/>
<path d="M241.284 206.034L248.058 204.335C248.522 204.207 248.956 203.989 249.336 203.693C249.716 203.397 250.033 203.03 250.271 202.612C250.508 202.193 250.661 201.732 250.72 201.255C250.78 200.778 250.744 200.293 250.616 199.83C250.488 199.366 250.27 198.932 249.974 198.553C249.678 198.173 249.311 197.856 248.892 197.618C248.473 197.381 248.012 197.228 247.534 197.169C247.057 197.11 246.572 197.145 246.108 197.273L239.334 198.973C238.87 199.101 238.436 199.319 238.056 199.614C237.677 199.91 237.359 200.277 237.121 200.696C236.884 201.114 236.731 201.575 236.672 202.052C236.612 202.53 236.648 203.014 236.776 203.478C236.904 203.941 237.122 204.375 237.418 204.755C237.714 205.134 238.082 205.452 238.5 205.689C238.919 205.926 239.38 206.079 239.858 206.138C240.336 206.198 240.82 206.162 241.284 206.034Z" fill="#51B7D4"/>
<path d="M256.576 191.34C258.688 190.841 260.579 190.885 262.793 190.211C263.73 189.953 264.526 189.333 265.006 188.488C265.485 187.644 265.61 186.643 265.351 185.706C265.093 184.77 264.472 183.974 263.627 183.495C262.781 183.016 261.78 182.891 260.843 183.15C258.746 183.794 256.943 183.736 254.626 184.278C253.689 184.536 252.893 185.156 252.413 186.001C251.934 186.846 251.809 187.847 252.068 188.783C252.326 189.719 252.947 190.515 253.792 190.994C254.638 191.474 255.639 191.598 256.576 191.34Z" fill="#51B7D4"/>
<path d="M278.569 172.323L280.269 170.623C280.61 170.283 280.88 169.878 281.065 169.434C281.249 168.989 281.344 168.512 281.344 168.03C281.344 167.549 281.249 167.072 281.065 166.627C280.88 166.182 280.61 165.777 280.269 165.437C279.929 165.096 279.524 164.826 279.079 164.642C278.633 164.458 278.156 164.363 277.674 164.363C277.192 164.363 276.715 164.458 276.27 164.642C275.825 164.826 275.42 165.096 275.079 165.437L273.378 167.136C273.038 167.477 272.767 167.881 272.583 168.326C272.398 168.771 272.303 169.248 272.303 169.73C272.303 170.211 272.398 170.688 272.583 171.133C272.767 171.578 273.038 171.982 273.378 172.323C273.719 172.663 274.124 172.933 274.569 173.118C275.014 173.302 275.492 173.397 275.973 173.397C276.455 173.397 276.933 173.302 277.378 173.118C277.823 172.933 278.228 172.663 278.569 172.323Z" fill="#51B7D4"/>
<path d="M300.077 157.452C301.543 156.983 303.112 156.793 304.607 156.324C305.071 156.196 305.506 155.978 305.885 155.682C306.265 155.387 306.583 155.019 306.82 154.601C307.058 154.183 307.211 153.722 307.27 153.244C307.329 152.767 307.294 152.283 307.166 151.819C307.038 151.355 306.82 150.921 306.524 150.542C306.228 150.162 305.86 149.845 305.441 149.608C305.023 149.37 304.561 149.217 304.084 149.158C303.606 149.099 303.121 149.134 302.657 149.262C301.191 149.731 299.622 149.922 298.142 150.39C297.678 150.518 297.243 150.736 296.864 151.032C296.484 151.328 296.166 151.695 295.929 152.113C295.691 152.532 295.538 152.993 295.479 153.47C295.42 153.948 295.455 154.432 295.583 154.896C295.711 155.359 295.929 155.793 296.225 156.173C296.521 156.552 296.889 156.869 297.308 157.107C297.726 157.344 298.188 157.497 298.665 157.556C299.143 157.615 299.628 157.58 300.092 157.452H300.077Z" fill="#51B7D4"/>
<path d="M329.341 135.285C329.341 135.139 329.341 134.992 329.341 134.846C329.341 134.113 329.195 135.461 329.341 135.066C329.341 134.934 329.341 134.787 329.444 134.641C329.576 134.143 329.678 134.524 329.327 134.831C329.407 134.719 329.471 134.596 329.517 134.465C329.722 134.04 329.415 134.612 329.312 134.714C329.722 134.26 328.74 135.007 329.121 134.817C329.502 134.626 329.81 134.524 328.945 134.817C329.846 134.531 330.605 133.918 331.073 133.098C331.54 132.277 331.681 131.311 331.467 130.392C331.206 129.454 330.586 128.656 329.741 128.17C328.896 127.685 327.894 127.552 326.951 127.799C325.3 128.327 323.905 129.449 323.037 130.949C322.335 132.307 321.977 133.816 321.996 135.344C321.996 136.315 322.382 137.247 323.069 137.934C323.757 138.621 324.689 139.007 325.661 139.007C326.633 139.007 327.566 138.621 328.253 137.934C328.94 137.247 329.327 136.315 329.327 135.344L329.341 135.285Z" fill="#51B7D4"/>
<path d="M340.939 117.485C342.784 117.424 344.529 116.634 345.792 115.287C346.132 114.947 346.403 114.542 346.587 114.097C346.772 113.652 346.866 113.176 346.866 112.694C346.866 112.212 346.772 111.735 346.587 111.291C346.403 110.846 346.132 110.441 345.792 110.101C345.451 109.76 345.046 109.49 344.601 109.306C344.156 109.121 343.678 109.027 343.196 109.027C342.715 109.027 342.237 109.121 341.792 109.306C341.347 109.49 340.942 109.76 340.601 110.101L340.264 110.423C340.044 110.628 339.678 110.76 340.499 110.262C340.088 110.511 340.748 110.174 340.851 110.145C340.132 110.335 341.789 110.145 340.924 110.145C339.952 110.145 339.02 110.531 338.332 111.217C337.645 111.904 337.259 112.836 337.259 113.807C337.259 114.779 337.645 115.71 338.332 116.397C339.02 117.084 339.952 117.47 340.924 117.47L340.939 117.485Z" fill="#51B7D4"/>
<path d="M367.769 102.556C367.769 101.721 367.593 103.01 367.769 102.556C368.062 101.794 367.652 102.556 367.681 102.629L367.798 102.424C367.974 102.16 367.974 102.16 367.798 102.424C367.622 102.688 367.622 102.717 367.798 102.512L368.033 102.248L368.385 101.911C368.957 101.354 367.93 102.219 368.385 101.911L369.528 101.12C370.368 100.63 370.979 99.8274 371.227 98.8878C371.474 97.9481 371.338 96.9487 370.848 96.1094C370.358 95.2701 369.554 94.6597 368.614 94.4124C367.674 94.1651 366.674 94.3012 365.834 94.7908C364.645 95.5042 363.56 96.3767 362.608 97.384C361.279 98.7868 360.508 100.625 360.438 102.556C360.446 103.525 360.835 104.452 361.52 105.137C362.206 105.822 363.134 106.211 364.104 106.218C365.07 106.2 365.991 105.808 366.675 105.125C367.358 104.442 367.75 103.521 367.769 102.556Z" fill="#51B7D4"/>
<path d="M382.768 85.8536C384.576 85.8966 386.37 85.531 388.017 84.7841C388.854 84.292 389.462 83.4891 389.709 82.5505C389.956 81.6119 389.822 80.6137 389.336 79.7736C388.828 78.9542 388.025 78.3607 387.092 78.1154C386.159 77.8701 385.168 77.9917 384.322 78.455C385.114 78.0887 384.322 78.455 384.161 78.455C383.501 78.6601 384.659 78.455 384.161 78.455H382.694C381.722 78.455 380.79 78.8409 380.103 79.5278C379.415 80.2147 379.029 81.1463 379.029 82.1177C379.029 83.0891 379.415 84.0207 380.103 84.7076C380.79 85.3945 381.722 85.7804 382.694 85.7804L382.768 85.8536Z" fill="#51B7D4"/>
<path d="M404.012 75.7447L405.713 74.0452C406.401 73.3574 406.788 72.4246 406.788 71.452C406.788 70.4794 406.401 69.5466 405.713 68.8588C405.372 68.5183 404.968 68.2481 404.522 68.0638C404.077 67.8795 403.6 67.7847 403.118 67.7847C402.144 67.7847 401.211 68.171 400.523 68.8588L398.793 70.5583C398.104 71.2461 397.718 72.1789 397.718 73.1515C397.718 74.1241 398.104 75.0569 398.793 75.7447C399.481 76.4324 400.414 76.8188 401.388 76.8188C402.361 76.8188 403.295 76.4324 403.983 75.7447H404.012Z" fill="#51B7D4"/>
<path d="M424.597 59.3064C425.245 59.2692 425.885 59.1511 426.503 58.9548L427.089 58.7644C427.471 58.6472 428.086 58.6472 426.855 58.7644C427.827 58.7644 428.759 58.3785 429.447 57.6916C430.134 57.0047 430.52 56.0731 430.52 55.1017C430.52 54.1303 430.134 53.1986 429.447 52.5117C428.759 51.8249 427.827 51.439 426.855 51.439C426.207 51.4762 425.567 51.5943 424.949 51.7906L424.362 51.981C423.981 52.0982 423.365 52.0982 424.597 51.981C423.625 51.981 422.693 52.3669 422.005 53.0538C421.318 53.7407 420.932 54.6723 420.932 55.6437C420.932 56.6152 421.318 57.5468 422.005 58.2337C422.693 58.9206 423.625 59.3064 424.597 59.3064Z" fill="#51B7D4"/>
<path d="M444.713 42.2382L445.167 41.6082C445.475 41.1687 444.815 42.0038 445.167 41.6082C445.519 41.2126 445.856 40.8024 446.208 40.4068C446.809 39.7475 447.44 39.1029 448.085 38.4729C448.773 37.7852 449.16 36.8524 449.16 35.8797C449.16 34.9071 448.773 33.9743 448.085 33.2865C447.397 32.5988 446.463 32.2124 445.49 32.2124C444.516 32.2124 443.583 32.5988 442.895 33.2865C441.229 34.8955 439.717 36.6563 438.379 38.5462C437.893 39.3863 437.759 40.3845 438.006 41.3231C438.253 42.2617 438.861 43.0646 439.698 43.5568C440.544 44.0237 441.536 44.1473 442.47 43.9017C443.404 43.6561 444.207 43.0603 444.713 42.2382Z" fill="#51B7D4"/>
<path d="M434.2 28.2321C438.921 28.2321 438.921 20.9067 434.2 20.9067C429.479 20.9067 429.479 28.2321 434.2 28.2321Z" fill="#51B7D4"/>
<path d="M468.274 21.522C472.438 19.4416 476.616 17.3466 480.971 15.6617C485.325 13.9769 483.434 6.87123 479.021 8.60003C474.065 10.5046 469.315 12.8195 464.579 15.1782C460.356 17.288 464.066 23.6025 468.274 21.5074V21.522Z" fill="#51B7D4"/>
<path d="M244.598 44.1137C244.964 43.7474 245.346 43.3958 245.727 43.0588L246.299 42.59L246.577 42.3702C246.352 42.546 246.352 42.546 246.577 42.3702C247.369 41.7988 248.175 41.2568 248.982 40.7147C249.398 40.4723 249.762 40.1504 250.053 39.7674C250.344 39.3844 250.557 38.9478 250.68 38.4825C250.802 38.0172 250.832 37.5324 250.767 37.0557C250.702 36.5789 250.544 36.1197 250.301 35.7041C250.059 35.2885 249.736 34.9248 249.353 34.6336C248.97 34.3424 248.533 34.1295 248.067 34.0071C247.602 33.8847 247.117 33.8551 246.639 33.92C246.162 33.9849 245.703 34.1431 245.287 34.3855C243.194 35.7071 241.231 37.2228 239.422 38.9126C239.082 39.2532 238.811 39.6575 238.627 40.1024C238.442 40.5473 238.347 41.0242 238.347 41.5058C238.347 41.9874 238.442 42.4643 238.627 42.9093C238.811 43.3542 239.082 43.7585 239.422 44.099C239.763 44.4396 240.168 44.7097 240.613 44.894C241.058 45.0783 241.535 45.1732 242.017 45.1732C242.499 45.1732 242.977 45.0783 243.422 44.894C243.867 44.7097 244.272 44.4396 244.612 44.099L244.598 44.1137Z" fill="#51B7D4"/>
<path d="M267.03 30.5615C269.493 28.7741 272.323 27.6314 274.947 26.0491C279.008 23.661 275.328 17.2586 271.252 19.7199C268.628 21.2583 265.813 22.4596 263.335 24.2324C262.515 24.7401 261.921 25.5427 261.676 26.4748C261.43 27.407 261.552 28.3977 262.016 29.243C262.511 30.0765 263.314 30.6821 264.252 30.9288C265.191 31.1755 266.188 31.0436 267.03 30.5615Z" fill="#51B7D4"/>
<path d="M303.214 18.1378C305.956 16.409 307.891 13.6107 310.545 11.9259C311.385 11.4363 311.996 10.6333 312.243 9.69368C312.491 8.75401 312.355 7.7546 311.865 6.9153C311.375 6.07601 310.571 5.46557 309.631 5.21829C308.69 4.97101 307.69 5.10714 306.85 5.59673C304.109 7.32553 302.173 10.1238 299.52 11.8087C298.68 12.2983 298.069 13.1012 297.821 14.0409C297.574 14.9805 297.71 15.9799 298.2 16.8192C298.69 17.6585 299.494 18.269 300.434 18.5163C301.374 18.7635 302.374 18.6274 303.214 18.1378Z" fill="#51B7D4"/>
<path d="M321.864 20.394C322.859 19.6957 323.791 18.9113 324.649 18.0499L325.602 17.0976L326.16 16.5995C326.717 16.0721 325.69 16.9218 326.38 16.4383C326.795 16.1959 327.159 15.874 327.451 15.491C327.742 15.108 327.955 14.6714 328.078 14.2061C328.2 13.7408 328.23 13.256 328.165 12.7793C328.1 12.3026 327.942 11.8433 327.699 11.4277C327.456 11.0122 327.134 10.6484 326.751 10.3572C326.368 10.0661 325.931 9.85317 325.465 9.73073C325 9.60829 324.514 9.57869 324.037 9.64363C323.56 9.70856 323.101 9.86675 322.685 10.1092C321.689 10.8074 320.757 11.5918 319.899 12.4533L318.946 13.4056L318.389 13.9184C317.832 14.4458 318.858 13.5961 318.169 14.0795C317.753 14.322 317.389 14.6439 317.098 15.0269C316.806 15.4099 316.593 15.8465 316.471 16.3117C316.348 16.777 316.319 17.2619 316.384 17.7386C316.449 18.2153 316.607 18.6745 316.85 19.0901C317.092 19.5057 317.414 19.8695 317.798 20.1606C318.181 20.4518 318.618 20.6647 319.083 20.7871C319.549 20.9096 320.034 20.9392 320.511 20.8742C320.988 20.8093 321.448 20.6511 321.864 20.4087V20.394Z" fill="#51B7D4"/>
<path d="M210.642 51.6881C210.642 51.8932 210.642 52.0837 210.642 52.2888C210.642 52.4939 210.642 52.5525 210.642 52.6697C210.739 52.0446 210.739 51.8737 210.642 52.1569C210.466 52.9041 210.935 51.6441 210.759 51.9518C210.583 52.2595 210.759 52.069 211.052 51.5709C211.345 51.0728 211.639 51.146 211.301 51.3511C210.461 51.8407 209.851 52.6437 209.603 53.5833C209.356 54.523 209.492 55.5224 209.982 56.3617C210.472 57.201 211.275 57.8114 212.216 58.0587C213.156 58.306 214.156 58.1699 214.996 57.6803C215.995 57.0533 216.798 56.1602 217.316 55.1015C217.834 54.0428 218.046 52.8607 217.928 51.6881C217.928 50.7167 217.542 49.7851 216.855 49.0982C216.167 48.4113 215.235 48.0254 214.263 48.0254C213.291 48.0254 212.359 48.4113 211.671 49.0982C210.984 49.7851 210.598 50.7167 210.598 51.6881H210.642Z" fill="#51B7D4"/>
<path d="M190.248 66.6027C189.984 66.8664 189.646 67.1008 189.412 67.3792L189.822 67.0715L189.441 67.3352C189.221 67.4817 188.972 67.599 188.737 67.7308C187.903 68.2257 187.297 69.0285 187.05 69.966C186.803 70.9034 186.935 71.9003 187.418 72.7414C187.923 73.5635 188.727 74.1593 189.661 74.4049C190.594 74.6505 191.587 74.5269 192.432 74.06C193.519 73.4557 194.508 72.69 195.364 71.7891C196.053 71.1013 196.439 70.1685 196.439 69.1959C196.439 68.2233 196.053 67.2905 195.364 66.6027C194.676 65.9149 193.743 65.5286 192.769 65.5286C191.796 65.5286 190.862 65.9149 190.174 66.6027H190.248Z" fill="#51B7D4"/>
<path d="M164.414 96.4462C167.65 95.0508 170.777 93.4151 173.768 91.5529C177.815 89.1355 174.135 82.7624 170.073 85.2237C167.643 86.7914 165.099 88.1773 162.464 89.3699C161.541 89.6527 160.761 90.2776 160.284 91.1166C159.807 91.9555 159.669 92.9451 159.898 93.8823C160.162 94.8175 160.784 95.611 161.629 96.091C162.475 96.5709 163.475 96.6986 164.414 96.4462Z" fill="#51B7D4"/>
<path d="M143.331 108.973C142.832 109.427 144.005 108.533 143.419 108.973L142.744 109.427C142.155 109.813 141.596 110.244 141.073 110.716C140.391 111.407 140.008 112.339 140.008 113.309C140.008 114.28 140.391 115.212 141.073 115.902C141.77 116.574 142.7 116.949 143.668 116.949C144.636 116.949 145.566 116.574 146.263 115.902C146.762 115.448 145.589 116.342 146.175 115.902L146.85 115.448C147.439 115.062 147.998 114.631 148.521 114.159C149.203 113.468 149.586 112.536 149.586 111.566C149.586 110.595 149.203 109.664 148.521 108.973C147.824 108.301 146.894 107.926 145.926 107.926C144.958 107.926 144.028 108.301 143.331 108.973Z" fill="#51B7D4"/>
<path d="M118.509 129.63C118.509 130.304 118.699 129 118.509 129.337C118.509 129.425 118.509 129.733 118.391 129.777L118.626 129.235L118.494 129.469C118.26 129.762 119.183 128.781 118.685 129.22C118.587 129.292 118.498 129.376 118.421 129.469C118.67 128.986 119.051 129.059 118.626 129.294L118.201 129.528C117.629 129.865 119.007 129.235 118.304 129.528C117.84 129.656 117.405 129.874 117.026 130.17C116.646 130.465 116.328 130.833 116.091 131.251C115.853 131.669 115.7 132.13 115.641 132.608C115.582 133.085 115.617 133.569 115.745 134.033C115.873 134.497 116.091 134.931 116.387 135.31C116.683 135.689 117.051 136.007 117.469 136.244C117.888 136.482 118.349 136.634 118.827 136.694C119.305 136.753 119.789 136.718 120.253 136.59C121.672 136.162 122.954 135.374 123.978 134.304C125.113 133.021 125.748 131.372 125.766 129.66C125.759 128.691 125.37 127.764 124.684 127.078C123.998 126.393 123.071 126.005 122.101 125.997C121.135 126.016 120.213 126.408 119.53 127.091C118.846 127.773 118.454 128.694 118.435 129.66L118.509 129.63Z" fill="#51B7D4"/>
<path d="M154.635 150.903C154.458 150.733 154.327 150.522 154.254 150.288C154.136 149.975 154.136 149.975 154.254 150.288L154.166 149.687C154.166 149.814 154.166 149.941 154.166 150.068C154.166 151.04 154.552 151.971 155.239 152.658C155.926 153.345 156.859 153.731 157.831 153.731C158.803 153.731 159.735 153.345 160.423 152.658C161.11 151.971 161.496 151.04 161.496 150.068C161.519 149.263 161.382 148.461 161.092 147.709C160.803 146.957 160.367 146.27 159.81 145.688C159.119 145.006 158.187 144.624 157.215 144.624C156.244 144.624 155.311 145.006 154.62 145.688C153.952 146.386 153.578 147.315 153.578 148.281C153.578 149.247 153.952 150.176 154.62 150.874L154.635 150.903Z" fill="#51B7D4"/>
<path d="M260.975 214.517C260.681 214.927 260.799 214.722 261.048 214.517L261.488 214.092C261.708 213.887 262.001 213.667 261.59 213.975L262.25 213.521C263.071 212.979 263.922 212.481 264.743 211.939C265.583 211.449 266.193 210.646 266.441 209.706C266.688 208.767 266.552 207.767 266.062 206.928C265.572 206.089 264.769 205.478 263.828 205.231C262.888 204.984 261.888 205.12 261.048 205.609C258.594 206.941 256.418 208.731 254.641 210.884C254.155 211.724 254.02 212.722 254.268 213.661C254.515 214.599 255.123 215.402 255.96 215.894C256.806 216.358 257.798 216.479 258.731 216.234C259.663 215.989 260.467 215.395 260.975 214.576V214.517Z" fill="#51B7D4"/>
<path d="M286.427 197.185C286.977 196.68 287.469 196.114 287.893 195.5C288.369 194.71 288.641 193.814 288.685 192.892C288.686 192.411 288.592 191.934 288.408 191.489C288.225 191.044 287.955 190.64 287.615 190.299C286.922 189.618 285.991 189.234 285.02 189.23C284.056 189.256 283.138 189.65 282.457 190.331C281.775 191.013 281.38 191.929 281.354 192.892C281.823 191.623 281.916 191.227 281.633 191.706C281.486 191.93 281.56 191.842 281.853 191.442C281.853 191.53 281.354 191.955 281.31 192.013C280.622 192.701 280.235 193.634 280.235 194.607C280.235 195.579 280.622 196.512 281.31 197.2C281.999 197.888 282.932 198.274 283.905 198.274C284.879 198.274 285.812 197.888 286.5 197.2L286.427 197.185Z" fill="#51B7D4"/>
<path d="M304.343 180.205L305.15 179.809C305.795 179.502 304.358 180.088 305.238 179.809C305.516 179.721 305.78 179.663 306.059 179.59C306.337 179.516 306.396 179.59 305.868 179.59H306.44C307.412 179.59 308.344 179.204 309.032 178.517C309.719 177.83 310.105 176.898 310.105 175.927C310.105 174.955 309.719 174.024 309.032 173.337C308.344 172.65 307.412 172.264 306.44 172.264C304.385 172.342 302.377 172.899 300.575 173.89C299.741 174.385 299.135 175.188 298.888 176.126C298.641 177.063 298.773 178.06 299.256 178.901C299.761 179.723 300.565 180.319 301.498 180.565C302.432 180.81 303.425 180.687 304.27 180.22L304.343 180.205Z" fill="#51B7D4"/>
<path d="M324.869 165.554L329.957 160.47C330.645 159.782 331.032 158.85 331.032 157.877C331.032 156.904 330.645 155.972 329.957 155.284C329.269 154.596 328.335 154.21 327.362 154.21C326.389 154.21 325.455 154.596 324.767 155.284L319.621 160.368C319.28 160.708 319.009 161.112 318.825 161.557C318.641 162.002 318.546 162.479 318.546 162.961C318.546 163.442 318.641 163.919 318.825 164.364C319.009 164.809 319.28 165.214 319.621 165.554C319.961 165.895 320.366 166.165 320.811 166.349C321.256 166.533 321.734 166.628 322.216 166.628C322.698 166.628 323.175 166.533 323.62 166.349C324.065 166.165 324.47 165.895 324.811 165.554H324.869Z" fill="#51B7D4"/>
<path d="M346.173 147.49C346.964 147.109 345.542 147.68 346.173 147.49L346.862 147.255C347.577 147.009 348.277 146.72 348.958 146.391C349.796 145.899 350.404 145.096 350.651 144.157C350.898 143.219 350.764 142.22 350.278 141.38C349.77 140.561 348.967 139.967 348.034 139.722C347.101 139.477 346.11 139.598 345.264 140.062C344.472 140.443 345.894 139.871 345.264 140.062L344.575 140.296C343.859 140.542 343.159 140.831 342.478 141.16C341.641 141.653 341.032 142.456 340.785 143.394C340.538 144.333 340.672 145.331 341.158 146.171C341.667 146.99 342.47 147.584 343.403 147.829C344.335 148.075 345.327 147.953 346.173 147.49Z" fill="#51B7D4"/>
<path d="M366.713 131.476C367.256 130.7 366.406 131.755 366.713 131.374C367.021 130.993 367.036 130.993 367.212 130.817C367.388 130.641 367.916 130.099 368.268 129.748C369.13 128.89 369.915 127.959 370.613 126.964C371.1 126.124 371.234 125.126 370.987 124.187C370.739 123.248 370.131 122.445 369.294 121.953C368.449 121.486 367.456 121.363 366.522 121.608C365.588 121.854 364.785 122.45 364.28 123.272C363.737 124.048 364.588 122.994 364.28 123.374L363.781 123.931C363.444 124.297 363.077 124.649 362.726 125.001C361.864 125.858 361.079 126.79 360.38 127.784C359.893 128.624 359.759 129.623 360.006 130.561C360.254 131.5 360.862 132.303 361.699 132.795C362.544 133.262 363.537 133.385 364.471 133.14C365.405 132.894 366.208 132.298 366.713 131.476Z" fill="#51B7D4"/>
<path d="M392.078 109.295C392.078 108.592 391.829 110.101 392.078 109.485C392.109 109.356 392.148 109.229 392.195 109.104C391.951 109.632 391.897 109.774 392.034 109.529C392.518 108.885 391.682 109.896 391.961 109.632C392.239 109.368 392.048 109.515 391.623 109.866L392.004 109.647C392.839 109.152 393.445 108.349 393.692 107.411C393.938 106.474 393.806 105.477 393.324 104.636C392.821 103.811 392.018 103.213 391.083 102.967C390.148 102.721 389.154 102.847 388.31 103.317C387.249 103.919 386.366 104.79 385.751 105.842C385.136 106.895 384.809 108.091 384.806 109.31C384.813 110.279 385.202 111.206 385.888 111.891C386.573 112.576 387.501 112.965 388.471 112.972C389.437 112.954 390.359 112.562 391.042 111.879C391.725 111.196 392.118 110.275 392.136 109.31L392.078 109.295Z" fill="#51B7D4"/>
<path d="M410.229 96.0801C410.625 95.6992 411.02 95.3183 411.446 94.9667C411.446 94.9667 412.017 94.5125 411.768 94.7029C411.519 94.8934 412.281 94.3513 412.252 94.366C413.192 93.7468 414.172 93.1889 415.184 92.6958C416.018 92.2009 416.624 91.3981 416.871 90.4606C417.118 89.5232 416.986 88.5263 416.504 87.6852C415.998 86.8631 415.195 86.2673 414.261 86.0217C413.327 85.7761 412.335 85.8997 411.49 86.3666C409.122 87.5151 406.946 89.0224 405.039 90.8351C404.698 91.1757 404.427 91.58 404.243 92.0249C404.059 92.4698 403.964 92.9467 403.964 93.4283C403.964 93.9099 404.059 94.3868 404.243 94.8318C404.427 95.2767 404.698 95.681 405.039 96.0215C405.379 96.3621 405.784 96.6322 406.229 96.8165C406.674 97.0008 407.152 97.0956 407.634 97.0956C408.116 97.0956 408.593 97.0008 409.038 96.8165C409.483 96.6322 409.888 96.3621 410.229 96.0215V96.0801Z" fill="#51B7D4"/>
<path d="M437.866 74.851V73.1515C437.866 72.1801 437.479 71.2484 436.792 70.5615C436.105 69.8747 435.172 69.4888 434.2 69.4888C433.228 69.4888 432.296 69.8747 431.608 70.5615C430.921 71.2484 430.535 72.1801 430.535 73.1515V74.851C430.535 75.8224 430.921 76.754 431.608 77.4409C432.296 78.1278 433.228 78.5137 434.2 78.5137C435.172 78.5137 436.105 78.1278 436.792 77.4409C437.479 76.754 437.866 75.8224 437.866 74.851Z" fill="#51B7D4"/>
<path d="M451.882 65.0203C454.624 62.9546 457.981 62.1781 460.928 60.5079C465.019 58.1637 461.339 51.8346 457.233 54.1787C454.301 55.8636 450.929 56.6254 448.187 58.6912C447.37 59.2013 446.778 60.0038 446.533 60.935C446.288 61.8662 446.408 62.8557 446.868 63.7017C447.363 64.5353 448.166 65.1408 449.105 65.3875C450.043 65.6342 451.04 65.5023 451.882 65.0203Z" fill="#51B7D4"/>
<path d="M466.133 37.5646C466.133 37.1983 466.28 36.8027 466.045 37.7844V37.5939C465.967 37.9181 465.805 38.2162 465.576 38.4583C465.916 38.1168 466.185 37.7117 466.368 37.2663C466.551 36.8208 466.645 36.3437 466.643 35.8621C466.642 35.3805 466.546 34.9038 466.36 34.4594C466.174 34.015 465.903 33.6115 465.561 33.2719C465.219 32.9323 464.814 32.6633 464.368 32.4803C463.923 32.2972 463.445 32.2037 462.963 32.2051C462.481 32.2065 462.004 32.3027 461.559 32.4882C461.115 32.6738 460.711 32.945 460.371 33.2866C459.29 34.4465 458.702 35.98 458.729 37.5646C458.729 38.536 459.115 39.4676 459.803 40.1545C460.49 40.8414 461.422 41.2273 462.394 41.2273C463.366 41.2273 464.299 40.8414 464.986 40.1545C465.674 39.4676 466.06 38.536 466.06 37.5646H466.133Z" fill="#51B7D4"/>
<path d="M101.164 151.24L103.422 148.984C104.11 148.296 104.497 147.364 104.497 146.391C104.497 145.418 104.11 144.486 103.422 143.798C103.081 143.457 102.677 143.187 102.232 143.003C101.786 142.818 101.309 142.724 100.827 142.724C99.8537 142.724 98.9202 143.11 98.232 143.798L96.0328 146.054C95.4465 146.753 95.1423 147.646 95.1799 148.557C95.2174 149.468 95.5939 150.333 96.2356 150.982C96.8774 151.63 97.7383 152.016 98.6499 152.064C99.5614 152.112 100.458 151.818 101.164 151.24Z" fill="#51B7D4"/>
<path d="M82.471 166.389C80.2718 169.173 76.9729 170.55 74.1726 172.601C73.3526 173.109 72.7587 173.911 72.5132 174.844C72.2677 175.776 72.3894 176.766 72.853 177.612C73.3482 178.445 74.1517 179.051 75.0898 179.298C76.028 179.544 77.0256 179.412 77.8673 178.93C81.1661 176.528 85.0661 174.843 87.6465 171.605C88.3084 170.903 88.677 169.976 88.677 169.012C88.677 168.048 88.3084 167.12 87.6465 166.419C86.9551 165.737 86.0228 165.354 85.0514 165.354C84.08 165.354 83.1477 165.737 82.4563 166.419L82.471 166.389Z" fill="#51B7D4"/>
<path d="M68.6306 201.712C68.7918 201.39 68.9971 201.097 69.1877 200.804C69.3783 200.511 68.7332 201.273 69.0704 200.98C69.4076 200.687 69.349 200.687 69.4956 200.54C69.8475 200.174 69.4956 200.628 69.305 200.672C69.4422 200.606 69.5703 200.522 69.6862 200.423C70.214 200.071 69.1144 200.57 69.5102 200.423C69.9061 200.277 68.5133 200.423 69.2463 200.423C70.2185 200.423 71.1508 200.037 71.8381 199.35C72.5255 198.663 72.9117 197.732 72.9117 196.76C72.9117 195.789 72.5255 194.857 71.8381 194.17C71.1508 193.484 70.2185 193.098 69.2463 193.098C67.7699 193.226 66.3529 193.739 65.1363 194.585C63.9196 195.43 62.9457 196.579 62.3114 197.918C62.0688 198.333 61.9105 198.793 61.8456 199.269C61.7806 199.746 61.8102 200.231 61.9327 200.696C62.0553 201.161 62.2683 201.598 62.5597 201.981C62.8511 202.364 63.2151 202.686 63.631 202.928C64.0469 203.171 64.5065 203.329 64.9835 203.394C65.4606 203.459 65.9458 203.429 66.4114 203.307C66.877 203.184 67.3139 202.971 67.6972 202.68C68.0805 202.389 68.4026 202.025 68.6452 201.61L68.6306 201.712Z" fill="#51B7D4"/>
<path d="M89.1565 192.658C91.0165 190.903 93.0391 189.328 95.197 187.955C96.0198 187.45 96.616 186.647 96.8618 185.714C97.1075 184.781 96.9839 183.789 96.5166 182.945C96.0214 182.111 95.218 181.505 94.2798 181.259C93.3416 181.012 92.344 181.144 91.5023 181.626C88.8166 183.339 86.2984 185.301 83.981 187.486C80.6088 190.797 85.799 195.969 89.1712 192.673L89.1565 192.658Z" fill="#51B7D4"/>
<path d="M109.961 177.919C112.399 178.031 114.832 177.606 117.087 176.674C117.924 176.182 118.532 175.379 118.78 174.44C119.027 173.502 118.893 172.504 118.406 171.663C117.898 170.844 117.095 170.251 116.162 170.005C115.229 169.76 114.238 169.882 113.392 170.345C114.184 169.979 112.952 170.345 112.776 170.462C112.346 170.54 112.346 170.54 112.776 170.462H112.278C111.515 170.462 110.812 170.462 109.976 170.462C109.004 170.462 108.071 170.848 107.384 171.535C106.697 172.222 106.311 173.153 106.311 174.125C106.311 175.096 106.697 176.028 107.384 176.715C108.071 177.402 109.004 177.787 109.976 177.787L109.961 177.919Z" fill="#51B7D4"/>
<path d="M115.195 193.742H118.216C119.188 193.742 120.12 193.356 120.807 192.669C121.495 191.982 121.881 191.051 121.881 190.079C121.881 189.108 121.495 188.176 120.807 187.49C120.12 186.803 119.188 186.417 118.216 186.417H115.195C114.223 186.417 113.291 186.803 112.604 187.49C111.916 188.176 111.53 189.108 111.53 190.079C111.53 191.051 111.916 191.982 112.604 192.669C113.291 193.356 114.223 193.742 115.195 193.742Z" fill="#51B7D4"/>
<path d="M128.435 199.251C129.584 199.884 130.862 200.25 132.173 200.32C133.487 200.265 134.768 199.899 135.912 199.251C136.749 198.759 137.358 197.956 137.605 197.017C137.852 196.079 137.718 195.081 137.232 194.24C136.723 193.421 135.92 192.828 134.987 192.582C134.055 192.337 133.063 192.458 132.217 192.922C131.44 193.303 132.818 192.805 132.129 192.922L131.704 193.024C132.31 192.966 132.467 192.936 132.173 192.936C131.851 192.936 133.126 193.171 132.335 192.936C131.543 192.702 132.906 193.229 132.144 192.936C131.729 192.676 131.265 192.501 130.781 192.422C130.296 192.343 129.801 192.363 129.324 192.479C128.848 192.596 128.399 192.806 128.005 193.099C127.612 193.392 127.281 193.76 127.032 194.183C126.784 194.606 126.623 195.075 126.559 195.561C126.495 196.047 126.53 196.541 126.661 197.014C126.791 197.486 127.016 197.928 127.321 198.312C127.625 198.696 128.004 199.016 128.435 199.251Z" fill="#51B7D4"/>
<path d="M147.275 210.737C147.791 211.315 148.423 211.777 149.131 212.093C149.838 212.408 150.605 212.57 151.38 212.568C152.352 212.568 153.284 212.183 153.972 211.496C154.659 210.809 155.045 209.877 155.045 208.906C155.045 207.934 154.659 207.003 153.972 206.316C153.284 205.629 152.352 205.243 151.38 205.243H151.013C151.503 205.243 151.984 205.375 152.406 205.624C152.963 206.083 153.09 206.176 152.787 205.902L152.436 205.565C152.095 205.225 151.69 204.955 151.245 204.77C150.8 204.586 150.322 204.491 149.84 204.491C149.358 204.491 148.881 204.586 148.436 204.77C147.991 204.955 147.586 205.225 147.245 205.565C146.905 205.906 146.634 206.31 146.45 206.755C146.265 207.2 146.17 207.677 146.17 208.159C146.17 208.64 146.265 209.117 146.45 209.562C146.634 210.007 146.905 210.411 147.245 210.752L147.275 210.737Z" fill="#51B7D4"/>
<path d="M89.5818 205.243C87.091 205.4 84.6621 206.084 82.4563 207.25C81.6192 207.742 81.0107 208.545 80.7635 209.484C80.5163 210.423 80.6505 211.421 81.1368 212.261C81.6423 213.083 82.4455 213.679 83.3794 213.924C84.3133 214.17 85.3059 214.046 86.151 213.579L86.7081 213.316C86.3367 213.472 86.3367 213.472 86.7081 213.316C87.0893 213.184 87.4705 213.037 87.8517 212.92C88.2329 212.803 88.6141 212.73 88.9953 212.627C89.3765 212.525 89.4205 212.539 88.9953 212.627H89.5525C90.5246 212.627 91.4569 212.241 92.1443 211.554C92.8317 210.868 93.2178 209.936 93.2178 208.964C93.2178 207.993 92.8317 207.061 92.1443 206.375C91.4569 205.688 90.5246 205.302 89.5525 205.302L89.5818 205.243Z" fill="#51B7D4"/>
<path d="M59.8483 221.55C58.4575 222.291 57.1912 223.245 56.0949 224.377C55.7541 224.718 55.4838 225.122 55.2994 225.567C55.115 226.012 55.02 226.489 55.02 226.97C55.02 227.452 55.115 227.929 55.2994 228.374C55.4838 228.819 55.7541 229.223 56.0949 229.564C56.4357 229.904 56.8403 230.174 57.2856 230.358C57.7308 230.543 58.2081 230.638 58.69 230.638C59.172 230.638 59.6492 230.543 60.0945 230.358C60.5397 230.174 60.9443 229.904 61.2851 229.564C61.6517 229.197 62.0475 228.86 62.4287 228.494C62.8099 228.128 61.7983 228.919 62.1795 228.684L62.546 228.435C62.8686 228.23 63.2058 228.04 63.543 227.864C64.3772 227.369 64.9831 226.566 65.23 225.629C65.4769 224.691 65.3449 223.694 64.8625 222.853C64.357 222.031 63.5537 221.435 62.6199 221.19C61.686 220.944 60.6933 221.068 59.8483 221.535V221.55Z" fill="#51B7D4"/>
<path d="M44.263 218.693C44.263 218.488 44.263 218.297 44.263 218.092C44.263 217.887 44.351 217.14 44.263 217.858C44.175 218.575 44.263 217.74 44.351 217.594C44.4389 217.447 44.4243 217.359 44.1897 217.96C44.3852 217.638 44.3021 217.74 43.9405 218.268C44.6287 217.58 45.0154 216.647 45.0154 215.675C45.0154 214.702 44.6287 213.769 43.9405 213.081C43.2522 212.394 42.3187 212.007 41.3454 212.007C40.372 212.007 39.4385 212.394 38.7503 213.081C37.4455 214.644 36.7896 216.647 36.9176 218.678C36.9176 219.649 37.3038 220.581 37.9912 221.268C38.6786 221.955 39.6109 222.341 40.583 222.341C41.5551 222.341 42.4874 221.955 43.1748 221.268C43.8622 220.581 44.2484 219.649 44.2484 218.678L44.263 218.693Z" fill="#51B7D4"/>
<path d="M56.0068 196.995C58.1672 195.5 60.18 193.802 62.0181 191.926C62.7063 191.238 63.093 190.305 63.093 189.332C63.093 188.36 62.7063 187.427 62.0181 186.739C61.3298 186.051 60.3963 185.665 59.423 185.665C58.4496 185.665 57.5162 186.051 56.8279 186.739C56.0948 187.472 55.3617 188.204 54.5993 188.893C54.2035 189.244 53.8076 189.581 53.4118 189.904C53.7197 189.655 53.4118 189.904 53.2652 190.006L52.2975 190.68C51.4576 191.17 50.8467 191.973 50.5992 192.912C50.3518 193.852 50.488 194.852 50.978 195.691C51.4679 196.53 52.2714 197.141 53.2118 197.388C54.1521 197.635 55.1523 197.499 55.9922 197.009L56.0068 196.995Z" fill="#51B7D4"/>
<path d="M36.0671 246.456C40.7881 246.456 40.7881 239.13 36.0671 239.13C31.3461 239.13 31.3461 246.456 36.0671 246.456Z" fill="#51B7D4"/>
<path d="M60.332 252.932L60.9184 252.082C61.0944 251.833 61.1823 251.76 60.9184 252.082C61.2996 251.642 61.6662 251.203 62.0767 250.793C62.4872 250.382 62.8684 250.089 63.2496 249.738C63.6308 249.386 62.8684 250.001 63.4109 249.606L64.2613 249.02C64.6771 248.777 65.0412 248.456 65.3326 248.073C65.6239 247.69 65.837 247.253 65.9595 246.788C66.082 246.322 66.1117 245.838 66.0467 245.361C65.9817 244.884 65.8234 244.425 65.5808 244.009C65.3382 243.594 65.0161 243.23 64.6328 242.939C64.2495 242.648 63.8126 242.435 63.347 242.312C62.8814 242.19 62.3962 242.16 61.9191 242.225C61.442 242.29 60.9824 242.448 60.5666 242.691C57.9581 244.431 55.7165 246.666 53.9689 249.269C53.4865 250.11 53.3545 251.107 53.6014 252.044C53.8483 252.982 54.4542 253.785 55.2884 254.279C56.1335 254.746 57.1261 254.87 58.06 254.624C58.9939 254.379 59.7971 253.783 60.3027 252.961L60.332 252.932Z" fill="#51B7D4"/>
<path d="M82.1043 235.16H86.5028C87.4749 235.16 88.4072 234.774 89.0946 234.087C89.782 233.4 90.1682 232.469 90.1682 231.497C90.1682 230.526 89.782 229.594 89.0946 228.908C88.4072 228.221 87.4749 227.835 86.5028 227.835H82.1043C81.1322 227.835 80.1999 228.221 79.5125 228.908C78.8251 229.594 78.439 230.526 78.439 231.497C78.439 232.469 78.8251 233.4 79.5125 234.087C80.1999 234.774 81.1322 235.16 82.1043 235.16Z" fill="#51B7D4"/>
<path d="M109.521 222.604C109.189 222.731 109.218 222.731 109.609 222.604L110.254 222.414L111.222 222.165C112.19 221.904 113.132 221.556 114.037 221.125C114.874 220.633 115.483 219.83 115.73 218.891C115.977 217.952 115.843 216.954 115.357 216.114C114.849 215.295 114.045 214.701 113.113 214.456C112.18 214.211 111.188 214.332 110.342 214.796C110.675 214.669 110.645 214.669 110.254 214.796L109.609 214.986L108.642 215.235C107.674 215.495 106.731 215.844 105.827 216.275C104.99 216.767 104.381 217.57 104.134 218.509C103.887 219.448 104.021 220.446 104.507 221.286C105.015 222.105 105.818 222.699 106.751 222.944C107.684 223.189 108.675 223.068 109.521 222.604Z" fill="#51B7D4"/>
<path d="M119.198 232.01C122.862 231.251 126.439 230.117 129.871 228.626C130.706 228.131 131.312 227.328 131.558 226.391C131.805 225.453 131.673 224.456 131.191 223.615C130.688 222.79 129.885 222.192 128.95 221.946C128.015 221.7 127.021 221.826 126.177 222.297C123.297 223.475 120.306 224.358 117.248 224.934C112.674 226.062 114.609 233.124 119.198 231.996V232.01Z" fill="#51B7D4"/>
<path d="M157.406 223.864C162.127 223.864 162.127 216.539 157.406 216.539C152.685 216.539 152.685 223.864 157.406 223.864Z" fill="#51B7D4"/>
<path d="M143.096 228.552C140.605 228.709 138.177 229.393 135.971 230.56C135.134 231.052 134.525 231.855 134.278 232.793C134.031 233.732 134.165 234.73 134.651 235.57C135.157 236.392 135.96 236.988 136.894 237.234C137.828 237.479 138.82 237.356 139.665 236.889L140.223 236.625C139.851 236.781 139.851 236.781 140.223 236.625C140.604 236.493 140.985 236.347 141.366 236.23C141.747 236.112 142.129 236.039 142.51 235.936C142.891 235.834 142.935 235.849 142.51 235.936H143.067C144.039 235.936 144.971 235.551 145.659 234.864C146.346 234.177 146.732 233.245 146.732 232.274C146.732 231.302 146.346 230.371 145.659 229.684C144.971 228.997 144.039 228.611 143.067 228.611L143.096 228.552Z" fill="#51B7D4"/>
<path d="M89.5817 241.387H88.1156C87.1435 241.387 86.2112 241.773 85.5238 242.46C84.8364 243.146 84.4502 244.078 84.4502 245.049C84.4502 246.021 84.8364 246.952 85.5238 247.639C86.2112 248.326 87.1435 248.712 88.1156 248.712H89.5817C90.5538 248.712 91.4861 248.326 92.1735 247.639C92.8609 246.952 93.2471 246.021 93.2471 245.049C93.2471 244.078 92.8609 243.146 92.1735 242.46C91.4861 241.773 90.5538 241.387 89.5817 241.387Z" fill="#51B7D4"/>
<path d="M48.1189 257.957C46.0867 257.832 44.0834 258.487 42.5182 259.788C41.8359 260.479 41.4534 261.411 41.4534 262.381C41.4534 263.352 41.8359 264.283 42.5182 264.974C43.2167 265.642 44.1464 266.015 45.1133 266.015C46.0802 266.015 47.0098 265.642 47.7083 264.974C47.1805 265.346 47.0779 265.429 47.4005 265.223C46.8042 265.458 46.6869 265.512 47.0486 265.385C47.1952 265.385 48.0309 265.194 47.3125 265.297C46.5941 265.399 47.4005 265.297 47.5471 265.297H48.1482C49.1203 265.297 50.0526 264.911 50.74 264.224C51.4274 263.537 51.8136 262.605 51.8136 261.634C51.8136 260.663 51.4274 259.731 50.74 259.044C50.0526 258.357 49.1203 257.971 48.1482 257.971L48.1189 257.957Z" fill="#51B7D4"/>
<path d="M24.0155 257.209H20.9952C20.0231 257.209 19.0908 257.595 18.4034 258.282C17.716 258.969 17.3298 259.901 17.3298 260.872C17.3298 261.844 17.716 262.775 18.4034 263.462C19.0908 264.149 20.0231 264.535 20.9952 264.535H24.0155C24.9876 264.535 25.9199 264.149 26.6073 263.462C27.2947 262.775 27.6809 261.844 27.6809 260.872C27.6809 259.901 27.2947 258.969 26.6073 258.282C25.9199 257.595 24.9876 257.209 24.0155 257.209Z" fill="#51B7D4"/>
<path d="M5.51266 251.994L10.0284 249.738C10.8626 249.243 11.4685 248.44 11.7154 247.502C11.9623 246.565 11.8303 245.568 11.3479 244.727C10.8424 243.905 10.0392 243.309 9.10529 243.063C8.17142 242.818 7.17876 242.941 6.33371 243.408L1.81796 245.665C0.983777 246.159 0.37782 246.962 0.130936 247.9C-0.115948 248.837 0.01605 249.834 0.498428 250.675C1.00399 251.497 1.80721 252.093 2.74108 252.339C3.67495 252.584 4.66761 252.461 5.51266 251.994Z" fill="#51B7D4"/>
<path d="M18.1948 234.266C22.1278 233.617 25.9645 232.48 29.6161 230.882C30.4503 230.387 31.0562 229.584 31.3031 228.647C31.55 227.71 31.418 226.713 30.9356 225.872C30.4326 225.047 29.6293 224.448 28.6944 224.203C27.7595 223.957 26.7656 224.082 25.9214 224.553C22.8153 225.822 19.5658 226.708 16.2448 227.19C11.6264 228.113 13.5764 235.175 18.1948 234.252V234.266Z" fill="#51B7D4"/>
<path d="M162.156 237.343C164.87 236.29 167.441 234.902 169.809 233.211C170.632 232.706 171.228 231.904 171.474 230.97C171.72 230.037 171.596 229.045 171.129 228.201C170.634 227.367 169.83 226.762 168.892 226.515C167.954 226.268 166.956 226.4 166.115 226.882C164.299 228.24 162.331 229.381 160.25 230.281C159.323 230.558 158.538 231.182 158.06 232.023C157.582 232.863 157.447 233.856 157.684 234.794C157.951 235.716 158.568 236.499 159.403 236.975C160.238 237.451 161.225 237.583 162.156 237.343Z" fill="#51B7D4"/>
<path d="M186.055 233.651H188.312C189.285 233.651 190.217 233.265 190.904 232.578C191.592 231.891 191.978 230.96 191.978 229.988C191.978 229.017 191.592 228.085 190.904 227.398C190.217 226.712 189.285 226.326 188.312 226.326H186.055C185.082 226.326 184.15 226.712 183.463 227.398C182.775 228.085 182.389 229.017 182.389 229.988C182.389 230.96 182.775 231.891 183.463 232.578C184.15 233.265 185.082 233.651 186.055 233.651Z" fill="#51B7D4"/>
<path d="M207.915 239.673H212.43C213.403 239.673 214.335 239.287 215.022 238.6C215.71 237.913 216.096 236.981 216.096 236.01C216.096 235.038 215.71 234.107 215.022 233.42C214.335 232.733 213.403 232.347 212.43 232.347H207.915C206.943 232.347 206.01 232.733 205.323 233.42C204.635 234.107 204.249 235.038 204.249 236.01C204.249 236.981 204.635 237.913 205.323 238.6C206.01 239.287 206.943 239.673 207.915 239.673Z" fill="#51B7D4"/>
<path d="M102.498 241.284L102.85 240.039C103.212 239.638 103.295 239.536 103.1 239.731C102.904 239.926 102.943 239.897 103.217 239.643C103.409 239.456 103.64 239.314 103.893 239.225C104.147 239.137 104.416 239.104 104.683 239.13C103.711 239.13 102.779 239.516 102.091 240.203C101.404 240.89 101.018 241.822 101.018 242.793C101.018 243.764 101.404 244.696 102.091 245.383C102.779 246.07 103.711 246.456 104.683 246.456C106.036 246.395 107.317 245.831 108.275 244.874C109.233 243.917 109.798 242.636 109.858 241.284C109.855 240.314 109.467 239.384 108.781 238.698C108.094 238.012 107.164 237.625 106.193 237.621C105.229 237.647 104.312 238.041 103.63 238.723C102.948 239.404 102.554 240.321 102.528 241.284H102.498Z" fill="#51B7D4"/>
<path d="M72.9995 260.008C77.7205 260.008 77.7205 252.682 72.9995 252.682C68.2785 252.682 68.2785 260.008 72.9995 260.008Z" fill="#51B7D4"/>
<path d="M300.238 205.038C304.959 205.038 304.959 197.713 300.238 197.713C295.517 197.713 295.517 205.038 300.238 205.038Z" fill="#51B7D4"/>
<path d="M313.756 191.471H318.272C319.244 191.471 320.176 191.086 320.864 190.399C321.551 189.712 321.937 188.78 321.937 187.809C321.937 186.837 321.551 185.906 320.864 185.219C320.176 184.532 319.244 184.146 318.272 184.146H313.756C312.784 184.146 311.852 184.532 311.164 185.219C310.477 185.906 310.091 186.837 310.091 187.809C310.091 188.78 310.477 189.712 311.164 190.399C311.852 191.086 312.784 191.471 313.756 191.471Z" fill="#51B7D4"/>
<path d="M334.869 178.549C338.385 176.031 341.659 173.192 344.648 170.067C347.991 166.726 342.8 161.554 339.458 164.88C336.924 167.573 334.146 170.026 331.159 172.206C330.328 172.719 329.73 173.535 329.492 174.482C329.254 175.428 329.394 176.43 329.884 177.275C330.379 178.108 331.182 178.714 332.12 178.961C333.059 179.207 334.056 179.075 334.898 178.593L334.869 178.549Z" fill="#51B7D4"/>
<path d="M355.629 159.84H357.887C358.859 159.84 359.792 159.454 360.479 158.768C361.166 158.081 361.552 157.149 361.552 156.178C361.552 155.206 361.166 154.275 360.479 153.588C359.792 152.901 358.859 152.515 357.887 152.515H355.629C354.657 152.515 353.725 152.901 353.037 153.588C352.35 154.275 351.964 155.206 351.964 156.178C351.964 157.149 352.35 158.081 353.037 158.768C353.725 159.454 354.657 159.84 355.629 159.84Z" fill="#51B7D4"/>
<path d="M379.733 142.963C379.733 142.963 380.026 142.626 380.085 142.64L379.85 142.816L380.07 142.67C380.409 142.439 380.762 142.229 381.126 142.04C381.199 142.04 381.58 141.878 381.609 141.805C381.639 141.732 380.92 142.04 381.434 141.893C381.619 141.858 381.801 141.804 381.976 141.732C382.299 141.541 381.082 141.732 381.653 141.732C382.626 141.732 383.558 141.346 384.245 140.659C384.933 139.972 385.319 139.041 385.319 138.069C385.319 137.098 384.933 136.166 384.245 135.479C383.558 134.792 382.626 134.406 381.653 134.406C378.959 134.642 376.433 135.814 374.513 137.718C373.831 138.409 373.448 139.34 373.448 140.311C373.448 141.281 373.831 142.213 374.513 142.904C375.21 143.575 376.14 143.951 377.108 143.951C378.076 143.951 379.007 143.575 379.703 142.904L379.733 142.963Z" fill="#51B7D4"/>
<path d="M412.868 126.583C415.927 124.622 418.348 121.811 419.832 118.496C420.299 117.651 420.423 116.659 420.177 115.726C419.932 114.793 419.335 113.99 418.513 113.485C417.67 113.007 416.674 112.877 415.737 113.124C414.8 113.37 413.996 113.973 413.498 114.804C412.92 115.943 412.254 117.036 411.504 118.071C411.129 118.537 410.728 118.982 410.302 119.404C410.079 119.636 409.839 119.852 409.584 120.049C410.053 119.712 409.232 120.21 409.159 120.254C408.743 120.496 408.379 120.818 408.087 121.201C407.796 121.584 407.583 122.021 407.46 122.486C407.338 122.951 407.308 123.436 407.373 123.913C407.438 124.389 407.596 124.849 407.839 125.264C408.082 125.68 408.404 126.044 408.787 126.335C409.17 126.626 409.607 126.839 410.073 126.961C410.538 127.084 411.024 127.113 411.501 127.048C411.978 126.983 412.437 126.825 412.853 126.583H412.868Z" fill="#51B7D4"/>
<path d="M435.095 103.42C435.49 103.054 435.095 103.42 434.948 103.42C435.051 103.42 435.256 103.215 435.344 103.171C435.432 103.127 435.945 102.849 436.238 102.702C437.058 102.274 437.814 101.731 438.481 101.091C439.164 100.4 439.546 99.4681 439.546 98.4975C439.546 97.5268 439.164 96.5952 438.481 95.9043C437.785 95.2328 436.854 94.8577 435.886 94.8577C434.918 94.8577 433.988 95.2328 433.291 95.9043C432.895 96.2705 433.291 95.9043 433.438 95.9043C433.335 95.9043 433.13 96.1094 433.042 96.1533C432.954 96.1973 432.441 96.4756 432.148 96.6221C431.328 97.0462 430.573 97.5838 429.904 98.2191C429.222 98.91 428.84 99.8416 428.84 100.812C428.84 101.783 429.222 102.715 429.904 103.405C430.601 104.077 431.531 104.452 432.499 104.452C433.467 104.452 434.398 104.077 435.095 103.405V103.42Z" fill="#51B7D4"/>
<path d="M455.108 86.4397H456.237C457.209 86.4397 458.141 86.0538 458.828 85.3669C459.516 84.68 459.902 83.7484 459.902 82.777C459.902 81.8055 459.516 80.8739 458.828 80.187C458.141 79.5001 457.209 79.1143 456.237 79.1143H455.108C454.136 79.1143 453.203 79.5001 452.516 80.187C451.829 80.8739 451.442 81.8055 451.442 82.777C451.442 83.7484 451.829 84.68 452.516 85.3669C453.203 86.0538 454.136 86.4397 455.108 86.4397Z" fill="#51B7D4"/>
<path d="M373.722 166.624H375.979C376.952 166.624 377.884 166.238 378.571 165.551C379.259 164.864 379.645 163.932 379.645 162.961C379.645 161.99 379.259 161.058 378.571 160.371C377.884 159.684 376.952 159.298 375.979 159.298H373.722C372.749 159.298 371.817 159.684 371.13 160.371C370.442 161.058 370.056 161.99 370.056 162.961C370.056 163.932 370.442 164.864 371.13 165.551C371.817 166.238 372.749 166.624 373.722 166.624Z" fill="#51B7D4"/>
<path d="M400.845 149.673C404.182 149.879 407.521 149.323 410.61 148.046C411.444 147.552 412.05 146.749 412.297 145.811C412.544 144.874 412.412 143.877 411.929 143.036C411.424 142.214 410.621 141.618 409.687 141.372C408.753 141.127 407.76 141.25 406.915 141.717C404.954 142.33 402.891 142.544 400.845 142.347C396.124 142.347 396.124 149.673 400.845 149.673Z" fill="#51B7D4"/>
<path d="M439.625 123.755C441.385 121.764 443.437 120.05 445.71 118.671C446.126 118.429 446.49 118.107 446.781 117.724C447.072 117.341 447.285 116.905 447.408 116.439C447.53 115.974 447.56 115.489 447.495 115.012C447.43 114.536 447.272 114.076 447.029 113.661C446.787 113.245 446.464 112.882 446.081 112.59C445.698 112.299 445.261 112.086 444.795 111.964C444.33 111.841 443.845 111.812 443.367 111.877C442.89 111.942 442.431 112.1 442.015 112.342C439.212 114.033 436.677 116.132 434.494 118.569C431.151 121.909 436.341 127.081 439.684 123.755H439.625Z" fill="#51B7D4"/>
<path d="M450.592 116.914H451.721C452.693 116.914 453.625 116.528 454.313 115.841C455 115.154 455.386 114.222 455.386 113.251C455.386 112.279 455 111.348 454.313 110.661C453.625 109.974 452.693 109.588 451.721 109.588H450.592C449.62 109.588 448.687 109.974 448 110.661C447.313 111.348 446.927 112.279 446.927 113.251C446.927 114.222 447.313 115.154 448 115.841C448.687 116.528 449.62 116.914 450.592 116.914Z" fill="#51B7D4"/>
</g>
<defs>
<clipPath id="clip0_39_401">
<rect width="286" height="261" fill="white" transform="translate(66 33)"/>
</clipPath>
<clipPath id="clip1_39_401">
<rect width="583" height="266" fill="white"/>
</clipPath>
</defs>
</svg>
