<svg width="290" height="163" viewBox="0 0 290 163" fill="none" xmlns="http://www.w3.org/2000/svg">
<g clip-path="url(#clip0_39_376)">
<path d="M5 144.5C5.21 128.27 10.72 113.06 17.33 98.43C23.267 85.2166 30.2108 72.4791 38.1 60.33C45.35 49.21 53.3 38.27 63.58 29.76C72.86 22.06 84 16.51 95.26 12.46C117.54 4.45996 142.72 2.37996 165.7 8.45996C172.35 10.21 178.97 11.98 185.45 14.31C193.21 17.1 199.45 21.59 205.62 26.92C216 35.76 227 43.58 235.92 54C259.92 82 273.6 118.36 284.09 153.16C285.02 156.24 289.84 154.93 288.91 151.83C280.38 123.52 269.69 96.36 254.15 71.12C247.54 60.38 240.06 50.21 230.95 41.44C226.17 36.84 220.75 33.11 215.64 28.91C210.2 24.44 205.1 19.63 199.32 15.58C188.64 8.09996 173.86 4.82996 161.32 2.18996C150.353 0.025609 139.134 -0.566999 128 0.429964C105.21 2.19996 82.26 9.75996 63.74 23.33C46.41 36 34.23 55.69 23.89 74.16C12 95.47 0.33 119.64 0 144.5C0 147.73 5 147.72 5 144.5Z" fill="#F78536"/>
<path d="M20.9101 146.5C23.0601 139.97 23.1201 133.12 24.2001 126.38C25.4401 118.65 28.1301 110.96 30.8601 103.65C36.4001 88.7902 46.1001 77.7002 56.0001 65.6502C65.0001 54.6502 77.3201 48.6002 89.2601 41.5102C95.1201 38.0302 100.87 34.4602 107.39 32.3602C115.09 29.8802 123.76 29.1502 131.77 28.5102C146.77 27.3102 161.9 29.0102 175.94 34.6002C187.28 39.1202 196.65 47.0202 204.94 55.8302C224.524 76.9026 240.172 101.315 251.14 127.91C255.6 138.55 259.39 149.48 262.79 160.5C263.74 163.57 268.56 162.26 267.61 159.17C259.2 131.9 248.11 105.28 232.07 81.5602C224.683 70.8285 216.465 60.694 207.49 51.2502C199.888 42.8991 190.752 36.0857 180.58 31.1802C168.2 25.4002 154.51 23.1802 140.94 23.1802C127.37 23.1802 111.94 24.5802 99.4801 30.1202C93.5901 32.7302 88.2201 36.4402 82.6301 39.6202C76.4901 43.1202 70.3901 46.4502 64.7101 50.6902C54.1501 58.5702 45.2801 69.5302 37.7101 80.2302C31.0001 89.6202 26.5301 100 23.0001 111C21.1905 116.329 19.852 121.807 19.0001 127.37C18.2001 133.37 18.0001 139.37 16.0701 145.17C15.0701 148.24 19.8901 149.55 20.8901 146.5H20.9101Z" fill="#F78536"/>
<path d="M237 131.83C236.69 119.12 230.64 107.67 224.56 96.8301C218.66 86.3001 212.84 75.2601 204.56 66.3501C186.77 47.1601 157.66 43.1801 133.07 40.9501C108.48 38.7201 87.0699 52.2601 70.1899 69.1001C61.4999 77.7801 56.1899 88.4101 51.5799 99.6501C46.3699 112.3 38.9999 125.19 38.6699 139.16C38.5899 142.39 43.5899 142.38 43.6699 139.16C43.9999 126.65 50.6699 115.44 55.1799 104.05C59.5699 93.0001 64.4999 82.3401 72.7799 73.6301C87.8299 57.7901 108.84 43.8501 131.46 45.8101C155.46 47.8801 181.71 51.5101 199.98 68.8101C207.98 76.3801 213.28 87.0501 218.64 96.5301C224.81 107.43 231.64 118.97 231.99 131.84C232.07 135.06 237.07 135.07 236.99 131.84L237 131.83Z" fill="#F78536"/>
<path d="M60.2401 136.5C62.0001 131.41 62.5001 126.06 64.1901 121C66.1711 115.438 68.5093 110.01 71.1901 104.75C75.7701 95.23 83.1901 87.38 90.2601 79.64C103.09 65.52 124.55 63.86 142.37 63.71C160.87 63.55 182.08 66.64 194 82.46C206.64 99.24 217.2 118.46 221.42 139.21C222.06 142.37 226.88 141.03 226.24 137.88C221.8 116.07 210.38 93.82 195.91 76.88C182.85 61.63 161.27 58.62 142.37 58.67C123.1 58.72 102.37 61.22 87.7901 74.99C79.8489 82.4689 73.0676 91.0904 67.6701 100.57C65.0009 105.63 62.6627 110.858 60.6701 116.22C58.2101 122.41 57.4901 128.9 55.3801 135.22C54.3801 138.29 59.1801 139.59 60.2001 136.55L60.2401 136.5Z" fill="#F78536"/>
<path d="M79.3299 133.24C75.6699 127.96 79.0699 120.14 81.3299 114.89C83.3953 109.598 85.9287 104.501 88.8999 99.6599C92.8999 93.6599 100.04 90.6599 106.51 88.2499C113.766 85.5567 121.24 83.4924 128.85 82.0799C137.1 80.4899 148.4 77.2499 156.13 81.4799C159.345 83.4204 162.42 85.5858 165.33 87.9599C168.48 90.3099 171.94 92.1699 175.03 94.6099C180.65 99.0599 184.72 105.1 188.4 111.15C192.08 117.2 196.4 123.89 196.67 131.15C196.81 134.36 201.81 134.38 201.67 131.15C201.34 123.36 197.36 116.37 193.46 109.83C189.08 102.48 184.19 95.5099 177.46 90.1499C174.46 87.7499 171.02 85.8999 167.9 83.6299C163.96 80.7599 160.23 77.7799 155.81 75.6299C151.81 73.7199 146.65 74.3999 142.46 74.9599C137.46 75.6099 132.51 76.3199 127.58 77.2199C112.47 79.9999 92.8999 84.4799 83.9399 98.1199C80.3099 103.65 77.5799 110.48 75.2299 116.66C72.9999 122.54 71.1299 130.18 74.9999 135.77C76.8199 138.4 81.1599 135.9 79.3199 133.25L79.3299 133.24Z" fill="#F78536"/>
<path d="M94.24 131.16C96.54 122.94 99.16 114.67 106.24 109.35C110.68 106.04 116.41 104.22 121.48 102.16C126.961 99.8877 132.629 98.0943 138.42 96.7999C150.13 94.2799 161.95 99.7999 169.06 109.05C175.06 116.89 177.37 126.94 182.95 135.05C184.76 137.69 189.09 135.2 187.27 132.53C180.67 122.88 178.1 111.19 170.01 102.46C162.84 94.7199 151.07 89.7799 140.45 91.3799C133.481 92.5812 126.67 94.5707 120.15 97.3099C114.58 99.5099 108.7 101.64 103.71 105C95.28 110.69 91.98 120.46 89.36 129.8C88.49 132.91 93.36 134.23 94.18 131.13L94.24 131.16Z" fill="#F78536"/>
<path d="M110.33 130.5C110.78 118.94 124.42 115.66 133.83 115C147.34 114.05 153.83 124.09 161 133.76C162.9 136.31 167.25 133.83 165.32 131.24C161.11 125.58 157.19 119.53 151.61 115.09C146.03 110.65 139.61 109.59 132.68 110.09C120.54 110.94 105.87 116.43 105.32 130.51C105.19 133.74 110.19 133.72 110.32 130.51L110.33 130.5Z" fill="#F78536"/>
</g>
<defs>
<clipPath id="clip0_39_376">
<rect width="289.03" height="162.25" fill="white"/>
</clipPath>
</defs>
</svg>
