<svg width="40" height="39" viewBox="0 0 40 39" fill="none" xmlns="http://www.w3.org/2000/svg">
<path d="M19.9998 0C9.3966 0 0.799805 8.5968 0.799805 19.2C0.799805 29.8032 9.3966 38.4 19.9998 38.4C30.603 38.4 39.1998 29.8032 39.1998 19.2C39.1998 8.5968 30.603 0 19.9998 0ZM12.7934 8.6448C14.1406 8.6448 15.0382 9.5424 15.0382 10.7392C15.0382 11.936 14.1406 12.8336 12.6446 12.8336C11.2974 12.8352 10.3998 11.936 10.3998 10.7392C10.3998 9.5424 11.2974 8.6448 12.7934 8.6448ZM15.1998 27.2H10.3998V14.4H15.1998V27.2ZM31.1998 27.2H26.6814V20.2048C26.6814 18.2704 25.4766 17.824 25.0254 17.824C24.5742 17.824 23.067 18.1216 23.067 20.2048C23.067 20.5024 23.067 27.2 23.067 27.2H18.3998V14.4H23.0686V16.1856C23.6702 15.144 24.875 14.4 27.1342 14.4C29.3934 14.4 31.1998 16.1856 31.1998 20.2048V27.2Z" fill="#525252"/>
</svg>
